<svg id="&#x421;&#x43B;&#x43E;&#x439;_1" xmlns="http://www.w3.org/2000/svg" viewBox="0 0 213 113.6">
    <style>
        .st0{fill:#ea0109}.st1{fill:#fff}
    </style>
    <g id="Document" transform="scale(1 -1)">
        <g id="Spread" transform="translate(0 -144)">
            <g id="MouseOff">
                <g id="Group">
                    <path class="st0" d="M0 134.8V39.6c0-5.1 4.1-9.2 9.2-9.2h194.6c5.1 0 9.2 4.1 9.2 9.2v95.2c0 5.1-4.1 9.2-9.2 9.2H9.2c-5.1 0-9.2-4.1-9.2-9.2z"/>
                    <g id="Group_1">
                        <g id="Group_2">
                            <g id="Group_3">
                                <path class="st1" d="M14.2 79.4h9.2V67.9H21v9.6h-4.5v-9.6h-2.3v11.5z"/>
                                <path class="st1" d="M24.7 76.2h7.4v-8.3h-2.2v6.6h-3v-3.7c0-1-.1-1.6-.3-2-.2-.4-.5-.6-.7-.8-.3-.1-.7-.2-1.3-.2-.4 0-.8.1-1.4.1v1.6h.9c.3 0 .5.1.6.3.1.2.1.7.1 1.6v4.8zM34.3 73.7l-2 .4c.2.8.6 1.4 1.2 1.8.6.4 1.4.6 2.5.6 1 0 1.7-.1 2.2-.3.5-.2.8-.5 1-.9.2-.4.3-1 .3-2v-2.6c0-.7 0-1.3.1-1.6.1-.4.2-.7.4-1.1h-2.2c-.1.2-.1.4-.2.7 0 .1-.1.2-.1.3-.4-.4-.8-.6-1.2-.8-.4-.2-.9-.3-1.4-.3-.9 0-1.5.2-2 .7-.5.5-.7 1.1-.7 1.8 0 .5.1.9.3 1.3.2.4.5.7.9.8.4.2 1 .4 1.8.5 1 .2 1.8.4 2.1.5v.2c0 .4-.1.7-.3.9-.2.2-.6.3-1.2.3-.4 0-.7-.1-.9-.2-.3-.4-.4-.6-.6-1zm3-1.8c-.3-.1-.7-.2-1.3-.3-.6-.1-1-.3-1.2-.4-.3-.2-.4-.5-.4-.8 0-.3.1-.6.3-.8.2-.2.5-.3.9-.3s.8.1 1.1.4c.3.2.4.4.5.7.1.2.1.5.1 1.1v.4z"/>
                                <path class="st1" d="M39 76.2h7.5v-1.8h-2.7v-6.6h-2.2v6.6H39v1.8z"/>
                                <path class="st1" d="M51.1 70.5l2.2-.4c-.3-.8-.7-1.4-1.3-1.8-.6-.4-1.4-.6-2.3-.6-1.5 0-2.5.5-3.2 1.4-.5.8-.8 1.7-.8 2.9 0 1.4.4 2.5 1.1 3.2.7.8 1.6 1.2 2.7 1.2 1.2 0 2.2-.4 2.9-1.2.7-.8 1.1-2.1 1-3.8h-5.5c0-.7.2-1.2.5-1.5.3-.4.8-.5 1.3-.5.3 0 .6.1.9.3.2.1.4.4.5.8zm.1 2.3c0 .6-.2 1.1-.5 1.5-.3.3-.7.5-1.1.5-.5 0-.9-.2-1.2-.5-.3-.4-.5-.8-.5-1.4h3.3zm-4.3 4.9v1.9h1.9v-1.9h-1.9zm3.4 0v1.9h1.9v-1.9h-1.9z"/>
                                <path class="st1" d="M57.1 67.9v3.6c-.3 0-.5-.1-.6-.2-.1-.1-.3-.4-.6-1l-1.1-2.4h-2.4l1.2 2.3c.6 1.2 1.2 1.8 1.9 2-.5.2-.9.7-1.1 1.4-.2.6-.4.9-.5 1-.2.1-.5.2-1.1.2v1.5h.9c.5 0 .9-.1 1.3-.3.3-.2.7-.7 1-1.6.2-.7.4-1.1.6-1.3.1-.2.3-.3.6-.3v3.4h2.2v-3.4c.3 0 .5.1.6.3.1.2.3.6.6 1.3.3.8.6 1.4 1 1.6.3.2.8.3 1.3.3h.9v-1.5c-.6 0-.9-.1-1.1-.2-.2-.1-.3-.5-.5-1-.3-.8-.6-1.2-1.1-1.4.6-.2 1.3-.8 1.9-2l1.2-2.3h-2.4l-1.1 2.4c-.2.4-.4.7-.5.9-.2.2-.4.3-.7.3v-3.6h-2.4z"/>
                                <path class="st1" d="M63.3 76.2h2.2v-3.1h3.2v3.1h2.2v-8.3h-2.2v3.5h-3.2v-3.5h-2.2v8.3zM73.2 73.7l-2 .4c.2.8.6 1.4 1.2 1.8.6.4 1.4.6 2.5.6 1 0 1.7-.1 2.2-.3.5-.2.8-.5 1-.9.2-.4.3-1 .3-2v-2.6c0-.7 0-1.3.1-1.6.1-.4.2-.7.4-1.1h-2.2c-.1.2-.1.4-.2.7 0 .1-.1.2-.1.3-.4-.4-.8-.6-1.2-.8-.4-.2-.9-.3-1.4-.3-.9 0-1.5.2-2 .7-.5.5-.8 1.1-.8 1.8 0 .5.1.9.3 1.3.2.4.5.7.9.8.4.2 1 .4 1.8.5 1 .2 1.7.4 2.1.5v.2c0 .4-.1.7-.3.9-.2.2-.6.3-1.2.3-.4 0-.7-.1-.9-.2-.2-.4-.4-.6-.5-1zm2.9-1.8c-.3-.1-.7-.2-1.3-.3-.6-.1-1-.3-1.2-.4-.3-.2-.4-.5-.4-.8 0-.3.1-.6.3-.8.2-.2.5-.3.9-.3s.8.1 1.1.4c.3.2.4.4.5.7 0 .2.1.5.1 1.1v.4z"/>
                                <path class="st1" d="M86 76.2v-8.3h-2.2v3.5h-.2c-.5 0-.8-.1-1-.2-.2-.1-.5-.4-.7-.8l-.1-.2-1.5-2.3h-2.6l1.6 2.4c.4.7.9 1.1 1.2 1.2-.6 0-1.1.3-1.5.7-.4.4-.6 1-.6 1.7 0 .5.1 1 .4 1.4.3.4.6.6 1 .8.4.1 1 .2 1.9.2H86zm-2.2-1.4h-1.6c-.6 0-1-.1-1.2-.2-.2-.2-.4-.4-.4-.8s.1-.7.4-.8c.3-.2.7-.3 1.3-.3h1.4v2.1z"/>
                            </g>
                        </g>
                        <path class="st1" d="M132 50.3c-2.5 2.4-3.8 5.4-3.8 9 0 2.4.6 4.6 1.7 6.4 1.2 1.9 2.8 3.3 4.8 4.3 2.1 1 5.1 1.9 9 2.6 5.3 1 8.9 1.9 11 2.8v1.1c0 2.2-.5 3.7-1.6 4.6-1.1.9-3.1 1.4-6.1 1.4-2 0-3.6-.4-4.7-1.2-1.1-.8-2-2.2-2.7-4.2L129.4 79c1.2 4.1 3.1 7.2 5.9 9.2 2.8 2 7 3 12.5 3 5 0 8.8-.6 11.2-1.8 2.5-1.2 4.2-2.7 5.2-4.5 1-1.8 1.5-5.2 1.5-10.1l-.1-13.2c0-5.1 2.9-4.5 4.1-3.5 1.6 1.4 2.4 3.5 2.9 5.9l-16.2 42.7h12l10.2-30.3 10 30.3h11.7l-15-41-2.7-7.4c-1-2.5-1.9-4.4-2.8-5.7-.9-1.3-1.9-2.4-3.1-3.2-1.2-.8-2.6-1.5-4.3-1.9-1.7-.5-3.6-.7-5.8-.7-4.5.1-8.4 1.4-11 5.5-1.9-1.9-4-3.3-6.2-4.2-2.2-.9-4.5-1.4-7-1.4-4.5 0-7.9 1.2-10.4 3.6zm19.5 6.3c1.4 1 2.3 2.3 2.7 3.7.3 1 .4 2.8.4 5.5V68c-1.5-.5-3.7-1.1-6.9-1.7-3.1-.7-5.2-1.3-6.1-2-1.5-1-2.2-2.4-2.2-4s.6-2.9 1.8-4.1c1.2-1.1 2.7-1.7 4.5-1.7 2 .1 4 .8 5.8 2.1zM91.9 68.8V109h12.5V68.8H91.9zm20.3 0v55.3c1.9.3 4.3.6 7 .8 2.8.2 6.1.3 9.9.3 3.9 0 7.2-.4 10-1.1 2.8-.7 5.1-1.9 6.9-3.3 1.8-1.4 3.2-3.2 4.3-5.4 1.1-2.2 1.6-4.7 1.6-7.4s-.5-5.2-1.3-7.4c-.9-2.2-2.1-4.1-3.8-5.7-2.2-2-4.8-3.5-7.8-4.4-3.1-.9-6.4-1.4-10.2-1.4-.8 0-1.6 0-2.3.1-.7 0-1.4.1-2 .2V68.8h-12.3zm24.5 32.2c1.9 1.6 2.9 3.8 2.9 6.6 0 2.6-.9 4.6-2.5 6-1.7 1.4-4.1 2.1-7.2 2.2-1.3 0-2.3-.1-3.2-.1-.9-.1-1.5-.2-2-.3V99c.5-.1 1.1-.2 1.8-.3.7 0 1.5-.1 2.4-.1 3.2 0 5.9.8 7.8 2.4zm-44.8 18.2c0 3.4 2.8 6.2 6.2 6.2 3.4 0 6.2-2.8 6.2-6.2 0-3.4-2.8-6.2-6.2-6.2-3.4-.1-6.2 2.7-6.2 6.2z"/>
                        <g id="Group_4">
                            <g id="Group_5">
                                <path class="st1" d="M78.5 56.9l-2.2-.4c-.1.4-.2.8-.5 1-.3.2-.6.3-1 .3-.6 0-1-.2-1.3-.6-.3-.4-.5-1-.5-1.9 0-1 .2-1.7.5-2.1.3-.4.8-.6 1.3-.6.4 0 .8.1 1 .4.3.2.5.6.6 1.2l2.2-.4c-.2-1-.7-1.7-1.3-2.3-.6-.5-1.5-.8-2.6-.8-1.2 0-2.2.4-2.9 1.2-.7.8-1.1 1.8-1.1 3.2 0 1.4.4 2.4 1.1 3.2.7.8 1.7 1.1 2.9 1.1 1 0 1.8-.2 2.4-.6.7-.3 1.1-1 1.4-1.9z"/>
                                <path class="st1" d="M78.5 59.4h2.1v-5.2l3.4 5.2h2.2v-8.3H84v5.3l-3.4-5.3h-2.1v8.3zM94.1 56.9l-2.2-.4c-.1.4-.2.8-.5 1-.3.2-.6.3-1 .3-.6 0-1-.2-1.3-.6-.3-.4-.5-1-.5-1.9 0-1 .2-1.7.5-2.1.3-.4.8-.6 1.3-.6.4 0 .8.1 1 .4.3.2.5.6.6 1.2l2.2-.4c-.2-1-.7-1.7-1.3-2.3-.6-.5-1.5-.8-2.6-.8-1.2 0-2.2.4-2.9 1.2-.7.8-1.1 1.8-1.1 3.2 0 1.4.4 2.4 1.1 3.2.7.8 1.7 1.1 3 1.1 1 0 1.8-.2 2.4-.6.6-.3 1-1 1.3-1.9z"/>
                                <path class="st1" d="M93.2 59.4h7.6v-1.8H98V51h-2.2v6.6h-2.7v1.8z"/>
                                <path class="st1" d="M105.2 53.7l2.2-.4c-.3-.8-.7-1.4-1.3-1.8-.6-.4-1.4-.6-2.3-.6-1.4 0-2.5.5-3.2 1.4-.6.8-.8 1.7-.8 2.9 0 1.4.4 2.5 1.1 3.3.7.8 1.6 1.2 2.7 1.2 1.2 0 2.2-.4 2.9-1.2.7-.8 1.1-2.1 1-3.8H102c0-.7.2-1.2.5-1.5.3-.4.8-.5 1.3-.5.4 0 .6.1.9.3.2 0 .4.3.5.7zm.2 2.2c0 .6-.2 1.1-.5 1.5-.3.3-.7.5-1.1.5-.5 0-.9-.2-1.2-.5-.3-.4-.5-.8-.5-1.4h3.3zM107.6 59.4h2.7l2.1-5.8 2.1 5.8h2.7v-8.3h-1.9v5.5l-2-5.5h-1.9l-1.9 5.5v-5.5h-1.9v8.3z"/>
                                <path class="st1" d="M119.3 56.9l-2 .4c.2.8.6 1.4 1.2 1.8.6.4 1.4.6 2.4.6s1.7-.1 2.2-.3c.5-.2.8-.5 1-.9.2-.4.3-1 .3-2v-2.6c0-.7 0-1.3.1-1.6.1-.3.2-.7.4-1.1h-2.2c-.1.1-.1.4-.2.7 0 .1-.1.2-.1.3-.4-.4-.8-.6-1.2-.8-.4-.2-.9-.3-1.4-.3-.9 0-1.5.2-2 .7-.5.5-.7 1.1-.7 1.8 0 .5.1.9.3 1.3.2.4.5.7.9.8.4.2 1 .4 1.8.5 1 .2 1.7.4 2.1.5v.2c0 .4-.1.7-.3.9-.2.2-.6.3-1.2.3-.4 0-.7-.1-.9-.2-.2-.4-.4-.7-.5-1zm2.9-1.8c-.3-.1-.7-.2-1.3-.3-.6-.1-1-.3-1.2-.4-.3-.2-.4-.5-.4-.8 0-.3.1-.6.3-.8.2-.2.5-.3.9-.3s.8.1 1.1.4c.3.2.5.4.5.7.1.2.1.5.1 1.1v.4z"/>
                            </g>
                        </g>
                    </g>
                </g>
            </g>
        </g>
    </g>
</svg>
