<svg id="&#x421;&#x43B;&#x43E;&#x439;_1" xmlns="http://www.w3.org/2000/svg" viewBox="0 0 212.2 141">
    <style>
        .st0{fill:#20421d}.st1{fill:#7f0000}.st2{fill:url(#SVGID_1_)}.st3{fill:url(#SVGID_2_)}.st4{fill:url(#SVGID_3_)}.st5{fill:#f6a31d}.st6{fill:#d43d26}.st7{fill:#cc2329}
    </style>
    <g id="Document" transform="scale(1 -1)">
        <g id="Spread" transform="translate(0 -144)">
            <g id="MouseOff">
                <g id="Group">
                    <path class="st0" d="M10.3 60.9l3.3 17.6h198.7L209 60.9H10.3z"/>
                    <path class="st0" d="M13 78.6L10.3 61H209l2.7 17.6H13z"/>
                    <path class="st1" d="M158 60.9H39.5c-2.2 6.4-3.4 13.2-3.4 20.3 0 34.6 28.1 62.8 62.8 62.8 34.6 0 62.8-28.1 62.8-62.8 0-7.1-1.2-13.9-3.4-20.3h-.3z"/>
                    <linearGradient id="SVGID_1_" gradientUnits="userSpaceOnUse" x1="-14.415" y1="-656.035" x2="-51.141" y2="-625.112" gradientTransform="translate(135.882 722.599)">
                        <stop offset="0" stop-color="#ff8200"/>
                        <stop offset="1" stop-color="#f6a31d"/>
                    </linearGradient>
                    <path class="st2" d="M152.9 60.9H44.8c-2 5.9-3.1 12.3-3.1 18.9 0 32.3 25.6 58.5 57.3 58.5 31.6 0 57.3-26.2 57.3-58.5 0-6.6-1.1-13-3.1-18.9h-.3z"/>
                    <path class="st1" d="M93.2 60.9H51c-1.8 5.3-2.8 11.1-2.9 17-.5 29.1 20.9 52.7 47.8 52.7 1.6 0 3.2-.1 4.8-.3l-7.5-69.4z"/>
                    <linearGradient id="SVGID_2_" gradientUnits="userSpaceOnUse" x1="-9.348" y1="-646.5" x2="-9.348" y2="-728.824" gradientTransform="translate(84.529 793.136)">
                        <stop offset="0" stop-color="#bf0000"/>
                        <stop offset="1" stop-color="#ff8200"/>
                    </linearGradient>
                    <path class="st3" d="M93.2 60.9H51c-1.7 5.3-2.6 10.9-2.6 16.8 0 28.6 21.8 51.9 48.6 51.9 1.6 0 3.2-.1 4.8-.3l-8.6-68.4z"/>
                    <linearGradient id="SVGID_3_" gradientUnits="userSpaceOnUse" x1="-6.386" y1="-658.199" x2="140.809" y2="-658.199" gradientTransform="translate(24.461 760.671)">
                        <stop offset="0" stop-color="#bf0000"/>
                        <stop offset=".25" stop-color="#ff8200"/>
                        <stop offset=".624" stop-color="#bf0000"/>
                        <stop offset=".875" stop-color="#ff8200"/>
                        <stop offset="1" stop-color="#bf0000"/>
                    </linearGradient>
                    <path class="st4" d="M158 60.9h-4.7c2.4 6.3 3.7 13.2 3.7 20.3 0 32-26 58-58 58s-58-26-58-58c0-7.1 1.3-14 3.7-20.3H39.6c-2.2 6.4-3.4 13.2-3.4 20.3 0 34.6 28.1 62.8 62.8 62.8 34.6 0 62.8-28.1 62.8-62.8 0-7.1-1.2-13.9-3.4-20.3h-.4z"/>
                    <path class="st0" d="M0 3l6.5 34.4c.2 1.3.5 2.6.7 4.2.2 1.5.5 3 .7 4.4l.6 4.2h10.3l-.3-4.4c5.9 6 16.4 7.6 20.4-2.7.5-1.6.7-3.3.7-5 0-3-.5-5.8-1.4-8.5-.9-2.7-2.3-5.1-4-7.2-1.7-2.1-3.8-3.8-6.3-5.1-2.5-1.3-5.2-1.9-8.2-1.9-1.4 0-2.7.2-3.9.4l-1.5.5L11.7 3H0zm22.3 22.9c1 .7 1.8 1.7 2.6 2.9.8 1.3 1.4 2.6 1.8 4.1.4 1.5.6 3 .7 4.5 0 .8-.1 1.5-.3 2.2-.2.6-.5 1.1-1 1.5-.4.3-.9.5-1.8.5s-1.8-.3-2.7-1c-.9-.7-1.8-1.8-2.5-3.2-.8-1.4-1.3-3.2-1.7-5.2l-1.1-6.3.2-.2c.3-.2.5-.3.8-.4.6-.2 1.3-.3 2.1-.3.9-.1 1.9.2 2.9.9zM46.1 17.2c-1.6 1-2.9 2.5-3.8 4.3-.9 1.8-1.4 3.9-1.4 6.2 0 2.2.3 4.5.9 6.7.6 2.2 1.6 4.3 2.8 6.3 1.3 2 2.9 3.7 4.8 5.3 2 1.5 4.2 2.7 6.9 3.6 2.6.9 5.6 1.3 8.9 1.3 1.3 0 2.7-.1 4-.2 1.3-.2 2.6-.3 3.8-.6 1.2-.2 2.3-.5 3.3-.8l1-.3-3.7-17.5c-.2-1-.4-2.1-.5-3.3-.2-1.2-.3-2.4-.4-3.7-.1-1.3-.2-2.5-.2-3.7-.1-1.2-.1-2.3 0-3.2v-1.1H61.3v1.1l.2 2.7-.4-.5c-.3-.3-.6-.6-1-.9-1.3-1.1-2.7-1.9-4.1-2.4-1.4-.5-2.8-.7-4.2-.7-2.1-.1-4 .4-5.7 1.4zm12.7 9c.8.6 1.7 1.7 2.5 3.3.8 1.5 1.5 3.6 1.9 6.2l1.3 6.4c-.4 0-.8.1-1.2.1-1.3 0-2.6-.4-3.7-1.1-1.2-.7-2.2-1.7-3.1-3-.9-1.3-1.6-2.6-2.1-4.1-.5-1.5-.7-2.9-.7-4.3 0-1.5.3-2.5.8-3.3.4-.6 1-1 2.1-1 .5-.1 1.3.2 2.2.8zM84.8 17.2c-2.1 1.1-3.8 2.8-5 4.9-1.2 2.2-1.8 4.7-1.8 7.7s.5 5.9 1.6 8.5c6.1 11.8 16 13.7 27.4 11.5l-2.9-9.4-1.1.5c-.4.2-1 .4-1.6.5-.6.1-1.3.2-2.2.2-1.5 0-2.8-.3-4-.9-1.2-.6-2.2-1.4-3-2.4-.8-1-1.5-2.2-1.9-3.4-.4-1.3-.7-2.6-.7-4 0-1.3.3-2.4.7-3.2.4-.8 1-1.4 1.7-1.8.8-.4 1.6-.6 2.6-.6 1.3 0 2.3.1 3.2.4 1 .2 1.8.5 2.5.9l1.5.6.1-9.6-.6-.3c-1.1-.6-2.5-1-4-1.3-1.6-.3-3.4-.5-5.3-.5-2.6 0-5 .5-7.2 1.7zM122.7 16.7l2.4 11.2-1.7-.5c-1.4-.3-2.9-.5-4.6-.5-2.4 0-4.5.4-6.2 1.1-1.7.8-3 1.8-3.8 3.3-.8 1.4-1.2 3-1.2 4.8 0 .8.1 1.6.2 2.5.1.9.3 1.8.5 2.7l1.8 8.9h11.8l-1.8-8.5-.3-1.8c-.1-.6-.2-1.2-.2-1.7s.1-.9.3-1.2c.2-.3.4-.6.9-.8.4-.2 1-.4 1.9-.4.8 0 1.6.1 2.5.4.4.1.8.3 1.1.5l.6.4 2.5 13.2h11.7l-6.7-33.5h-11.7zM148.9 17.2c-2.3 1.2-4 2.9-5.2 5.1-1.1 2.2-1.7 4.7-1.7 7.6 0 2 .3 4.1.9 6.1.6 2 1.4 3.9 2.5 5.6 1.1 1.8 2.5 3.3 4.1 4.7 1.6 1.4 3.5 2.5 5.6 3.2 2.1.8 4.4 1.2 6.8 1.2 2.3 0 4.4-.4 6.3-1.2 1.8-.8 3.3-2 4.4-3.6 1.1-1.6 1.6-3.5 1.6-5.7 0-2.9-1-5.4-2.9-7.2-1.9-1.8-4.5-3-7.7-3.7-2.4-.5-5.2-.8-8.3-.9h-1.9l.1-.3c.1-.2.2-.5.3-.7l.3-.6.9-.8c.3-.2.7-.5 1.2-.6.9-.4 2-.5 3.3-.5 1.7 0 3.2.2 4.6.5 1.4.3 2.8.8 4 1.4l1.4.7.9-9.1-.7-.3c-1.3-.7-2.7-1.2-4.2-1.5-1.4-.4-2.9-.6-4.3-.8-1.4-.2-2.7-.2-4-.2-3.2-.1-6 .5-8.3 1.6zm4.5 19.9h1.3c2.8.1 4.8.4 6.3.9 1.8.6 2.4 1.4 2.4 2.4 0 .6-.2 1-.6 1.4-.4.3-1.1.6-2.2.6-1.5 0-2.7-.4-3.7-1-1.1-.7-1.9-1.5-2.6-2.6-.4-.6-.7-1.1-.9-1.7zM178.8 16.7l4.7 25.1h-8.2l1.6 8.4h29.9l-1.6-8.4H195l-4.7-25.1h-11.5z"/>
                    <path class="st1" d="M62.6 81.9l-4.7 1.2c.1.7.2 1.4.4 2.1l4.7-1.5c-.2-.6-.3-1.2-.4-1.8zm2.9 7.7l-4.8 2.8c.4.9.9 1.7 1.4 2.6l4.8-3.2c-.5-.7-1-1.4-1.4-2.2zm4.9 6.1l-4.5 4.7c1 1.1 2 2.2 3.1 3.2l4.4-5.3c-1-.9-2.1-1.7-3-2.6zm7 5.1l-3.4 6.7c1.5 1 3.2 2 4.9 2.8l3.2-7.3c-1.7-.7-3.2-1.4-4.7-2.2zm9.5 3.7l-1.7 8.2c2.1.6 4.2 1.1 6.4 1.4l1.2-8.6c-2-.2-4-.5-5.9-1z"/>
                    <path class="st5" d="M62.6 82.4l-4.7 1.3c.1.7.2 1.5.4 2.2l4.7-1.6c-.2-.7-.3-1.3-.4-1.9zm2.9 8l-4.8 2.9c.4.9.9 1.8 1.4 2.7l4.8-3.4c-.5-.7-1-1.4-1.4-2.2zm4.9 6.4l-4.5 4.9c1 1.2 2 2.3 3.1 3.3l4.4-5.6c-1-.8-2.1-1.7-3-2.6zm7 5.3L74 109c1.5 1.1 3.2 2 4.9 2.9l3.2-7.6c-1.7-.6-3.2-1.4-4.7-2.2zm9.5 3.8l-1.7 8.5c2.1.6 4.2 1.1 6.4 1.5l1.2-8.9c-2-.2-4-.6-5.9-1.1z"/>
                    <path class="st1" d="M119.5 73.9c0 .7 0 1.4-.1 2.1l2.8 2.1c.1-.8.2-1.7.2-2.5l-3-1.9c.1.1.1.1.1.2zm-1.1 6.6l2.9 2.1c.2-.8.5-1.7.6-2.6l-2.8-2.2c-.1.9-.4 1.8-.7 2.7zm-2.2 4.6l3 2.7c.5-.9.9-1.8 1.2-2.7l-2.8-2.6c-.3.9-.8 1.7-1.4 2.6zm-3.7 4.3l2.9 3.9c.8-.9 1.6-1.9 2.3-3l-2.9-3.2c-.7.8-1.5 1.6-2.3 2.3zm-5.1 3.4l2.1 5.3c1.4-.8 2.6-1.7 3.8-2.7l-2.2-4.8c-1.1.8-2.4 1.6-3.7 2.2zm-6.3 1.8l1 5.9c1.6-.2 3.2-.6 4.8-1.3l-1.4-5.7c-1.5.6-2.9.9-4.4 1.1z"/>
                    <path class="st6" d="M119.5 73.5c0 .7 0 1.4-.1 2.1l2.9 2.1c.1-.8.2-1.6.2-2.4l-3-1.8c0-.1 0 0 0 0zm-1.1 6.5l2.9 2c.2-.8.5-1.7.6-2.5l-2.8-2.2c-.2 1-.4 1.9-.7 2.7zm-2.2 4.5l3 2.6c.5-.9.9-1.8 1.3-2.7l-2.8-2.6c-.5 1-1 1.9-1.5 2.7zm-3.8 4.2l2.9 3.8c.9-.9 1.6-1.9 2.4-3l-2.9-3.2c-.8.9-1.6 1.7-2.4 2.4zm-5.2 3.3l2.1 5.1c1.4-.8 2.7-1.7 3.9-2.7l-2.2-4.7c-1.2 1-2.5 1.7-3.8 2.3zm-6.4 1.8l1 5.8c1.7-.2 3.3-.6 4.8-1.2l-1.4-5.6c-1.4.5-2.9.9-4.4 1z"/>
                    <path class="st1" d="M139.6 78.9c0 1 0 2-.1 2.9l5.1 2.7v-2c0-.9 0-1.7-.1-2.6l-5-2.7h.1v1.7zm-1.7 11l5.4 3.6c.4-1.6.7-3.2.9-4.8l-5.2-3.6h.1c-.3 1.7-.7 3.2-1.2 4.8zm-4 8.5l5.7 5.4c.9-1.8 1.7-3.7 2.4-5.7l-5.4-4.7c-.8 1.8-1.7 3.5-2.7 5zm-7 8.3l5.6 7.6c1.7-1.9 3.3-4 4.7-6.1l-5.8-6.2c-1.4 1.7-2.9 3.3-4.5 4.7zm-9.6 6.4l4.5 10.2c2.7-1.6 5.2-3.5 7.5-5.6l-4.8-9c-2.2 1.7-4.6 3.1-7.2 4.4zm-12.3 3.7l2.3 12.2c3.2-.7 6.3-1.7 9.2-3l-3.1-11.4c-2.6 1-5.4 1.8-8.4 2.2z"/>
                    <path class="st7" d="M139.1 78.6c0 1 0 1.9-.1 2.9l5.1 2.6v-2c0-.9 0-1.7-.1-2.5l-5-2.7h.1v1.7zm-1.7 10.9l5.4 3.5c.4-1.5.7-3.1.9-4.7l-5.2-3.6c-.2 1.7-.6 3.2-1.1 4.8zm-4 8.4l5.7 5.3c.9-1.8 1.7-3.7 2.4-5.6l-5.4-4.6c-.8 1.7-1.7 3.3-2.7 4.9zm-7 8.2l5.6 7.5c1.7-1.9 3.3-3.9 4.7-6l-5.8-6.1c-1.4 1.6-2.9 3.1-4.5 4.6zm-9.6 6.3l4.5 10.1c2.7-1.6 5.2-3.5 7.5-5.6L124 108c-2.2 1.7-4.6 3.2-7.2 4.4zm-12.3 3.6l2.3 12.1c3.2-.7 6.3-1.7 9.2-3l-3.1-11.2c-2.6 1-5.4 1.7-8.4 2.1z"/>
                </g>
            </g>
        </g>
    </g>
</svg>
