<?xml version="1.0" encoding="UTF-8"?>
<svg width="38px" height="38px" viewBox="0 0 38 38" version="1.1" xmlns="http://www.w3.org/2000/svg" xmlns:xlink="http://www.w3.org/1999/xlink">
    <!-- Generator: sketchtool 50.2 (55047) - http://www.bohemiancoding.com/sketch -->
    <title>245D58B1-84EF-437F-8C90-1CBE2CD6027E</title>
    <desc>Created with sketchtool.</desc>
    <defs></defs>
    <g id="Symbols" stroke="none" stroke-width="1" fill="none" fill-rule="evenodd">
        <g id="icons/cashback_return" fill="#E2001A" fill-rule="nonzero">
            <path d="M2,19 C2,9.62909836 9.5942623,2 19,2 C28.4057377,2 36,9.5942623 36,19 C36,28.4057377 28.3709016,36 19,36 C9.62909836,36 2,28.4057377 2,19 Z M22.5881148,32.2377049 C29.8688525,30.2172131 34.1885246,22.692623 32.1680328,15.3770492 C30.147541,8.09631148 22.6229508,3.77663934 15.307377,5.79713115 C9.66393443,7.3647541 5.83196721,12.2418033 5.30942623,17.7459016 L5.27459016,18.1987705 L2.69672131,18.1639344 L6.38934426,27.1516393 L10.3606557,18.2684426 L7.85245902,18.2336066 L7.95696721,17.0840164 C8.68852459,12.9733607 11.7192623,9.45491803 16.0040984,8.2704918 C21.9262295,6.63319672 28.0922131,10.1168033 29.7295082,16.0737705 C31.3668033,22.0307377 27.8831967,28.1618852 21.9262295,29.7991803 C18.0245902,30.8790984 14.0184426,29.7295082 11.2663934,27.1168033 C10.7438525,26.6290984 9.94262295,26.6639344 9.45491803,27.1516393 C8.96721311,27.6741803 9.00204918,28.4754098 9.4897541,28.9631148 C12.8688525,32.1680328 17.7807377,33.5614754 22.5881148,32.2377049 Z M16.1086066,24.6434426 L16.1086066,13.4959016 L15.8647541,13.4959016 L11.2663934,15.1331967 L11.2663934,16.9446721 L13.9139344,16.1086066 L13.9139344,24.6434426 L16.1086066,24.6434426 Z M24.2254098,24.6434426 L24.2254098,22.2397541 L25.4795082,22.2397541 L25.4795082,20.4631148 L24.2254098,20.4631148 L24.2254098,13.5307377 L21.9959016,13.5307377 L17.3627049,20.8463115 L17.4672131,22.2397541 L22.0307377,22.2397541 L22.0307377,24.6434426 L24.2254098,24.6434426 Z M19.557377,20.4631148 L21.8565574,16.7704918 L21.9959016,16.5266393 L21.9959016,20.4631148 L19.557377,20.4631148 Z" id="Shape"></path>
        </g>
    </g>
</svg>