<?xml version="1.0" encoding="UTF-8"?>
<svg width="38px" height="38px" viewBox="0 0 38 38" version="1.1" xmlns="http://www.w3.org/2000/svg" xmlns:xlink="http://www.w3.org/1999/xlink">
    <!-- Generator: sketchtool 50.2 (55047) - http://www.bohemiancoding.com/sketch -->
    <title>9110A38B-DD10-4851-8987-2D266832F3F9</title>
    <desc>Created with sketchtool.</desc>
    <defs></defs>
    <g id="Symbols" stroke="none" stroke-width="1" fill="none" fill-rule="evenodd">
        <g id="icons/quality_control" fill="#E2001A" fill-rule="nonzero">
            <path d="M16.7112025,36.0698869 L14.2651593,35.5457348 L14.0554985,33.4141829 L14.0904419,33.1346351 C13.356629,32.8900308 12.6577595,32.5755396 11.9938335,32.2261048 L11.7841727,32.4357657 L10.0719424,33.6937307 L8.04522097,32.2261048 L8.70914697,30.1993834 L8.84892086,29.954779 C8.28982528,29.4306269 7.76567318,28.8365879 7.31140802,28.2425488 L7.03186023,28.3473792 L4.9352518,28.8016444 L3.67728674,26.635149 L5.10996917,25.0626927 L5.31963001,24.8879753 C5.04008222,24.1891059 4.7954779,23.4552929 4.62076053,22.72148 L4.34121274,22.72148 L2.24460432,22.2672148 L2,19.7512847 L3.95683453,18.8776978 L4.23638232,18.8078109 C4.2713258,18.0390545 4.34121274,17.270298 4.48098664,16.5714286 L4.23638232,16.4316547 L2.52415211,15.1736896 L3.29290853,12.7975334 L5.42446043,12.7975334 L5.70400822,12.8324769 C6.05344296,12.1336074 6.43782117,11.4696814 6.85714286,10.8406989 L6.64748201,10.5960946 L5.5991778,8.74409044 L7.27646454,6.89208633 L9.23329908,7.76567318 L9.47790339,7.94039054 C10.036999,7.45118191 10.6659815,6.99691675 11.294964,6.61253854 L11.1551901,6.36793422 L10.9455293,4.2713258 L13.2517986,3.25796506 L14.684481,4.83042138 L14.8242549,5.07502569 C15.5231244,4.86536485 16.2569373,4.69064748 17.0256937,4.62076053 L17.0606372,4.34121274 L17.7245632,2.31449126 L20.2404933,2.31449126 L20.9044193,4.34121274 L20.9393628,4.62076053 C21.7081192,4.72559096 22.4419322,4.86536485 23.1757451,5.07502569 L23.315519,4.83042138 L24.7482014,3.25796506 L27.0544707,4.2713258 L26.8448099,6.19321686 L23.6300103,9.3381295 C22.2322713,8.67420349 20.659815,8.32476876 19.0174717,8.32476876 C15.2435766,8.32476876 11.8890031,10.2466598 9.93216855,13.1819116 L18.0739979,18.6330935 L34.0431655,2 L35.336074,5.42446043 L18.5282631,27.2641316 L8.5344296,15.942446 C8.21993834,16.9907503 8.04522097,18.0739979 8.04522097,19.2271326 C8.04522097,25.2723535 12.9373073,30.1644399 18.9825283,30.1644399 C25.0277492,30.1644399 29.9198356,25.2723535 29.9198356,19.2271326 C29.9198356,18.6330935 29.8848921,18.004111 29.7800617,17.4450154 L33.0298047,12.8674203 L34.7420349,12.8674203 L35.5107914,15.2435766 L33.7636177,16.4665982 L33.5190134,16.5714286 C33.6587873,17.3052415 33.7286742,18.0739979 33.7636177,18.8427544 L34.0431655,18.9126413 L36,19.7862282 L35.7204522,22.2672148 L33.6238438,22.6865365 L33.344296,22.6865365 C33.1695786,23.4203494 32.9249743,24.1192189 32.6454265,24.7831449 L32.8550874,24.9578623 L34.2877698,26.5303186 L33.0298047,28.696814 L30.9331963,28.2425488 L30.688592,28.1377184 C30.1993834,28.7667009 29.7101747,29.3257965 29.1161357,29.8499486 L29.2559096,30.0945529 L29.9198356,32.1212744 L27.8931141,33.5889003 L26.1808839,32.3309353 L25.971223,32.2261048 C25.307297,32.5755396 24.6084275,32.8900308 23.8746146,33.1346351 L23.9095581,33.4141829 L23.6649538,35.5457348 L21.2189106,36.0698869 L20.1706064,34.2178828 L20.1007194,33.9732785 C19.7163412,34.008222 19.3669065,34.008222 18.9825283,34.008222 C18.5981501,34.008222 18.2487153,34.008222 17.8643371,33.9732785 L17.7595067,34.2528263 L16.7112025,36.0698869 Z" id="Shape"></path>
        </g>
    </g>
</svg>