<?xml version="1.0" encoding="UTF-8"?>
<svg width="38px" height="38px" viewBox="0 0 38 38" version="1.1" xmlns="http://www.w3.org/2000/svg" xmlns:xlink="http://www.w3.org/1999/xlink">
    <!-- Generator: sketchtool 50.2 (55047) - http://www.bohemiancoding.com/sketch -->
    <title>7F490F29-A900-49C5-B93B-8B6AC4A44229</title>
    <desc>Created with sketchtool.</desc>
    <defs></defs>
    <g id="Symbols" stroke="none" stroke-width="1" fill="none" fill-rule="evenodd">
        <g id="icons/partners" fill="#E2001A" fill-rule="nonzero">
            <path d="M19.1921891,36.1093051 L17.3052415,36.0394182 C17.0955807,36.0394182 16.9907503,35.8647008 17.0606372,35.6899834 L16.3268243,35.585153 C16.1521069,35.7598704 15.8376156,35.8297573 15.6279548,35.7948139 L13.8108941,35.3405487 C13.6012333,35.2706618 13.5313464,35.0959444 13.6711202,34.9561705 C13.4265159,34.8862835 13.2168551,34.7814531 12.9722508,34.7115662 C12.7625899,34.8513401 12.4480987,34.8513401 12.2384378,34.7465097 L10.5611511,33.9078663 C10.3514902,33.8030359 10.3165468,33.6283185 10.4912641,33.4885446 C10.2816033,33.3487707 10.0719424,33.2439403 9.8622816,33.1041664 C9.68756423,33.1391099 9.3381295,33.1041664 9.16341213,32.929449 L7.69578623,31.7763144 C7.52106886,31.6365405 7.52106886,31.4268796 7.7307297,31.3569927 C7.55601233,31.1822753 7.38129496,31.0425014 7.2065776,30.8677841 C6.96197328,30.9027275 6.64748201,30.7978971 6.50770812,30.6231797 L5.31963001,29.1904973 C5.14491264,28.945893 5.21479959,28.7711756 5.45940391,28.7012887 C5.31963001,28.4916278 5.17985612,28.3169105 5.07502569,28.1072496 L5.04008222,28.1072496 C4.7954779,28.1072496 4.51593011,27.9325323 4.41109969,27.7228714 L3.53751285,26.0455847 C3.43268243,25.8359238 3.53751285,25.6612065 3.78211716,25.6612065 C3.67728674,25.4515456 3.60739979,25.2069413 3.50256937,24.9972805 L3.4676259,24.9972805 C3.22302158,24.9273935 2.97841727,24.7177327 2.90853032,24.4731284 L2.41932169,22.6560677 C2.34943474,22.4114634 2.48920863,22.2716895 2.73381295,22.3415765 L2.76875642,22.3415765 C2.73381295,22.0969721 2.69886948,21.8873113 2.663926,21.642707 L2.59403905,21.6077635 C2.38437821,21.5029331 2.17471737,21.2233853 2.17471737,20.978781 L2,19.1267769 C2,18.8821725 2.1397739,18.7773421 2.38437821,18.8821725 L2.41932169,18.917116 C2.41932169,18.6725117 2.41932169,18.4628509 2.45426516,18.2182465 L2.38437821,18.1483596 C2.17471737,18.0085857 2.06988695,17.6940944 2.10483042,17.4494901 L2.34943474,15.597486 C2.38437821,15.3528817 2.55909558,15.2829947 2.76875642,15.4227686 L2.83864337,15.4577121 C2.87358684,15.2480513 2.94347379,15.003447 3.01336074,14.7937861 L2.94347379,14.6889557 C2.76875642,14.5142383 2.73381295,14.1648036 2.8036999,13.9551427 L3.4676259,12.2079691 C3.53751285,11.9983082 3.74717369,11.9284213 3.92189106,12.1380821 L3.99177801,12.2079691 L4.30626927,11.5789865 L4.23638232,11.4392126 C4.1315519,11.2295518 4.1315519,10.8801171 4.2713258,10.6704562 L5.28468654,9.09799989 C5.42446043,8.88833905 5.5991778,8.88833905 5.7389517,9.09799989 L5.80883864,9.20283031 L6.22816033,8.6786782 L6.19321686,8.50396083 C6.12332991,8.25935652 6.19321686,7.94486525 6.36793422,7.77014788 L7.69578623,6.44229588 C7.8705036,6.26757851 8.04522097,6.30252198 8.11510791,6.5471263 L8.15005139,6.6869002 C8.32476876,6.5471263 8.49948613,6.40735241 8.67420349,6.23263504 L8.67420349,6.02297419 C8.63926002,5.77836988 8.81397739,5.46387861 8.98869476,5.35904819 L10.5611511,4.31074398 C10.7708119,4.17097008 10.9455293,4.2758005 10.9804728,4.52040482 L10.9804728,4.66017872 C11.1901336,4.5553483 11.364851,4.45051787 11.5745118,4.34568745 L11.6094553,4.13602661 C11.6443988,3.89142229 11.8540596,3.6118745 12.0637205,3.54198756 L13.8108941,2.84311808 C14.020555,2.73828766 14.1952724,2.87806155 14.1603289,3.12266587 L14.1253854,3.26243976 C14.3350462,3.19255282 14.5447071,3.12266587 14.7893114,3.0877224 L14.8591984,2.87806155 C14.9290853,2.63345724 15.2086331,2.42379639 15.4532374,2.38885292 L17.3052415,2.07436166 C17.5498458,2.03941818 17.6896197,2.17919208 17.5847893,2.42379639 L17.5149024,2.56357029 C17.7245632,2.52862682 17.9691675,2.52862682 18.1788284,2.52862682 L18.2836588,2.35390945 C18.4234327,2.1442486 18.7029805,1.96953123 18.9475848,2.00447471 L20.8345324,2.07436166 C21.0791367,2.07436166 21.1839671,2.24907902 21.0441932,2.45873987 L20.8694758,2.66840071 C21.0791367,2.70334418 21.323741,2.73828766 21.5334018,2.77323113 L21.6731757,2.63345724 C21.8478931,2.45873987 22.1623844,2.35390945 22.4069887,2.42379639 L24.2240493,2.87806155 C24.4686536,2.9479485 24.5035971,3.12266587 24.3638232,3.29738324 L24.2589928,3.43715713 L24.8879753,3.64681798 L25.0626927,3.50704408 C25.2723535,3.36727019 25.5868448,3.33232671 25.8314491,3.43715713 L27.5087359,4.2758005 C27.7183967,4.38063093 27.7533402,4.59029177 27.5436793,4.73006566 L27.4039054,4.79995261 C27.6135663,4.90478303 27.7882837,5.04455693 27.9979445,5.14938735 L28.1726619,5.0795004 C28.3823227,4.97466998 28.7317575,5.04455693 28.9064748,5.18433082 L30.3741007,6.33746546 C30.5488181,6.47723935 30.5488181,6.6869002 30.3042138,6.79173062 L30.1644399,6.86161757 C30.3391572,7.00139146 30.5138746,7.17610883 30.6536485,7.31588272 L30.8283659,7.28093925 C31.0729702,7.24599578 31.3874615,7.3508262 31.5272354,7.52554357 L32.7153135,8.95822599 C32.8550874,9.13294336 32.7852004,9.3426042 32.5755396,9.37754768 L32.4357657,9.41249115 C32.5755396,9.58720852 32.7153135,9.79686936 32.8201439,9.97158673 L32.9948613,9.97158673 C33.2394656,9.97158673 33.5190134,10.1463041 33.6238438,10.3559649 L34.4974306,12.0332517 C34.602261,12.2429125 34.4974306,12.4176299 34.2528263,12.4176299 L34.1479959,12.4176299 C34.2528263,12.6272907 34.3227133,12.8369516 34.4275437,13.0466124 L34.5673176,13.0815559 C34.8119219,13.1514428 35.0565262,13.3611037 35.1264132,13.605708 L35.6156218,15.4227686 C35.6855087,15.667373 35.5457348,15.8071469 35.3011305,15.7372599 L35.2312436,15.7023164 C35.2661871,15.9119773 35.336074,16.1565816 35.3710175,16.4011859 L35.4758479,16.4361294 C35.6855087,16.5409598 35.8951696,16.8205076 35.8951696,17.0651119 L36,18.9520595 C36,19.1966638 35.8602261,19.3014942 35.6156218,19.1966638 L35.5457348,19.1617203 L35.5457348,19.8605898 L35.6156218,19.9304768 C35.8252826,20.0702507 35.9301131,20.3847419 35.8951696,20.6293462 L35.6156218,22.4813504 C35.5806783,22.7259547 35.4059609,22.7958416 35.1963001,22.6560677 L35.1613566,22.6211242 C35.1264132,22.8657286 35.0565262,23.0753894 34.9866393,23.3199937 L35.0215827,23.3898807 C35.1963001,23.564598 35.2312436,23.9140328 35.1613566,24.1236936 L34.4974306,25.8708673 C34.4275437,26.0805282 34.2178828,26.1504151 34.0431655,25.9407543 L33.7286742,26.5697368 L33.7636177,26.6046803 C33.8684481,26.8143411 33.8684481,27.1637758 33.7286742,27.3734367 L32.7153135,28.945893 C32.5755396,29.1555538 32.4008222,29.1555538 32.2610483,28.945893 C32.1212744,29.1555538 31.9815005,29.3302712 31.8067831,29.5049886 L31.8067831,29.5399321 C31.8766701,29.7845364 31.8067831,30.0990276 31.6320658,30.273745 L30.3042138,31.601597 C30.1294964,31.7763144 29.954779,31.7413709 29.8848921,31.4967666 C29.7101747,31.671484 29.5354573,31.8112579 29.3257965,31.9510317 C29.36074,32.1956361 29.1860226,32.5101273 29.0113052,32.6149578 L27.4388489,33.663262 C27.2291881,33.8030359 27.0544707,33.7331489 27.0544707,33.4885446 C26.8448099,33.593375 26.635149,33.7331489 26.4254882,33.8379793 C26.3905447,34.0825836 26.1808839,34.3621314 25.971223,34.4320184 L24.2240493,35.1308879 C24.0143885,35.2007748 23.8746146,35.0959444 23.8746146,34.8862835 C23.6300103,34.9561705 23.4203494,35.0260574 23.1757451,35.0959444 C23.1058582,35.3405487 22.8263104,35.5502095 22.5817061,35.585153 L20.8694758,36.0044747 C20.659815,36.0394182 20.5200411,35.8996443 20.5549846,35.7249269 C20.3453237,35.7249269 20.1007194,35.7598704 19.8561151,35.7598704 C19.7512847,35.9695312 19.4367934,36.1093051 19.1921891,36.1093051 Z M31.8766701,19.1617203 C31.8766701,12.0681952 26.1109969,6.30252198 19.0174717,6.30252198 C11.9239466,6.30252198 6.19321686,12.0681952 6.19321686,19.1617203 C6.19321686,26.2552455 11.95889,32.0209187 19.0524152,32.0209187 C26.1459404,32.0209187 31.8766701,26.2552455 31.8766701,19.1617203 Z M6.75231244,19.1617203 C6.75231244,12.3826864 12.2384378,6.89656104 19.0174717,6.89656104 C25.7965057,6.89656104 31.282631,12.3826864 31.282631,19.1617203 C31.282631,25.9407543 25.7965057,31.4268796 19.0174717,31.4268796 C12.2384378,31.4618231 6.75231244,25.9407543 6.75231244,19.1617203 Z M30.618705,19.7557594 L28.2076053,20.2799115 C27.5436793,18.3580204 26.635149,16.6108468 25.2374101,15.0383904 L28.3823227,12.3127995 C26.2507708,9.44743463 22.8612539,7.56048704 19.0174717,7.56048704 C14.4049332,7.56048704 10.4213772,10.2511345 8.5344296,14.1648036 L12.2733813,15.9469208 C11.4696814,17.589264 10.9455293,19.5111551 10.7708119,21.8523678 L7.62589928,21.3631592 C8.63926002,26.7095107 13.356629,30.7629536 19.0174717,30.7629536 C25.2374101,30.7978971 30.3391572,25.9058108 30.618705,19.7557594 Z M15.9075026,26.3600759 C15.8376156,26.1853586 15.8026721,25.5913195 16.5015416,25.556376 C16.7810894,25.556376 17.0955807,25.8009804 17.1305242,26.0805282 L17.8643371,26.6745672 C16.8859198,27.3035497 16.0822199,26.7444542 15.9075026,26.3600759 Z M18.4234327,26.7793976 L17.3052415,25.9058108 C17.2353546,25.4515456 16.9558068,25.1370544 16.3268243,25.2069413 C16.676259,24.0887501 16.3617677,23.4597676 14.8941418,23.7043719 C14.684481,22.7608981 14.0904419,22.6560677 13.1469681,23.2501068 L11.3299075,21.9222548 C11.3997945,19.8256463 11.8540596,17.9736422 12.622816,16.2264685 C13.1469681,16.4361294 13.6711202,16.5409598 14.2302158,16.4710729 L13.0071942,17.7290379 C13.0770812,18.7074552 13.7759507,18.987003 15.1038027,18.323077 C16.1870504,17.7989249 17.8643371,16.8554511 18.6330935,17.3796032 L23.8047276,20.8390071 C24.7482014,21.5378766 25.4820144,22.5861808 24.9928058,23.3549372 C24.6783145,23.8441458 23.979445,23.7393154 23.2106886,23.2850502 L21.2887975,21.8873113 C21.1490236,21.7475374 20.9743063,21.7475374 21.1140802,21.9222548 L22.72148,23.4597676 C23.1408016,24.0538067 23.1408016,24.5430153 22.7564234,24.9972805 C22.4768756,25.3117717 21.9177801,25.3467152 21.4984584,25.2768283 L19.8211716,23.8092024 C19.5765673,23.6694285 19.5416238,23.8790893 19.7163412,24.0538067 L21.2538541,25.4515456 C21.323741,25.7660369 21.2538541,26.1504151 21.0092497,26.3251325 C20.7995889,26.4649064 20.4850976,26.3950194 20.2055498,26.2552455 L18.1438849,24.9273935 C18.0390545,24.8575066 17.9691675,24.9273935 18.1438849,25.0671674 L19.7163412,26.3950194 C19.5416238,26.7444542 19.1223022,26.9191715 18.4234327,26.7793976 Z M14.9989723,24.0538067 C15.4182939,23.7393154 16.5714286,24.0538067 15.7677287,25.4515456 C14.9989723,26.884228 13.7410072,25.0671674 14.9989723,24.0538067 Z M13.4964029,23.3549372 C13.9157246,23.0404459 15.0688592,23.3549372 14.2651593,24.7526761 C13.4614594,26.1504151 12.2034943,24.3333545 13.4964029,23.3549372 Z M11.7142857,22.6211242 L12.9023638,23.564598 C12.7975334,24.2634675 11.0853032,24.4381849 11.7142857,22.6211242 Z M24.0842754,20.5594593 L18.8427544,17.0301684 C18.4933196,16.8554511 18.1438849,16.7506206 17.7245632,16.8205076 L16.3967112,17.2398293 C14.614594,18.6725117 13.356629,18.5327378 13.4265159,17.659151 L15.3833505,15.9119773 C15.5930113,15.7023164 15.8376156,15.597486 16.0822199,15.4926556 L18.1788284,14.7588426 C18.7029805,14.6190687 19.1921891,14.6190687 19.7163412,14.6889557 L23.5251799,15.3878252 C24.1891059,15.5275991 24.643371,15.4577121 24.9578623,15.2131078 C26.2857143,16.5759033 27.1593011,18.2881335 27.7882837,20.2799115 L26.9496403,20.7691201 L25.5169579,22.1319156 C25.2024666,21.4679896 24.713258,20.978781 24.0842754,20.5594593 Z" id="Shape"></path>
        </g>
    </g>
</svg>