<?xml version="1.0" encoding="UTF-8"?>
<svg width="38px" height="38px" viewBox="0 0 38 38" version="1.1" xmlns="http://www.w3.org/2000/svg" xmlns:xlink="http://www.w3.org/1999/xlink">
    <!-- Generator: sketchtool 50.2 (55047) - http://www.bohemiancoding.com/sketch -->
    <title>9E123BFE-4771-4928-9D18-4800734E2562</title>
    <desc>Created with sketchtool.</desc>
    <defs></defs>
    <g id="Symbols" stroke="none" stroke-width="1" fill="none" fill-rule="evenodd">
        <g id="icons/consult_phone" fill="#E2001A" fill-rule="nonzero">
            <path d="M2,18.9306122 C2,9.59795918 9.56326531,2 18.9306122,2 C28.2632653,2 35.8612245,9.56326531 35.8612245,18.9306122 C35.8612245,21.5673469 35.2714286,24.0306122 34.1612245,26.3204082 L32.7387755,25.2795918 C33.6408163,23.3367347 34.1265306,21.2204082 34.1265306,18.9653061 C34.1265306,10.6040816 27.3265306,3.80408163 18.9653061,3.80408163 C10.6040816,3.80408163 3.76938776,10.5693878 3.76938776,18.9306122 C3.76938776,27.2918367 10.5346939,34.0918367 18.9306122,34.0918367 C23.1632653,34.0918367 26.9795918,32.3571429 29.755102,29.5469388 L27.8469388,27.9857143 C27.6040816,28.1591837 27.3612245,28.2979592 27.0836735,28.4367347 C26.077551,28.922449 25.1408163,29.1653061 24.3081633,29.1653061 C23.2673469,29.1653061 21.5326531,28.6102041 19.1040816,27.4653061 C17.3346939,26.6326531 15.7734694,25.5571429 14.455102,24.2387755 C13.0673469,22.9204082 11.7142857,21.2204082 10.3265306,19.1734694 C9.00816327,17.2306122 8.34897959,15.4612245 8.38367347,13.8653061 L8.38367347,13.6571429 C8.45306122,11.9918367 9.1122449,10.5693878 10.3959184,9.32040816 C10.8469388,8.90408163 11.2979592,8.73061224 11.8183673,8.73061224 C11.922449,8.73061224 12.0959184,8.73061224 12.3040816,8.76530612 C12.5122449,8.8 12.6857143,8.8 12.8244898,8.8 C13.1714286,8.8 13.4142857,8.86938776 13.5530612,8.97346939 C13.6918367,9.07755102 13.8306122,9.35510204 13.9693878,9.73673469 C14.1081633,10.0836735 14.4204082,10.9163265 14.8714286,12.1306122 C15.322449,13.3795918 15.5653061,14.0734694 15.5653061,14.177551 C15.5653061,14.5591837 15.2530612,15.0795918 14.6285714,15.7387755 C14.0040816,16.3979592 13.6918367,16.8142857 13.6918367,17.022449 C13.6918367,17.1612245 13.7265306,17.3 13.8306122,17.4387755 C14.455102,18.7571429 15.3918367,20.0061224 16.6061224,21.1857143 C17.6469388,22.1571429 19,23.0591837 20.7346939,23.9612245 C20.9428571,24.1 21.1510204,24.1693878 21.3244898,24.1693878 C21.6020408,24.1693878 22.0877551,23.7183673 22.8163265,22.8510204 C23.5102041,21.9836735 23.9959184,21.5326531 24.2387755,21.5326531 C24.4816327,21.5326531 25.3836735,21.9489796 26.9102041,22.7469388 C28.4367347,23.544898 29.2693878,24.0306122 29.3734694,24.2040816 C29.4081633,24.3081633 29.4428571,24.4469388 29.4428571,24.6204082 C29.4428571,25.1755102 29.3040816,25.8346939 29.0265306,26.5632653 L30.9693878,28.1591837 L32.1142857,29.0959184 C32.2183673,29.2346939 32.2183673,29.3734694 32.1489796,29.477551 C29.0612245,33.3632653 24.2734694,35.8612245 18.9306122,35.8612245 C9.56326531,35.8612245 2,28.2979592 2,18.9306122 Z" id="Shape"></path>
        </g>
    </g>
</svg>