<?xml version="1.0" encoding="UTF-8"?>
<svg width="20px" height="16px" viewBox="0 0 20 16" version="1.1" xmlns="http://www.w3.org/2000/svg" xmlns:xlink="http://www.w3.org/1999/xlink">
    <!-- Generator: sketchtool 50.2 (55047) - http://www.bohemiancoding.com/sketch -->
    <title>CDC902D7-F123-4EF1-AF3A-394B81A8A547</title>
    <desc>Created with sketchtool.</desc>
    <defs></defs>
    <g id="pro_team_960px" stroke="none" stroke-width="1" fill="none" fill-rule="evenodd">
        <g id="960_pro_team" transform="translate(-170.000000, -1683.000000)" fill="#808080" fill-rule="nonzero">
            <g id="Group-3" transform="translate(170.000000, 1683.000000)">
                <g id="icons/email_gray">
                    <path d="M0,13.3659055 L0,4.12108338 L0,4.13807754 L0,2.63409453 C0,1.181094 1.17497887,0 2.62045647,0 L17.3795435,0 C18.8250211,0 20,1.181094 20,2.63409453 L20,4.13807754 L20,4.12108338 L20,13.3659055 C20,14.818906 18.8250211,16 17.3795435,16 L2.62045647,16 C1.17497887,16 0,14.818906 0,13.3659055 Z M18.5207101,13.3659055 L18.5207101,5.25969198 L10.2789518,8.69251195 C10.101437,8.76898566 9.89010989,8.76898566 9.7125951,8.69251195 L1.47928994,5.25969198 L1.47928994,13.3659055 C1.47928994,14.0031864 1.99492815,14.5130112 2.62045647,14.5130112 L17.3795435,14.5130112 C18.0050719,14.5130112 18.5207101,14.0031864 18.5207101,13.3659055 Z M10,7.2055231 L18.5207101,3.65374403 L18.5207101,2.65108869 C18.5207101,2.01380775 18.0050719,1.50398301 17.3795435,1.50398301 L2.62045647,1.50398301 C1.98647506,1.50398301 1.47928994,2.02230483 1.47928994,2.65108869 L1.47928994,3.65374403 L10,7.2055231 Z" id="email"></path>
                </g>
            </g>
        </g>
    </g>
</svg>