<?xml version="1.0" encoding="UTF-8"?>
<svg width="38px" height="38px" viewBox="0 0 38 38" version="1.1" xmlns="http://www.w3.org/2000/svg" xmlns:xlink="http://www.w3.org/1999/xlink">
    <!-- Generator: sketchtool 50.2 (55047) - http://www.bohemiancoding.com/sketch -->
    <title>CE2D5652-907C-45F7-B3F2-983212E6FB10</title>
    <desc>Created with sketchtool.</desc>
    <defs></defs>
    <g id="Symbols" stroke="none" stroke-width="1" fill="none" fill-rule="evenodd">
        <g id="icons/quest_promo" fill="#E2001A" fill-rule="nonzero">
            <path d="M18.3036145,36.0546185 L16.6650602,33.2690763 L14.2345382,35.3991968 L13.3333333,32.2859438 L10.4658635,33.7879518 L10.3293173,30.5654618 L7.18875502,31.3028112 L7.81686747,28.1349398 L4.59437751,28.1349398 L5.95983936,25.2128514 L2.81927711,24.4208835 L4.86746988,21.9084337 L2,20.3791165 L4.56706827,18.4128514 L2.16385542,16.2554217 L5.14056225,14.9718876 L3.31084337,12.2955823 L6.5060241,11.7767068 L5.35903614,8.74538153 L8.5815261,9.0184739 L8.19919679,5.79598394 L11.2851406,6.83373494 L11.6947791,3.61124498 L14.4257028,5.33172691 L15.5726908,2.30040161 L17.8393574,4.64899598 L19.6963855,2 L21.3349398,4.78554217 L23.7654618,2.65542169 L24.6666667,5.7686747 L27.5341365,4.26666667 L27.6706827,7.48915663 L30.811245,6.72449799 L30.1831325,9.89236948 L33.4056225,9.89236948 L32.0401606,12.8417671 L35.1807229,13.6337349 L33.1325301,16.1461847 L36,17.6481928 L33.4329317,19.6144578 L35.8361446,21.7718876 L32.8594378,23.0281124 L34.6891566,25.7044177 L31.4939759,26.2232932 L32.6409639,29.2546185 L29.4184739,29.0088353 L29.8008032,32.2313253 L26.7421687,31.2208835 L26.3052209,34.4160643 L23.5742972,32.6955823 L22.4,35.7269076 L20.1606426,33.4056225 L18.3036145,36.0546185 Z M30.8658635,19.0136546 C30.8658635,12.4594378 25.5405622,7.16144578 19.0136546,7.16144578 C12.4594378,7.16144578 7.16144578,12.486747 7.16144578,19.0136546 C7.16144578,25.5678715 12.486747,30.8658635 19.0136546,30.8658635 C25.5405622,30.8931727 30.8658635,25.5678715 30.8658635,19.0136546 Z M8.0626506,19.0136546 C8.0626506,12.9783133 12.951004,8.08995984 18.9863454,8.08995984 C25.0216867,8.08995984 29.9100402,12.9783133 29.9100402,19.0136546 C29.9100402,25.048996 25.0216867,29.9373494 18.9863454,29.9373494 C12.951004,29.9373494 8.0626506,25.048996 8.0626506,19.0136546 Z M20.7341365,27.3702811 C20.8433735,27.2610442 20.8706827,27.1518072 20.8706827,26.9879518 L20.8706827,23.7927711 C20.8706827,23.6289157 20.8160643,23.5196787 20.7341365,23.4104418 C20.6248996,23.3012048 20.5156627,23.2738956 20.3518072,23.2738956 L17.1839357,23.2738956 C17.0200803,23.2738956 16.9108434,23.3285141 16.8016064,23.4104418 C16.6923695,23.5196787 16.6650602,23.6289157 16.6650602,23.7927711 L16.6650602,26.9879518 C16.6650602,27.1518072 16.7196787,27.2610442 16.8016064,27.3702811 C16.9108434,27.4795181 17.0200803,27.5068273 17.1839357,27.5068273 L20.3791165,27.5068273 C20.5156627,27.5341365 20.6522088,27.4795181 20.7341365,27.3702811 Z M20.7341365,22.0722892 C20.8433735,21.9630522 20.8706827,21.8538153 20.8706827,21.6899598 C20.8706827,21.4714859 20.9799197,21.1983936 21.2257028,20.8706827 C21.4714859,20.5429719 21.7718876,20.2698795 22.1269076,20.0514056 C22.4819277,19.860241 22.7550201,19.6963855 22.9461847,19.5871486 C23.1373494,19.4779116 23.3831325,19.286747 23.7108434,19.0136546 C24.0385542,18.7405622 24.2843373,18.4674699 24.4481928,18.2216867 C24.6120482,17.9485944 24.7759036,17.6208835 24.9124498,17.211245 C25.048996,16.8016064 25.1309237,16.3646586 25.1309237,15.8730924 C25.1309237,14.8899598 24.8305221,13.988755 24.2024096,13.1694779 C23.5742972,12.3502008 22.8096386,11.6947791 21.9084337,11.2305221 C20.9799197,10.7662651 20.0514056,10.5477912 19.0955823,10.5477912 C16.3919679,10.5477912 14.3437751,11.7220884 12.9236948,14.097992 C12.7598394,14.3710843 12.8144578,14.5895582 13.060241,14.8080321 L15.2449799,16.4738956 C15.3269076,16.5285141 15.4361446,16.5831325 15.5726908,16.5831325 C15.7365462,16.5831325 15.9004016,16.5285141 15.9823293,16.3919679 C16.5558233,15.6273092 17.0473896,15.135743 17.4024096,14.8626506 C17.784739,14.5895582 18.248996,14.453012 18.82249,14.453012 C19.3686747,14.453012 19.8329317,14.5895582 20.2425703,14.8899598 C20.6522088,15.1903614 20.8706827,15.5180723 20.8706827,15.8730924 C20.8706827,16.2827309 20.7614458,16.637751 20.5429719,16.8835341 C20.324498,17.1293173 19.9421687,17.3751004 19.4232932,17.6208835 C18.713253,17.9212851 18.0851406,18.4128514 17.5116466,19.0682731 C16.9381526,19.7236948 16.637751,20.4064257 16.637751,21.1437751 L16.637751,21.7445783 C16.637751,21.9084337 16.6923695,22.0176707 16.7742972,22.1269076 C16.8835341,22.2361446 16.9927711,22.2634538 17.1566265,22.2634538 L20.3518072,22.2634538 C20.5156627,22.2088353 20.6522088,22.1542169 20.7341365,22.0722892 Z" id="Shape"></path>
        </g>
    </g>
</svg>