<?xml version="1.0" encoding="UTF-8"?>
<svg width="32px" height="32px" viewBox="0 0 32 32" version="1.1" xmlns="http://www.w3.org/2000/svg" xmlns:xlink="http://www.w3.org/1999/xlink">
    <!-- Generator: sketchtool 50.2 (55047) - http://www.bohemiancoding.com/sketch -->
    <title>906F02E6-82D5-4993-B479-416A72A2ED04</title>
    <desc>Created with sketchtool.</desc>
    <defs></defs>
    <g id="Symbols" stroke="none" stroke-width="1" fill="none" fill-rule="evenodd">
        <g id="logo/mts_logo_red_quad" fill-rule="nonzero">
            <g id="mts_logo_red_quad">
                <path d="M32,3.17881379 C32,1.41329655 30.5777778,0.000882758621 28.8,0.000882758621 L3.2,0.000882758621 C1.42222222,0.000882758621 0,1.43536552 0,3.17881379 L0,28.6022621 C0,30.3457103 1.42222222,31.7801931 3.2,31.7801931 L28.8,31.7801931 C30.5555556,31.7801931 32,30.3677793 32,28.6022621 L32,3.17881379 Z" id="Shape" fill="#ED1D24" transform="translate(16.000000, 15.890538) scale(-1, 1) rotate(-180.000000) translate(-16.000000, -15.890538) "></path>
                <path d="M16,4.12777931 C10.0222222,4.12777931 7.33333333,8.8726069 7.33333333,13.5512276 C7.33333333,20.1498483 11.9555556,27.6753655 15.9777778,27.6753655 C20.0222222,27.6753655 24.6444444,20.1498483 24.6444444,13.5512276 C24.6666667,8.8726069 21.9777778,4.12777931 16,4.12777931 Z" id="Shape" fill="#FFFFFF" transform="translate(15.988957, 15.901572) scale(-1, 1) rotate(-180.000000) translate(-15.988957, -15.901572) "></path>
            </g>
        </g>
    </g>
</svg>