<?xml version="1.0" encoding="utf-8"?>
<!-- Generator: Adobe Illustrator 22.1.0, SVG Export Plug-In . SVG Version: 6.00 Build 0)  -->
<svg version="1.1" id="Layer_1" xmlns="http://www.w3.org/2000/svg" xmlns:xlink="http://www.w3.org/1999/xlink" x="0px" y="0px"
	 viewBox="0 0 1025.3 118.2" style="enable-background:new 0 0 1025.3 118.2;" xml:space="preserve">
<style type="text/css">
	.st0{fill:#E2001A;}
</style>
<g id="Group">
	<g id="Group_1">
		<path marker-end="none" marker-start="none" d="M0,97.5l63.6-60.4c5.5-5.6,12.1-8.5,24.9-8.5h39.1c14.4,0,16.7,5,12.3,15.9
			l-21.6,52.9h-33l20-49.1c0.9-2.6,1.4-5.4-3.1-5.4h-3.1c-2.4,0.1-4.1,0.1-7.7,3.7L68.3,68.8h23.6l-5.8,14.4h-33L38.1,97.5H0z"/>
		<path marker-end="none" marker-start="none" d="M132.8,97.5l28.1-68.8h56v0h15.5c10.3,0,14.6,5,12.3,12.8L239,55.3
			c-2.1,4.9-9.3,6.4-19.3,7.1c10.3,1.6,14.3,4.9,12.4,9.9l-6.8,16.7c-2.6,5.5-7,8.6-16.8,8.6H132.8z M196,79.9l3.3-8.2
			c0.7-1.7,0.2-2.9-2.7-2.9h-15l5-12.9h15c2.9,0,4.6-1.1,5.2-2.6l2.3-5.7c1.1-2.7-0.3-4.5-3-4.5H188l-16.3,40.1H190
			C192.7,83.1,195,82.2,196,79.9z"/>
		<path marker-end="none" marker-start="none" d="M296.5,97.5l-33,0L285.7,43h-31.6l5.7-14.3h54.5h0h38.8L347.4,43h-28.7h0
			L296.5,97.5z"/>
		<path marker-end="none" marker-start="none" d="M440.9,81.3l17-41.7c3.7-8.8,12.3-11,21.8-11l57.3,0L531.2,43h-34.1
			c-4.7,0-9,2.3-11.5,9.5l-9.7,23.7c-2.2,5.5-0.2,6.9,5.9,6.9h32.8l-5.7,14.3h-56.1C444.3,97.5,437.2,91,440.9,81.3z"/>
		<path marker-end="none" marker-start="none" d="M717.1,97.5l28-68.9l33,0L756,83.1h18.4c3.5,0,5.2-1.4,6.2-4l4.8-11.8
			c0.8-2.1,0.3-4.2-3.5-4.2H770l5.5-13.1h32.2c11.7,0,13.9,9.1,10.5,17.9l-8.9,21.7c-1.9,4.6-7.1,7.8-15.3,7.8H717.1z"/>
		<path marker-end="none" marker-start="none" d="M678.4,97.5h-33L667.6,43H636l5.7-14.3h54.5h0h38.8L729.3,43h-28.7h0L678.4,97.5z"
			/>
		<path marker-end="none" marker-start="none" d="M551.2,97.5L551.2,97.5h-14.3c-8.6,0-15-6.5-11.9-14.8l18.1-44.5
			c2.8-6.8,8.2-9.7,15.2-9.6h20.9h0h37.1c9.6,0,16,5,13.2,12.2l-12,29.4h-49.2l5-12.9h16.5l4-9.8c1.2-2.9-0.4-4.5-3.8-4.5h-9.7
			c-4.3,0-7,1.4-8.5,5.5l-14.1,34.7h0h54.5l-5.7,14.3H551.2z"/>
		<path marker-end="none" marker-start="none" d="M340.3,85l18.9-46.3c3.3-7.2,9.8-10,17.6-10h62.4c7.2,0,10.5,4.3,7.8,12.5
			l-18.9,46.3c-3.3,7.2-9.8,10-17.7,10h-62.4C341,97.5,337.7,93.2,340.3,85z M391.9,83.1c2.6,0,5-0.7,6.9-4.4l11.8-29
			c2-5.1-0.7-6.6-3.7-6.7h-11.4c-2.6,0-5,0.7-6.9,4.4l-11.8,29c-2,5.1,0.7,6.6,3.7,6.7H391.9z"/>
	</g>
	<g id="Group_2">
		<path marker-end="none" marker-start="none" d="M951.1,30.2L955.2,0l-8.9,3.4l-17.2,35L951.1,30.2z"/>
		<path marker-end="none" marker-start="none" d="M905.7,84.5l33,24.7l5.5-37.8L905.7,84.5z"/>
		<path marker-end="none" marker-start="none" d="M913.9,45.4l22-38.5l-8.9,3.4l-26.8,25.4L913.9,45.4z"/>
		<path marker-end="none" marker-start="none" d="M888.5,90.7l8.2-13.7l-64.6,23.4l-18.6,17.9L888.5,90.7z"/>
		<path marker-end="none" marker-start="none" class="st0" d="M1025.3,30.2h-24.7l-81.8,29.3l-40.5-29.3h-46.7L896.8,77L1025.3,30.2
			z"/>
	</g>
</g>
</svg>
