<svg id="Layer_1" xmlns="http://www.w3.org/2000/svg" viewBox="0 0 801.1 273.7">
    <style>
        .st0{fill:#e2001a}
    </style>
    <g id="Document" transform="scale(1 -1)">
        <g id="Spread" transform="translate(0 -273.73)">
            <g id="Layer_1_1_">
                <g id="Group">
                    <path d="M0 0l64.2 61.2c3.9 3.5 10 4.8 17.4 4.8h42.1c7.4 0 11.7-1.8 13-4.8 1.3-3 .4-8.2-2.6-15.2L114.9 0H82.8c6.5 16 13 31.7 19.6 47.7.4 1.8.9 3 .4 3.9 0 .9-1.3 1.3-3 1.3-3.4 0-6.1.8-10.4-3.5l-24.3-23H89l-5.2-12.6H52L37.3 0H0zm241.1 57.7l-4.7-13c-3.2-8.6-9.9-10.4-19.1-10.4v-.4c4.8-.4 13.5-2 10.4-9.5L222.9 14c-3.3-8.3-11.5-14-24.7-14h-67.7c9.1 22.1 18.3 43.8 27.3 65.9h69c13.8 0 15.9-2.8 14.3-8.2zm-36-8.7l.2.5c.6 1.5.6 3.4-2.4 3.4h-19.5c-5.6-13.5-11.3-26.5-16.9-39.9h18.2c4.1 0 5 1.2 6.1 3.4l3.1 7.4c1 2.1.6 3.4-2.6 3.4h-13.9l5.2 12.6h14.3c4.3 0 5.2 2.2 6.1 3.9l2.1 5.3zm84.2-49h-32.1l22.1 52.9h-32.1l5.7 13h91.9l-5.2-13h-28.2L289.3 0zm144.9 46l-11.3-26c-2.6-6.9-6.5-11.7-10.4-15.2-4.4-3-10-4.8-17.4-4.8h-51.6c-7.8 0-11.7 1.8-13 4.8-1.3 3.5 0 8.3 2.6 15.2l11.3 26c3.1 7 6.5 12.2 10.4 15.2 4.3 3 10 4.8 17.3 4.8h51.6c7.9 0 12.2-1.8 13.1-4.8 1.2-3.1.4-8.3-2.6-15.2zm-33 1.7c.9 1.8 1.3 3 .9 3.9-.5.9-1.7 1.3-3.5 1.3h-13.4c-1.7 0-3.1-.4-4.4-1.3-.8-.9-1.7-2.1-2.6-3.9l-12.6-29.5c-.9-1.7-1.3-3-.9-3.9.4-.8 1.3-1.3 3-1.3h13.9c1.8 0 3.5.4 4.3 1.3 1.3.9 2.2 2.2 3 3.9l12.3 29.5zm122.7 18.2l-6.9-13h-30.3c-2.6 0-4.8-.4-6.5-1.3-1.3-1.2-3-3-3.9-5.2L465 19.5c-.9-2.2-1.3-3.9-.4-5.2.4-.8 2.1-1.3 4.8-1.3h34.3l-6.9-13h-53.4c-7.8 0-12.1 2.2-13.5 5.6-1.7 3.9-.9 9.1 1.8 14.8l10.4 25.1c2.6 6.1 6.5 10.9 11.3 14.8 4.8 3.4 10.8 5.6 18.6 5.6h51.9zM611.5 46l-8.7-20h-50.7l5.6 12.6H576l3.9 9.1c.9 1.8.9 3 .9 3.9-.4.9-1.3 1.3-3.5 1.3h-13.5c-1.7 0-3.1-.4-4.3-1.3-.9-.9-2.2-2.1-3-3.5l-11.7-28.6c-1.3-2.2-1.7-3.9-.9-5.2.5-.8 2.2-1.3 4.8-1.3h46.8l-7.8-13h-66.4c-7.4 0-11.7 1.8-12.5 4.8-1.3 3.5 0 8.3 3 15.2l10.9 26c3 7 7 12.2 10.8 15.2 4.3 3 10 4.8 17.3 4.8h50.3c7.4 0 11.7-1.8 13-4.8 1.4-3.1.5-8.3-2.6-15.2zm49.9-46h-32.1l22.1 52.9h-31.6l5.2 13h92.4l-5.7-13H684L661.4 0zm95.9 59l-20-46.4H756c3 0 5.2 1.7 6 4.3l4.3 10c.8 2.2.8 3.5.8 4.3-.4.9-1.7 1.3-3.5 1.3h-13l5.7 12.6h30.8c7.4 0 11.7-1.3 13-4.8 1.7-3 .9-8.3-2.1-14.8l-6.5-16c-2.6-6.1-7.8-9.6-14.3-9.6h-78.1l27.3 65.9h26c1.7 0 3-.9 4.3-2.2 1-1.6 1-2.9.6-4.6z"/>
                    <g id="Group_1">
                        <g id="Group_2">
                            <path d="M488.9 228.7l6.8 45-14.3-4.8-26.6-52.5 34.1 12.3zM419.3 146.9l51.2-36.9 8.9 58-60.1-21.1zM431 204.8l33.4 58-11.6-4.1-43-38.9 21.2-15zM391.4 137.3l11.6 20.5-98.9-34.8-30-27.3 117.3 41.6z"/>
                        </g>
                        <path class="st0" d="M602.9 228.7h-38.2l-126.2-44.3-61.4 43.6h-72.3l98.9-70.3 199.2 71z"/>
                    </g>
                </g>
            </g>
        </g>
    </g>
</svg>
