<?xml version="1.0" encoding="utf-8"?>
<!-- Generator: Adobe Illustrator 22.1.0, SVG Export Plug-In . SVG Version: 6.00 Build 0)  -->
<svg version="1.1" id="Layer_1" xmlns="http://www.w3.org/2000/svg" xmlns:xlink="http://www.w3.org/1999/xlink" x="0px" y="0px"
	 viewBox="0 0 276.7 96.5" style="enable-background:new 0 0 276.7 96.5;" xml:space="preserve">
<style type="text/css">
	.st0{fill:#E2001A;}
</style>
<g id="Group">
	<g id="Group_1">
		<path marker-end="none" marker-start="none" d="M0,96.5l21.5-20.4c1.9-1.9,4.1-2.9,8.4-2.9h13.2c4.9,0,5.6,1.7,4.2,5.4L40,96.5
			H28.8l6.8-16.6c0.3-0.9,0.5-1.8-1-1.8h-1c-0.8,0-1.4,0-2.6,1.2L23,86.8h8l-1.9,4.8H17.9l-5.1,4.8H0z"/>
		<path marker-end="none" marker-start="none" d="M44.8,96.5l9.5-23.2h18.9v0h5.2c3.5,0,4.9,1.7,4.1,4.3l-1.9,4.7
			c-0.7,1.7-3.1,2.2-6.5,2.4c3.5,0.5,4.8,1.7,4.2,3.4l-2.3,5.6c-0.9,1.9-2.4,2.9-5.7,2.9H44.8z M66.2,90.5l1.1-2.8
			c0.2-0.6,0.1-1-0.9-1h-5.1l1.7-4.4h5.1c1,0,1.6-0.4,1.8-0.9l0.8-1.9c0.4-0.9-0.1-1.5-1-1.5h-6.1l-5.5,13.6h6.2
			C65.1,91.6,65.8,91.3,66.2,90.5z"/>
		<path marker-end="none" marker-start="none" d="M100.1,96.5H89l7.5-18.4H85.8l1.9-4.8h18.4h0h13.1l-1.9,4.8h-9.7h0L100.1,96.5z"/>
		<path marker-end="none" marker-start="none" d="M148.9,91l5.7-14.1c1.3-3,4.2-3.7,7.4-3.7h19.3l-1.9,4.8h-11.5
			c-1.6,0-3,0.8-3.9,3.2l-3.3,8c-0.7,1.9-0.1,2.3,2,2.3h11.1l-1.9,4.8h-18.9C150,96.5,147.6,94.3,148.9,91z"/>
		<path marker-end="none" marker-start="none" d="M242.1,96.5l9.5-23.3l11.1,0l-7.5,18.4h6.2c1.2,0,1.8-0.5,2.1-1.4l1.6-4
			c0.3-0.7,0.1-1.4-1.2-1.4h-4l1.9-4.4h10.9c3.9,0,4.7,3.1,3.5,6.1l-3,7.3c-0.6,1.5-2.4,2.7-5.2,2.7H242.1z"/>
		<path marker-end="none" marker-start="none" d="M229.1,96.5h-11.1l7.5-18.4h-10.7l1.9-4.8h18.4h0h13.1l-1.9,4.8h-9.7h0L229.1,96.5
			z"/>
		<path marker-end="none" marker-start="none" d="M186.1,96.5L186.1,96.5h-4.8c-2.9,0-5.1-2.2-4-5l6.1-15c0.9-2.3,2.8-3.3,5.1-3.3
			h7.1h0h12.5c3.2,0,5.4,1.7,4.5,4.1l-4.1,9.9h-16.6l1.7-4.4h5.6l1.3-3.3c0.4-1-0.1-1.5-1.3-1.5H196c-1.4,0-2.4,0.5-2.9,1.8
			l-4.8,11.7h0h18.4l-1.9,4.8H186.1z"/>
		<path marker-end="none" marker-start="none" d="M114.9,92.3l6.4-15.6c1.1-2.4,3.3-3.4,6-3.4h21.1c2.4,0,3.5,1.5,2.6,4.2l-6.4,15.6
			c-1.1,2.4-3.3,3.4-6,3.4h-21.1C115.1,96.5,114,95,114.9,92.3z M132.3,91.6c0.9,0,1.7-0.2,2.3-1.5l4-9.8c0.7-1.7-0.2-2.2-1.2-2.3
			h-3.9c-0.9,0-1.7,0.2-2.3,1.5l-4,9.8c-0.7,1.7,0.2,2.2,1.2,2.3H132.3z"/>
	</g>
	<g id="Group_2">
		<path marker-end="none" marker-start="none" d="M168.4,16.2L170.6,0l-4.8,1.8l-9.2,18.8L168.4,16.2z"/>
		<path marker-end="none" marker-start="none" d="M144.1,45.4l17.7,13.3l2.9-20.3L144.1,45.4z"/>
		<path marker-end="none" marker-start="none" d="M148.5,24.3l11.8-20.6l-4.8,1.8l-14.4,13.6L148.5,24.3z"/>
		<path marker-end="none" marker-start="none" d="M134.9,48.7l4.4-7.4l-34.7,12.5l-10,9.6L134.9,48.7z"/>
		<path marker-end="none" marker-start="none" class="st0" d="M208.3,16.2H195L151.1,32l-21.7-15.7h-25.1l35,25.1L208.3,16.2z"/>
	</g>
</g>
</svg>
