<svg id="Layer_1" xmlns="http://www.w3.org/2000/svg" viewBox="0 0 144 144">
    <style>
        .st0{fill:#e0d900}.st1{fill:#fff500}.st2{fill:#fff74c}
    </style>
    <g id="Document" transform="scale(1 -1)">
        <g id="Spread" transform="translate(0 -144.004)">
            <g id="Layer_1_1_">
                <g id="Group">
                    <path d="M144 14.4c0-8-6.4-14.4-14.4-14.4H14.4C6.4 0 0 6.5 0 14.4v115.2c0 7.9 6.4 14.4 14.4 14.4h115.2c7.9 0 14.4-6.4 14.4-14.4V14.4z"/>
                    <g id="Group_1">
                        <path class="st0" d="M72 86.8l29.6-29.6L72 27.6 42.4 57.2 72 86.8z"/>
                        <path class="st1" d="M101.6 116.4l29.6-29.6-29.6-29.6L72 86.8l29.6 29.6z"/>
                        <path class="st2" d="M42.4 116.4L12.9 86.8l29.6-29.6L72 86.8l-29.6 29.6z"/>
                    </g>
                </g>
            </g>
        </g>
    </g>
</svg>
