<svg id="Layer_1" xmlns="http://www.w3.org/2000/svg" viewBox="0 0 750 395.4">
    <style>
        .st0{fill:#e2001a}
    </style>
    <g id="Document" transform="scale(1 -1)">
        <g id="Spread" transform="translate(0 -395.446)">
            <g id="Layer_1_1_">
                <g id="Group">
                    <path d="M0 0l60.1 57.3c3.7 3.3 9.4 4.5 16.2 4.5h39.4c6.9 0 11-1.6 12.2-4.5 1.2-2.8.4-7.7-2.5-14.2L107.6 0H77.5c6.1 15 12.2 29.7 18.3 44.7.4 1.6.8 2.8.4 3.6 0 .8-1.2 1.3-2.9 1.3-3.2 0-5.7.8-9.8-3.3L60.9 24.8h22.3L78.4 13H48.7L34.9 0H0zm225.8 54l-4.4-12.2c-3-8.1-9.3-9.7-17.9-9.7v-.4c4.5-.4 12.6-1.9 9.8-8.9l-4.5-9.8C205.7 5.3 198 0 185.7 0h-63.4c8.5 20.7 17.1 41 25.6 61.7h64.6c12.7 0 14.7-2.7 13.3-7.7zm-33.7-8.1l.2.5c.6 1.4.6 3.2-2.2 3.2h-18.3C166.5 37 161.3 24.8 156 12.2h17c3.9 0 4.7 1.1 5.7 3.2l2.9 6.9c.9 1.9.6 3.2-2.4 3.2h-13l4.9 11.8h13.4c4 0 4.9 2 5.7 3.7l1.9 4.9zM270.8 0h-30.1l20.7 49.6h-30.1l5.3 12.2h86.1l-4.9-12.2h-26.4L270.8 0zm135.7 43l-10.6-24.3c-2.4-6.5-6.1-11-9.7-14.2C382.1 1.7 376.9 0 370 0h-48.3c-7.3 0-11 1.6-12.2 4.5-1.2 3.3 0 7.7 2.5 14.2L322.4 43c2.9 6.5 6.1 11.4 9.8 14.2 4 2.8 9.4 4.5 16.2 4.5h48.3c7.4 0 11.4-1.6 12.2-4.5 1.2-2.8.4-7.6-2.4-14.2zm-30.9 1.7c.8 1.6 1.2 2.8.8 3.6-.4.8-1.6 1.3-3.3 1.3h-12.6c-1.6 0-2.9-.4-4.1-1.3-.8-.8-1.6-2-2.5-3.6l-11.7-27.6c-.8-1.6-1.2-2.8-.8-3.7.4-.8 1.2-1.2 2.8-1.2h13c1.7 0 3.3.4 4.1 1.2 1.2.8 2 2 2.8 3.7l11.5 27.6zm114.9 17L484 49.6h-28.4c-2.5 0-4.5-.4-6.1-1.3-1.2-1.2-2.8-2.8-3.6-4.9l-10.6-25.2c-.8-2-1.2-3.6-.4-4.9.4-.8 2-1.2 4.5-1.2h32.1L464.9 0h-50c-7.3 0-11.4 2-12.6 5.3-1.6 3.7-.8 8.5 1.7 13.8l9.7 23.5c2.5 5.7 6.1 10.2 10.6 13.8 4.5 3.2 10.2 5.3 17.4 5.3h48.8zm82-18.7l-8.1-18.7h-47.5l5.3 11.8h17.1l3.7 8.5c.8 1.6.8 2.8.8 3.6-.4.8-1.2 1.3-3.2 1.3H528c-1.6 0-2.9-.4-4.1-1.3-.8-.8-2-2-2.8-3.3l-11-26.8c-1.2-2-1.6-3.6-.8-4.9.4-.8 2-1.2 4.5-1.2h43.9l-7.5-12H488c-6.9 0-11 1.6-11.7 4.5-1.2 3.3 0 7.7 2.8 14.2L489.3 43c2.8 6.5 6.5 11.4 10.1 14.2 4.1 2.8 9.3 4.5 16.2 4.5h47.1c6.9 0 11-1.6 12.2-4.5 1.3-2.8.5-7.6-2.4-14.2zm46.7-43h-30l20.7 49.6h-29.6l4.9 12.2h86.5l-5.3-12.2h-26L619.2 0zM709 55.2l-18.7-43.5h17.5c2.8 0 4.8 1.6 5.7 4.1l4.1 9.3c.8 2.1.8 3.3.8 4.1-.4.8-1.6 1.2-3.3 1.2h-12.2l5.3 11.8H737c6.9 0 11-1.2 12.2-4.5 1.6-2.8.8-7.7-2-13.8l-6.1-15c-2.4-5.7-7.3-8.9-13.4-8.9h-73.1l25.6 61.7h24.4c1.6 0 2.8-.8 4-2 .8-1.6.8-2.8.4-4.5z"/>
                    <g id="Group_1">
                        <g id="Group_2">
                            <path d="M502.7 318.3l11.7 77.2-24.5-8.2-45.6-90 58.4 21zM383.5 178.1l87.7-63.1 15.2 99.3-102.9-36.2zM403.4 277.4l57.2 99.3-19.9-7-73.6-66.6 36.3-25.7zM335.6 161.7l19.9 35.1L186 137.2l-51.4-46.8 201 71.3z"/>
                        </g>
                        <path class="st0" d="M697.9 318.3h-65.5l-216.2-76L311 317.1H187.2l169.4-120.4 341.3 121.6z"/>
                    </g>
                </g>
            </g>
        </g>
    </g>
</svg>
