<svg id="Layer_1" xmlns="http://www.w3.org/2000/svg" viewBox="0 0 1027.5 142.4">
    <style>
        .st0{fill:#e2001a}
    </style>
    <g id="Document" transform="scale(1 -1)">
        <g id="Spread" transform="translate(0 -142.415)">
            <g id="Layer_1_1_">
                <g id="Group">
                    <path d="M0 44.1L65.7 108c4 3.6 10.2 5 17.8 5h43c7.5 0 12-1.8 13.3-5 1.3-3.2.4-8.6-2.7-15.9l-19.5-48H84.8c6.6 16.8 13.3 33.1 20 49.8.4 1.8.9 3.2.4 4.1 0 .9-1.3 1.4-3.1 1.4-3.5 0-6.2.9-10.7-3.6l-24.8-24H91l-5.3-13.1H53.3L38.2 44.1H0zm246.7 60.3l-4.9-13.6c-3.2-9-10.1-10.9-19.5-10.9v-.5c4.9-.4 13.8-2.1 10.7-10l-4.9-10.9c-3.4-8.6-11.8-14.5-25.3-14.5h-69.2c9.3 23.1 18.6 45.7 28 68.8h70.6c13.9.2 16.1-2.8 14.5-8.4zm-36.8-9.1l.2.6c.6 1.5.6 3.5-2.5 3.5h-20c-5.8-14.1-11.5-27.6-17.3-41.7H189c4.2 0 5.1 1.2 6.2 3.6l3.1 7.7c1.1 2.2.6 3.6-2.7 3.6h-14.2l5.3 13.1h14.6c4.4 0 5.3 2.3 6.2 4.1l2.4 5.5zM296 44.1h-32.8l22.6 55.3H253l5.8 13.6h94.1l-5.3-13.6h-28.8L296 44.1zm148.2 48L432.6 65C430 57.7 426 52.8 422 49.1c-4.4-3.2-10.2-5-17.7-5h-52.8c-8 0-12 1.8-13.3 5-1.3 3.6 0 8.6 2.7 15.8l11.5 27.2c3.1 7.3 6.7 12.7 10.7 15.9 4.4 3.2 10.2 5 17.7 5h52.8c8 0 12.4-1.8 13.3-5 1.3-3.2.4-8.6-2.7-15.9zM410.5 94c.9 1.8 1.3 3.2.9 4.1-.5.9-1.8 1.4-3.6 1.4H394c-1.8 0-3.1-.5-4.4-1.4-.9-.9-1.8-2.3-2.7-4.1L374 63.2c-.9-1.8-1.3-3.2-.9-4.1.4-.9 1.3-1.4 3.1-1.4h14.2c1.8 0 3.6.5 4.4 1.4 1.3.9 2.2 2.3 3.1 4.1L410.5 94zM536 113l-7.1-13.6h-31c-2.7 0-4.9-.5-6.7-1.4-1.3-1.4-3.1-3.2-4-5.4l-11.5-28.1c-.9-2.3-1.3-4.1-.4-5.4.4-.9 2.2-1.4 4.9-1.4h35.1l-7.1-13.6h-54.6c-8 0-12.4 2.3-13.8 5.9-1.8 4.1-.9 9.5 1.8 15.4l10.6 26.3c2.7 6.3 6.7 11.3 11.5 15.4 4.9 3.6 11.1 5.9 19.1 5.9H536zm89.7-20.9l-8.9-20.8h-51.9l5.8 13.1h18.6l4 9.5c.9 1.8.9 3.2.9 4.1-.4.9-1.3 1.4-3.5 1.4h-13.8c-1.8 0-3.1-.5-4.4-1.4-.9-.9-2.2-2.3-3.1-3.6l-12-29.9c-1.3-2.3-1.8-4.1-.9-5.4.4-.9 2.2-1.4 4.9-1.4h47.9l-8-13.6h-67.9c-7.5 0-12 1.8-12.9 5-1.3 3.6 0 8.6 3.1 15.8l11.1 27.2c3.1 7.3 7.1 12.7 11.1 15.9 4.4 3.2 10.2 5 17.8 5H615c7.6 0 12-1.8 13.3-5 1.4-3.2.5-8.6-2.6-15.9zm51-48h-32.8l22.6 55.3h-32.4l5.3 13.6h94.5l-5.8-13.6h-28.4l-23-55.3zm98.1 61.6l-20.4-48.5h19.1c3.1 0 5.3 1.8 6.2 4.5l4.4 10.4c.9 2.3.9 3.6.9 4.5-.4.9-1.8 1.4-3.6 1.4h-13.3l5.8 13.2h31.5c7.6 0 12-1.4 13.3-5 1.8-3.2.9-8.6-2.2-15.4L809.8 54c-2.7-6.4-8-10-14.6-10h-79.9l27.9 68.8h26.6c1.8 0 3.1-.9 4.4-2.3 1-1.6 1-2.9.6-4.8zM953.4 112.5l4.4 29.9-9.3-3.2-17.3-34.9 22.2 8.2zM908.1 58.2l33.3-24.5 5.8 38.5-39.1-14zM915.7 96.7l21.8 38.5-7.5-2.7-28-25.8 13.7-10zM890 51.8l7.5 13.6-64.3-23.1-19.5-18.1L890 51.8z"/>
                    <path class="st0" d="M1027.5 112.5h-24.8l-82.1-29.4-39.9 29h-47L898 65.5l129.5 47zM566.5 17.4h226.7l-4.4-10.9H562l4.5 10.9z"/>
                    <g id="Group_1">
                        <g id="Group_2">
                            <path d="M9.8 10.4h2.4c.8 0 1.5 0 2.1-.1.6-.1 1-.2 1.3-.4.3-.2.5-.6.5-1 0-.8-.2-1.3-.6-1.7-.4-.4-.8-.7-1.4-.8-.6-.1-1.2-.2-1.8-.2H8.9l.9 4.2zm1.7 8.2h2.7c.5 0 1 0 1.4-.1.4-.1.7-.2 1-.4.2-.2.4-.5.4-.9 0-.6-.2-1.1-.5-1.5-.3-.4-.7-.7-1.2-.8-.5-.2-1-.3-1.5-.3h-3.2l.9 4zM0 .6h11.4c1.6 0 3 .1 4.4.4s2.7.8 3.7 1.4c1.1.7 2 1.5 2.6 2.6s1 2.4 1 3.9c0 .7-.1 1.3-.3 1.8-.2.5-.5 1-1 1.4-.4.4-1 .7-1.6.8.5.3 1 .6 1.5 1s1 .9 1.4 1.5c.4.6.7 1.2 1 1.8.2.7.4 1.4.4 2.1 0 .9-.2 1.6-.6 2.2-.4.6-1 1.1-1.8 1.4-.8.3-1.6.6-2.7.7-1 .1-2.1.2-3.3.2H5L0 .6zM34.9 8.6L39 17l.7-8.4h-4.8zm1.8 15.5L23.3.6h7.5l1.6 3.1H40l.2-3.1h7.6L44.4 24h-7.7zM62.9 24.1h-7.4L50.5.7H83l5 23.4h-7.4l-3.8-18h-5.2l3.8 18H68l-3.8-18H59l3.9 18zM97.2 8.6l4.1 8.4.7-8.4h-4.8zM99 24.1L85.6.6h7.5l1.6 3.1h7.6l.2-3.1h7.6L106.7 24H99zM126.6 24.1l5-17c-.3-.5-.6-.8-1-1-.3-.2-.7-.3-1.1-.3h-.7c-.2 0-.3.1-.4.1-.1.1-.3.1-.4.2L126.9.8c.3-.1.6-.2 1-.3l1.2-.3c.4-.1.9-.1 1.3-.1 1 0 1.9.2 2.8.6.9.4 1.7 1 2.6 1.8.9.8 1.8 2 2.7 3.4L151 24.1h-8.3l-5.7-9.2-1.8 9.2h-8.6zM158.3 10.4h2.4c.8 0 1.5 0 2.1-.1.6-.1 1-.2 1.3-.4.3-.2.5-.6.5-1 0-.8-.2-1.3-.6-1.7-.4-.4-.8-.7-1.4-.8-.6-.1-1.2-.2-1.8-.2h-3.4l.9 4.2zm1.8 8.2h2.7c.5 0 1 0 1.5-.1.4-.1.7-.2 1-.4.2-.2.4-.5.4-.9 0-.6-.2-1.1-.5-1.5-.3-.4-.7-.7-1.2-.8-.5-.2-1-.3-1.5-.3h-3.2l.8 4zM148.5.6H160c1.6 0 3 .1 4.4.4 1.4.3 2.7.8 3.7 1.4 1.1.7 2 1.5 2.6 2.6s1 2.4 1 3.9c0 .7-.1 1.3-.3 1.8-.2.5-.5 1-1 1.4-.4.4-1 .7-1.6.8.5.3 1 .6 1.5 1s1 .9 1.4 1.5c.4.6.7 1.2 1 1.8.2.7.4 1.4.4 2.1 0 .9-.2 1.6-.6 2.2-.4.6-1 1.1-1.8 1.4s-1.6.6-2.7.7-2.1.2-3.3.2h-11.2l-5-23.2zM178.8 24.1l-5-23.4h19.6l1.2 5.5h-11.9l.8 3.7h9.7l1.2 5.5h-9.7l.7 3.4h11.4l1.2 5.5h-19.2zM208.6 18.6h2.2c.4 0 .8 0 1.3-.1.4 0 .8-.1 1.2-.3.4-.1.6-.3.9-.6.2-.3.3-.6.3-1.1 0-.7-.2-1.3-.6-1.7-.4-.5-.8-.8-1.4-1.1-.6-.2-1.2-.4-1.8-.4h-3.2l1.1 5.3zm-2.3-10.7h3.9c2.4 0 4.5.4 6.3 1.3 1.7.8 3.1 2 4 3.5.9 1.5 1.4 3.3 1.4 5.3 0 1.2-.3 2.3-.9 3.2-.6.9-1.6 1.6-2.8 2.1-1.3.5-2.9.7-4.8.7h-11.3l-5-23.4h7.7l1.5 7.3zM226.9 24.1l-5-23.4h19.6l1.2 5.5h-11.9l.8 3.7h9.7l1.2 5.5h-9.7l.7 3.4h11.4l1.2 5.5h-19.2zM257.9 24.1h-7.7l-5-23.4h7.7l2.1 9.8h7.3L260.2.7h7.7l5 23.4h-7.7l-1.8-8.2h-7.3l1.8 8.2zM285.1 24.1h-7.7l-5-23.4h7.7l2.1 9.8h7.3L287.4.7h7.7l5 23.4h-7.7l-1.8-8.2h-7.3l1.8 8.2zM314.7 18.9c.9 0 1.6-.2 2.1-.6s.9-.9 1.1-1.5c.2-.6.4-1.4.4-2.1 0-1.2-.2-2.3-.5-3.3-.3-1.1-.7-2-1.3-2.9-.6-.8-1.2-1.5-2-2s-1.6-.7-2.6-.7c-.9 0-1.6.2-2.1.6-.5.4-.9.9-1.1 1.5-.2.6-.3 1.3-.3 2.1 0 .7.1 1.5.2 2.3.1.8.4 1.6.7 2.4.3.8.7 1.5 1.2 2.2.5.6 1.1 1.2 1.7 1.6.8.2 1.6.4 2.5.4zm1.3 5.8c-2.2 0-4.1-.4-6-1.2-1.8-.8-3.5-1.9-4.8-3.3-1.4-1.4-2.5-3-3.2-4.9-.8-1.9-1.2-4-1.2-6.2 0-1.9.4-3.6 1.2-4.9.8-1.4 1.9-2.4 3.4-3.1 1.5-.7 3.3-1.1 5.4-1.1 1.5 0 3 .2 4.5.7 1.5.4 2.9 1.1 4.1 2 1.3.9 2.5 1.9 3.5 3.2 1 1.3 1.8 2.7 2.4 4.3.6 1.6.9 3.4.9 5.3 0 1.3-.2 2.5-.6 3.6-.4 1.1-1 2.1-1.8 3s-1.8 1.5-3.1 2c-1.5.3-3 .6-4.7.6zM352.2 15.1c.1.5.1 1 .1 1.5 0 1.7-.4 3.2-1.1 4.4-.7 1.2-1.8 2.1-3.3 2.8-1.5.6-3.3 1-5.5 1-1.5 0-2.9-.3-4.4-.7-1.4-.5-2.8-1.2-4-2.1-1.2-.9-2.3-2-3.3-3.3-.9-1.3-1.7-2.7-2.2-4.3-.5-1.6-.8-3.3-.8-5.2 0-1.9.4-3.5 1.2-4.8.8-1.3 1.9-2.4 3.5-3.1 1.5-.7 3.4-1.1 5.5-1.1s4 .4 5.8 1.2c1.8.8 3.3 1.9 4.6 3.3 1.3 1.4 2.3 3.2 2.9 5.2h-7.4c-.3-.8-.6-1.4-1-2-.4-.6-1-1.1-1.6-1.4-.6-.3-1.3-.5-2.2-.5-.9 0-1.6.2-2.2.5s-.9.7-1.1 1.3c-.2.5-.3 1.2-.3 1.9 0 .3 0 .8.1 1.4.1.6.2 1.3.4 2s.4 1.4.7 2.2c.3.7.7 1.4 1.1 2 .5.6 1 1.1 1.6 1.5.6.4 1.4.6 2.2.6 1.1 0 1.9-.3 2.5-.8.6-.5.9-1.3.9-2.3v-.4-.3h7.3zM369.7 18.6h6.9l1.2 5.5h-21.5l-1.2-5.5h6.9l-3.8-18h7.7l3.8 18zM385.8 10.4h1.9c.8 0 1.5 0 2.1-.1.6-.1 1-.2 1.3-.5.3-.2.4-.5.4-1 0-.8-.2-1.4-.6-1.8-.4-.4-.8-.7-1.4-.8-.6-.1-1.2-.2-1.8-.2h-2.8l.9 4.4zm2.9 13.7H381L376 .7h11.2c1.7 0 3.2.2 4.6.6 1.4.4 2.6 1 3.7 1.8 1 .8 1.9 1.8 2.4 2.9.6 1.2.9 2.5.9 4.1 0 1.3-.3 2.4-1 3.2-.7.9-1.6 1.5-2.8 2-1.2.4-2.7.7-4.4.7H387l1.7 8.1zM421.2 10.4h2.4c.8 0 1.5 0 2.1-.1.6-.1 1-.2 1.3-.4.3-.2.5-.6.5-1 0-.8-.2-1.3-.6-1.7-.4-.4-.8-.7-1.4-.8-.6-.1-1.2-.2-1.8-.2h-3.4l.9 4.2zm1.8 8.2h2.7c.5 0 1 0 1.5-.1.4-.1.7-.2 1-.4.2-.2.4-.5.4-.9 0-.6-.2-1.1-.5-1.5-.3-.4-.7-.7-1.2-.8-.5-.2-1-.3-1.5-.3h-3.2l.8 4zM411.4.6h11.4c1.6 0 3 .1 4.4.4s2.7.8 3.7 1.4c1.1.7 2 1.5 2.6 2.6s1 2.4 1 3.9c0 .7-.1 1.3-.3 1.8-.2.5-.5 1-1 1.4-.4.4-1 .7-1.6.8.5.3 1 .6 1.5 1s1 .9 1.4 1.5c.4.6.7 1.2 1 1.8.2.7.4 1.4.4 2.1 0 .9-.2 1.6-.6 2.2-.4.6-1 1.1-1.8 1.4s-1.6.6-2.7.7c-1 .1-2.1.2-3.3.2h-11.2L411.4.6zM452.5 24.1l-5-23.4h7.7l3.8 18h7.3l-3.8-18h7.7l5 23.4h-22.7zM477.6 24.1l5-17c-.3-.5-.6-.8-1-1-.3-.2-.7-.3-1.1-.3h-.7c-.2 0-.3.1-.4.1-.1.1-.3.1-.4.2L477.9.8c.3-.1.6-.2 1-.3l1.2-.3c.4-.1.9-.1 1.3-.1 1 0 1.9.2 2.8.6.9.4 1.7 1 2.6 1.8s1.8 2 2.7 3.4L502 24.1h-8.3l-5.7-9.2-1.8 9.2h-8.6zM516.7 18.6h6.9l1.2 5.5h-21.5l-1.2-5.5h6.9l-3.8-18h7.7l3.8 18zM543.5 24.1l-11.3-13.4 1.7 6 1.6 7.5H528L523 .8h7.2l11.3 13.4-1.7-6-1.6-7.5h7.4l5 23.4h-7.1z"/>
                        </g>
                    </g>
                </g>
            </g>
        </g>
    </g>
</svg>
