<svg id="Layer_1" xmlns="http://www.w3.org/2000/svg" viewBox="0 0 750 896.1">
    <style>
        .st0{fill:#ff8200}
    </style>
    <g id="Document" transform="scale(1 -1)">
        <g id="Spread" transform="translate(0 -896.096)">
            <path class="st0" d="M189.3 83C89.2 45.5 36.9 57.8 0 79.7c101.1 23.4 127.6 136 166.1 171.3 6-10 22.9-14.6 44.1-13.6 5-13.6 47.3-51.6 104.3-41.2 10.1-9.2 17-12.2 26.1-13.3C284 126.9 274.1.4 172.1 0c15 24.6 19.1 58.9 17.2 83zm220.2 99.9c9 1.1 15.9 4.1 26 13.3 57-10.4 99.3 27.6 104.3 41.2 21.2-1 38.2 3.6 44.1 13.6C622.4 215.7 649 103.1 750 79.7c-36.9-21.9-89.2-34.2-189.3 3.3-1.9-24.1 2.2-58.4 17.3-83-102.1.4-112 126.9-168.5 182.9zm-75 30.2c22.3 35.1 31.1 60.2 18.4 124.8 11.7 10.3 35.1 6.5 44.5 2.3 23.6-43.4 33.2-93.2 19-127.3-15.2-14.3-58.5-17.6-81.9.2zm106.5 2.4c10.3 40.4 10.8 66.9-21.4 124.3 7.9 13.5 31.3 17.1 41.7 16 35.9-33.9 60.4-78.3 57.5-115.2-9.9-18.3-50.1-34.8-77.8-25.1zm-211.1 29.7c32.4 26.3 48.7 47.2 57.2 112.5 14.4 6.1 35.3-4.9 43-12 8.5-48.7 1.7-99-22.7-126.7-18.9-9-61 1.8-77.5 26.2zM481.8 362c3.3 15.2 24.5 26 34.8 28 44.5-21.2 81.5-56 90.1-91.8-3.7-20.5-36.9-48.6-66.4-47.9-2.5 41.5-10.2 67-58.5 111.7zm-340.5-53.3c39.1 14.7 61.2 29.3 90 88.6 15.5 1.1 31.9-16 37-25.2-7.4-48.8-29.9-94.3-61.8-112.9-20.8-2.5-57.3 21.1-65.2 49.5zm392.4 93c-1.4 15.5 15.5 32.2 24.6 37.3 48.9-6.7 94.7-28.4 113.8-60.1 2.7-20.6-20.3-57.5-48.6-65.8-15 38.8-30.1 60.7-89.8 88.6zM80.8 390.6c41.6 2.3 67.1 9.8 112.2 57.8 15.2-3.5 25.8-24.8 27.8-35.1-21.6-44.4-56.5-81.2-92.6-89.4-20.4 4-48.3 37.3-47.4 66.7zm151.9 157.9c0 81.4 66.2 147.6 147.6 147.6 81.5 0 147.6-66.2 147.6-147.6 0-81.5-66.2-147.7-147.6-147.7-81.5 0-147.6 66.2-147.6 147.7zM571.9 457c-6.2 14.3 4.7 35.4 11.7 43.1 48.6 8.9 98.9 2.5 126.9-21.6 8.9-18.7-1.4-61-25.6-77.7-26.4 32.2-47.6 48.3-113 56.2zM47.1 488.3c40.4-10.4 67-11 124.4 21.2 13.5-7.9 17.1-31.4 15.9-41.8-34-35.8-78.4-60.4-115.2-57.4-18.2 10-34.8 50.2-25.1 78zm668.6 14.4c-35.2 22.3-60.2 31.1-124.8 18.4-10.3 11.6-6.6 35.1-2.3 44.5 43.3 23.6 93.2 33.2 127.3 18.9 14.4-15.1 17.7-58.5-.2-81.8zm-671 9.8c-14.3 15-17.6 58.4.2 81.8 35.2-22.3 60.3-31.1 124.8-18.3 10.3-11.6 6.6-35.1 2.3-44.6-43.4-23.5-93.2-33.1-127.3-18.9zm528.4 116.8c34 35.8 78.3 60.3 115.2 57.3 18.2-9.9 34.8-50.1 25.1-77.9-40.4 10.4-66.9 10.9-124.4-21.3-13.4 7.9-17 31.4-15.9 41.9zm-523-10.9c-9 18.8 1.3 61 25.6 77.7 26.5-32.1 47.6-48.3 113.1-56.2 6.2-14.3-4.7-35.4-11.8-43.1-48.6-8.8-99-2.5-126.9 21.6zm489.7 65.3c21.6 44.4 56.6 81.2 92.6 89.4 20.5-3.9 48.3-37.3 47.4-66.7-41.6-2.3-67.1-9.8-112.2-57.8-15.2 3.5-25.8 24.7-27.8 35.1zM88.5 718.1c-2.7 20.7 20.3 57.6 48.6 65.9 15.1-38.9 30.1-60.8 89.8-88.6 1.4-15.5-15.5-32.3-24.6-37.3-49 6.6-94.8 28.4-113.8 60zm403.9 6.8c7.4 48.8 29.9 94.4 61.8 112.9 20.7 2.4 57.2-21.2 65.1-49.6-39-14.6-61.1-29.2-89.9-88.5-15.6-1.1-32 16-37 25.2zm-338.5 74c3.7 20.5 36.9 48.6 66.3 47.9 2.6-41.5 10.2-67 58.5-111.7-3.4-15.2-24.5-26-34.8-28-44.4 21.1-81.5 55.9-90 91.8zm276.6-47.5c-8.5 48.7-1.7 99 22.7 126.7 18.9 8.9 61-1.9 77.5-26.3-32.5-26.2-48.7-47.1-57.2-112.5-14.3-6.1-35.4 4.9-43 12.1zM241.8 856.3c9.9 18.4 50.1 35 77.9 25.2-10.4-40.4-10.9-66.9 21.3-124.4-7.9-13.4-31.3-17.1-41.7-16-35.8 34-60.4 78.4-57.5 115.2zm121.5-99.5c-23.7 43.4-33.2 93.2-18.9 127.3 15 14.4 58.4 17.6 81.8-.2-22.3-35.1-31.1-60.2-18.3-124.8-11.7-10.3-35.2-6.6-44.6-2.3z" id="Layer_1_1_"/>
        </g>
    </g>
</svg>
