<svg id="Layer_1" xmlns="http://www.w3.org/2000/svg" viewBox="0 0 1650 2475">
    <style>
        .st0{fill:#fff}.st1{fill:#00a2e0}.st2,.st3,.st4,.st5,.st6,.st7,.st8,.st9{fill:#01a85b;stroke:#000;stroke-width:3.46;stroke-linecap:round;stroke-linejoin:round;stroke-miterlimit:79.8403}.st3,.st4,.st5,.st6,.st7,.st8,.st9{fill:#fff;stroke-width:3.04}.st4,.st5,.st6,.st7,.st8,.st9{fill:#ec3538;stroke-width:3.46}.st5,.st6,.st7,.st8,.st9{fill:#58b950}.st6,.st7,.st8,.st9{fill:#c3db41}.st7,.st8,.st9{fill:#fff414}.st8,.st9{fill:#ffb92c}.st9{fill:#f37434}.st10{fill:#1b5ba7}.st11{fill:#fffc00}
    </style>
    <g id="Document" transform="scale(1 -1)">
        <g id="Spread" transform="translate(0 -2475.01)">
            <g id="Layer_1_1_">
                <g id="Group">
                    <path class="st0" d="M0 2475V0h1650v2475H0z"/>
                    <g id="Group_1">
                        <path d="M1118.3 1721.6c0 1.9 1.6 3.5 3.6 3.5h14.3c1.9 0 3.6-1.6 3.6-3.5s-1.7-3.5-3.6-3.5h-14.3c-2 0-3.6 1.6-3.6 3.5zM1159.9 1721.6c0 1.9 1.6 3.5 3.6 3.5h14.3c1.9 0 3.6-1.6 3.6-3.5s-1.7-3.5-3.6-3.5h-14.3c-2 0-3.6 1.6-3.6 3.5zM1201.6 1721.6c0 1.9 1.6 3.5 3.6 3.5h14.3c1.9 0 3.6-1.6 3.6-3.5s-1.7-3.5-3.6-3.5h-14.3c-2 0-3.6 1.6-3.6 3.5zM1243.3 1721.6c0 1.9 1.6 3.5 3.6 3.5h14.3c1.9 0 3.6-1.6 3.6-3.5s-1.7-3.5-3.6-3.5h-14.3c-2.1 0-3.6 1.6-3.6 3.5zM1284.9 1721.6c0 1.9 1.6 3.5 3.6 3.5h14.3c1.9 0 3.6-1.6 3.6-3.5s-1.7-3.5-3.6-3.5h-14.3c-2 0-3.6 1.6-3.6 3.5zM1326.6 1721.6c0 1.9 1.6 3.5 3.6 3.5h14.3c1.9 0 3.6-1.6 3.6-3.5s-1.7-3.5-3.6-3.5h-14.3c-2.1 0-3.6 1.6-3.6 3.5zM1368.2 1721.6c0 1.9 1.6 3.5 3.6 3.5h14.3c1.9 0 3.6-1.6 3.6-3.5s-1.7-3.5-3.6-3.5h-14.3c-2 0-3.6 1.6-3.6 3.5zM1409.8 1721.6c0 1.9 1.6 3.5 3.6 3.5h14.3c1.9 0 3.6-1.6 3.6-3.5s-1.7-3.5-3.6-3.5h-14.3c-2 0-3.6 1.6-3.6 3.5zM1451.5 1721.6c0 1.9 1.6 3.5 3.6 3.5h14.3c1.9 0 3.6-1.6 3.6-3.5s-1.7-3.5-3.6-3.5h-14.3c-2 0-3.6 1.6-3.6 3.5zM1493.1 1721.6c0 1.9 1.6 3.5 3.6 3.5h14.3c1.9 0 3.6-1.6 3.6-3.5s-1.7-3.5-3.6-3.5h-14.3c-2 0-3.6 1.6-3.6 3.5zM1534.8 1721.6c0 1.9 1.6 3.5 3.6 3.5h14.3c1.9 0 3.6-1.6 3.6-3.5s-1.7-3.5-3.6-3.5h-14.3c-2 0-3.6 1.6-3.6 3.5z"/>
                    </g>
                    <g id="Group_2">
                        <path d="M1118.3 960.4c0 1.9 1.6 3.5 3.6 3.5h14.3c1.9 0 3.6-1.6 3.6-3.5s-1.7-3.5-3.6-3.5h-14.3c-2 .1-3.6 1.6-3.6 3.5zM1159.9 960.4c0 1.9 1.6 3.5 3.6 3.5h14.3c1.9 0 3.6-1.6 3.6-3.5s-1.7-3.5-3.6-3.5h-14.3c-2 .1-3.6 1.6-3.6 3.5zM1201.6 960.4c0 1.9 1.6 3.5 3.6 3.5h14.3c1.9 0 3.6-1.6 3.6-3.5s-1.7-3.5-3.6-3.5h-14.3c-2 .1-3.6 1.6-3.6 3.5zM1243.3 960.4c0 1.9 1.6 3.5 3.6 3.5h14.3c1.9 0 3.6-1.6 3.6-3.5s-1.7-3.5-3.6-3.5h-14.3c-2.1.1-3.6 1.6-3.6 3.5zM1284.9 960.4c0 1.9 1.6 3.5 3.6 3.5h14.3c1.9 0 3.6-1.6 3.6-3.5s-1.7-3.5-3.6-3.5h-14.3c-2 .1-3.6 1.6-3.6 3.5zM1326.6 960.4c0 1.9 1.6 3.5 3.6 3.5h14.3c1.9 0 3.6-1.6 3.6-3.5s-1.7-3.5-3.6-3.5h-14.3c-2.1.1-3.6 1.6-3.6 3.5zM1368.2 960.4c0 1.9 1.6 3.5 3.6 3.5h14.3c1.9 0 3.6-1.6 3.6-3.5s-1.7-3.5-3.6-3.5h-14.3c-2 .1-3.6 1.6-3.6 3.5zM1409.8 960.4c0 1.9 1.6 3.5 3.6 3.5h14.3c1.9 0 3.6-1.6 3.6-3.5s-1.7-3.5-3.6-3.5h-14.3c-2 .1-3.6 1.6-3.6 3.5zM1451.5 960.4c0 1.9 1.6 3.5 3.6 3.5h14.3c1.9 0 3.6-1.6 3.6-3.5s-1.7-3.5-3.6-3.5h-14.3c-2 .1-3.6 1.6-3.6 3.5zM1493.1 960.4c0 1.9 1.6 3.5 3.6 3.5h14.3c1.9 0 3.6-1.6 3.6-3.5s-1.7-3.5-3.6-3.5h-14.3c-2 .1-3.6 1.6-3.6 3.5zM1534.8 960.4c0 1.9 1.6 3.5 3.6 3.5h14.3c1.9 0 3.6-1.6 3.6-3.5s-1.7-3.5-3.6-3.5h-14.3c-2 .1-3.6 1.6-3.6 3.5z"/>
                    </g>
                    <g id="Group_3">
                        <path d="M1118.3 1087.3c0 1.9 1.6 3.5 3.6 3.5h14.3c1.9 0 3.6-1.6 3.6-3.5s-1.7-3.5-3.6-3.5h-14.3c-2 0-3.6 1.5-3.6 3.5zM1159.9 1087.3c0 1.9 1.6 3.5 3.6 3.5h14.3c1.9 0 3.6-1.6 3.6-3.5s-1.7-3.5-3.6-3.5h-14.3c-2 0-3.6 1.5-3.6 3.5zM1201.6 1087.3c0 1.9 1.6 3.5 3.6 3.5h14.3c1.9 0 3.6-1.6 3.6-3.5s-1.7-3.5-3.6-3.5h-14.3c-2 0-3.6 1.5-3.6 3.5zM1243.3 1087.3c0 1.9 1.6 3.5 3.6 3.5h14.3c1.9 0 3.6-1.6 3.6-3.5s-1.7-3.5-3.6-3.5h-14.3c-2.1 0-3.6 1.5-3.6 3.5zM1284.9 1087.3c0 1.9 1.6 3.5 3.6 3.5h14.3c1.9 0 3.6-1.6 3.6-3.5s-1.7-3.5-3.6-3.5h-14.3c-2 0-3.6 1.5-3.6 3.5zM1326.6 1087.3c0 1.9 1.6 3.5 3.6 3.5h14.3c1.9 0 3.6-1.6 3.6-3.5s-1.7-3.5-3.6-3.5h-14.3c-2.1 0-3.6 1.5-3.6 3.5zM1368.2 1087.3c0 1.9 1.6 3.5 3.6 3.5h14.3c1.9 0 3.6-1.6 3.6-3.5s-1.7-3.5-3.6-3.5h-14.3c-2 0-3.6 1.5-3.6 3.5zM1409.8 1087.3c0 1.9 1.6 3.5 3.6 3.5h14.3c1.9 0 3.6-1.6 3.6-3.5s-1.7-3.5-3.6-3.5h-14.3c-2 0-3.6 1.5-3.6 3.5zM1451.5 1087.3c0 1.9 1.6 3.5 3.6 3.5h14.3c1.9 0 3.6-1.6 3.6-3.5s-1.7-3.5-3.6-3.5h-14.3c-2 0-3.6 1.5-3.6 3.5zM1493.1 1087.3c0 1.9 1.6 3.5 3.6 3.5h14.3c1.9 0 3.6-1.6 3.6-3.5s-1.7-3.5-3.6-3.5h-14.3c-2 0-3.6 1.5-3.6 3.5zM1534.8 1087.3c0 1.9 1.6 3.5 3.6 3.5h14.3c1.9 0 3.6-1.6 3.6-3.5s-1.7-3.5-3.6-3.5h-14.3c-2 0-3.6 1.5-3.6 3.5z"/>
                    </g>
                    <g id="Group_4">
                        <path d="M1118.3 1214.1c0 1.9 1.6 3.5 3.6 3.5h14.3c1.9 0 3.6-1.6 3.6-3.5s-1.7-3.5-3.6-3.5h-14.3c-2 .1-3.6 1.6-3.6 3.5zM1159.9 1214.1c0 1.9 1.6 3.5 3.6 3.5h14.3c1.9 0 3.6-1.6 3.6-3.5s-1.7-3.5-3.6-3.5h-14.3c-2 .1-3.6 1.6-3.6 3.5zM1201.6 1214.1c0 1.9 1.6 3.5 3.6 3.5h14.3c1.9 0 3.6-1.6 3.6-3.5s-1.7-3.5-3.6-3.5h-14.3c-2 .1-3.6 1.6-3.6 3.5zM1243.3 1214.1c0 1.9 1.6 3.5 3.6 3.5h14.3c1.9 0 3.6-1.6 3.6-3.5s-1.7-3.5-3.6-3.5h-14.3c-2.1.1-3.6 1.6-3.6 3.5zM1284.9 1214.1c0 1.9 1.6 3.5 3.6 3.5h14.3c1.9 0 3.6-1.6 3.6-3.5s-1.7-3.5-3.6-3.5h-14.3c-2 .1-3.6 1.6-3.6 3.5zM1326.6 1214.1c0 1.9 1.6 3.5 3.6 3.5h14.3c1.9 0 3.6-1.6 3.6-3.5s-1.7-3.5-3.6-3.5h-14.3c-2.1.1-3.6 1.6-3.6 3.5zM1368.2 1214.1c0 1.9 1.6 3.5 3.6 3.5h14.3c1.9 0 3.6-1.6 3.6-3.5s-1.7-3.5-3.6-3.5h-14.3c-2 .1-3.6 1.6-3.6 3.5zM1409.8 1214.1c0 1.9 1.6 3.5 3.6 3.5h14.3c1.9 0 3.6-1.6 3.6-3.5s-1.7-3.5-3.6-3.5h-14.3c-2 .1-3.6 1.6-3.6 3.5zM1451.5 1214.1c0 1.9 1.6 3.5 3.6 3.5h14.3c1.9 0 3.6-1.6 3.6-3.5s-1.7-3.5-3.6-3.5h-14.3c-2 .1-3.6 1.6-3.6 3.5zM1493.1 1214.1c0 1.9 1.6 3.5 3.6 3.5h14.3c1.9 0 3.6-1.6 3.6-3.5s-1.7-3.5-3.6-3.5h-14.3c-2 .1-3.6 1.6-3.6 3.5zM1534.8 1214.1c0 1.9 1.6 3.5 3.6 3.5h14.3c1.9 0 3.6-1.6 3.6-3.5s-1.7-3.5-3.6-3.5h-14.3c-2 .1-3.6 1.6-3.6 3.5z"/>
                    </g>
                    <g id="Group_5">
                        <path d="M1118.3 1341c0 1.9 1.6 3.5 3.6 3.5h14.3c1.9 0 3.6-1.6 3.6-3.5s-1.7-3.5-3.6-3.5h-14.3c-2 0-3.6 1.6-3.6 3.5zM1159.9 1341c0 1.9 1.6 3.5 3.6 3.5h14.3c1.9 0 3.6-1.6 3.6-3.5s-1.7-3.5-3.6-3.5h-14.3c-2 0-3.6 1.6-3.6 3.5zM1201.6 1341c0 1.9 1.6 3.5 3.6 3.5h14.3c1.9 0 3.6-1.6 3.6-3.5s-1.7-3.5-3.6-3.5h-14.3c-2 0-3.6 1.6-3.6 3.5zM1243.3 1341c0 1.9 1.6 3.5 3.6 3.5h14.3c1.9 0 3.6-1.6 3.6-3.5s-1.7-3.5-3.6-3.5h-14.3c-2.1 0-3.6 1.6-3.6 3.5zM1284.9 1341c0 1.9 1.6 3.5 3.6 3.5h14.3c1.9 0 3.6-1.6 3.6-3.5s-1.7-3.5-3.6-3.5h-14.3c-2 0-3.6 1.6-3.6 3.5zM1326.6 1341c0 1.9 1.6 3.5 3.6 3.5h14.3c1.9 0 3.6-1.6 3.6-3.5s-1.7-3.5-3.6-3.5h-14.3c-2.1 0-3.6 1.6-3.6 3.5zM1368.2 1341c0 1.9 1.6 3.5 3.6 3.5h14.3c1.9 0 3.6-1.6 3.6-3.5s-1.7-3.5-3.6-3.5h-14.3c-2 0-3.6 1.6-3.6 3.5zM1409.8 1341c0 1.9 1.6 3.5 3.6 3.5h14.3c1.9 0 3.6-1.6 3.6-3.5s-1.7-3.5-3.6-3.5h-14.3c-2 0-3.6 1.6-3.6 3.5zM1451.5 1341c0 1.9 1.6 3.5 3.6 3.5h14.3c1.9 0 3.6-1.6 3.6-3.5s-1.7-3.5-3.6-3.5h-14.3c-2 0-3.6 1.6-3.6 3.5zM1493.1 1341c0 1.9 1.6 3.5 3.6 3.5h14.3c1.9 0 3.6-1.6 3.6-3.5s-1.7-3.5-3.6-3.5h-14.3c-2 0-3.6 1.6-3.6 3.5zM1534.8 1341c0 1.9 1.6 3.5 3.6 3.5h14.3c1.9 0 3.6-1.6 3.6-3.5s-1.7-3.5-3.6-3.5h-14.3c-2 0-3.6 1.6-3.6 3.5z"/>
                    </g>
                    <g id="Group_6">
                        <path d="M1118.3 1467.8c0 1.9 1.6 3.5 3.6 3.5h14.3c1.9 0 3.6-1.6 3.6-3.5s-1.7-3.5-3.6-3.5h-14.3c-2 .1-3.6 1.6-3.6 3.5zM1159.9 1467.8c0 1.9 1.6 3.5 3.6 3.5h14.3c1.9 0 3.6-1.6 3.6-3.5s-1.7-3.5-3.6-3.5h-14.3c-2 .1-3.6 1.6-3.6 3.5zM1201.6 1467.8c0 1.9 1.6 3.5 3.6 3.5h14.3c1.9 0 3.6-1.6 3.6-3.5s-1.7-3.5-3.6-3.5h-14.3c-2 .1-3.6 1.6-3.6 3.5zM1243.3 1467.8c0 1.9 1.6 3.5 3.6 3.5h14.3c1.9 0 3.6-1.6 3.6-3.5s-1.7-3.5-3.6-3.5h-14.3c-2.1.1-3.6 1.6-3.6 3.5zM1284.9 1467.8c0 1.9 1.6 3.5 3.6 3.5h14.3c1.9 0 3.6-1.6 3.6-3.5s-1.7-3.5-3.6-3.5h-14.3c-2 .1-3.6 1.6-3.6 3.5zM1326.6 1467.8c0 1.9 1.6 3.5 3.6 3.5h14.3c1.9 0 3.6-1.6 3.6-3.5s-1.7-3.5-3.6-3.5h-14.3c-2.1.1-3.6 1.6-3.6 3.5zM1368.2 1467.8c0 1.9 1.6 3.5 3.6 3.5h14.3c1.9 0 3.6-1.6 3.6-3.5s-1.7-3.5-3.6-3.5h-14.3c-2 .1-3.6 1.6-3.6 3.5zM1409.8 1467.8c0 1.9 1.6 3.5 3.6 3.5h14.3c1.9 0 3.6-1.6 3.6-3.5s-1.7-3.5-3.6-3.5h-14.3c-2 .1-3.6 1.6-3.6 3.5zM1451.5 1467.8c0 1.9 1.6 3.5 3.6 3.5h14.3c1.9 0 3.6-1.6 3.6-3.5s-1.7-3.5-3.6-3.5h-14.3c-2 .1-3.6 1.6-3.6 3.5zM1493.1 1467.8c0 1.9 1.6 3.5 3.6 3.5h14.3c1.9 0 3.6-1.6 3.6-3.5s-1.7-3.5-3.6-3.5h-14.3c-2 .1-3.6 1.6-3.6 3.5zM1534.8 1467.8c0 1.9 1.6 3.5 3.6 3.5h14.3c1.9 0 3.6-1.6 3.6-3.5s-1.7-3.5-3.6-3.5h-14.3c-2 .1-3.6 1.6-3.6 3.5z"/>
                    </g>
                    <g id="Group_7">
                        <path d="M1114.5 1594.7c0 1.9 1.6 3.5 3.6 3.5h14.3c1.9 0 3.6-1.6 3.6-3.5s-1.7-3.5-3.6-3.5h-14.3c-2 0-3.6 1.6-3.6 3.5zM1156.2 1594.7c0 1.9 1.6 3.5 3.6 3.5h14.3c1.9 0 3.6-1.6 3.6-3.5s-1.7-3.5-3.6-3.5h-14.3c-2 0-3.6 1.6-3.6 3.5zM1197.8 1594.7c0 1.9 1.6 3.5 3.6 3.5h14.3c1.9 0 3.6-1.6 3.6-3.5s-1.7-3.5-3.6-3.5h-14.3c-2 0-3.6 1.6-3.6 3.5zM1239.5 1594.7c0 1.9 1.6 3.5 3.6 3.5h14.3c1.9 0 3.6-1.6 3.6-3.5s-1.7-3.5-3.6-3.5h-14.3c-2 0-3.6 1.6-3.6 3.5zM1281.1 1594.7c0 1.9 1.6 3.5 3.6 3.5h14.3c1.9 0 3.6-1.6 3.6-3.5s-1.7-3.5-3.6-3.5h-14.3c-2 0-3.6 1.6-3.6 3.5zM1322.8 1594.7c0 1.9 1.6 3.5 3.6 3.5h14.3c1.9 0 3.6-1.6 3.6-3.5s-1.7-3.5-3.6-3.5h-14.3c-2.1 0-3.6 1.6-3.6 3.5zM1364.4 1594.7c0 1.9 1.6 3.5 3.6 3.5h14.3c1.9 0 3.6-1.6 3.6-3.5s-1.7-3.5-3.6-3.5H1368c-2 0-3.6 1.6-3.6 3.5zM1406.1 1594.7c0 1.9 1.6 3.5 3.6 3.5h14.3c1.9 0 3.6-1.6 3.6-3.5s-1.7-3.5-3.6-3.5h-14.3c-2 0-3.6 1.6-3.6 3.5zM1447.7 1594.7c0 1.9 1.6 3.5 3.6 3.5h14.3c1.9 0 3.6-1.6 3.6-3.5s-1.7-3.5-3.6-3.5h-14.3c-2 0-3.6 1.6-3.6 3.5zM1489.4 1594.7c0 1.9 1.6 3.5 3.6 3.5h14.3c1.9 0 3.6-1.6 3.6-3.5s-1.7-3.5-3.6-3.5H1493c-2.1 0-3.6 1.6-3.6 3.5zM1531 1594.7c0 1.9 1.6 3.5 3.6 3.5h14.3c1.9 0 3.6-1.6 3.6-3.5s-1.7-3.5-3.6-3.5h-14.3c-2 0-3.6 1.6-3.6 3.5z"/>
                    </g>
                    <path class="st1" d="M964.2 786.7v1496c0 64.7 52.5 117.3 117.3 117.3h376.3c64.7 0 117.3-52.5 117.3-117.3v-1496H964.2zm601.7 27.7v1052.8h-18.6v415.5c0 49.4-40.1 89.6-89.6 89.6h-376.3c-49.4 0-89.6-40.1-89.6-89.6v-415.5h-18.6V814.4h592.7z"/>
                    <g id="Group_8">
                        <path class="st1" d="M429.1 2030.2c0 83.8 28.9 154.2 68 173.9 17.4 0 34.7-1.2 47.6-3.6h-35.8c-3.1-2.4-6.1-5.1-9.1-8h39.5c2.7 2.7 15.2 5.7 17.9 4.7 37.8 0 68.6-74.8 68.6-166.9 0-85.2-26.3-155.5-60.2-165.6-2.8-.8-25.1-7.6-69.6-7.6-38.5 20.3-66.9 90.1-66.9 173.1zm.9-167.2c-5.5 3.5-10.8 7.7-15.8 12.5h26.5c-2.3 2.4-4.6 4.9-6.8 7.5H407c-3.6 4.2-7.1 8.7-10.4 13.6h27.1c-1.8 2.8-3.6 5.6-5.3 8.6h-27.2c-3.8 6.5-7.3 13.5-10.5 20.9h27.2c-1.4 3.2-2.8 6.6-4.1 10h-27.1c-3.2 8.7-6 17.8-8.4 27.4h27c-.8 3.3-1.6 6.6-2.3 10h-26.9c-1.8 9.2-3.3 18.7-4.2 28.5h26.8c-.3 3.3-.6 6.6-.8 10h-26.8c-.4 6-.6 12.1-.6 18.3 0 3.3.1 6.7.2 10h26.8c.2 5.5.5 11 1 16.3h-26.8c.7 7.9 1.7 15.6 3 23.1h26.9c1 5.6 2.1 11 3.4 16.3h-26.9c1.8 7.7 4 15.1 6.4 22.2h27.1c1.8 5.1 3.7 10.1 5.8 15h-27.1c2.5 5.8 5.1 11.3 8 16.6h27.2c2.8 5.2 5.9 10.2 9.1 14.9h-27.1c2.8 4 5.6 7.8 8.6 11.4H433c2.9 3.5 5.9 6.9 8.9 10h-26.4c2.4 2.3 4.9 4.4 7.5 6.4h25.7c3.4 2.9 6.8 5.6 10.4 8l23.8 3.3c-39.9-20.2-69.4-90.2-69.4-173.5 0-82.2 28.8-151.6 67.9-172.7-15.4.7-39.4 2.5-51.4 5.4zm96.5 20.1H487c1.9-2.6 3.9-5.1 5.9-7.5h39.5c-2 2.3-4 4.8-5.9 7.5zm-13.5 22.1h-39.5c1.5-3 3.1-5.8 4.7-8.6h39.5c-1.7 2.8-3.2 5.7-4.7 8.6zm86.4 125c0 69.7-17.9 126.2-40 126.2s-40-56.5-40-126.2 17.9-126.2 40-126.2c22 0 40 56.5 40 126.2zm-99.2-94.2h-39.5c1.1-3.4 2.3-6.7 3.6-10h39.5c-1.3 3.3-2.5 6.6-3.6 10zm25.2 94.2c0 55.1 13.1 99.8 29.2 99.8s29.2-44.7 29.2-99.8c0-55.1-13.1-99.8-29.2-99.8s-29.2 44.7-29.2 99.8zm-34.6-56.8h-39.5c.6-3.4 1.3-6.7 2-10h39.5c-.8 3.3-1.4 6.7-2 10zm-4.5 38.4h-39.5c.2-3.3.4-6.7.7-10H487c-.3 3.4-.5 6.7-.7 10zm.5 44.7h-39.5c-.4-5.4-.7-10.8-.9-16.3h39.5c.2 5.4.5 10.9.9 16.3zm5.7 39.4H453c-1.1-5.3-2.1-10.8-3-16.3h39.5c.9 5.5 1.9 11 3 16.3zm10.8 37.2h-39.5c-1.8-4.8-3.5-9.8-5.1-15h39.5c1.6 5.2 3.3 10.2 5.1 15zm14.9 31.6h-39.5c-2.8-4.7-5.4-9.7-7.9-15h39.5c2.5 5.2 5.1 10.2 7.9 15zm15.2 21.3h-39.5c-2.7-3.1-5.3-6.4-7.8-10h39.5c2.5 3.6 5.1 6.9 7.8 10zM656.6 2154.5v11.2c0 2 1.6 3.5 3.5 3.5h3.4v163.2c0 7.2 5.8 13 13 13h80.9c7.2 0 13-5.8 13-13v-82.8c8.2-.7 14.7-3.3 19.4-7.9 5.7-5.6 7.8-13.3 7.8-21.5v-40.9c0-10.8 8-16.4 16.6-16.5 8.4-.1 16.5 5.1 16.5 16.7l-.8 78c-5.1 2-8.7 7.1-8.7 12.9.1 38.1-31.4 37.8-32.7 37.8-2.4 0-4.3 1.9-4.3 4.3s1.9 4.3 4.3 4.3c33.6 0 60.5-24.5 60.5-46.4 0-5.8-3.6-10.8-8.7-12.9l.8-77.9c0-18.3-13.8-27.3-27-27.2-13.2.2-26.9 9.5-26.9 26.9v40.9c0 6.6-1.7 11.1-4.7 14.1-2.4 2.4-6.2 4.2-12.2 4.9v-69.9h3.4c2 0 3.5-1.6 3.5-3.5v-11.2c0-1.9-1.6-3.5-3.5-3.5H660.2c-2-.2-3.6 1.4-3.6 3.4zm99.7 126.2v46c0 2.1-1.7 3.7-3.7 3.7h-71.2c-2 0-3.7-1.7-3.7-3.7v-46c0-2.1 1.7-3.7 3.7-3.7h71.2c2.1 0 3.7 1.6 3.7 3.7z"/>
                    </g>
                    <g id="Group_9">
                        <path class="st1" d="M1129.6 2030.2c0 83.8 28.9 154.2 68 173.9 17.4 0 34.7-1.2 47.6-3.6h-35.8c-3.1-2.4-6.1-5.1-9.1-8h39.5c2.7 2.7 15.2 5.7 17.9 4.7 37.9 0 68.6-74.8 68.6-166.9 0-85.2-26.3-155.5-60.2-165.6-2.8-.8-25.1-7.6-69.6-7.6-38.6 20.3-66.9 90.1-66.9 173.1zm.9-167.2c-5.5 3.5-10.8 7.7-15.8 12.5h26.5c-2.3 2.4-4.6 4.9-6.8 7.5h-26.9c-3.6 4.2-7.1 8.7-10.4 13.6h27.1c-1.8 2.8-3.6 5.6-5.4 8.6h-27.2c-3.8 6.5-7.3 13.5-10.5 20.9h27.2c-1.4 3.2-2.8 6.6-4.1 10h-27.1c-3.2 8.7-6.1 17.8-8.4 27.4h27c-.8 3.3-1.6 6.6-2.3 10h-26.9c-1.9 9.2-3.3 18.7-4.2 28.5h26.8c-.3 3.3-.6 6.6-.8 10h-26.8c-.4 6-.5 12.1-.5 18.3 0 3.3.1 6.7.2 10h26.8c.2 5.5.5 11 1 16.3h-26.8c.7 7.9 1.7 15.6 3 23.1h26.9c1 5.6 2.1 11 3.4 16.3h-26.9c1.8 7.7 4 15.1 6.4 22.2h27.1c1.8 5.1 3.7 10.1 5.8 15h-27.1c2.5 5.8 5.1 11.3 8 16.6h27.2c2.8 5.2 5.9 10.2 9 14.9h-27.1c2.8 4 5.7 7.8 8.7 11.4h26.9c2.9 3.5 5.8 6.9 8.9 10h-26.3c2.4 2.3 4.9 4.4 7.4 6.4h25.7c3.4 2.9 6.8 5.6 10.4 8l23.8 3.3c-39.9-20.2-69.4-90.2-69.4-173.5 0-82.2 28.7-151.6 67.9-172.7-15.4.7-39.4 2.5-51.4 5.4zm96.5 20.1h-39.5c1.9-2.6 3.9-5.1 5.9-7.5h39.5c-2 2.3-4 4.8-5.9 7.5zm-13.5 22.1H1174c1.5-3 3.1-5.8 4.7-8.6h39.5c-1.7 2.8-3.2 5.7-4.7 8.6zm86.4 125c0 69.7-17.9 126.2-40 126.2s-40-56.5-40-126.2 17.9-126.2 40-126.2c22 0 40 56.5 40 126.2zm-99.2-94.2h-39.5c1.1-3.4 2.3-6.7 3.5-10h39.5c-1.2 3.3-2.4 6.6-3.5 10zm25.1 94.2c0 55.1 13.1 99.8 29.2 99.8s29.2-44.7 29.2-99.8c0-55.1-13.1-99.8-29.2-99.8s-29.2 44.7-29.2 99.8zm-34.5-56.8h-39.5c.6-3.4 1.3-6.7 2-10h39.5c-.8 3.3-1.5 6.7-2 10zm-4.5 38.4h-39.5c.2-3.3.4-6.7.7-10h39.5c-.3 3.4-.6 6.7-.7 10zm.5 44.7h-39.5c-.4-5.4-.7-10.8-.9-16.3h39.5c.2 5.4.5 10.9.9 16.3zm5.7 39.4h-39.5c-1.1-5.3-2.2-10.8-3-16.3h39.5c.9 5.5 1.9 11 3 16.3zm10.8 37.2h-39.5c-1.8-4.8-3.5-9.8-5-15h39.5c1.5 5.2 3.1 10.2 5 15zm14.9 31.6h-39.5c-2.8-4.7-5.4-9.7-7.9-15h39.5c2.5 5.2 5.1 10.2 7.9 15zm15.1 21.3h-39.5c-2.7-3.1-5.3-6.4-7.8-10h39.5c2.6 3.6 5.2 6.9 7.8 10zM1028.2 1988.8c38.2 11.1 19.1-46.2 41.8-68.8-44.4 7.2-64.3 62.3-41.8 68.8zM1378.2 1978.9c19.7-26.6-29.2-31.7-45.9-58.9-3.4 44.8 32 77.6 45.9 58.9zM1393.4 1904c2.2-49.5-62.8-17.8-89.6-35.4 40.9 52.5 80.5 67.2 89.6 35.4zM1033.4 1894.1c-1.4-32.3 41-11.6 58.4-23.1-27.5 45.3-52.4 43.8-58.4 23.1zM1350.8 2163.8c-8.7 5.1-12.5 16.1-7.5 24.6 4.5 7.7 18.9 18.1 31.9 21 1.5.3 3.1-.6 3.5-2.1 3.8-12.7 1.7-30.4-2.8-38.1-4.9-8.5-16.3-10.6-25.1-5.4zm53.7 0c-8.7 5.1-12.5 16.1-7.5 24.6 4.5 7.7 18.9 18.1 31.9 21 1.5.3 3.1-.6 3.5-2.1 3.8-12.7 1.7-30.4-2.8-38.1-5-8.5-16.3-10.6-25.1-5.4zm-33.7 8.4c1.7 2.9 3.2 8.3 3.7 14.7.4 4.7.3 9.8-.5 14.3l-.3 1.5-1.6-.5c-10.3-3.7-20.6-11.7-23.7-16.9-3.1-5.2-1-12.7 5.4-16.4 6.5-3.8 14-1.9 17 3.3zm53.7 0c1.7 2.9 3.2 8.3 3.7 14.7.4 4.7.3 9.8-.5 14.3l-.3 1.5-1.6-.5c-10.3-3.7-20.6-11.7-23.7-16.9-3.1-5.2-1-12.7 5.4-16.4 6.4-3.8 13.9-1.9 17 3.3zm-88.1 38.9c-7.5 4.4-11.8 12.4-11.3 20.3h-11.3c-17.2 0-31.1 8.2-31.1 18.3 0 10.1 14 18.3 31.1 18.3 5.4 0 10.4-.8 14.8-2.2-.4 2-.7 4.1-.7 6.2 0 17.9 16.4 32.4 36.7 32.4 4.3 0 8.3-.6 12.1-1.8 0 21.3 19.6 38.6 43.7 38.6s43.7-17.3 43.7-38.6v-1.4c11.1-5 18.7-15.2 18.7-26.9 0-2.5-.3-4.9-1-7.2 3.1.6 6.4.9 9.9.9 17.2 0 31.1-8.2 31.1-18.3 0-10.1-13.9-18.3-31.1-18.3h-14.4c-1-5.7-2.5-10.6-4.5-14-5.8-9.9-19-12.3-29.2-6.3-7.5 4.4-11.8 12.4-11.3 20.3h-9.1c-1-5.7-2.5-10.6-4.5-14-5.8-9.9-19-12.3-29.2-6.3-7.5 4.4-11.8 12.4-11.3 20.3h-8.3c-1-5.7-2.5-10.6-4.5-14-5.6-10-18.8-12.3-29-6.3zm23.3 9.8c2 3.3 3.7 9.6 4.3 17.1.5 5.5.3 11.3-.6 16.6l-.4 1.8-1.9-.6c-12-4.3-23.9-13.5-27.5-19.7-3.5-6-1.2-14.7 6.3-19.1 7.5-4.4 16.2-2.2 19.8 3.9zm53.2 0c2 3.3 3.7 9.6 4.3 17.1.5 5.5.4 11.3-.6 16.6l-.3 1.8-1.9-.6c-12-4.3-23.9-13.5-27.5-19.7-3.5-6-1.2-14.7 6.2-19.1 7.6-4.4 16.3-2.2 19.8 3.9zm54 0c2 3.3 3.7 9.6 4.3 17.1.5 5.5.3 11.3-.6 16.6l-.4 1.8-1.8-.6c-12-4.3-23.9-13.5-27.5-19.7-3.5-6-1.2-14.7 6.3-19.1 7.5-4.4 16.2-2.2 19.7 3.9z"/>
                    </g>
                    <path class="st1" d="M436.1 454.8c0 83.8 29 154.2 68 173.8 17.4.1 34.7-1.2 47.6-3.6h-35.8c-3.1-2.4-6.1-5.1-9.1-8h39.5c2.7 2.7 15.2 5.7 17.9 4.7 28.7 0 53.4-43.1 63.6-104.2l-18-15-2.1.4h-4.3c-6 45.8-20.3 78-37 78-22.1 0-40-56.5-40-126.2s17.9-126.2 40-126.2c18 0 33.3 37.7 38.3 89.5h3l2.1.4 19.5-16.2h.1c-8.2-60.1-30.1-105.1-56.7-113.1-2.8-.8-25.1-7.6-69.7-7.6-38.5 20.5-66.9 90.4-66.9 173.3zm.9-167.2c-5.5 3.5-10.8 7.7-15.8 12.5h26.5c-2.3 2.4-4.6 4.9-6.8 7.6H414c-3.6 4.2-7.1 8.7-10.4 13.6h27.1c-1.8 2.8-3.6 5.6-5.4 8.6h-27.2c-3.8 6.5-7.3 13.4-10.5 20.8H415c-1.4 3.2-2.8 6.6-4.1 10h-27.1c-3.2 8.7-6 17.9-8.4 27.4h27c-.8 3.3-1.6 6.6-2.3 10h-26.9c-1.8 9.2-3.3 18.7-4.2 28.5h26.8c-.3 3.3-.6 6.6-.8 10h-26.8c-.4 6-.6 12.1-.6 18.3 0 3.3.1 6.7.2 10h26.8c.2 5.5.5 11 1 16.3h-26.8c.7 7.9 1.7 15.6 3 23.1h26.9c1 5.6 2.1 11 3.4 16.3h-26.9c1.8 7.7 4 15.1 6.4 22.2h27.1c1.8 5.1 3.7 10.1 5.8 14.9h-27.1c2.5 5.8 5.1 11.4 8 16.6h27.2c2.8 5.2 5.9 10.2 9 15h-27.1c2.8 4 5.6 7.8 8.6 11.4H440c2.9 3.5 5.9 6.8 8.9 10h-26.4c2.4 2.3 4.9 4.4 7.5 6.4h25.7c3.4 2.9 6.8 5.6 10.4 8l23.8 3.3c-39.9-20.1-69.4-90.2-69.4-173.5 0-82.2 28.8-151.6 67.9-172.7-15.3.8-39.4 2.6-51.4 5.4zm96.5 20.1H494c1.9-2.6 3.9-5.2 5.9-7.5h39.5c-2 2.3-3.9 4.9-5.9 7.5zM520 329.9h-39.5c1.5-3 3.1-5.8 4.7-8.6h39.5c-1.6 2.7-3.2 5.6-4.7 8.6zm-12.8 30.8h-39.5c1.1-3.4 2.3-6.7 3.6-10h39.5c-1.3 3.3-2.4 6.6-3.6 10zm25.2 94.1c0 55.1 13.1 99.8 29.2 99.8 11 0 20.6-20.9 25.6-51.6h-17.8c-7.3 0-13.1-5.9-13.1-13.1v-58.6c0-7.3 5.9-13.1 13.1-13.1h19.4c-4.3-36.9-14.8-63.1-27.2-63.1-16.1-.1-29.2 44.7-29.2 99.7zm148.2-78.1L615 431.2v58.6l65.6 54.5V376.7zm-182.8 21.4h-39.5c.6-3.4 1.3-6.7 2-10h39.5c-.8 3.3-1.4 6.6-2 10zm-4.5 38.4h-39.5c.2-3.4.4-6.7.7-10H494c-.3 3.3-.5 6.6-.7 10zm76.1-5.3v58.6h38.3v-58.6h-38.3zm-75.5 49.9h-39.5c-.4-5.4-.7-10.8-.9-16.3H493c.1 5.5.4 10.9.9 16.3zm5.6 39.5H460c-1.1-5.3-2.1-10.8-3-16.3h39.5c.9 5.5 1.9 11 3 16.3zm10.8 37.1h-39.5c-1.8-4.8-3.5-9.8-5.1-14.9h39.5c1.6 5.1 3.3 10.1 5.1 14.9zm14.9 31.6h-39.5c-2.8-4.7-5.4-9.7-7.9-15h39.5c2.5 5.3 5.2 10.3 7.9 15zm15.2 21.3h-39.5c-2.7-3.1-5.3-6.4-7.8-10h39.5c2.5 3.6 5.1 6.9 7.8 10z"/>
                    <g id="Group_10">
                        <g id="Group_11">
                            <path d="M243.4 1721.6c0 1.9 1.6 3.5 3.6 3.5h14.3c1.9 0 3.6-1.6 3.6-3.5s-1.7-3.5-3.6-3.5H247c-2 0-3.6 1.6-3.6 3.5zM285 1721.6c0 1.9 1.6 3.5 3.6 3.5h14.3c1.9 0 3.6-1.6 3.6-3.5s-1.7-3.5-3.6-3.5h-14.3c-2 0-3.6 1.6-3.6 3.5zM326.7 1721.6c0 1.9 1.6 3.5 3.6 3.5h14.3c1.9 0 3.6-1.6 3.6-3.5s-1.7-3.5-3.6-3.5h-14.3c-2 0-3.6 1.6-3.6 3.5zM368.3 1721.6c0 1.9 1.6 3.5 3.6 3.5h14.3c1.9 0 3.6-1.6 3.6-3.5s-1.7-3.5-3.6-3.5h-14.3c-2 0-3.6 1.6-3.6 3.5zM410 1721.6c0 1.9 1.6 3.5 3.6 3.5h14.3c1.9 0 3.6-1.6 3.6-3.5s-1.7-3.5-3.6-3.5h-14.3c-2 0-3.6 1.6-3.6 3.5zM451.6 1721.6c0 1.9 1.6 3.5 3.6 3.5h14.3c1.9 0 3.6-1.6 3.6-3.5s-1.7-3.5-3.6-3.5h-14.3c-2 0-3.6 1.6-3.6 3.5zM493.3 1721.6c0 1.9 1.6 3.5 3.6 3.5h14.3c1.9 0 3.6-1.6 3.6-3.5s-1.7-3.5-3.6-3.5h-14.3c-2 0-3.6 1.6-3.6 3.5zM534.9 1721.6c0 1.9 1.6 3.5 3.6 3.5h14.3c1.9 0 3.6-1.6 3.6-3.5s-1.7-3.5-3.6-3.5h-14.3c-2 0-3.6 1.6-3.6 3.5zM576.6 1721.6c0 1.9 1.6 3.5 3.6 3.5h14.3c1.9 0 3.6-1.6 3.6-3.5s-1.7-3.5-3.6-3.5h-14.3c-2 0-3.6 1.6-3.6 3.5zM618.2 1721.6c0 1.9 1.6 3.5 3.6 3.5h14.3c1.9 0 3.6-1.6 3.6-3.5s-1.7-3.5-3.6-3.5h-14.3c-2 0-3.6 1.6-3.6 3.5zM659.9 1721.6c0 1.9 1.6 3.5 3.6 3.5h14.3c1.9 0 3.6-1.6 3.6-3.5s-1.7-3.5-3.6-3.5h-14.3c-2 0-3.6 1.6-3.6 3.5zM701.5 1721.6c0 1.9 1.6 3.5 3.6 3.5h14.3c1.9 0 3.6-1.6 3.6-3.5s-1.7-3.5-3.6-3.5h-14.3c-2 0-3.6 1.6-3.6 3.5zM743.2 1721.6c0 1.9 1.6 3.5 3.6 3.5H761c1.9 0 3.6-1.6 3.6-3.5s-1.7-3.5-3.6-3.5h-14.3c-1.9 0-3.5 1.6-3.5 3.5zM784.8 1721.6c0 1.9 1.6 3.5 3.6 3.5h14.3c1.9 0 3.6-1.6 3.6-3.5s-1.7-3.5-3.6-3.5h-14.3c-2 0-3.6 1.6-3.6 3.5zM826.5 1721.6c0 1.9 1.6 3.5 3.6 3.5h14.3c1.9 0 3.6-1.6 3.6-3.5s-1.7-3.5-3.6-3.5H830c-2 0-3.5 1.6-3.5 3.5zM868.1 1721.6c0 1.9 1.6 3.5 3.6 3.5H886c1.9 0 3.6-1.6 3.6-3.5s-1.7-3.5-3.6-3.5h-14.3c-2 0-3.6 1.6-3.6 3.5z"/>
                        </g>
                        <g id="Group_12">
                            <path d="M285 1594.7c0 1.9 1.6 3.5 3.6 3.5h14.3c1.9 0 3.6-1.6 3.6-3.5s-1.7-3.5-3.6-3.5h-14.3c-2 0-3.6 1.6-3.6 3.5zM326.7 1594.7c0 1.9 1.6 3.5 3.6 3.5h14.3c1.9 0 3.6-1.6 3.6-3.5s-1.7-3.5-3.6-3.5h-14.3c-2 0-3.6 1.6-3.6 3.5zM368.3 1594.7c0 1.9 1.6 3.5 3.6 3.5h14.3c1.9 0 3.6-1.6 3.6-3.5s-1.7-3.5-3.6-3.5h-14.3c-2 0-3.6 1.6-3.6 3.5zM410 1594.7c0 1.9 1.6 3.5 3.6 3.5h14.3c1.9 0 3.6-1.6 3.6-3.5s-1.7-3.5-3.6-3.5h-14.3c-2 0-3.6 1.6-3.6 3.5zM451.6 1594.7c0 1.9 1.6 3.5 3.6 3.5h14.3c1.9 0 3.6-1.6 3.6-3.5s-1.7-3.5-3.6-3.5h-14.3c-2 0-3.6 1.6-3.6 3.5zM493.3 1594.7c0 1.9 1.6 3.5 3.6 3.5h14.3c1.9 0 3.6-1.6 3.6-3.5s-1.7-3.5-3.6-3.5h-14.3c-2 0-3.6 1.6-3.6 3.5zM534.9 1594.7c0 1.9 1.6 3.5 3.6 3.5h14.3c1.9 0 3.6-1.6 3.6-3.5s-1.7-3.5-3.6-3.5h-14.3c-2 0-3.6 1.6-3.6 3.5zM576.6 1594.7c0 1.9 1.6 3.5 3.6 3.5h14.3c1.9 0 3.6-1.6 3.6-3.5s-1.7-3.5-3.6-3.5h-14.3c-2 0-3.6 1.6-3.6 3.5zM618.2 1594.7c0 1.9 1.6 3.5 3.6 3.5h14.3c1.9 0 3.6-1.6 3.6-3.5s-1.7-3.5-3.6-3.5h-14.3c-2 0-3.6 1.6-3.6 3.5zM659.9 1594.7c0 1.9 1.6 3.5 3.6 3.5h14.3c1.9 0 3.6-1.6 3.6-3.5s-1.7-3.5-3.6-3.5h-14.3c-2 0-3.6 1.6-3.6 3.5zM701.5 1594.7c0 1.9 1.6 3.5 3.6 3.5h14.3c1.9 0 3.6-1.6 3.6-3.5s-1.7-3.5-3.6-3.5h-14.3c-2 0-3.6 1.6-3.6 3.5zM743.2 1594.7c0 1.9 1.6 3.5 3.6 3.5H761c1.9 0 3.6-1.6 3.6-3.5s-1.7-3.5-3.6-3.5h-14.3c-1.9 0-3.5 1.6-3.5 3.5zM784.8 1594.7c0 1.9 1.6 3.5 3.6 3.5h14.3c1.9 0 3.6-1.6 3.6-3.5s-1.7-3.5-3.6-3.5h-14.3c-2 0-3.6 1.6-3.6 3.5zM826.5 1594.7c0 1.9 1.6 3.5 3.6 3.5h14.3c1.9 0 3.6-1.6 3.6-3.5s-1.7-3.5-3.6-3.5H830c-2 0-3.5 1.6-3.5 3.5zM868.1 1594.7c0 1.9 1.6 3.5 3.6 3.5H886c1.9 0 3.6-1.6 3.6-3.5s-1.7-3.5-3.6-3.5h-14.3c-2 0-3.6 1.6-3.6 3.5z"/>
                        </g>
                        <g id="Group_13">
                            <path d="M326.7 1467.8c0 1.9 1.6 3.5 3.6 3.5h14.3c1.9 0 3.6-1.6 3.6-3.5s-1.7-3.5-3.6-3.5h-14.3c-2 .1-3.6 1.6-3.6 3.5zM368.3 1467.8c0 1.9 1.6 3.5 3.6 3.5h14.3c1.9 0 3.6-1.6 3.6-3.5s-1.7-3.5-3.6-3.5h-14.3c-2 .1-3.6 1.6-3.6 3.5zM410 1467.8c0 1.9 1.6 3.5 3.6 3.5h14.3c1.9 0 3.6-1.6 3.6-3.5s-1.7-3.5-3.6-3.5h-14.3c-2 .1-3.6 1.6-3.6 3.5zM451.6 1467.8c0 1.9 1.6 3.5 3.6 3.5h14.3c1.9 0 3.6-1.6 3.6-3.5s-1.7-3.5-3.6-3.5h-14.3c-2 .1-3.6 1.6-3.6 3.5zM493.3 1467.8c0 1.9 1.6 3.5 3.6 3.5h14.3c1.9 0 3.6-1.6 3.6-3.5s-1.7-3.5-3.6-3.5h-14.3c-2 .1-3.6 1.6-3.6 3.5zM534.9 1467.8c0 1.9 1.6 3.5 3.6 3.5h14.3c1.9 0 3.6-1.6 3.6-3.5s-1.7-3.5-3.6-3.5h-14.3c-2 .1-3.6 1.6-3.6 3.5zM576.6 1467.8c0 1.9 1.6 3.5 3.6 3.5h14.3c1.9 0 3.6-1.6 3.6-3.5s-1.7-3.5-3.6-3.5h-14.3c-2 .1-3.6 1.6-3.6 3.5zM618.2 1467.8c0 1.9 1.6 3.5 3.6 3.5h14.3c1.9 0 3.6-1.6 3.6-3.5s-1.7-3.5-3.6-3.5h-14.3c-2 .1-3.6 1.6-3.6 3.5zM659.9 1467.8c0 1.9 1.6 3.5 3.6 3.5h14.3c1.9 0 3.6-1.6 3.6-3.5s-1.7-3.5-3.6-3.5h-14.3c-2 .1-3.6 1.6-3.6 3.5zM701.5 1467.8c0 1.9 1.6 3.5 3.6 3.5h14.3c1.9 0 3.6-1.6 3.6-3.5s-1.7-3.5-3.6-3.5h-14.3c-2 .1-3.6 1.6-3.6 3.5zM743.2 1467.8c0 1.9 1.6 3.5 3.6 3.5H761c1.9 0 3.6-1.6 3.6-3.5s-1.7-3.5-3.6-3.5h-14.3c-1.9.1-3.5 1.6-3.5 3.5zM784.8 1467.8c0 1.9 1.6 3.5 3.6 3.5h14.3c1.9 0 3.6-1.6 3.6-3.5s-1.7-3.5-3.6-3.5h-14.3c-2 .1-3.6 1.6-3.6 3.5zM826.5 1467.8c0 1.9 1.6 3.5 3.6 3.5h14.3c1.9 0 3.6-1.6 3.6-3.5s-1.7-3.5-3.6-3.5H830c-2 .1-3.5 1.6-3.5 3.5zM868.1 1467.8c0 1.9 1.6 3.5 3.6 3.5H886c1.9 0 3.6-1.6 3.6-3.5s-1.7-3.5-3.6-3.5h-14.3c-2 .1-3.6 1.6-3.6 3.5z"/>
                        </g>
                        <g id="Group_14">
                            <path d="M368.3 1341c0 1.9 1.6 3.5 3.6 3.5h14.3c1.9 0 3.6-1.6 3.6-3.5s-1.7-3.5-3.6-3.5h-14.3c-2 0-3.6 1.6-3.6 3.5zM410 1341c0 1.9 1.6 3.5 3.6 3.5h14.3c1.9 0 3.6-1.6 3.6-3.5s-1.7-3.5-3.6-3.5h-14.3c-2 0-3.6 1.6-3.6 3.5zM451.6 1341c0 1.9 1.6 3.5 3.6 3.5h14.3c1.9 0 3.6-1.6 3.6-3.5s-1.7-3.5-3.6-3.5h-14.3c-2 0-3.6 1.6-3.6 3.5zM493.3 1341c0 1.9 1.6 3.5 3.6 3.5h14.3c1.9 0 3.6-1.6 3.6-3.5s-1.7-3.5-3.6-3.5h-14.3c-2 0-3.6 1.6-3.6 3.5zM534.9 1341c0 1.9 1.6 3.5 3.6 3.5h14.3c1.9 0 3.6-1.6 3.6-3.5s-1.7-3.5-3.6-3.5h-14.3c-2 0-3.6 1.6-3.6 3.5zM576.6 1341c0 1.9 1.6 3.5 3.6 3.5h14.3c1.9 0 3.6-1.6 3.6-3.5s-1.7-3.5-3.6-3.5h-14.3c-2 0-3.6 1.6-3.6 3.5zM618.2 1341c0 1.9 1.6 3.5 3.6 3.5h14.3c1.9 0 3.6-1.6 3.6-3.5s-1.7-3.5-3.6-3.5h-14.3c-2 0-3.6 1.6-3.6 3.5zM659.9 1341c0 1.9 1.6 3.5 3.6 3.5h14.3c1.9 0 3.6-1.6 3.6-3.5s-1.7-3.5-3.6-3.5h-14.3c-2 0-3.6 1.6-3.6 3.5zM701.5 1341c0 1.9 1.6 3.5 3.6 3.5h14.3c1.9 0 3.6-1.6 3.6-3.5s-1.7-3.5-3.6-3.5h-14.3c-2 0-3.6 1.6-3.6 3.5zM743.2 1341c0 1.9 1.6 3.5 3.6 3.5H761c1.9 0 3.6-1.6 3.6-3.5s-1.7-3.5-3.6-3.5h-14.3c-1.9 0-3.5 1.6-3.5 3.5zM784.8 1341c0 1.9 1.6 3.5 3.6 3.5h14.3c1.9 0 3.6-1.6 3.6-3.5s-1.7-3.5-3.6-3.5h-14.3c-2 0-3.6 1.6-3.6 3.5zM826.5 1341c0 1.9 1.6 3.5 3.6 3.5h14.3c1.9 0 3.6-1.6 3.6-3.5s-1.7-3.5-3.6-3.5H830c-2 0-3.5 1.6-3.5 3.5zM868.1 1341c0 1.9 1.6 3.5 3.6 3.5H886c1.9 0 3.6-1.6 3.6-3.5s-1.7-3.5-3.6-3.5h-14.3c-2 0-3.6 1.6-3.6 3.5z"/>
                        </g>
                        <g id="Group_15">
                            <path d="M410 1214.1c0 1.9 1.6 3.5 3.6 3.5h14.3c1.9 0 3.6-1.6 3.6-3.5s-1.7-3.5-3.6-3.5h-14.3c-2 .1-3.6 1.6-3.6 3.5zM451.6 1214.1c0 1.9 1.6 3.5 3.6 3.5h14.3c1.9 0 3.6-1.6 3.6-3.5s-1.7-3.5-3.6-3.5h-14.3c-2 .1-3.6 1.6-3.6 3.5zM493.3 1214.1c0 1.9 1.6 3.5 3.6 3.5h14.3c1.9 0 3.6-1.6 3.6-3.5s-1.7-3.5-3.6-3.5h-14.3c-2 .1-3.6 1.6-3.6 3.5zM534.9 1214.1c0 1.9 1.6 3.5 3.6 3.5h14.3c1.9 0 3.6-1.6 3.6-3.5s-1.7-3.5-3.6-3.5h-14.3c-2 .1-3.6 1.6-3.6 3.5zM576.6 1214.1c0 1.9 1.6 3.5 3.6 3.5h14.3c1.9 0 3.6-1.6 3.6-3.5s-1.7-3.5-3.6-3.5h-14.3c-2 .1-3.6 1.6-3.6 3.5zM618.2 1214.1c0 1.9 1.6 3.5 3.6 3.5h14.3c1.9 0 3.6-1.6 3.6-3.5s-1.7-3.5-3.6-3.5h-14.3c-2 .1-3.6 1.6-3.6 3.5zM659.9 1214.1c0 1.9 1.6 3.5 3.6 3.5h14.3c1.9 0 3.6-1.6 3.6-3.5s-1.7-3.5-3.6-3.5h-14.3c-2 .1-3.6 1.6-3.6 3.5zM701.5 1214.1c0 1.9 1.6 3.5 3.6 3.5h14.3c1.9 0 3.6-1.6 3.6-3.5s-1.7-3.5-3.6-3.5h-14.3c-2 .1-3.6 1.6-3.6 3.5zM743.2 1214.1c0 1.9 1.6 3.5 3.6 3.5H761c1.9 0 3.6-1.6 3.6-3.5s-1.7-3.5-3.6-3.5h-14.3c-1.9.1-3.5 1.6-3.5 3.5zM784.8 1214.1c0 1.9 1.6 3.5 3.6 3.5h14.3c1.9 0 3.6-1.6 3.6-3.5s-1.7-3.5-3.6-3.5h-14.3c-2 .1-3.6 1.6-3.6 3.5zM826.5 1214.1c0 1.9 1.6 3.5 3.6 3.5h14.3c1.9 0 3.6-1.6 3.6-3.5s-1.7-3.5-3.6-3.5H830c-2 .1-3.5 1.6-3.5 3.5zM868.1 1214.1c0 1.9 1.6 3.5 3.6 3.5H886c1.9 0 3.6-1.6 3.6-3.5s-1.7-3.5-3.6-3.5h-14.3c-2 .1-3.6 1.6-3.6 3.5z"/>
                        </g>
                        <g id="Group_16">
                            <path d="M493.3 1087.3c0 1.9 1.6 3.5 3.6 3.5h14.3c1.9 0 3.6-1.6 3.6-3.5s-1.7-3.5-3.6-3.5h-14.3c-2 0-3.6 1.5-3.6 3.5zM534.9 1087.3c0 1.9 1.6 3.5 3.6 3.5h14.3c1.9 0 3.6-1.6 3.6-3.5s-1.7-3.5-3.6-3.5h-14.3c-2 0-3.6 1.5-3.6 3.5zM576.6 1087.3c0 1.9 1.6 3.5 3.6 3.5h14.3c1.9 0 3.6-1.6 3.6-3.5s-1.7-3.5-3.6-3.5h-14.3c-2 0-3.6 1.5-3.6 3.5zM618.2 1087.3c0 1.9 1.6 3.5 3.6 3.5h14.3c1.9 0 3.6-1.6 3.6-3.5s-1.7-3.5-3.6-3.5h-14.3c-2 0-3.6 1.5-3.6 3.5zM659.9 1087.3c0 1.9 1.6 3.5 3.6 3.5h14.3c1.9 0 3.6-1.6 3.6-3.5s-1.7-3.5-3.6-3.5h-14.3c-2 0-3.6 1.5-3.6 3.5zM701.5 1087.3c0 1.9 1.6 3.5 3.6 3.5h14.3c1.9 0 3.6-1.6 3.6-3.5s-1.7-3.5-3.6-3.5h-14.3c-2 0-3.6 1.5-3.6 3.5zM743.2 1087.3c0 1.9 1.6 3.5 3.6 3.5H761c1.9 0 3.6-1.6 3.6-3.5s-1.7-3.5-3.6-3.5h-14.3c-1.9 0-3.5 1.5-3.5 3.5zM784.8 1087.3c0 1.9 1.6 3.5 3.6 3.5h14.3c1.9 0 3.6-1.6 3.6-3.5s-1.7-3.5-3.6-3.5h-14.3c-2 0-3.6 1.5-3.6 3.5zM826.5 1087.3c0 1.9 1.6 3.5 3.6 3.5h14.3c1.9 0 3.6-1.6 3.6-3.5s-1.7-3.5-3.6-3.5H830c-1.9 0-3.5 1.5-3.5 3.5zM868.1 1087.3c0 1.9 1.6 3.5 3.6 3.5H886c1.9 0 3.6-1.6 3.6-3.5s-1.7-3.5-3.6-3.5h-14.3c-2 0-3.6 1.5-3.6 3.5z"/>
                        </g>
                        <g id="Group_17">
                            <path d="M534.9 960.4c0 1.9 1.6 3.5 3.6 3.5h14.3c1.9 0 3.6-1.6 3.6-3.5s-1.7-3.5-3.6-3.5h-14.3c-2 .1-3.6 1.6-3.6 3.5zM576.6 960.4c0 1.9 1.6 3.5 3.6 3.5h14.3c1.9 0 3.6-1.6 3.6-3.5s-1.7-3.5-3.6-3.5h-14.3c-2 .1-3.6 1.6-3.6 3.5zM618.2 960.4c0 1.9 1.6 3.5 3.6 3.5h14.3c1.9 0 3.6-1.6 3.6-3.5s-1.7-3.5-3.6-3.5h-14.3c-2 .1-3.6 1.6-3.6 3.5zM659.9 960.4c0 1.9 1.6 3.5 3.6 3.5h14.3c1.9 0 3.6-1.6 3.6-3.5s-1.7-3.5-3.6-3.5h-14.3c-2 .1-3.6 1.6-3.6 3.5zM701.5 960.4c0 1.9 1.6 3.5 3.6 3.5h14.3c1.9 0 3.6-1.6 3.6-3.5s-1.7-3.5-3.6-3.5h-14.3c-2 .1-3.6 1.6-3.6 3.5zM743.2 960.4c0 1.9 1.6 3.5 3.6 3.5H761c1.9 0 3.6-1.6 3.6-3.5s-1.7-3.5-3.6-3.5h-14.3c-1.9.1-3.5 1.6-3.5 3.5zM784.8 960.4c0 1.9 1.6 3.5 3.6 3.5h14.3c1.9 0 3.6-1.6 3.6-3.5s-1.7-3.5-3.6-3.5h-14.3c-2 .1-3.6 1.6-3.6 3.5zM826.5 960.4c0 1.9 1.6 3.5 3.6 3.5h14.3c1.9 0 3.6-1.6 3.6-3.5s-1.7-3.5-3.6-3.5H830c-1.9.1-3.5 1.6-3.5 3.5zM868.1 960.4c0 1.9 1.6 3.5 3.6 3.5H886c1.9 0 3.6-1.6 3.6-3.5s-1.7-3.5-3.6-3.5h-14.3c-2 .1-3.6 1.6-3.6 3.5z"/>
                        </g>
                    </g>
                    <g id="Group_18">
                        <path class="st2" d="M175.4 1665.1l55.2 56.5-55.2 56.5H78.1v-113h97.3z"/>
                        <g id="Group_19">
                            <path class="st3" d="M149.1 1700.3H123l-5-14.9h-15.8l26.9 72.2h13.8l27-72.2h-15.8l-5 14.9zm-22.1 12.1h18.1l-9.1 27-9-27z" id="Group_20"/>
                        </g>
                    </g>
                    <g id="Group_21">
                        <path class="st4" d="M477.5 903.9l55.2 56.5-55.2 56.5H78.1v-113h399.4z"/>
                        <g id="Group_22">
                            <path class="st3" d="M461.4 933.5c-2.7-3.2-6.5-5.7-11.4-7.5-4.9-1.8-10.3-2.6-16.3-2.6-6.3 0-11.7 1.4-16.4 4.1-4.7 2.7-8.3 6.7-10.9 11.9s-3.9 11.3-3.9 18.3v4.9c0 7.2 1.2 13.4 3.6 18.7 2.4 5.3 5.9 9.3 10.5 12.1 4.6 2.8 9.9 4.2 16.1 4.2 8.6 0 15.3-2 20.1-6.1 4.8-4.1 7.7-10 8.6-17.8h-14.5c-.7 4.1-2.1 7.2-4.4 9.1-2.3 1.9-5.4 2.9-9.4 2.9-5 0-8.9-1.9-11.5-5.7-2.6-3.8-4-9.5-4-17v-4.6c0-7.6 1.4-13.3 4.3-17.1 2.9-3.9 7.1-5.8 12.6-5.8 5.6 0 9.6 1.2 12 3.6v12.4H433v11h28.4v-29z" id="Group_23"/>
                        </g>
                    </g>
                    <g id="Group_24">
                        <path class="st5" d="M221.9 1538.2l55.2 56.5-55.2 56.5H78.1v-113h143.8z"/>
                        <g id="Group_25">
                            <path class="st3" d="M152.3 1558.6v72.2h25.3c8.8 0 15.4-1.7 19.9-5 4.5-3.4 6.8-8.3 6.8-14.8 0-3.5-.9-6.7-2.7-9.3-1.8-2.7-4.4-4.7-7.6-5.9 3.7-.9 6.6-2.8 8.7-5.6 2.1-2.8 3.2-6.3 3.2-10.3 0-6.9-2.2-12.2-6.6-15.8-4.4-3.6-10.7-5.4-18.9-5.4h-28.1zm14.9 31.5v-19.5h12.7c3.5 0 6.2.8 8.2 2.5 2 1.7 2.9 4 2.9 6.9 0 6.6-3.4 10-10.3 10.1h-13.5zm0 10.5h11c7.5.1 11.3 3.1 11.3 9 0 3.3-.9 5.6-2.8 7.1-1.9 1.4-4.9 2.2-9 2.2h-10.4v-18.3z" id="Group_26"/>
                        </g>
                    </g>
                    <g id="Group_27">
                        <path class="st6" d="M269.5 1411.4l55.2 56.5-55.2 56.5H78.1v-113h191.4z"/>
                        <g id="Group_28">
                            <path class="st3" d="M259 1455.8c-.6-7.8-3.4-13.9-8.6-18.3-5.2-4.5-12-6.7-20.4-6.7-9.3 0-16.5 3.1-21.8 9.3s-8 14.8-8 25.7v4.4c0 6.9 1.2 13 3.7 18.3 2.4 5.3 5.9 9.3 10.5 12.2 4.5 2.8 9.8 4.2 15.8 4.2 8.3 0 15-2.2 20.1-6.7s8-10.7 8.8-18.8h-14.9c-.4 4.7-1.7 8-3.9 10.1-2.2 2.1-5.6 3.1-10.2 3.1-4.9 0-8.7-1.8-11.1-5.3-2.5-3.6-3.7-9.1-3.8-16.5v-5.4c0-7.8 1.2-13.5 3.6-17.1 2.4-3.6 6.1-5.4 11.2-5.4 4.6 0 8 1 10.3 3.2 2.3 2.1 3.6 5.3 3.9 9.7H259z" id="Group_29"/>
                        </g>
                    </g>
                    <g id="Group_30">
                        <path class="st7" d="M326.9 1284.5l55.2 56.5-55.2 56.5H78.1v-113h248.8z"/>
                        <g id="Group_31">
                            <path class="st3" d="M261.4 1304.9v72.2h22.2c6.3 0 12-1.4 17-4.3s8.9-6.9 11.7-12.2c2.8-5.3 4.2-11.3 4.2-18v-3.3c0-6.7-1.4-12.7-4.1-17.9-2.8-5.2-6.6-9.3-11.7-12.2-5-2.9-10.7-4.3-17-4.4h-22.3zm14.9 60.1v-48.2h7.2c5.8 0 10.3 1.9 13.3 5.7 3.1 3.8 4.6 9.2 4.7 16.3v3.8c0 7.3-1.5 12.9-4.6 16.7-3 3.8-7.5 5.7-13.3 5.7h-7.3z" id="Group_32"/>
                        </g>
                    </g>
                    <g id="Group_33">
                        <path class="st8" d="M379.8 1157.7l55.2 56.5-55.2 56.5H78.1v-113h301.7z"/>
                        <g id="Group_34">
                            <path class="st3" d="M354.1 1209.3h-28.6V1190H359v-12h-48.4v72.2H359v-12h-33.4V1221h28.6v-11.7z" id="Group_35"/>
                        </g>
                    </g>
                    <g id="Group_36">
                        <path class="st9" d="M427.5 1030.8l55.2 56.5-55.2 56.5H78.1v-113h349.4z"/>
                        <g id="Group_37">
                            <path class="st3" d="M405.6 1080.7H377v-29.5h-14.9v72.2h47v-12H377v-18.6h28.6v-12.1z" id="Group_38"/>
                        </g>
                    </g>
                    <path class="st1" d="M75 786.7v1108.2h220.3v387.8c0 64.7 52.5 117.3 117.3 117.3h376.3c64.7 0 117.3-52.5 117.3-117.3v-1496H75zm822.1 27.7v1052.8h-18.6v415.5c0 49.4-40.2 89.6-89.6 89.6H412.6c-49.4 0-89.6-40.2-89.6-89.6v-415.5H84.1V814.4h813zM411.7 180.6c-64.7 0-117.3 52.5-117.3 117.3v317.9c0 64.7 52.5 117.3 117.3 117.3h494.4v-27.7H411.7c-49.4 0-89.6-40.1-89.6-89.6V297.9c0-49.4 40.1-89.6 89.6-89.6h494.4v-27.7H411.7zM1547.3 180.6h27.7V733h-27.7"/>
                    <path class="st1" d="M799.2 723.9H1575v9.1H799.2v-9.1zM799.2 180.6H1575v9.1H799.2v-9.1z"/>
                    <path d="M1073.8 345.4L964.9 456.8l108.9 111.5h468.8v-223h-468.8z"/>
                    <g id="Group_39">
                        <path d="M1053.7 1700.4h-26.1l-5-14.9h-15.8l26.9 72.2h13.8l27-72.2h-15.8l-5 14.9zm-22.1 12h18.1l-9.1 27-9-27z" id="Group_40"/>
                    </g>
                    <g id="Group_41">
                        <path d="M1014.7 1558.6v72.2h25.3c8.8 0 15.4-1.7 19.9-5 4.5-3.4 6.8-8.3 6.8-14.8 0-3.5-.9-6.7-2.7-9.3-1.8-2.7-4.3-4.7-7.6-5.9 3.7-.9 6.6-2.8 8.7-5.6 2.1-2.8 3.2-6.3 3.2-10.3 0-6.9-2.2-12.2-6.6-15.8-4.4-3.6-10.7-5.4-18.9-5.4h-28.1zm14.8 31.5v-19.5h12.7c3.5 0 6.2.8 8.2 2.5 2 1.7 3 4 3 6.9 0 6.6-3.4 10-10.3 10.1h-13.6zm0 10.5h11c7.5.1 11.3 3.1 11.3 9 0 3.3-1 5.6-2.9 7.1-1.9 1.4-4.9 2.2-9 2.2h-10.4v-18.3z" id="Group_42"/>
                    </g>
                    <g id="Group_43">
                        <path d="M1070.5 1455.8c-.6-7.8-3.4-13.9-8.6-18.3-5.2-4.5-12-6.7-20.4-6.7-9.3 0-16.5 3.1-21.8 9.3-5.3 6.2-8 14.8-8 25.7v4.4c0 6.9 1.2 13.1 3.7 18.3 2.4 5.3 5.9 9.3 10.5 12.2 4.5 2.8 9.8 4.2 15.8 4.2 8.3 0 15-2.2 20.1-6.7 5.1-4.5 8-10.7 8.8-18.8h-14.9c-.4 4.7-1.7 8-3.9 10.1-2.2 2.1-5.6 3.1-10.2 3.1-5 0-8.7-1.8-11.1-5.3-2.5-3.6-3.7-9.1-3.8-16.5v-5.4c0-7.8 1.2-13.5 3.6-17.1 2.4-3.6 6.1-5.4 11.2-5.4 4.6 0 8 1 10.3 3.1 2.3 2.1 3.6 5.4 3.9 9.7h14.8z" id="Group_44"/>
                    </g>
                    <g id="Group_45">
                        <path d="M1014.1 1304.9v72.2h22.2c6.3 0 12-1.4 17-4.3s8.9-6.9 11.7-12.2c2.8-5.3 4.2-11.3 4.2-18v-3.3c0-6.7-1.4-12.7-4.1-17.9-2.8-5.2-6.7-9.3-11.7-12.2-5-2.9-10.7-4.3-17-4.4h-22.3zm14.8 60.1v-48.2h7.2c5.8 0 10.3 1.9 13.3 5.7 3.1 3.8 4.6 9.2 4.7 16.3v3.8c0 7.3-1.5 12.9-4.6 16.7-3 3.8-7.5 5.7-13.3 5.7h-7.3z" id="Group_46"/>
                    </g>
                    <g id="Group_47">
                        <path d="M1061.9 1209.3h-28.5V1190h33.5v-11.9h-48.4v72.2h48.3v-12h-33.4V1221h28.5v-11.7z" id="Group_48"/>
                    </g>
                    <g id="Group_49">
                        <path d="M1062.7 1080.7h-28.6v-29.5h-14.9v72.2h47v-12h-32.1v-18.6h28.6v-12.1z" id="Group_50"/>
                    </g>
                    <g id="Group_51">
                        <path d="M1069.6 933.5c-2.7-3.2-6.5-5.7-11.3-7.5s-10.3-2.6-16.3-2.6c-6.3 0-11.7 1.4-16.4 4.1-4.7 2.7-8.4 6.7-10.9 11.9s-3.9 11.3-3.9 18.3v4.9c0 7.2 1.2 13.4 3.6 18.7 2.4 5.3 5.9 9.3 10.5 12.1 4.6 2.8 9.9 4.2 16.1 4.2 8.6 0 15.3-2 20.1-6.1 4.8-4.1 7.7-10 8.6-17.8h-14.5c-.7 4.1-2.1 7.2-4.4 9.1-2.3 1.9-5.4 2.9-9.3 2.9-5.1 0-8.9-1.9-11.6-5.7-2.6-3.8-4-9.5-4-17v-4.6c0-7.6 1.4-13.3 4.3-17.1 2.9-3.9 7.1-5.8 12.6-5.8 5.6 0 9.6 1.2 11.9 3.6v12.4h-13.5v11h28.4v-29z" id="Group_52"/>
                    </g>
                    <g id="Group_53">
                        <path class="st10" d="M75 212.8V75h204.3v137.8H75z"/>
                        <g id="Group_54">
                            <path class="st11" d="M171.4 190.9l3.8-2.9-1.4-4.6 3.9 2.8 3.9-2.8-1.4 4.6 3.8 2.9-4.8.1-1.6 4.5-1.6-4.5-4.6-.1zM194.1 184.9l3.8-2.9-1.4-4.6 3.9 2.8 3.9-2.8-1.3 4.6 3.8 2.9-4.8.1-1.6 4.5-1.6-4.5-4.7-.1zM210.7 168.4l3.8-2.9-1.4-4.6 3.9 2.8 3.9-2.8-1.4 4.6 3.8 2.9-4.8.1-1.6 4.5-1.6-4.5-4.6-.1zM216.9 145.7l3.8-2.9-1.4-4.6 3.9 2.8 3.9-2.8-1.4 4.6 3.8 2.9-4.8.1-1.6 4.5-1.6-4.5-4.6-.1zM210.9 123l3.8-2.9-1.4-4.6 3.9 2.8 3.9-2.8-1.4 4.6 3.8 2.9-4.8.1-1.6 4.5-1.6-4.5-4.6-.1zM194.4 106.4l3.8-2.9-1.4-4.6 3.9 2.8 3.9-2.8-1.4 4.6 3.8 2.9-4.8.1-1.6 4.5-1.6-4.5-4.6-.1zM184.4 100.2l-3.8-2.9 1.4-4.6-3.9 2.8-3.9-2.8 1.4 4.6-3.8 2.9 4.8.1 1.6 4.5 1.6-4.5 4.6-.1zM149 106.2l3.8-2.9-1.4-4.6 3.9 2.8 3.9-2.8-1.4 4.6 3.8 2.9-4.8.1-1.6 4.5-1.6-4.5-4.6-.1zM132.4 122.7l3.8-2.9-1.4-4.6 3.9 2.8 3.9-2.8-1.4 4.6 3.8 2.9-4.8.1-1.6 4.5-1.6-4.5-4.6-.1zM126.2 145.4l3.8-2.9-1.4-4.6 3.9 2.8 3.9-2.8-1.4 4.6 3.8 2.9-4.8.1-1.6 4.5-1.6-4.5-4.6-.1zM132.2 168.1l3.8-2.9-1.4-4.6 3.9 2.8 3.9-2.8-1.4 4.6 3.8 2.9-4.8.1-1.6 4.5-1.6-4.5-4.6-.1zM148.8 184.7l3.8-2.9-1.4-4.6 3.9 2.8 3.9-2.8-1.4 4.6 3.8 2.9-4.8.1-1.6 4.5-1.6-4.5-4.6-.1z"/>
                        </g>
                    </g>
                    <g id="Group_55">
                        <g id="Group_56">
                            <path d="M331.9 78.6h-5.3v35.2l-10.6-3.9v4.8l15.1 5.7h.8V78.6zM374.6 78.6h-27.2v3.8l14.4 16c2.1 2.4 3.6 4.4 4.4 5.9.8 1.5 1.2 3.1 1.2 4.7 0 2.2-.6 3.9-2 5.3-1.3 1.4-3.1 2.1-5.2 2.1-2.6 0-4.7-.8-6.1-2.2-1.5-1.5-2.2-3.6-2.2-6.2h-5.3c0 3.8 1.2 6.9 3.7 9.3 2.5 2.3 5.8 3.5 9.9 3.5 3.9 0 6.9-1 9.1-3 2.2-2 3.4-4.7 3.4-8.1 0-4.1-2.6-8.9-7.8-14.6L353.8 83h20.9v-4.4zM407.4 78.6h-27.2v3.8l14.4 16c2.1 2.4 3.6 4.4 4.4 5.9.8 1.5 1.2 3.1 1.2 4.7 0 2.2-.6 3.9-2 5.3-1.3 1.4-3.1 2.1-5.2 2.1-2.6 0-4.7-.8-6.1-2.2-1.4-1.5-2.2-3.6-2.2-6.2h-5.3c0 3.8 1.2 6.9 3.7 9.3 2.5 2.3 5.8 3.5 9.9 3.5 3.9 0 6.9-1 9.1-3 2.2-2 3.4-4.7 3.4-8.1 0-4.1-2.6-8.9-7.8-14.6L386.6 83h20.9v-4.4zM440.2 78.6H413v3.8l14.4 16c2.1 2.4 3.6 4.4 4.4 5.9.8 1.5 1.2 3.1 1.2 4.7 0 2.2-.7 3.9-2 5.3s-3.1 2.1-5.2 2.1c-2.6 0-4.7-.8-6.1-2.2-1.4-1.5-2.2-3.6-2.2-6.2h-5.3c0 3.8 1.2 6.9 3.7 9.3 2.5 2.3 5.8 3.5 9.9 3.5 3.9 0 6.9-1 9.2-3 2.2-2 3.4-4.7 3.4-8.1 0-4.1-2.6-8.9-7.8-14.6L419.5 83h20.9v-4.4zM447.4 75h-4.5l17.3 45.1h4.5L447.4 75zM497 78.6h-27.2v3.8l14.4 16c2.1 2.4 3.6 4.4 4.4 5.9.8 1.5 1.2 3.1 1.2 4.7 0 2.2-.6 3.9-2 5.3-1.3 1.4-3.1 2.1-5.2 2.1-2.6 0-4.7-.8-6.1-2.2-1.5-1.5-2.2-3.6-2.2-6.2H469c0 3.8 1.2 6.9 3.7 9.3 2.5 2.3 5.8 3.5 9.9 3.5 3.9 0 6.9-1 9.1-3 2.2-2 3.4-4.7 3.4-8.1 0-4.1-2.6-8.9-7.8-14.6L476.2 83H497v-4.4zM528.7 96.3c0-6.2-1.1-10.8-3.2-13.8s-5.4-4.5-9.9-4.5c-4.4 0-7.7 1.5-9.8 4.4-2.1 2.9-3.2 7.3-3.3 13.2v7c0 6.1 1 10.6 3.2 13.6 2.1 3 5.4 4.4 9.9 4.4s7.8-1.4 9.9-4.3c2.1-2.9 3.2-7.3 3.3-13.3v-6.7zm-5.3 7.2c0 4.5-.6 7.7-1.9 9.8-1.3 2-3.2 3.1-6 3.1-2.7 0-4.7-1-5.9-3-1.2-2-1.9-5.2-1.9-9.4v-8.4c0-4.5.6-7.8 2-9.9 1.3-2.1 3.3-3.2 5.9-3.2 2.6 0 4.5 1 5.8 3 1.3 2 1.9 5.2 2 9.5v8.5zM561.4 96.3c0-6.2-1.1-10.8-3.2-13.8s-5.4-4.5-9.9-4.5c-4.4 0-7.7 1.5-9.8 4.4-2.1 2.9-3.2 7.3-3.3 13.2v7c0 6.1 1.1 10.6 3.2 13.6s5.4 4.4 9.9 4.4 7.8-1.4 9.9-4.3 3.2-7.3 3.3-13.3v-6.7zm-5.2 7.2c0 4.5-.6 7.7-1.9 9.8-1.3 2-3.2 3.1-6 3.1-2.7 0-4.7-1-5.9-3-1.2-2-1.9-5.2-1.9-9.4v-8.4c0-4.5.6-7.8 2-9.9 1.3-2.1 3.3-3.2 5.9-3.2 2.6 0 4.5 1 5.8 3 1.3 2 1.9 5.2 2 9.5v8.5zM588.4 96.8c-1.1-1.3-2.4-2.4-3.9-3.2-1.5-.8-3.2-1.2-5-1.2-2.4 0-4.5.6-6.3 1.8-1.8 1.2-3.1 2.8-4.1 5-1 2.1-1.5 4.5-1.5 7.1 0 2.8.5 5.3 1.6 7.5s2.6 3.9 4.5 5.1c1.9 1.2 4.2 1.8 6.8 1.8 4.1 0 7.3-1.5 9.7-4.6 2.4-3.1 3.6-7.3 3.6-12.6V102c0-8.1-1.6-14-4.8-17.7-3.2-3.7-8-5.6-14.5-5.7h-1V83h1.1c4.4.1 7.7 1.2 10 3.4s3.6 5.7 3.8 10.4zm-8.1 0c1.8 0 3.4.5 4.9 1.6 1.5 1.1 2.6 2.4 3.3 4v2.1c0 3.5-.8 6.3-2.3 8.4-1.5 2.2-3.4 3.3-5.7 3.3-2.3 0-4.2-.9-5.6-2.7-1.4-1.8-2.1-4.1-2.1-7 0-2.8.7-5.2 2-7 1.4-1.7 3.2-2.7 5.5-2.7zM645.2 97.2h-28.6v4.3h28.6v-4.3zM701.2 92.4c-.3-4.5-2-8-5-10.5-3-2.6-6.9-3.9-11.8-3.9-5.3 0-9.5 1.8-12.6 5.4-3 3.6-4.6 8.5-4.6 14.8v2.5c0 4 .7 7.5 2.1 10.5 1.4 3 3.4 5.4 6 7 2.6 1.6 5.7 2.4 9.1 2.4 4.8 0 8.7-1.3 11.6-3.8 2.9-2.6 4.6-6.2 5.1-10.8h-8.6c-.2 2.7-1 4.6-2.2 5.8-1.3 1.2-3.2 1.8-5.9 1.8-2.9 0-5-1-6.4-3.1-1.4-2-2.1-5.2-2.2-9.5v-3.1c0-4.5.7-7.8 2-9.8 1.4-2.1 3.5-3.1 6.4-3.1 2.6 0 4.6.6 5.9 1.8 1.3 1.2 2 3.1 2.2 5.6h8.9zM725.9 78.6h-8.2v31.8l-9.8-3.1v6.7l17.2 6.2h.9V78.6z"/>
                        </g>
                    </g>
                </g>
            </g>
        </g>
    </g>
</svg>
