<svg id="Layer_1" xmlns="http://www.w3.org/2000/svg" viewBox="0 0 200.9 354.7">
    <style>
        .st0{fill:none}.st0,.st1{stroke:#000;stroke-width:7.5;stroke-linejoin:bevel;stroke-miterlimit:79.8403}
    </style>
    <g id="Document" transform="scale(1 -1)">
        <g id="Spread" transform="translate(0 -354.734)">
            <g id="Layer_1_1_">
                <g id="Group">
                    <path class="st0" d="M114.8 7.3c-7.6 5.8-9.1 16.6-3.3 24.2 69 90.8 67.2 198.6-.3 292-5.6 7.7-3.9 18.6 3.9 24.2s18.6 3.9 24.2-3.9c75.9-105.1 78.5-229.7-.2-333.2-5.8-7.6-16.7-9.1-24.3-3.3z"/>
                    <path class="st0" d="M57.4 46.5c-7.4 6-8.5 16.9-2.5 24.3 54.1 66.4 52.8 144.9-.3 213.5-5.9 7.6-4.5 18.4 3.1 24.3s18.4 4.5 24.3-3.1c62.4-80.6 64.6-176.9-.3-256.5-6-7.5-16.9-8.6-24.3-2.5z"/>
                    <path class="st1" d="M10.7 90.3c-7.6 5.7-9.2 16.6-3.5 24.2 29.4 39.2 28.7 85.2-.2 125.9-5.6 7.8-3.7 18.6 4.1 24.1s18.6 3.7 24.1-4.1c37.2-52.3 38.6-114.9-.2-166.8-5.8-7.4-16.7-9-24.3-3.3z"/>
                </g>
            </g>
        </g>
    </g>
</svg>
