<svg id="Layer_1" xmlns="http://www.w3.org/2000/svg" viewBox="0 0 300 300">
    <style>
        .st0{fill:#fff}.st1{fill:#e2001a}
    </style>
    <g id="Document" transform="scale(1 -1)">
        <g id="Spread" transform="translate(0 -299.999)">
            <g id="Layer_1_1_">
                <g id="Group">
                    <path class="st0" d="M0 150c0 82.8 67.2 150 150 150s150-67.2 150-150S232.8 0 150 0 0 67.2 0 150z"/>
                    <path class="st1" d="M0 150c0 82.8 67.2 150 150 150s150-67.2 150-150S232.8 0 150 0 0 67.2 0 150zM160.4 10.1l9.9 1.8 3.1 17.4.6.1 1.6.3 2.9-16.4 9.1 1.6-7.4 41.4-10.6-1.9c-4.7-.8-8.1-2.4-10.1-4.6-2-2.3-2.6-5.7-1.8-10.2.4-2.4 1.3-4.4 2.6-6.1 1.3-1.7 2.9-2.9 4.7-3.6l-4.6-19.8zm-11.6 2.7c2 2.1 3.1 5 3.4 9l.3 3.6-9.1.7-.3-4.4c-.1-1.7-.4-2.9-.8-3.8-.4-.9-1.3-1.2-2.6-1.1-1.2.1-2 .6-2.4 1.5-.4.9-.5 2.2-.4 3.9l1.5 19.7c.1 1.6.4 2.9.9 3.8.5.9 1.3 1.3 2.7 1.2.9-.1 1.6-.4 2-.9.4-.5.6-1.1.7-1.8.1-.7 0-1.5 0-2.7l-.3-4.2 9.1-.7.3 3.6c.3 3.9-.4 6.9-2.1 9.2-1.7 2.2-4.7 3.5-9.1 3.9-4.5.3-7.9-.6-10-2.8-2.1-2.2-3.3-5.7-3.7-10.2l-1.1-15.1c-.3-4.5.4-8.1 2.1-10.6 1.8-2.6 4.9-4 9.4-4.3 4.3-.4 7.5.4 9.5 2.5zm-34.2 1.8l2 6-8.8 3 4.1 11.9 6.5-2.2 2.1 6.1-6.5 2.2 3.4 9.9 8.8-3 2 6-17.5 6-13.8-39.9 17.7-6zm87.7 5.3l20.8 10.6 5.2-7.5 6.1 3.1-7 13.7-5.1-2.6L205.9 69l-8.3-4.2L214 33l-6.3-3.2-16.3 31.8-8.3-4.2 19.2-37.5zM83.2 26.2L107 60.9l-7.8 5.6-18-16.7 10.1 22.4-8 5.7-25-33.9 5.5-3.9 16.5 22.1L69 36.4l3.8-2.7 20.4 19.1L77.9 30l5.3-3.8zM166.3 41c-.7 4.1.8 6.5 4.5 7.1l1.4.3 2.2-12.3-1.3-.2c-3.8-.7-6.1 1-6.8 5.1zm69.9-1l14.1 12.2-4.1 4.8-7.1-6.1-8.2 9.5 5.2 4.5-4.2 4.9-5.2-4.5-6.8 7.9 7 6.1-4.1 4.8-14-12.1 27.4-32zm24.1 23.4l7 10.9c4.6 7.2 3.5 12.9-3.4 17.3-2.6 1.7-5 2.4-7.1 2.3-2.2-.1-4-1.1-5.6-3 1.6 3.8.2 7.2-4.2 9.9-3.5 2.2-6.5 2.7-9 1.5-2.5-1.2-4.9-3.5-7.1-7L225 86l35.3-22.6zM236.5 150c0 47.8-38.8 86.5-86.5 86.5-47.8 0-86.5-38.8-86.5-86.5 0-47.8 38.8-86.5 86.5-86.5 47.8 0 86.5 38.7 86.5 86.5zM50.8 72.4c3.1 2 5.2 4.1 6.2 6.5 1.1 2.4.8 4.9-.8 7.4-.7 1-1.4 1.9-2.3 2.5-.9.6-1.7.9-2.6.9l3.1 2c2 1.2 3.5 2.1 4.5 2.6s1.9.7 2.5.6c.6-.1 1.2-.4 1.6-1.1.6-.9.7-1.7.2-2.4-.5-.6-1.5-1.5-3-2.5l4.4-6.9.6.4c3.1 2 4.9 4.1 5.6 6.4.6 2.3-.1 5.1-2.2 8.4-2.3 3.6-5 5.5-8 5.6-3 .1-6.4-1.1-10.2-3.5l-12.8-8.2c-3.5-2.3-5.9-4.9-6.9-7.8-1.1-3-.5-6.1 1.6-9.4 2.3-3.5 4.9-5.3 8-5.4 3 .1 6.5 1.3 10.5 3.9zm209 2.3l-10.6 6.8 1 1.6c1.1 1.7 2.3 2.7 3.5 2.8 1.3.2 2.9-.4 4.9-1.7 1.8-1.1 2.9-2.3 3.2-3.5.4-1.2.1-2.6-1-4.3l-1-1.7zM37.6 77.4c-1 1.6 0 3.4 3 5.4l5.8 3.7c.5 0 1-.1 1.6-.3.6-.2 1-.6 1.3-1.1.5-.7.6-1.4.3-2-.2-.6-.7-1.2-1.4-1.8-.7-.6-1.7-1.3-3.2-2.2-2.2-1.4-3.8-2.2-4.9-2.5-1.1-.4-1.9-.1-2.5.8zm206.5 7.4l-8.9 5.7.8 1.5c.9 1.5 2 2.3 3.2 2.6 1.2.3 2.5 0 3.9-.9 1.6-1 2.6-2.1 3-3.2.4-1.1 0-2.5-1-4.1l-1-1.6zM94.3 108.9c-5.8 7.2-8.7 17.5-8.8 30.9v18.4c0 14 2.9 24.6 8.7 31.8 5.8 7.2 14.1 10.8 25 10.8s19.2-3.6 25-10.7c5.8-7.2 8.7-17.4 8.9-30.9v-18.4c0-13.8-2.9-24.4-8.6-31.8-5.7-7.3-14.1-11-25.1-11-11 .1-19.3 3.7-25.1 10.9zm35.6 10.9c2.2 3.8 3.3 9.6 3.4 17.4V161c0 8.3-1.1 14.3-3.4 18.1-2.3 3.8-5.8 5.7-10.6 5.7-4.7 0-8.1-1.8-10.3-5.4-2.2-3.6-3.4-9.2-3.5-16.9v-24.3c0-8.2 1.1-14.2 3.3-18.1 2.2-4 5.8-6 10.7-6 4.7 0 8.2 1.9 10.4 5.7zm66.4-1.3c-2.7 2.6-4.1 6-4.1 10.3v3.5c0 4.2 1.4 7.6 4.1 10.1 2.7 2.6 6.3 3.8 10.6 3.8 4.4 0 8-1.3 10.7-3.8 2.7-2.5 4.1-6 4.1-10.4v-3.4c0-4.2-1.4-7.5-4-10.1-2.7-2.6-6.3-3.9-10.7-3.9-4.4 0-8 1.3-10.7 3.9zm-19.1 2.1l-6.6 3.5 33.2 53.1 6.6-3.6-33.2-53zm35.5 8v3.6c0 1.8-.5 3.3-1.6 4.5-1.1 1.1-2.5 1.7-4.2 1.7-1.7 0-3.1-.6-4.2-1.7s-1.6-2.7-1.6-4.6v-3.5c0-1.7.6-3.2 1.7-4.4 1.1-1.2 2.5-1.8 4.2-1.8 3.8-.1 5.7 2 5.7 6.2zm-48.8 28.1c-2.7 2.6-4.1 6-4.1 10.4v3.3c0 4.2 1.4 7.6 4.1 10.1 2.7 2.6 6.3 3.9 10.6 3.9 4.5 0 8-1.3 10.7-3.8 2.7-2.6 4.1-6 4.1-10.4v-3.4c0-4.2-1.4-7.6-4.1-10.1-2.7-2.6-6.3-3.8-10.6-3.8-4.5-.1-8 1.2-10.7 3.8zm14.8 5.6c1 1.1 1.5 2.7 1.5 4.6v3.5c0 1.9-.5 3.4-1.5 4.5-1 1.2-2.4 1.7-4.2 1.7-1.7 0-3.1-.6-4.1-1.7-1.1-1.1-1.6-2.7-1.6-4.7v-3.4c0-1.9.5-3.4 1.6-4.5s2.5-1.7 4.2-1.7c1.7 0 3.1.6 4.1 1.7zm62.4 23.7l32.6 27.7-5.3 9.2-38.8-13.5 9.8 19.7 19.6 8.1-6.4 6.7-16.3-7.1-.6.7 12 11.5-6.4 6.7-30.4-29.1 6.4-6.7 13.2 12.7.6-.7-9-17.1 6-6.2 4.2-7.3 8.4 3.2 3.1-5.4-7-5.7 4.3-7.4zm-181 2.1l4.6 8-15.5 8.9 1.9 3.2c1.9 3.3 2.6 6.4 2.2 9.1-.5 2.7-2.6 5.2-6.5 7.4-3.4 2-6.5 2.7-9.2 2.1-2.7-.5-5-2.4-6.9-5.6l-7-12.2 36.4-20.9zm188.1 14.5l-2.2 3.9 15.3 6.2-13.1-10.1zm-178.8 3.3l6.1 6.4-5.5 7.1 4.3 4.5 7.4-5.1 5.9 6.2-35.8 23.3-7.3-7.7 24.9-34.7zm-25.7 2.4l-9.7 5.6 1.5 2.7c.9 1.5 1.8 2.2 2.8 2.2 1 0 2.4-.5 4-1.4 1.8-1 2.9-2 3.4-2.9.5-.9.3-2.1-.5-3.5l-1.5-2.7zm22.9 15.5l-10.3 12.9 13.4-9.7-3.1-3.2zm32.4 7.9c3.7 2.4 5.8 5 6.1 7.8.3 2.8-.5 5.9-2.7 9.2l-2 3.1-7.7-4.9 2.4-3.7c.9-1.4 1.4-2.6 1.6-3.5.2-.9-.3-1.8-1.4-2.4-1.1-.7-2-.8-2.8-.2-.8.5-1.7 1.5-2.6 2.9l-10.6 16.7c-.9 1.4-1.4 2.5-1.6 3.5-.2 1 .3 1.8 1.4 2.5.8.5 1.5.7 2.1.5.6-.2 1.1-.5 1.6-1 .4-.5 1-1.2 1.6-2.1l2.3-3.5 7.7 4.9-2 3.1c-2.1 3.3-4.5 5.3-7.2 6.1h-4.4c-1.6-.4-3.3-1.2-5.2-2.4-3.9-2.5-5.9-5.2-6.3-8.3-.3-3 .7-6.5 3.2-10.4l8.2-12.8c2.4-3.8 5.1-6.2 8.1-7.2 3-1.1 6.4-.4 10.2 2.1zm107.9-2l19.2 37.4-8.3 4.2-8.8-17.1c-.8.2-1.5.6-2.3.9-1.3.7-2.2 1.3-2.7 2-.5.6-.7 1.3-.6 2 .1.7.4 1.4.8 2.3l6.8 13.3-8 4.3-6.8-13.4c-1-1.9-1.3-3.7-1.1-5.6.2-1.9 1-3.5 2.2-5 1.2-1.5 2.8-2.8 4.8-3.7 1.3-.7 2.8-1.3 4.5-1.9l-7.9-15.4 8.2-4.3zm-83.3 12.9c4.3 1.2 7 3.1 8.1 5.7 1.1 2.6 1.2 5.8.1 9.6l-1 3.5-8.8-2.5 1.2-4.2c.5-1.6.6-2.9.5-3.8-.1-1-.8-1.6-2-2-1.2-.3-2.1-.1-2.8.6-.7.7-1.2 1.9-1.7 3.5l-5.4 19c-.4 1.6-.6 2.8-.5 3.8.1 1 .8 1.7 2.1 2 .9.2 1.6.2 2.2-.1.5-.3 1-.8 1.2-1.4.3-.6.6-1.4.9-2.5l1.1-4.1 8.7 2.5-1 3.5c-1.1 3.7-2.8 6.4-5.1 7.9s-5.6 1.7-9.8.5c-4.4-1.2-7.2-3.3-8.4-6.1-1.2-2.8-1.2-6.4.1-10.9l4.1-14.6c1.2-4.4 3.1-7.4 5.6-9.2 2.7-1.7 6.2-2 10.6-.7zm59.4 2.2c2.4 1.8 4.2 5 5.2 9.4l3.5 15.2c1 4.4.8 8-.6 10.7-1.4 2.7-4.3 4.6-8.7 5.6-4.5 1-7.9.6-10.3-1.2-2.4-1.8-4.1-4.9-5.2-9.4l-3.5-15.2c-1-4.4-.9-8 .5-10.7 1.4-2.7 4.3-4.6 8.7-5.6 4.5-1.1 8-.7 10.4 1.2zm-45.3 1.8l9.3.2-.5 17.9 3.7.1c3.8.1 6.8 1.1 8.9 2.9 2.1 1.8 3.1 5 2.9 9.5-.1 3.9-1.1 6.9-3 9-1.9 2-4.7 3-8.4 2.9l-14.1-.4 1.2-42.1zm36.5 3.4c-1.3.3-2 .9-2.2 1.9-.2.9-.1 2.2.2 3.6l4.6 19.7c.3 1.5.8 2.6 1.4 3.4.6.8 1.5 1 2.8.7 1.2-.3 2-.9 2.2-1.8.2-.9.1-2.2-.2-3.7l-4.6-19.7c-.4-1.5-.8-2.6-1.4-3.4-.6-.8-1.6-1-2.8-.7zm-27.8 21.2l-.3 11.2 3.1.1c1.7 0 2.8-.4 3.4-1.3.5-.9.8-2.3.9-4.1.1-2-.2-3.5-.7-4.4-.5-.9-1.6-1.3-3.2-1.4l-3.2-.1z"/>
                </g>
            </g>
        </g>
    </g>
</svg>
