<svg id="Layer_1" xmlns="http://www.w3.org/2000/svg" viewBox="0 0 370.4 341.6">
    <style>
        .st0{fill:#ffe400}.st1{fill:#00b0ff}
    </style>
    <g id="Document" transform="scale(1 -1)">
        <g id="Spread" transform="translate(0 -341.556)">
            <g id="Layer_1_1_">
                <g id="Group">
                    <path class="st0" d="M79 36.5l14.9 25.7c5.2 9 16.1 12.5 24.3 7.8L84.3 11.6c-8.2 4.7-10.6 15.9-5.3 24.9zM.5 120.8c-2.5 9.1 3.7 18.7 13.8 21.4l28.7 7.7c10.1 2.7 20.2-2.5 22.6-11.6 2.4-9.1-3.8-18.7-13.8-21.4l-28.7-7.7c-10-2.7-20.1 2.5-22.6 11.6zm95.3 91.8c25 43.3 80.5 58.2 123.8 33.2L128.9 88.9c-43.3 25-58.2 80.4-33.1 123.7zm-77.3 44.6c4.7 8.2 15.9 10.6 24.9 5.4l25.7-14.9c9-5.2 12.5-16.1 7.8-24.2-4.7-8.2-15.9-10.6-24.9-5.4L26.3 233c-9 5.2-12.5 16.1-7.8 24.2zm105.2 32.4l-7.7 28.7c-2.7 10.1 2.5 20.2 11.6 22.7 9.1 2.4 18.7-3.8 21.4-13.8l7.7-28.7c2.7-10.1-2.5-20.2-11.6-22.7-9.1-2.4-18.7 3.8-21.4 13.8zm101.3-.1l14.9 25.7c5.2 9 16.1 12.5 24.3 7.8l-33.8-58.5c-8.2 4.8-10.6 16-5.4 25z"/>
                    <path class="st1" d="M100.4 1.9l180 311.8c3-1.7 5-4.3 5.9-7.8.9-3.5.5-6.7-1.2-9.7L263.6 259l32.3 11c3.1 1 5.9 1.1 8.6.2 2.6-.9 4.6-2.5 5.9-4.7 1.3-2.2 2.1-4.7 2.4-7.2.4-2.6-.2-5.1-1.8-7.5-1.5-2.4-3.8-4.1-6.8-5.1l-60.1-20.5-31.4-54.4 62.8-.1 47.9 41.9c4 3.4 8.2 4.2 12.7 2.4 4.4-1.8 7.2-5 8.4-9.6 1.2-4.6-.3-8.7-4.3-12.2l-25.6-22.3 43-.2c3.5-.1 6.5-1.3 9-3.7 2.5-2.4 3.7-5.5 3.8-9.1 0-3.6-1.3-6.6-3.8-9.1-2.4-2.6-5.5-3.8-9-3.7l-43.1.1 25.7-22.5c2.8-2.4 4.3-5.2 4.4-8.6.1-3.2-.8-6.1-2.4-8.5-1.7-2.4-4.2-4.1-7.3-5.1-3.2-.9-6.4-.5-9.5 1.3-1 .6-1.8 1.1-2.2 1.5l-47.7 42-62.9-.1L244 90.4 304.2 70c3.8-1.2 6.4-3.5 7.7-6.8 1.3-3.3 1.4-6.5.4-9.6-1.1-3-3.1-5.4-6.2-7.2-3.1-1.8-6.5-2.1-10.2-.8l-32.3 11.1 21.6-37.3c1.8-3 2.2-6.3 1.3-9.7-.9-3.4-2.9-6-6-7.8-3.2-1.7-6.4-2.1-9.8-1.2-3.3.9-5.9 2.9-7.7 6l-21.7 37.1-6.5-33.3c-1-5.2-3.8-8.5-8.5-9.9-4.6-1.2-8.8-.4-12.6 2.5-3.8 3-5.2 7-4.3 12.2l12.4 62.4-31.4 54.3L159 77.6l12.3-62.3c.6-3.1.3-6-1-8.5s-3.1-4.3-5.6-5.2c-2.4-1-4.9-1.5-7.5-1.5-2.6 0-4.9.9-7 2.8-2.1 1.9-3.5 4.3-4.1 7.5l-6.6 33.5L118 6.6c-1.8-3-4.4-5-7.8-5.9-3.5-.9-6.8-.5-9.8 1.2z"/>
                </g>
            </g>
        </g>
    </g>
</svg>
