<svg id="Layer_1" xmlns="http://www.w3.org/2000/svg" viewBox="0 0 2122.5 2066.8">
    <style>
        .st0{fill:none}.st1,.st2{stroke:#000;stroke-linecap:round;stroke-linejoin:round;stroke-miterlimit:79.8403}.st1{fill:#007f01;stroke-width:4.79}.st2{stroke-width:4.2}.st2,.st3{fill:#fff}.st10,.st4,.st5,.st6,.st7,.st8,.st9{fill:#009802;stroke:#000;stroke-width:4.79;stroke-linecap:round;stroke-linejoin:round;stroke-miterlimit:79.8403}.st10,.st5,.st6,.st7,.st8,.st9{fill:#00b202}.st10,.st6,.st7,.st8,.st9{fill:#00db02}.st10,.st7,.st8,.st9{fill:#00f502}.st10,.st8,.st9{fill:#75ff77}.st10,.st9{fill:#a0ffa1}.st10{fill:#d5ffd6}
    </style>
    <g id="Document" transform="scale(1 -1)">
        <g id="Spread" transform="translate(0 -2066.75)">
            <g id="Layer_1_1_">
                <g id="Group">
                    <g id="Group_1">
                        <g id="Group_2">
                            <path d="M561.3 1898.4h-13.9v-47.9h-24.2v117.3h24.2v-47h11l28.7 47h29.5l-36.2-55.5 40-61.8h-28.8l-30.3 47.9zM704 1937.7v-87.2h-23.3v68.3h-20.5l-1.4-26.9c-.9-14.3-3.7-24.8-8.5-31.3-4.7-6.5-11.8-9.9-21.1-10.1h-7.9l-.2 18.9 2.9.2c4.2.3 7.3 2.8 9.2 7.4 1.9 4.6 3.1 12.5 3.6 23.6l1.6 37H704zM772.4 1850.5c-1.1 2.1-1.9 4.7-2.3 7.8-5.6-6.3-13-9.4-22-9.4-8.5 0-15.6 2.5-21.2 7.4s-8.4 11.2-8.4 18.7c0 9.2 3.4 16.3 10.3 21.3 6.8 4.9 16.7 7.4 29.7 7.5h10.7v5c0 4-1 7.2-3.1 9.7-2.1 2.4-5.3 3.6-9.8 3.6-3.9 0-7-.9-9.2-2.8-2.2-1.9-3.3-4.4-3.3-7.7h-23.3c0 5.1 1.6 9.7 4.7 14 3.1 4.3 7.5 7.7 13.2 10.1 5.7 2.4 12.1 3.7 19.2 3.7 10.7 0 19.3-2.7 25.6-8.1 6.3-5.4 9.5-13 9.5-22.8v-37.8c.1-8.3 1.2-14.5 3.5-18.8v-1.4h-23.8zm-19.2 16.2c3.4 0 6.6.8 9.5 2.3 2.9 1.5 5 3.6 6.4 6.2v15h-8.7c-11.7 0-17.9-4-18.6-12.1l-.1-1.4c0-2.9 1-5.3 3.1-7.2 2-1.9 4.8-2.8 8.4-2.8zM846.6 1867.7c4.3 0 7.8 1.2 10.5 3.5 2.7 2.4 4.1 5.5 4.2 9.4h21.8c-.1-5.9-1.7-11.3-4.8-16.2-3.2-4.9-7.5-8.7-13-11.4-5.5-2.7-11.6-4.1-18.2-4.1-12.5 0-22.3 4-29.5 11.9-7.2 7.9-10.8 18.9-10.8 32.8v1.5c0 13.4 3.6 24.1 10.7 32.1s16.9 12 29.4 12c10.9 0 19.6-3.1 26.2-9.3 6.6-6.2 9.9-14.5 10-24.8h-21.8c-.1 4.5-1.5 8.2-4.2 11-2.7 2.8-6.2 4.2-10.6 4.2-5.4 0-9.5-2-12.3-5.9s-4.1-10.3-4.1-19.2v-2.4c0-9 1.4-15.4 4.1-19.3 2.7-3.9 6.8-5.8 12.4-5.8zM932.7 1867.7c4.3 0 7.8 1.2 10.5 3.5 2.7 2.4 4.1 5.5 4.2 9.4h21.8c-.1-5.9-1.7-11.3-4.8-16.2-3.2-4.9-7.5-8.7-13-11.4-5.5-2.7-11.6-4.1-18.2-4.1-12.5 0-22.3 4-29.5 11.9-7.2 7.9-10.8 18.9-10.8 32.8v1.5c0 13.4 3.6 24.1 10.7 32.1s16.9 12 29.4 12c10.9 0 19.6-3.1 26.2-9.3 6.6-6.2 9.9-14.5 10-24.8h-21.8c-.1 4.5-1.5 8.2-4.2 11-2.7 2.8-6.2 4.2-10.6 4.2-5.4 0-9.5-2-12.3-5.9-2.8-3.9-4.1-10.3-4.1-19.2v-2.4c0-9 1.4-15.4 4.1-19.3 2.6-3.9 6.8-5.8 12.4-5.8zM1076.7 1878l22.8 59.7h29.2v-87.2h-23.3v53.5l-20.9-53.5h-15.6l-20.5 52.6v-52.6h-23.3v87.2h28.9l22.7-59.7zM1145.2 1894.9c0 8.7 1.7 16.4 5 23.1 3.3 6.8 8.1 12 14.4 15.7 6.3 3.7 13.5 5.6 21.8 5.6 11.8 0 21.4-3.6 28.8-10.8 7.4-7.2 11.6-17 12.5-29.3l.2-6c0-13.4-3.7-24.1-11.2-32.2-7.5-8.1-17.5-12.1-30-12.1-12.6 0-22.6 4-30.1 12.1s-11.2 19-11.2 32.9v1zm23.3-1.7c0-8.3 1.6-14.6 4.7-19s7.6-6.6 13.4-6.6c5.6 0 10 2.2 13.2 6.5 3.2 4.3 4.8 11.2 4.8 20.7 0 8.1-1.6 14.4-4.8 18.9-3.2 4.4-7.6 6.7-13.4 6.7-5.7 0-10.1-2.2-13.2-6.6-3.1-4.4-4.7-11.3-4.7-20.6zM1237.6 1869.3c5.3 5.6 8.8 11.1 10.7 16.6s2.9 13.2 3.2 23.3l.6 28.5h64.1v-68.4h12.6v-45h-23.3v26.2h-51.6v-26.2h-23.8v45h7.5zm27.4 0h28v49.2h-18.1l-.2-10.5c-.5-16.1-3.7-28.9-9.7-38.7zM1380.6 1848.9c-12.8 0-23.2 3.9-31.2 11.8-8 7.8-12 18.3-12 31.3v2.3c0 8.8 1.7 16.6 5.1 23.5 3.4 6.9 8.2 12.2 14.4 16 6.2 3.7 13.3 5.6 21.2 5.6 11.9 0 21.3-3.8 28.1-11.3 6.9-7.5 10.3-18.2 10.3-32v-9.5H1361c.8-5.7 3-10.3 6.8-13.7 3.8-3.4 8.6-5.2 14.4-5.2 9 0 16 3.2 21 9.8l11.4-12.8c-3.5-4.9-8.2-8.8-14.2-11.6-5.9-2.8-12.5-4.2-19.8-4.2zm-2.6 71.5c-4.6 0-8.4-1.6-11.2-4.7-2.9-3.1-4.7-7.6-5.5-13.4h32.4v1.8c-.1 5.2-1.5 9.1-4.2 12-2.8 2.9-6.6 4.3-11.5 4.3zM1505.5 1937.7v-87.2h-23.3v68.3h-20.5l-1.5-26.9c-.9-14.3-3.7-24.8-8.5-31.3-4.7-6.5-11.8-9.9-21.1-10.1h-7.9l-.2 18.9 2.9.2c4.2.3 7.2 2.8 9.2 7.4 1.9 4.6 3.2 12.5 3.6 23.6l1.6 37h65.7zM1576 1937.7h23.3v-87.2H1576v53.8l-29.2-53.8h-23.4v87.2h23.4V1884l29.2 53.7z"/>
                        </g>
                    </g>
                    <path class="st0" d="M0 2066.8V0h2122.5v2066.8H0z"/>
                    <g id="Group_3">
                        <path d="M1514.1 1634.3c0-2.6 2.2-4.8 4.9-4.8h19.8c2.6 0 4.9 2.2 4.9 4.8 0 2.7-2.3 4.8-4.9 4.8H1519c-2.7.1-4.9-2.1-4.9-4.8zM1571.7 1634.3c0-2.6 2.2-4.8 5-4.8h19.7c2.6 0 4.9 2.2 4.9 4.8 0 2.7-2.3 4.8-4.9 4.8h-19.7c-2.8.1-5-2.1-5-4.8zM1629.3 1634.3c0-2.6 2.2-4.8 4.9-4.8h19.8c2.6 0 4.9 2.2 4.9 4.8 0 2.7-2.3 4.8-4.9 4.8h-19.8c-2.7.1-4.9-2.1-4.9-4.8zM1687 1634.3c0-2.6 2.2-4.8 4.9-4.8h19.7c2.7 0 5 2.2 5 4.8 0 2.7-2.3 4.8-5 4.8h-19.7c-2.7.1-4.9-2.1-4.9-4.8zM1744.6 1634.3c0-2.6 2.2-4.8 4.9-4.8h19.7c2.6 0 4.9 2.2 4.9 4.8 0 2.7-2.3 4.8-4.9 4.8h-19.7c-2.7.1-4.9-2.1-4.9-4.8zM1802.2 1634.3c0-2.6 2.2-4.8 5-4.8h19.7c2.6 0 4.9 2.2 4.9 4.8 0 2.7-2.3 4.8-4.9 4.8h-19.7c-2.8.1-5-2.1-5-4.8zM1859.9 1634.3c0-2.6 2.2-4.8 4.9-4.8h19.8c2.6 0 4.9 2.2 4.9 4.8 0 2.7-2.3 4.8-4.9 4.8h-19.8c-2.7.1-4.9-2.1-4.9-4.8zM1917.5 1634.3c0-2.6 2.2-4.8 4.9-4.8h19.7c2.6 0 4.9 2.2 4.9 4.8 0 2.7-2.3 4.8-4.9 4.8h-19.7c-2.7.1-4.9-2.1-4.9-4.8zM1975.1 1634.3c0-2.6 2.2-4.8 4.9-4.8h19.8c2.6 0 4.9 2.2 4.9 4.8 0 2.7-2.3 4.8-4.9 4.8H1980c-2.7.1-4.9-2.1-4.9-4.8z"/>
                    </g>
                    <path class="st1" d="M1480.9 1556.2l76.3 78.1-76.3 78.2H97.2v-156.3h1383.7z"/>
                    <g id="Group_4">
                        <g id="Group_5">
                            <path class="st2" d="M1261.4 1605h-36.1l-6.9-20.6h-21.9l37.2 99.9h19.1l37.4-99.9h-21.9l-6.9 20.6zm-30.5 16.7h25l-12.5 37.4-12.5-37.4zM1338.2 1640.3h24.8v-17.9h-24.8v-28h-18.9v28h-24.8v17.9h24.8v26.8h18.9v-26.8zM1414.9 1640.3h24.8v-17.9h-24.8v-28H1396v28h-24.8v17.9h24.8v26.8h18.9v-26.8z"/>
                        </g>
                    </g>
                    <g id="Group_6">
                        <g id="Group_7">
                            <path class="st3" d="M186.5 1634l12.1 31.4h14.8l-23.2-54.8-1.9-3.6c-3.4-6-8.7-9-15.8-9l-4.8.2-.1 11c.7-.1 1.9-.2 3.6-.2 1.9 0 3.5.3 4.6 1 1.2.7 2.2 1.9 2.9 3.7l1.7 4.3-23.3 47.3h14.7l14.7-31.3zM272.1 1665.4V1599h-13.7v55.3h-17.7l-1.1-23.4c-.5-7.9-1.5-14.1-3-18.7-1.6-4.5-3.8-7.9-6.8-10-3-2.1-7.1-3.2-12.2-3.2H214v11l2.3.2c3.4.5 5.9 2.4 7.4 6 1.5 3.5 2.4 9.8 2.8 18.8l1.1 30.5h44.5zM297.8 1641.4h10.7c7.8 0 14-1.9 18.6-5.7 4.6-3.8 6.9-8.9 6.9-15.3s-2.3-11.6-6.8-15.5c-4.5-3.9-10.6-5.9-18.1-6H284v66.4h13.8v-23.9zm0-11V1610h10.9c3.5 0 6.3 1 8.4 2.9 2.1 1.9 3.1 4.5 3.1 7.7 0 3-1 5.4-3 7.1-2 1.8-4.7 2.7-8.2 2.7h-11.2zM388.1 1654.3h-20.3V1599H354v55.3h-20v11.1h54.1v-11.1zM409.5 1622.4V1599h-13.7v66.4h25.9c5 0 9.4-.9 13.2-2.7 3.8-1.8 6.7-4.4 8.7-7.8 2-3.4 3.1-7.2 3.1-11.5 0-6.5-2.2-11.6-6.7-15.4-4.5-3.8-10.6-5.6-18.5-5.6h-12zm0 11.1h12.2c3.6 0 6.4.9 8.3 2.6 1.9 1.7 2.8 4.1 2.8 7.3s-1 5.9-2.9 7.9-4.6 3-7.9 3.1h-12.5v-20.9zM485.5 1612.7h-24l-4.6-13.7h-14.5l24.7 66.4h12.7l24.9-66.4h-14.5l-4.7 13.7zm-20.3 11h16.6l-8.3 24.9-8.3-24.9zM535.6 1622.1h-25.7v10.6h25.7v-10.6zM601.1 1599h-13.7v55.3h-26.6V1599h-13.7v66.4h54V1599zM626.8 1622.4V1599h-13.7v66.4H639c5 0 9.4-.9 13.2-2.7 3.8-1.8 6.7-4.4 8.7-7.8 2-3.4 3.1-7.2 3.1-11.5 0-6.5-2.2-11.6-6.7-15.4-4.5-3.8-10.6-5.6-18.5-5.6h-12zm0 11.1H639c3.6 0 6.4.9 8.3 2.6 1.9 1.7 2.8 4.1 2.8 7.3s-1 5.9-2.9 7.9-4.6 3-7.9 3.1h-12.5v-20.9zM713.3 1627.8H687V1610h30.8v-11h-44.5v66.4h44.4v-11.1H687v-15.8h26.3v-10.7zM743.8 1665.4l17.1-48.2 17 48.2h18V1599H782v18.2l1.4 31.3-17.9-49.5h-9.4l-17.9 49.4 1.4-31.3V1599h-13.7v66.4h17.9zM847.5 1665.4h13.7V1599h-13.7v44.1l-26.6-44.1h-13.7v66.4h13.7v-44.2l26.6 44.2zM898 1634l12.1 31.4h14.8l-23.2-54.8-1.9-3.6c-3.4-6-8.7-9-15.8-9l-4.8.2-.1 11c.7-.1 1.9-.2 3.6-.2 1.9 0 3.5.3 4.6 1 1.2.7 2.2 1.9 2.9 3.7l1.7 4.3-23.3 47.3h14.7L898 1634zM950 1665.4l17.1-48.2 17 48.2h18V1599h-13.7v18.2l1.4 31.3-17.9-49.5h-9.4l-17.9 49.4 1.4-31.3V1599h-13.7v66.4H950z"/>
                        </g>
                    </g>
                    <g id="Group_8">
                        <path d="M1456.4 1434c0-2.6 2.2-4.8 5-4.8h19.8c2.6 0 4.9 2.2 4.9 4.8s-2.3 4.8-4.9 4.8h-19.8c-2.8 0-5-2.1-5-4.8zM1514.1 1434c0-2.6 2.2-4.8 4.9-4.8h19.8c2.6 0 4.9 2.2 4.9 4.8s-2.3 4.8-4.9 4.8H1519c-2.8 0-4.9-2.1-4.9-4.8zM1571.7 1434c0-2.6 2.2-4.8 5-4.8h19.7c2.6 0 4.9 2.2 4.9 4.8s-2.3 4.8-4.9 4.8h-19.7c-2.8 0-5-2.1-5-4.8zM1629.3 1434c0-2.6 2.2-4.8 4.9-4.8h19.8c2.6 0 4.9 2.2 4.9 4.8s-2.3 4.8-4.9 4.8h-19.8c-2.7 0-4.9-2.1-4.9-4.8zM1686.9 1434c0-2.6 2.2-4.8 4.9-4.8h19.7c2.7 0 5 2.2 5 4.8s-2.3 4.8-5 4.8h-19.7c-2.7 0-4.9-2.1-4.9-4.8zM1744.6 1434c0-2.6 2.2-4.8 4.9-4.8h19.7c2.6 0 4.9 2.2 4.9 4.8s-2.3 4.8-4.9 4.8h-19.7c-2.7 0-4.9-2.1-4.9-4.8zM1802.2 1434c0-2.6 2.2-4.8 5-4.8h19.7c2.6 0 4.9 2.2 4.9 4.8s-2.3 4.8-4.9 4.8h-19.7c-2.8 0-5-2.1-5-4.8zM1859.9 1434c0-2.6 2.2-4.8 4.9-4.8h19.8c2.6 0 4.9 2.2 4.9 4.8s-2.3 4.8-4.9 4.8h-19.8c-2.7 0-4.9-2.1-4.9-4.8zM1917.5 1434c0-2.6 2.2-4.8 5-4.8h19.7c2.6 0 4.9 2.2 4.9 4.8s-2.3 4.8-4.9 4.8h-19.7c-2.8 0-5-2.1-5-4.8zM1975.1 1434c0-2.6 2.2-4.8 4.9-4.8h19.8c2.6 0 4.9 2.2 4.9 4.8s-2.3 4.8-4.9 4.8H1980c-2.7 0-4.9-2.1-4.9-4.8z"/>
                    </g>
                    <path class="st4" d="M1426.6 1355.9l76.4 78.2-76.4 78.2H97.2V1356h1329.4z"/>
                    <g id="Group_9">
                        <g id="Group_10">
                            <path class="st2" d="M1261.4 1404.7h-36.1l-6.9-20.6h-21.9l37.2 99.9h19.1l37.4-99.9h-21.9l-6.9 20.6zm-30.5 16.6h25l-12.5 37.4-12.5-37.4zM1338.2 1440h24.8v-17.9h-24.8v-28h-18.9v28h-24.8v17.9h24.8v26.8h18.9V1440z"/>
                        </g>
                    </g>
                    <g id="Group_11">
                        <g id="Group_12">
                            <path class="st3" d="M215.7 1398.7H202v55.3h-26.6v-55.3h-13.7v66.4h54v-66.4zM241.4 1422.1v-23.4h-13.7v66.4h25.9c5 0 9.4-.9 13.2-2.7 3.8-1.8 6.7-4.4 8.7-7.8 2-3.4 3.1-7.2 3.1-11.5 0-6.5-2.2-11.6-6.7-15.4-4.5-3.8-10.6-5.6-18.5-5.6h-12zm0 11h12.2c3.6 0 6.4.8 8.3 2.6 1.9 1.7 2.9 4.1 2.9 7.3s-1 5.9-2.9 7.9-4.6 3-7.9 3.1h-12.5v-20.9zM327.9 1427.4h-26.3v-17.8h30.8v-11H288v66.4h44.4v-11h-30.7v-15.8H328v-10.8zM358.4 1465.1l17.1-48.2 17 48.2h18v-66.4h-13.7v18.2l1.4 31.3-17.9-49.5h-9.4l-17.9 49.4 1.4-31.3v-18.2h-13.7v66.4h17.7zM462.1 1465.1h13.7v-66.4h-13.7v44.1l-26.6-44.1h-13.7v66.4h13.7v-44.2l26.6 44.2zM512.6 1433.7l12.1 31.4h14.8l-23.2-54.8-1.9-3.6c-3.4-6-8.7-9-15.8-9l-4.8.2-.1 11c.7-.1 1.9-.2 3.6-.2 1.9 0 3.5.3 4.6 1 1.2.7 2.2 1.9 2.9 3.7l1.7 4.3-23.3 47.3h14.7l14.7-31.3zM564.6 1465.1l17.1-48.2 17 48.2h18v-66.4H603v18.2l1.4 31.3-17.9-49.5h-9.4l-17.9 49.4 1.4-31.3v-18.2h-13.7v66.4h17.7zM705.8 1398.7h-13.7v55.3h-26.6v-55.3h-13.7v66.4h54v-66.4zM771.8 1465.1v-66.4h-13.7v55.3h-17.7l-1.1-23.4c-.5-7.9-1.5-14.1-3-18.7-1.6-4.5-3.8-7.9-6.8-10-3-2.1-7.1-3.2-12.2-3.2h-3.6v11l2.3.2c3.4.5 5.9 2.4 7.4 5.9 1.5 3.5 2.4 9.8 2.8 18.8l1.1 30.5h44.5zM861.9 1430.3c0-6.5-1.2-12.3-3.5-17.2-2.3-4.9-5.6-8.7-9.9-11.4-4.3-2.7-9.2-4-14.8-4-5.1 0-9.6 1.1-13.7 3.3-4 2.2-7.3 5.4-9.8 9.5-2.5 4.1-4.1 9-4.6 14.5H798v-26.4h-13.7v66.4H798v-29.4h7.4c.3 6 1.6 11.3 4 15.9s5.7 8.1 9.9 10.6 9 3.8 14.3 3.8c5.5 0 10.5-1.3 14.8-4 4.3-2.7 7.6-6.5 10-11.4s3.5-10.7 3.5-17.2v-3zm-13.9 3.1c0 7-1.2 12.2-3.7 15.9-2.5 3.6-6 5.4-10.7 5.4-4.6 0-8.1-1.8-10.6-5.3-2.5-3.6-3.8-8.8-3.8-15.7v-3.2c0-6.8 1.2-12 3.7-15.8 2.5-3.7 6.1-5.6 10.8-5.6 4.6 0 8.1 1.8 10.6 5.4 2.5 3.6 3.7 8.9 3.7 15.8v3.1zM924 1420.8c-.5-7.2-3.2-12.8-7.9-16.9-4.8-4.1-11-6.2-18.8-6.2-8.5 0-15.2 2.9-20.1 8.6-4.9 5.7-7.3 13.6-7.3 23.6v4.1c0 6.4 1.1 12 3.4 16.9 2.2 4.9 5.5 8.6 9.6 11.2 4.2 2.6 9 3.9 14.6 3.9 7.7 0 13.8-2 18.5-6.1 4.7-4.1 7.4-9.9 8.1-17.3h-13.7c-.3 4.3-1.5 7.4-3.6 9.3-2.1 1.9-5.2 2.9-9.4 2.9-4.6 0-8-1.6-10.2-4.9-2.3-3.3-3.4-8.3-3.5-15.2v-5c0-7.2 1.1-12.4 3.3-15.7 2.2-3.3 5.6-5 10.3-5 4.2 0 7.4 1 9.5 2.9 2.1 1.9 3.3 4.9 3.6 9H924z"/>
                        </g>
                    </g>
                    <g id="Group_13">
                        <path d="M1398.8 1233.7c0-2.6 2.2-4.8 4.9-4.8h19.8c2.6 0 5 2.2 5 4.8 0 2.7-2.3 4.8-5 4.8h-19.8c-2.7 0-4.9-2.1-4.9-4.8zM1456.4 1233.7c0-2.6 2.2-4.8 5-4.8h19.8c2.6 0 4.9 2.2 4.9 4.8 0 2.7-2.3 4.8-4.9 4.8h-19.8c-2.8 0-5-2.1-5-4.8zM1514.1 1233.7c0-2.6 2.2-4.8 4.9-4.8h19.8c2.6 0 4.9 2.2 4.9 4.8 0 2.7-2.3 4.8-4.9 4.8H1519c-2.7 0-4.9-2.1-4.9-4.8zM1571.7 1233.7c0-2.6 2.2-4.8 5-4.8h19.7c2.6 0 4.9 2.2 4.9 4.8 0 2.7-2.3 4.8-4.9 4.8h-19.7c-2.8 0-5-2.1-5-4.8zM1629.3 1233.7c0-2.6 2.2-4.8 4.9-4.8h19.8c2.6 0 4.9 2.2 4.9 4.8 0 2.7-2.3 4.8-4.9 4.8h-19.8c-2.7 0-4.9-2.1-4.9-4.8zM1687 1233.7c0-2.6 2.2-4.8 4.9-4.8h19.7c2.7 0 5 2.2 5 4.8 0 2.7-2.3 4.8-5 4.8h-19.7c-2.7 0-4.9-2.1-4.9-4.8zM1744.6 1233.7c0-2.6 2.2-4.8 4.9-4.8h19.7c2.6 0 4.9 2.2 4.9 4.8 0 2.7-2.3 4.8-4.9 4.8h-19.7c-2.7 0-4.9-2.1-4.9-4.8zM1802.2 1233.7c0-2.6 2.2-4.8 5-4.8h19.7c2.6 0 4.9 2.2 4.9 4.8 0 2.7-2.3 4.8-4.9 4.8h-19.7c-2.8 0-5-2.1-5-4.8zM1859.9 1233.7c0-2.6 2.2-4.8 4.9-4.8h19.8c2.6 0 4.9 2.2 4.9 4.8 0 2.7-2.3 4.8-4.9 4.8h-19.8c-2.7 0-4.9-2.1-4.9-4.8zM1917.5 1233.7c0-2.6 2.2-4.8 4.9-4.8h19.7c2.6 0 4.9 2.2 4.9 4.8 0 2.7-2.3 4.8-4.9 4.8h-19.7c-2.7 0-4.9-2.1-4.9-4.8zM1975.1 1233.7c0-2.6 2.2-4.8 4.9-4.8h19.8c2.6 0 4.9 2.2 4.9 4.8 0 2.7-2.3 4.8-4.9 4.8H1980c-2.7 0-4.9-2.1-4.9-4.8z"/>
                    </g>
                    <path class="st5" d="M1366.8 1155.5l76.4 78.2-76.4 78.2H97.2v-156.3h1269.6z"/>
                    <g id="Group_14">
                        <path class="st2" d="M1261.4 1204.3h-36.1l-6.9-20.6h-21.9l37.2 99.9h19.1l37.4-99.9h-21.9l-6.9 20.6zm-30.5 16.7h25l-12.5 37.4-12.5-37.4z" id="Group_15"/>
                    </g>
                    <g id="Group_16">
                        <g id="Group_17">
                            <path class="st3" d="M215.7 1198.3H202v55.3h-26.6v-55.3h-13.7v66.4h54v-66.4zM241.4 1221.7v-23.4h-13.7v66.4h25.9c5 0 9.4-.9 13.2-2.7 3.8-1.8 6.7-4.4 8.7-7.8 2-3.4 3.1-7.2 3.1-11.5 0-6.5-2.2-11.6-6.7-15.4-4.5-3.8-10.6-5.6-18.5-5.6h-12zm0 11.1h12.2c3.6 0 6.4.8 8.3 2.5 1.9 1.7 2.9 4.1 2.9 7.3s-1 5.9-2.9 7.9-4.6 3-7.9 3.1h-12.5v-20.8zM327.9 1227.1h-26.3v-17.8h30.8v-11h-44.5v66.4h44.4v-11.1h-30.7v-15.8h26.3v-10.7zM358.4 1264.7l17.1-48.2 17 48.2h18v-66.4h-13.7v18.2l1.4 31.3-17.9-49.5h-9.4l-17.9 49.4 1.4-31.3v-18.2h-13.7v66.4h17.7zM462.1 1264.7h13.7v-66.4h-13.7v44.1l-26.6-44.1h-13.7v66.4h13.7v-44.2l26.6 44.2zM512.6 1233.3l12.1 31.4h14.8l-23.2-54.8-1.9-3.6c-3.4-6-8.7-9-15.8-9l-4.8.2-.1 11c.7-.1 1.9-.2 3.6-.2 1.9 0 3.5.3 4.6 1 1.2.7 2.2 1.9 2.9 3.7l1.7 4.3-23.3 47.3h14.7l14.7-31.3zM564.5 1264.7l17.1-48.2 17 48.2h18v-66.4h-13.7v18.2l1.4 31.3-17.9-49.5H577l-17.9 49.4 1.4-31.3v-18.2h-13.7v66.4h17.7z"/>
                        </g>
                    </g>
                    <g id="Group_18">
                        <path d="M1341.2 1033.4c0-2.6 2.2-4.8 4.9-4.8h19.8c2.6 0 4.9 2.2 4.9 4.8 0 2.7-2.3 4.8-4.9 4.8h-19.8c-2.7 0-4.9-2.2-4.9-4.8zM1398.8 1033.4c0-2.6 2.2-4.8 4.9-4.8h19.8c2.6 0 5 2.2 5 4.8 0 2.7-2.3 4.8-5 4.8h-19.8c-2.7 0-4.9-2.2-4.9-4.8zM1456.4 1033.4c0-2.6 2.2-4.8 5-4.8h19.8c2.6 0 4.9 2.2 4.9 4.8 0 2.7-2.3 4.8-4.9 4.8h-19.8c-2.8 0-5-2.2-5-4.8zM1514.1 1033.4c0-2.6 2.2-4.8 4.9-4.8h19.8c2.6 0 4.9 2.2 4.9 4.8 0 2.7-2.3 4.8-4.9 4.8H1519c-2.7 0-4.9-2.2-4.9-4.8zM1571.7 1033.4c0-2.6 2.2-4.8 5-4.8h19.7c2.6 0 4.9 2.2 4.9 4.8 0 2.7-2.3 4.8-4.9 4.8h-19.7c-2.8 0-5-2.2-5-4.8zM1629.3 1033.4c0-2.6 2.2-4.8 4.9-4.8h19.8c2.6 0 4.9 2.2 4.9 4.8 0 2.7-2.3 4.8-4.9 4.8h-19.8c-2.7 0-4.9-2.2-4.9-4.8zM1687 1033.4c0-2.6 2.2-4.8 4.9-4.8h19.7c2.7 0 5 2.2 5 4.8 0 2.7-2.3 4.8-5 4.8h-19.7c-2.7 0-4.9-2.2-4.9-4.8zM1744.6 1033.4c0-2.6 2.2-4.8 4.9-4.8h19.7c2.6 0 4.9 2.2 4.9 4.8 0 2.7-2.3 4.8-4.9 4.8h-19.7c-2.7 0-4.9-2.2-4.9-4.8zM1802.2 1033.4c0-2.6 2.2-4.8 5-4.8h19.7c2.6 0 4.9 2.2 4.9 4.8 0 2.7-2.3 4.8-4.9 4.8h-19.7c-2.8 0-5-2.2-5-4.8zM1859.9 1033.4c0-2.6 2.2-4.8 4.9-4.8h19.8c2.6 0 4.9 2.2 4.9 4.8 0 2.7-2.3 4.8-4.9 4.8h-19.8c-2.7 0-4.9-2.2-4.9-4.8zM1917.5 1033.4c0-2.6 2.2-4.8 4.9-4.8h19.7c2.6 0 4.9 2.2 4.9 4.8 0 2.7-2.3 4.8-4.9 4.8h-19.7c-2.7 0-4.9-2.2-4.9-4.8zM1975.1 1033.4c0-2.6 2.2-4.8 4.9-4.8h19.8c2.6 0 4.9 2.2 4.9 4.8 0 2.7-2.3 4.8-4.9 4.8H1980c-2.7 0-4.9-2.2-4.9-4.8z"/>
                    </g>
                    <path class="st6" d="M1308.7 955.2l76.4 78.1-76.4 78.2H97.2V955.2h1211.5z"/>
                    <g id="Group_19">
                        <g id="Group_20">
                            <path class="st2" d="M1105.1 983.4v99.9h35c12.1 0 21.3-2.3 27.6-7 6.3-4.6 9.4-11.4 9.4-20.4 0-4.9-1.3-9.2-3.8-12.9-2.5-3.7-6-6.5-10.5-8.2 5.1-1.3 9.2-3.9 12.1-7.8 2.9-3.9 4.4-8.6 4.4-14.3 0-9.6-3.1-16.9-9.2-21.8s-14.9-7.5-26.2-7.5h-38.8zm20.6 43.5v-27h17.6c4.8 0 8.6 1.2 11.3 3.5 2.7 2.3 4.1 5.5 4.1 9.6 0 9.2-4.7 13.8-14.2 13.9h-18.8zm0 14.6h15.2c10.4.2 15.6 4.3 15.6 12.4 0 4.5-1.3 7.8-3.9 9.8s-6.8 3-12.5 3h-14.4v-25.2zM1245.7 1039.3h24.8v-17.9h-24.8v-28h-18.9v28H1202v17.9h24.8v26.8h18.9v-26.8z"/>
                        </g>
                    </g>
                    <g id="Group_21">
                        <g id="Group_22">
                            <path d="M213.7 1020.1c-.5-7.2-3.2-12.8-7.9-16.9-4.8-4.1-11-6.2-18.8-6.2-8.5 0-15.2 2.9-20.1 8.6-4.9 5.7-7.3 13.6-7.3 23.6v4c0 6.4 1.1 12 3.4 16.9 2.2 4.9 5.5 8.6 9.6 11.2 4.2 2.6 9 3.9 14.6 3.9 7.7 0 13.8-2.1 18.5-6.2 4.7-4.1 7.4-9.9 8.1-17.3h-13.7c-.3 4.3-1.5 7.4-3.6 9.3-2.1 1.9-5.2 2.9-9.4 2.9-4.6 0-8-1.6-10.2-4.9-2.3-3.3-3.4-8.3-3.5-15.2v-5c0-7.2 1.1-12.4 3.3-15.7 2.2-3.3 5.6-5 10.3-5 4.2 0 7.4 1 9.5 2.9 2.1 1.9 3.3 4.9 3.6 9h13.6zM271.4 1053.3h-20.3V998h-13.7v55.3h-20.1v11.1h54.1v-11.1zM311.2 1011.7h-24l-4.6-13.7h-14.5l24.7 66.4h12.7l24.9-66.4h-14.5l-4.7 13.7zm-20.3 11.1h16.6l-8.3 24.9-8.3-24.9zM390.6 998h-13.7v28.5h-26.7V998h-13.7v66.4h13.7v-26.9h26.7v26.9h13.7V998zM465.1 981.7h-12.6V998h-40v-16.3h-13l-.7 27.3h5c2.7 2.2 4.8 5.6 6.3 9.9 1.5 4.4 2.5 9.8 3 16.2l1.9 29.3h43.5V1009h7.8l-1.2-27.3zm-45.7 27.3h25.3v44.3h-16.8l-1.1-17.5c-.9-11.6-3.4-20.6-7.4-26.8zM511.5 1011.7h-24L483 998h-14.5l24.7 66.4h12.7l24.9-66.4h-14.5l-4.8 13.7zm-20.2 11.1h16.6l-8.3 24.9-8.3-24.9zM550.6 1021.4V998h-13.7v66.4h25.9c5 0 9.4-.9 13.2-2.7 3.8-1.8 6.7-4.4 8.7-7.8 2-3.4 3.1-7.2 3.1-11.5 0-6.5-2.2-11.6-6.7-15.4-4.5-3.8-10.6-5.6-18.5-5.6h-12zm0 11.1h12.2c3.6 0 6.4.8 8.3 2.6 1.9 1.7 2.9 4.1 2.9 7.3s-1 5.9-2.9 7.9-4.6 3-7.9 3.1h-12.5v-20.9zM647.1 1053.3h-20.3V998h-13.7v55.3H593v11.1h54.1v-11.1zM729.5 998h-13.7v55.3h-26.6V998h-13.7v66.4h54V998zM795.5 1064.4V998h-13.7v55.3h-17.7l-1.1-23.4c-.5-7.9-1.5-14.1-3-18.7-1.6-4.5-3.8-7.9-6.8-10-3-2.1-7.1-3.2-12.2-3.2h-3.6v11l2.3.2c3.4.5 5.9 2.4 7.4 6 1.5 3.5 2.4 9.8 2.8 18.8l1.1 30.5h44.5zM885.6 1029.7c0-6.5-1.2-12.3-3.5-17.2-2.3-4.9-5.6-8.7-9.9-11.4-4.3-2.7-9.2-4-14.8-4-5.1 0-9.6 1.1-13.7 3.3-4 2.2-7.3 5.4-9.8 9.5-2.5 4.1-4.1 9-4.6 14.5h-7.6V998H808v66.4h13.7V1035h7.4c.3 6 1.6 11.3 4 15.9s5.7 8.1 9.9 10.7 9 3.8 14.3 3.8c5.5 0 10.5-1.3 14.8-4 4.3-2.7 7.6-6.5 10-11.4 2.4-5 3.5-10.7 3.5-17.2v-3.1zm-13.9 3c0 7-1.2 12.2-3.7 15.9-2.5 3.6-6 5.4-10.7 5.4-4.6 0-8.1-1.8-10.6-5.3-2.5-3.6-3.8-8.8-3.8-15.7v-3.2c0-6.8 1.2-12 3.7-15.8 2.5-3.7 6.1-5.6 10.8-5.6 4.6 0 8.1 1.8 10.6 5.4 2.5 3.6 3.7 8.9 3.7 15.8v3.1zM947.7 1020.1c-.5-7.2-3.2-12.8-7.9-16.9-4.8-4.1-11-6.2-18.8-6.2-8.5 0-15.2 2.9-20.1 8.6-4.9 5.7-7.3 13.6-7.3 23.6v4c0 6.4 1.1 12 3.4 16.9 2.2 4.9 5.5 8.6 9.6 11.2 4.2 2.6 9 3.9 14.6 3.9 7.7 0 13.8-2.1 18.5-6.2 4.7-4.1 7.4-9.9 8.1-17.3h-13.7c-.3 4.3-1.5 7.4-3.6 9.3-2.1 1.9-5.2 2.9-9.4 2.9-4.6 0-8-1.6-10.2-4.9-2.3-3.3-3.4-8.3-3.5-15.2v-5c0-7.2 1.1-12.4 3.3-15.7 2.2-3.3 5.6-5 10.3-5 4.2 0 7.4 1 9.5 2.9 2.1 1.9 3.3 4.9 3.6 9h13.6z"/>
                        </g>
                    </g>
                    <g id="Group_23">
                        <path d="M1283.5 833c0-2.6 2.2-4.8 4.9-4.8h19.7c2.6 0 5 2.2 5 4.8 0 2.7-2.4 4.8-5 4.8h-19.7c-2.7 0-4.9-2.1-4.9-4.8zM1341.2 833c0-2.6 2.2-4.8 4.9-4.8h19.8c2.6 0 4.9 2.2 4.9 4.8 0 2.7-2.3 4.8-4.9 4.8h-19.8c-2.7 0-4.9-2.1-4.9-4.8zM1398.8 833c0-2.6 2.2-4.8 4.9-4.8h19.8c2.6 0 5 2.2 5 4.8 0 2.7-2.3 4.8-5 4.8h-19.8c-2.7 0-4.9-2.1-4.9-4.8zM1456.4 833c0-2.6 2.2-4.8 5-4.8h19.8c2.6 0 4.9 2.2 4.9 4.8 0 2.7-2.3 4.8-4.9 4.8h-19.8c-2.8 0-5-2.1-5-4.8zM1514.1 833c0-2.6 2.2-4.8 4.9-4.8h19.8c2.6 0 4.9 2.2 4.9 4.8 0 2.7-2.3 4.8-4.9 4.8H1519c-2.7 0-4.9-2.1-4.9-4.8zM1571.7 833c0-2.6 2.2-4.8 5-4.8h19.7c2.6 0 4.9 2.2 4.9 4.8 0 2.7-2.3 4.8-4.9 4.8h-19.7c-2.8 0-5-2.1-5-4.8zM1629.3 833c0-2.6 2.2-4.8 4.9-4.8h19.8c2.6 0 4.9 2.2 4.9 4.8 0 2.7-2.3 4.8-4.9 4.8h-19.8c-2.7 0-4.9-2.1-4.9-4.8zM1687 833c0-2.6 2.2-4.8 4.9-4.8h19.7c2.7 0 5 2.2 5 4.8 0 2.7-2.3 4.8-5 4.8h-19.7c-2.7 0-4.9-2.1-4.9-4.8zM1744.6 833c0-2.6 2.2-4.8 4.9-4.8h19.7c2.6 0 4.9 2.2 4.9 4.8 0 2.7-2.3 4.8-4.9 4.8h-19.7c-2.7 0-4.9-2.1-4.9-4.8zM1802.2 833c0-2.6 2.2-4.8 5-4.8h19.7c2.6 0 4.9 2.2 4.9 4.8 0 2.7-2.3 4.8-4.9 4.8h-19.7c-2.8 0-5-2.1-5-4.8zM1859.9 833c0-2.6 2.2-4.8 4.9-4.8h19.8c2.6 0 4.9 2.2 4.9 4.8 0 2.7-2.3 4.8-4.9 4.8h-19.8c-2.7 0-4.9-2.1-4.9-4.8zM1917.5 833c0-2.6 2.2-4.8 4.9-4.8h19.7c2.6 0 4.9 2.2 4.9 4.8 0 2.7-2.3 4.8-4.9 4.8h-19.7c-2.7 0-4.9-2.1-4.9-4.8zM1975.1 833c0-2.6 2.2-4.8 4.9-4.8h19.8c2.6 0 4.9 2.2 4.9 4.8 0 2.7-2.3 4.8-4.9 4.8H1980c-2.7 0-4.9-2.1-4.9-4.8z"/>
                    </g>
                    <path class="st7" d="M1252.6 754.9L1329 833l-76.3 78.2H97.2V754.9h1155.4z"/>
                    <g id="Group_24">
                        <path class="st2" d="M1111.2 783.1V883h35c12.1 0 21.3-2.3 27.6-7 6.3-4.6 9.4-11.4 9.4-20.4 0-4.9-1.3-9.2-3.8-12.9-2.5-3.7-6-6.5-10.5-8.2 5.1-1.3 9.2-3.9 12.1-7.8 2.9-3.9 4.4-8.6 4.4-14.3 0-9.6-3.1-16.9-9.2-21.8-6.1-4.9-14.9-7.5-26.2-7.5h-38.8zm20.6 43.5v-27h17.6c4.9 0 8.6 1.2 11.4 3.5 2.7 2.3 4.1 5.5 4.1 9.6 0 9.1-4.7 13.8-14.2 13.9h-18.9zm0 14.5h15.2c10.4.2 15.6 4.3 15.6 12.4 0 4.5-1.3 7.8-3.9 9.8-2.6 2-6.8 3-12.5 3h-14.4v-25.2z" id="Group_25"/>
                    </g>
                    <g id="Group_26">
                        <g id="Group_27">
                            <path d="M213.7 819.8c-.5-7.1-3.2-12.8-7.9-16.9-4.8-4.1-11-6.2-18.8-6.2-8.5 0-15.2 2.9-20.1 8.6-4.9 5.7-7.3 13.6-7.3 23.6v4.1c0 6.4 1.1 12 3.4 16.9 2.2 4.9 5.5 8.6 9.6 11.2 4.2 2.6 9 3.9 14.6 3.9 7.7 0 13.8-2.1 18.5-6.2 4.7-4.1 7.4-9.9 8.1-17.3h-13.7c-.3 4.3-1.5 7.4-3.6 9.3-2.1 1.9-5.2 2.9-9.4 2.9-4.6 0-8-1.6-10.2-4.9-2.3-3.3-3.4-8.3-3.5-15.2v-5c0-7.2 1.1-12.4 3.3-15.7 2.2-3.3 5.6-5 10.3-5 4.2 0 7.4 1 9.5 2.9 2.1 1.9 3.3 4.9 3.6 9h13.6zM271.4 853h-20.3v-55.3h-13.7V853h-20.1v11.1h54.1V853zM311.2 811.3h-24l-4.6-13.7h-14.5l24.7 66.4h12.7l24.9-66.4h-14.5l-4.7 13.7zm-20.3 11.1h16.6l-8.3 24.9-8.3-24.9zM390.6 797.7h-13.7v28.5h-26.7v-28.5h-13.7v66.4h13.7v-26.9h26.7v26.9h13.7v-66.4zM465.1 781.3h-12.6v16.3h-40v-16.3h-13l-.7 27.3h5c2.7 2.2 4.8 5.6 6.3 9.9 1.5 4.4 2.5 9.8 3 16.2L415 864h43.5v-55.4h7.8l-1.2-27.3zm-45.7 27.4h25.3V853h-16.8l-1.1-17.5c-.9-11.7-3.4-20.6-7.4-26.8zM511.5 811.3h-24l-4.6-13.7h-14.5l24.7 66.4h12.7l24.9-66.4h-14.5l-4.7 13.7zm-20.2 11.1h16.6l-8.3 24.9-8.3-24.9zM550.6 821.1v-23.4h-13.7v66.4h25.9c5 0 9.4-.9 13.2-2.7 3.8-1.8 6.7-4.4 8.7-7.8 2-3.4 3.1-7.2 3.1-11.5 0-6.5-2.2-11.6-6.7-15.4-4.5-3.8-10.6-5.6-18.5-5.6h-12zm0 11h12.2c3.6 0 6.4.9 8.3 2.6 1.9 1.7 2.9 4.1 2.9 7.3 0 3.3-1 5.9-2.9 7.9s-4.6 3-7.9 3.1h-12.5v-20.9zM647.1 853h-20.3v-55.3h-13.7V853H593v11.1h54.1V853z"/>
                        </g>
                    </g>
                    <g id="Group_28">
                        <path d="M1225.9 632.7c0-2.6 2.2-4.8 4.9-4.8h19.8c2.6 0 4.9 2.2 4.9 4.8 0 2.6-2.3 4.8-4.9 4.8h-19.8c-2.7 0-4.9-2.2-4.9-4.8zM1283.5 632.7c0-2.6 2.2-4.8 4.9-4.8h19.7c2.6 0 5 2.2 5 4.8 0 2.6-2.4 4.8-5 4.8h-19.7c-2.7 0-4.9-2.2-4.9-4.8zM1341.2 632.7c0-2.6 2.2-4.8 4.9-4.8h19.8c2.6 0 4.9 2.2 4.9 4.8 0 2.6-2.3 4.8-4.9 4.8h-19.8c-2.7 0-4.9-2.2-4.9-4.8zM1398.8 632.7c0-2.6 2.2-4.8 4.9-4.8h19.8c2.6 0 5 2.2 5 4.8 0 2.6-2.3 4.8-5 4.8h-19.8c-2.7 0-4.9-2.2-4.9-4.8zM1456.4 632.7c0-2.6 2.2-4.8 5-4.8h19.8c2.6 0 4.9 2.2 4.9 4.8 0 2.6-2.3 4.8-4.9 4.8h-19.8c-2.8 0-5-2.2-5-4.8zM1514.1 632.7c0-2.6 2.2-4.8 4.9-4.8h19.8c2.6 0 4.9 2.2 4.9 4.8 0 2.6-2.3 4.8-4.9 4.8H1519c-2.8 0-4.9-2.2-4.9-4.8zM1571.7 632.7c0-2.6 2.2-4.8 5-4.8h19.7c2.6 0 4.9 2.2 4.9 4.8 0 2.6-2.3 4.8-4.9 4.8h-19.7c-2.8 0-5-2.2-5-4.8zM1629.3 632.7c0-2.6 2.2-4.8 4.9-4.8h19.8c2.6 0 4.9 2.2 4.9 4.8 0 2.6-2.3 4.8-4.9 4.8h-19.8c-2.7 0-4.9-2.2-4.9-4.8zM1686.9 632.7c0-2.6 2.2-4.8 4.9-4.8h19.7c2.7 0 5 2.2 5 4.8 0 2.6-2.3 4.8-5 4.8h-19.7c-2.7 0-4.9-2.2-4.9-4.8zM1744.6 632.7c0-2.6 2.2-4.8 4.9-4.8h19.7c2.6 0 4.9 2.2 4.9 4.8 0 2.6-2.3 4.8-4.9 4.8h-19.7c-2.7 0-4.9-2.2-4.9-4.8zM1802.2 632.7c0-2.6 2.2-4.8 5-4.8h19.7c2.6 0 4.9 2.2 4.9 4.8 0 2.6-2.3 4.8-4.9 4.8h-19.7c-2.8 0-5-2.2-5-4.8zM1859.9 632.7c0-2.6 2.2-4.8 4.9-4.8h19.8c2.6 0 4.9 2.2 4.9 4.8 0 2.6-2.3 4.8-4.9 4.8h-19.8c-2.7 0-4.9-2.2-4.9-4.8zM1917.5 632.7c0-2.6 2.2-4.8 5-4.8h19.7c2.6 0 4.9 2.2 4.9 4.8 0 2.6-2.3 4.8-4.9 4.8h-19.7c-2.8 0-5-2.2-5-4.8zM1975.1 632.7c0-2.6 2.2-4.8 4.9-4.8h19.8c2.6 0 4.9 2.2 4.9 4.8 0 2.6-2.3 4.8-4.9 4.8H1980c-2.7 0-4.9-2.2-4.9-4.8z"/>
                    </g>
                    <path class="st8" d="M1194.5 554.5l76.4 78.2-76.4 78.2H97.2V554.5h1097.3z"/>
                    <g id="Group_29">
                        <g id="Group_30">
                            <path class="st2" d="M1086.4 616c-.8-10.7-4.8-19.2-11.9-25.4-7.1-6.2-16.6-9.3-28.3-9.3-12.8 0-22.9 4.3-30.2 12.9-7.3 8.6-11 20.5-11 35.5v6.1c0 9.6 1.7 18.1 5.1 25.4 3.4 7.3 8.2 12.9 14.5 16.8 6.3 3.9 13.6 5.9 21.9 5.9 11.5 0 20.8-3.1 27.9-9.3 7-6.2 11.1-14.8 12.2-26H1066c-.5 6.4-2.3 11.1-5.4 14-3.1 2.9-7.8 4.4-14.1 4.4-6.8 0-12-2.5-15.4-7.4-3.4-4.9-5.2-12.5-5.2-22.9v-7.5c0-10.8 1.6-18.7 4.9-23.7 3.3-5 8.4-7.5 15.5-7.5 6.4 0 11.1 1.5 14.2 4.4 3.1 2.9 4.9 7.4 5.4 13.5h20.5zM1150.9 638.7h24.8v-17.9h-24.8v-28H1132v28h-24.8v17.9h24.8v26.8h18.9v-26.8z"/>
                        </g>
                    </g>
                    <g id="Group_31">
                        <g id="Group_32">
                            <path d="M172.3 619.4c.4-4.3 1.7-7.4 3.8-9.2 2.1-1.9 5.2-2.8 9.3-2.8 4.5 0 7.8 1.5 9.9 4.4 2.2 3 3.4 7.4 3.7 13.2h-21v11h20.9c-.4 5.9-1.7 10.3-4 13.2-2.3 2.9-5.6 4.3-9.8 4.3-4.1 0-7.2-1-9.3-2.9-2.1-2-3.3-5.1-3.6-9.5h-13.7c.7 7.3 3.3 13 8 17.2 4.6 4.2 10.8 6.3 18.6 6.3 5.5 0 10.4-1.3 14.6-3.9 4.2-2.6 7.4-6.3 9.6-11.2 2.2-4.8 3.4-10.5 3.4-16.9v-4.3c0-9.8-2.4-17.5-7.3-23.3-4.9-5.7-11.6-8.6-20.1-8.6-7.8 0-14.1 2.1-18.9 6.2-4.7 4.2-7.4 9.7-7.9 16.8h13.8zM244 624.5h-7.9v-27.1h-13.7v66.4h13.7v-26.6h6.2l16.2 26.6h16.7l-20.5-31.4 22.6-35H261l-17 27.1zM335.8 629c0-6.5-1.2-12.3-3.5-17.2-2.3-4.9-5.6-8.7-9.9-11.4-4.3-2.7-9.2-4-14.8-4-5.5 0-10.4 1.3-14.7 4-4.3 2.6-7.7 6.4-10 11.3-2.4 4.9-3.6 10.6-3.6 16.9v3.3c0 6.5 1.2 12.3 3.5 17.3 2.4 5 5.7 8.8 10 11.4 4.3 2.7 9.2 4 14.8 4s10.5-1.3 14.8-4c4.3-2.7 7.6-6.5 10-11.4 2.4-5 3.5-10.7 3.5-17.2v-3zm-13.8 3c0 7-1.2 12.3-3.7 15.9-2.5 3.6-6.1 5.4-10.7 5.4s-8.1-1.8-10.6-5.4c-2.5-3.6-3.8-8.8-3.8-15.7V629c0-6.8 1.2-12 3.7-15.8 2.5-3.7 6.1-5.6 10.8-5.6 4.6 0 8.1 1.8 10.6 5.4 2.5 3.6 3.7 8.9 3.7 15.8v3.2zM399.8 597.3h-13.7v28.5h-26.7v-28.5h-13.7v66.4h13.7v-26.9h26.7v26.9h13.7v-66.4zM466.3 629c0-6.5-1.2-12.3-3.5-17.2-2.3-4.9-5.6-8.7-9.9-11.4-4.3-2.7-9.2-4-14.8-4-5.5 0-10.4 1.3-14.7 4-4.3 2.6-7.7 6.4-10 11.3-2.4 4.9-3.6 10.6-3.6 16.9v3.3c0 6.5 1.2 12.3 3.5 17.3 2.4 5 5.7 8.8 10 11.4 4.3 2.7 9.2 4 14.8 4s10.5-1.3 14.8-4c4.3-2.7 7.6-6.5 10-11.4 2.4-5 3.5-10.7 3.5-17.2v-3zm-13.8 3c0 7-1.2 12.3-3.7 15.9-2.5 3.6-6.1 5.4-10.7 5.4s-8.1-1.8-10.6-5.4c-2.5-3.6-3.8-8.8-3.8-15.7V629c0-6.8 1.2-12 3.7-15.8 2.5-3.7 6.1-5.6 10.8-5.6 4.6 0 8.1 1.8 10.6 5.4 2.5 3.6 3.7 8.9 3.7 15.8v3.2zM494.1 663.7l17.1-48.2 17 48.2h18v-66.4h-13.7v18.2l1.4 31.3-17.9-49.5h-9.4l-17.9 49.4 1.4-31.3v-18.2h-13.7v66.4h17.7zM582.8 620.4h-25.7V631h25.7v-10.6zM648.4 597.3h-13.7v55.3h-26.6v-55.3h-13.7v66.4h54v-66.4zM714.4 663.7v-66.4h-13.7v55.3H683l-1.1-23.4c-.5-7.9-1.5-14.1-3-18.7-1.6-4.5-3.8-7.9-6.8-10-3-2.1-7.1-3.2-12.2-3.2h-3.6v11l2.3.2c3.4.5 5.9 2.4 7.4 6 1.5 3.5 2.4 9.8 2.8 18.8l1.1 30.5h44.5zM804.4 629c0-6.5-1.2-12.3-3.5-17.2s-5.6-8.7-9.9-11.4c-4.3-2.7-9.2-4-14.8-4-5.1 0-9.6 1.1-13.7 3.3-4 2.2-7.3 5.4-9.8 9.5-2.5 4.1-4.1 9-4.6 14.5h-7.6v-26.4h-13.7v66.4h13.7v-29.4h7.4c.3 6 1.6 11.3 4 15.9s5.7 8.1 9.9 10.6 9 3.8 14.3 3.8c5.5 0 10.5-1.3 14.8-4 4.3-2.7 7.6-6.5 10-11.4 2.4-5 3.5-10.7 3.5-17.2v-3zm-13.8 3c0 7-1.2 12.3-3.7 15.9-2.5 3.6-6.1 5.4-10.7 5.4s-8.1-1.8-10.6-5.4c-2.5-3.6-3.8-8.8-3.8-15.7V629c0-6.8 1.2-12 3.7-15.8 2.5-3.7 6.1-5.6 10.8-5.6 4.6 0 8.1 1.8 10.6 5.4 2.5 3.6 3.7 8.9 3.7 15.8v3.2zM866.6 619.4c-.5-7.1-3.2-12.8-7.9-16.9-4.8-4.1-11-6.2-18.8-6.2-8.5 0-15.2 2.9-20.1 8.6-4.9 5.7-7.3 13.6-7.3 23.6v4.1c0 6.4 1.1 12 3.4 16.9 2.2 4.9 5.5 8.6 9.6 11.2 4.2 2.6 9 3.9 14.6 3.9 7.7 0 13.8-2.1 18.5-6.2 4.7-4.1 7.4-9.9 8.1-17.3H853c-.3 4.3-1.5 7.4-3.6 9.3-2.1 1.9-5.2 2.9-9.4 2.9-4.6 0-8-1.6-10.2-4.9-2.3-3.3-3.4-8.3-3.5-15.2v-5c0-7.2 1.1-12.4 3.3-15.7 2.2-3.3 5.6-5 10.3-5 4.2 0 7.4 1 9.5 2.9 2.1 1.9 3.3 4.9 3.6 9h13.6z"/>
                        </g>
                    </g>
                    <g id="Group_33">
                        <path d="M1168.3 432.4c0-2.6 2.2-4.8 4.9-4.8h19.7c2.6 0 5 2.2 5 4.8 0 2.6-2.3 4.8-5 4.8h-19.7c-2.7 0-4.9-2.2-4.9-4.8zM1225.9 432.4c0-2.6 2.2-4.8 4.9-4.8h19.8c2.6 0 4.9 2.2 4.9 4.8 0 2.6-2.3 4.8-4.9 4.8h-19.8c-2.7 0-4.9-2.2-4.9-4.8zM1283.5 432.4c0-2.6 2.2-4.8 4.9-4.8h19.7c2.6 0 5 2.2 5 4.8 0 2.6-2.4 4.8-5 4.8h-19.7c-2.7 0-4.9-2.2-4.9-4.8zM1341.2 432.4c0-2.6 2.2-4.8 4.9-4.8h19.8c2.6 0 4.9 2.2 4.9 4.8 0 2.6-2.3 4.8-4.9 4.8h-19.8c-2.7 0-4.9-2.2-4.9-4.8zM1398.8 432.4c0-2.6 2.2-4.8 4.9-4.8h19.8c2.6 0 5 2.2 5 4.8 0 2.6-2.3 4.8-5 4.8h-19.8c-2.7 0-4.9-2.2-4.9-4.8zM1456.4 432.4c0-2.6 2.2-4.8 5-4.8h19.8c2.6 0 4.9 2.2 4.9 4.8 0 2.6-2.3 4.8-4.9 4.8h-19.8c-2.8 0-5-2.2-5-4.8zM1514.1 432.4c0-2.6 2.2-4.8 4.9-4.8h19.8c2.6 0 4.9 2.2 4.9 4.8 0 2.6-2.3 4.8-4.9 4.8H1519c-2.8 0-4.9-2.2-4.9-4.8zM1571.7 432.4c0-2.6 2.2-4.8 5-4.8h19.7c2.6 0 4.9 2.2 4.9 4.8 0 2.6-2.3 4.8-4.9 4.8h-19.7c-2.8 0-5-2.2-5-4.8zM1629.3 432.4c0-2.6 2.2-4.8 4.9-4.8h19.8c2.6 0 4.9 2.2 4.9 4.8 0 2.6-2.3 4.8-4.9 4.8h-19.8c-2.7 0-4.9-2.2-4.9-4.8zM1686.9 432.4c0-2.6 2.2-4.8 4.9-4.8h19.7c2.7 0 5 2.2 5 4.8 0 2.6-2.3 4.8-5 4.8h-19.7c-2.7 0-4.9-2.2-4.9-4.8zM1744.6 432.4c0-2.6 2.2-4.8 4.9-4.8h19.7c2.6 0 4.9 2.2 4.9 4.8 0 2.6-2.3 4.8-4.9 4.8h-19.7c-2.7 0-4.9-2.2-4.9-4.8zM1802.2 432.4c0-2.6 2.2-4.8 5-4.8h19.7c2.6 0 4.9 2.2 4.9 4.8 0 2.6-2.3 4.8-4.9 4.8h-19.7c-2.8 0-5-2.2-5-4.8zM1859.9 432.4c0-2.6 2.2-4.8 4.9-4.8h19.8c2.6 0 4.9 2.2 4.9 4.8 0 2.6-2.3 4.8-4.9 4.8h-19.8c-2.7 0-4.9-2.2-4.9-4.8zM1917.5 432.4c0-2.6 2.2-4.8 5-4.8h19.7c2.6 0 4.9 2.2 4.9 4.8 0 2.6-2.3 4.8-4.9 4.8h-19.7c-2.8 0-5-2.2-5-4.8zM1975.1 432.4c0-2.6 2.2-4.8 4.9-4.8h19.8c2.6 0 4.9 2.2 4.9 4.8 0 2.6-2.3 4.8-4.9 4.8H1980c-2.7 0-4.9-2.2-4.9-4.8z"/>
                    </g>
                    <path class="st9" d="M1138.4 354.2l76.4 78.2-76.4 78.1H97.2V354.2h1041.2z"/>
                    <g id="Group_34">
                        <path class="st2" d="M1092.5 415.7c-.8-10.7-4.7-19.2-11.9-25.4-7.2-6.2-16.6-9.3-28.3-9.3-12.8 0-22.9 4.3-30.2 12.9-7.3 8.6-11 20.5-11 35.5v6.1c0 9.6 1.7 18.1 5.1 25.4 3.4 7.3 8.2 12.9 14.5 16.8 6.3 3.9 13.6 5.9 21.9 5.9 11.5 0 20.8-3.1 27.8-9.3 7-6.2 11.1-14.8 12.2-26H1072c-.5 6.4-2.3 11.1-5.4 14-3.1 2.9-7.8 4.4-14.1 4.4-6.9 0-12-2.5-15.4-7.4-3.4-4.9-5.2-12.5-5.2-22.9V429c0-10.8 1.6-18.7 4.9-23.7 3.3-5 8.4-7.5 15.5-7.5 6.4 0 11.1 1.5 14.2 4.4 3.1 2.9 4.9 7.4 5.4 13.5h20.6z" id="Group_35"/>
                    </g>
                    <g id="Group_36">
                        <g id="Group_37">
                            <path d="M172.3 419.1c.4-4.3 1.7-7.4 3.8-9.2 2.1-1.9 5.2-2.8 9.3-2.8 4.5 0 7.8 1.5 9.9 4.4 2.2 3 3.4 7.4 3.7 13.2h-21v11.1h20.9c-.4 5.9-1.7 10.3-4 13.2-2.3 2.9-5.6 4.3-9.8 4.3-4.1 0-7.2-1-9.3-2.9-2.1-2-3.3-5.1-3.6-9.5h-13.7c.7 7.3 3.3 13 8 17.2 4.6 4.2 10.8 6.3 18.6 6.3 5.5 0 10.4-1.3 14.6-3.9 4.2-2.6 7.4-6.3 9.6-11.2 2.2-4.8 3.4-10.5 3.4-16.9V428c0-9.8-2.4-17.6-7.3-23.3-4.9-5.7-11.6-8.6-20.1-8.6-7.8 0-14.1 2.1-18.9 6.2-4.7 4.2-7.4 9.7-7.9 16.8h13.8zM244 424.1h-7.9V397h-13.7v66.4h13.7v-26.6h6.2l16.2 26.6h16.7L254.8 432l22.6-35h-16.3L244 424.1zM335.8 428.7c0-6.5-1.2-12.3-3.5-17.2-2.3-4.9-5.6-8.7-9.9-11.4-4.3-2.7-9.2-4-14.8-4-5.5 0-10.4 1.3-14.7 4-4.3 2.6-7.7 6.4-10 11.3-2.4 4.9-3.6 10.6-3.6 16.9v3.3c0 6.5 1.2 12.3 3.5 17.3 2.4 5 5.7 8.8 10 11.4 4.3 2.7 9.2 4 14.8 4s10.5-1.3 14.8-4c4.3-2.7 7.6-6.5 10-11.4 2.4-5 3.5-10.7 3.5-17.2v-3zm-13.8 3c0 7-1.2 12.3-3.7 15.9-2.5 3.6-6.1 5.4-10.7 5.4s-8.1-1.8-10.6-5.4c-2.5-3.6-3.8-8.8-3.8-15.7v-3.2c0-6.8 1.2-12 3.7-15.8 2.5-3.7 6.1-5.6 10.8-5.6 4.6 0 8.1 1.8 10.6 5.4 2.5 3.6 3.7 8.9 3.7 15.8v3.2zM399.8 397h-13.7v28.5h-26.7V397h-13.7v66.4h13.7v-26.9h26.7v26.9h13.7V397zM466.3 428.7c0-6.5-1.2-12.3-3.5-17.2-2.3-4.9-5.6-8.7-9.9-11.4-4.3-2.7-9.2-4-14.8-4-5.5 0-10.4 1.3-14.7 4-4.3 2.6-7.7 6.4-10 11.3-2.4 4.9-3.6 10.6-3.6 16.9v3.3c0 6.5 1.2 12.3 3.5 17.3 2.4 5 5.7 8.8 10 11.4 4.3 2.7 9.2 4 14.8 4s10.5-1.3 14.8-4c4.3-2.7 7.6-6.5 10-11.4 2.4-5 3.5-10.7 3.5-17.2v-3zm-13.8 3c0 7-1.2 12.3-3.7 15.9-2.5 3.6-6.1 5.4-10.7 5.4s-8.1-1.8-10.6-5.4c-2.5-3.6-3.8-8.8-3.8-15.7v-3.2c0-6.8 1.2-12 3.7-15.8 2.5-3.7 6.1-5.6 10.8-5.6 4.6 0 8.1 1.8 10.6 5.4 2.5 3.6 3.7 8.9 3.7 15.8v3.2zM494.1 463.4l17.1-48.2 17 48.2h18V397h-13.7v18.2l1.4 31.3-18.1-49.5h-9.4l-17.9 49.4 1.4-31.3V397h-13.7v66.4h17.9z"/>
                        </g>
                    </g>
                    <g id="Group_38">
                        <path d="M1110.6 232c0-2.6 2.2-4.8 4.9-4.8h19.8c2.6 0 4.9 2.1 4.9 4.8 0 2.6-2.3 4.8-4.9 4.8h-19.8c-2.7.1-4.9-2.1-4.9-4.8zM1168.3 232c0-2.6 2.2-4.8 4.9-4.8h19.7c2.6 0 5 2.1 5 4.8 0 2.6-2.3 4.8-5 4.8h-19.7c-2.7.1-4.9-2.1-4.9-4.8zM1225.9 232c0-2.6 2.2-4.8 4.9-4.8h19.8c2.6 0 4.9 2.1 4.9 4.8 0 2.6-2.3 4.8-4.9 4.8h-19.8c-2.7.1-4.9-2.1-4.9-4.8zM1283.5 232c0-2.6 2.2-4.8 4.9-4.8h19.7c2.6 0 5 2.1 5 4.8 0 2.6-2.4 4.8-5 4.8h-19.7c-2.7.1-4.9-2.1-4.9-4.8zM1341.2 232c0-2.6 2.2-4.8 4.9-4.8h19.8c2.6 0 4.9 2.1 4.9 4.8 0 2.6-2.3 4.8-4.9 4.8h-19.8c-2.7.1-4.9-2.1-4.9-4.8zM1398.8 232c0-2.6 2.2-4.8 4.9-4.8h19.8c2.6 0 5 2.1 5 4.8 0 2.6-2.3 4.8-5 4.8h-19.8c-2.7.1-4.9-2.1-4.9-4.8zM1456.4 232c0-2.6 2.2-4.8 5-4.8h19.8c2.6 0 4.9 2.1 4.9 4.8 0 2.6-2.3 4.8-4.9 4.8h-19.8c-2.8.1-5-2.1-5-4.8zM1514.1 232c0-2.6 2.2-4.8 4.9-4.8h19.8c2.6 0 4.9 2.1 4.9 4.8 0 2.6-2.3 4.8-4.9 4.8H1519c-2.8.1-4.9-2.1-4.9-4.8zM1571.7 232c0-2.6 2.2-4.8 5-4.8h19.7c2.6 0 4.9 2.1 4.9 4.8 0 2.6-2.3 4.8-4.9 4.8h-19.7c-2.8.1-5-2.1-5-4.8zM1629.3 232c0-2.6 2.2-4.8 4.9-4.8h19.8c2.6 0 4.9 2.1 4.9 4.8 0 2.6-2.3 4.8-4.9 4.8h-19.8c-2.7.1-4.9-2.1-4.9-4.8zM1686.9 232c0-2.6 2.2-4.8 4.9-4.8h19.7c2.7 0 5 2.1 5 4.8 0 2.6-2.3 4.8-5 4.8h-19.7c-2.7.1-4.9-2.1-4.9-4.8zM1744.6 232c0-2.6 2.2-4.8 4.9-4.8h19.7c2.6 0 4.9 2.1 4.9 4.8 0 2.6-2.3 4.8-4.9 4.8h-19.7c-2.7.1-4.9-2.1-4.9-4.8zM1802.2 232c0-2.6 2.2-4.8 5-4.8h19.7c2.6 0 4.9 2.1 4.9 4.8 0 2.6-2.3 4.8-4.9 4.8h-19.7c-2.8.1-5-2.1-5-4.8zM1859.9 232c0-2.6 2.2-4.8 4.9-4.8h19.8c2.6 0 4.9 2.1 4.9 4.8 0 2.6-2.3 4.8-4.9 4.8h-19.8c-2.7.1-4.9-2.1-4.9-4.8zM1917.5 232c0-2.6 2.2-4.8 5-4.8h19.7c2.6 0 4.9 2.1 4.9 4.8 0 2.6-2.3 4.8-4.9 4.8h-19.7c-2.8.1-5-2.1-5-4.8zM1975.1 232c0-2.6 2.2-4.8 4.9-4.8h19.8c2.6 0 4.9 2.1 4.9 4.8 0 2.6-2.3 4.8-4.9 4.8H1980c-2.7.1-4.9-2.1-4.9-4.8z"/>
                    </g>
                    <path class="st10" d="M1076.2 153.9l76.4 78.2-76.4 78.2h-979V153.9h979z"/>
                    <g id="Group_39">
                        <path class="st2" d="M936.1 182.1V282h30.7c8.8 0 16.6-2 23.6-5.9 6.9-4 12.3-9.6 16.2-16.9 3.9-7.3 5.8-15.6 5.8-24.9v-4.6c0-9.3-1.9-17.5-5.7-24.8s-9.2-12.8-16.2-16.8-14.8-6-23.5-6h-30.9zm20.6 83.2v-66.7h9.9c8 0 14.2 2.6 18.5 7.9 4.3 5.3 6.4 12.8 6.5 22.6v5.3c0 10.2-2.1 17.8-6.3 23.1-4.2 5.2-10.4 7.9-18.5 7.9h-10.1z" id="Group_40"/>
                    </g>
                    <g id="Group_41">
                        <g id="Group_42">
                            <path d="M205 252h-29.6v-12.9H186c7.8 0 14-1.9 18.6-5.7 4.6-3.8 6.9-8.9 6.9-15.3s-2.3-11.6-6.8-15.5c-4.5-3.9-10.6-5.9-18.1-6h-25V263H205v-11zm-29.7-23.9v-20.4h10.9c3.5 0 6.3 1 8.4 2.9 2.1 1.9 3.1 4.5 3.1 7.7 0 3-1 5.4-3 7.1-2 1.7-4.7 2.7-8.2 2.7h-11.2zM298.3 228.4c0-6.5-1.2-12.3-3.5-17.2-2.3-4.9-5.6-8.7-9.9-11.4-4.3-2.7-9.2-4-14.8-4-5.1 0-9.6 1.1-13.7 3.3-4 2.2-7.3 5.4-9.8 9.5-2.5 4.1-4.1 9-4.6 14.5h-7.6v-26.4h-13.7v66.4h13.7v-29.4h7.4c.3 6 1.6 11.3 4 15.9s5.7 8.1 9.9 10.6 9 3.8 14.3 3.8c5.5 0 10.5-1.3 14.8-4 4.3-2.7 7.6-6.5 10-11.4 2.4-5 3.5-10.7 3.5-17.2v-3zm-13.9 3c0 7-1.2 12.3-3.7 15.9-2.5 3.6-6 5.4-10.7 5.4-4.6 0-8.1-1.8-10.6-5.4-2.5-3.6-3.8-8.8-3.8-15.7v-3.2c0-6.8 1.2-12 3.7-15.8 2.5-3.7 6.1-5.6 10.8-5.6 4.6 0 8.1 1.8 10.6 5.4 2.5 3.6 3.7 8.9 3.7 15.8v3.2zM368.4 180.3h-12.6v16.3h-40v-16.3h-13l-.7 27.3h5c2.7 2.2 4.8 5.6 6.3 9.9 1.5 4.4 2.5 9.8 3 16.2l1.9 29.3h43.5v-55.4h7.8l-1.2-27.3zm-45.6 27.4h25.3V252h-16.8l-1.1-17.5c-1-11.7-3.5-20.6-7.4-26.8zM432.7 223.7h-7.9v-27h-13.7v27H403l-14.5-27h-17.1l20.7 35.6-19.7 30.8h17l14.8-26.8h6.8v26.8h13.7v-26.8h6.7l14.4 26.8h17l-19.3-30.7 20.4-35.7h-17.1l-14.1 27zM509.8 225.4h-26.3v-17.8h30.8v-11h-44.5V263h44.4v-11h-30.7v-15.8h26.3v-10.8zM573.3 252H553v-55.3h-13.7V252h-20.1v11.1h54.1V252z"/>
                        </g>
                    </g>
                </g>
            </g>
        </g>
    </g>
</svg>
