<svg id="Layer_1" xmlns="http://www.w3.org/2000/svg" viewBox="0 0 299.9 300">
    <style>
        .st0{fill:#079a00}.st1{fill:#fff}
    </style>
    <g id="Document" transform="scale(1 -1)">
        <g id="Spread" transform="translate(0 -299.999)">
            <g id="Layer_1_1_">
                <g id="Group">
                    <path class="st0" d="M0 0v300h299.9V0L150 25.3 0 0z"/>
                    <g id="Group_1">
                        <g id="Group_2">
                            <path class="st1" d="M76.7 107.5v100.2h35.1c12.2 0 21.4-2.3 27.7-7 6.3-4.7 9.4-11.5 9.4-20.5 0-4.9-1.3-9.2-3.8-13-2.5-3.7-6-6.5-10.5-8.2 5.1-1.3 9.2-3.9 12.2-7.8s4.4-8.7 4.4-14.3c0-9.6-3.1-16.9-9.2-21.9s-14.9-7.5-26.3-7.6h-39zm20.6 43.6V124H115c4.9 0 8.7 1.2 11.4 3.5 2.7 2.3 4.1 5.5 4.1 9.6 0 9.2-4.8 13.8-14.3 14H97.3zm0 14.6h15.3c10.4.2 15.6 4.3 15.6 12.5 0 4.5-1.3 7.8-4 9.8-2.6 2-6.8 3-12.5 3H97.3v-25.3zM205.5 163.6h24.9v-18h-24.9v-28.1h-18.9v28.1h-24.9v18h24.9v26.9h18.9v-26.9z"/>
                        </g>
                    </g>
                </g>
            </g>
        </g>
    </g>
</svg>
