<svg id="Layer_1" xmlns="http://www.w3.org/2000/svg" viewBox="0 0 299.9 300">
    <style>
        .st0{fill:#079a00}.st1{fill:#fff}
    </style>
    <g id="Document" transform="scale(1 -1)">
        <g id="Spread" transform="translate(0 -299.999)">
            <g id="Layer_1_1_">
                <g id="Group">
                    <path class="st0" d="M0 0v300h299.9V0L150 25.3 0 0z"/>
                    <g id="Group_1">
                        <path class="st1" d="M114.5 107.5v100.2h30.8c8.8 0 16.7-2 23.6-6 7-4 12.4-9.6 16.3-16.9 3.9-7.3 5.9-15.6 5.9-25v-4.6c0-9.3-1.9-17.6-5.7-24.9-3.8-7.3-9.2-12.9-16.2-16.9-7-4-14.8-6-23.6-6.1h-31.1zm20.6 83.5v-66.9h10c8.1 0 14.3 2.6 18.5 7.9 4.3 5.3 6.4 12.8 6.5 22.6v5.3c0 10.2-2.1 17.9-6.3 23.2-4.2 5.3-10.4 7.9-18.5 7.9h-10.2z" id="Group_2"/>
                    </g>
                </g>
            </g>
        </g>
    </g>
</svg>
