<svg id="Layer_1" xmlns="http://www.w3.org/2000/svg" viewBox="0 0 300 300">
    <style>
        .st0{fill:#fff}.st1{fill:#ccc}
    </style>
    <g id="Document" transform="scale(1 -1)">
        <g id="Spread" transform="translate(0 -300)">
            <g id="Layer_1_1_">
                <g id="Group">
                    <path class="st0" d="M0 47.4v205.3C0 278.8 21.2 300 47.4 300h205.3c26.1 0 47.4-21.2 47.4-47.4V47.4C300 21.2 278.8 0 252.6 0H47.4C21.2 0 0 21.2 0 47.4z"/>
                    <path class="st1" d="M0 47.4v205.3C0 278.8 21.2 300 47.4 300h205.3c26.1 0 47.4-21.2 47.4-47.4V47.4C300 21.2 278.8 0 252.6 0H47.4C21.2 0 0 21.2 0 47.4zm286.2 0v205.3c0 18.5-15.1 33.6-33.6 33.6H47.4c-18.5 0-33.6-15.1-33.6-33.6V47.4c0-18.5 15-33.6 33.6-33.6h205.3c18.5 0 33.5 15 33.5 33.6zM131.3 31.3v14.5h3.4c.9 1.3 1.6 2.7 2.1 4 .6 1.4 1 2.8 1.3 4.4.3 1.6.5 3.3.6 5.2.1 1.9.2 4 .2 6.4V77h25.5V45.8h3.7V31.3h-7.3v8h-22.2v-8h-7.3zm90.3 7.2c-1.2.2-2.5.5-3.8 1-1.4.5-2.7 1.2-4 2.1-1.3.9-2.5 2.1-3.6 3.6s-1.9 3.3-2.6 5.4c-.6 2.1-1 4.7-1 7.6 0 2.9.3 5.5 1 7.6.6 2.1 1.5 3.9 2.6 5.4 1.1 1.5 2.3 2.6 3.6 3.6 1.3.9 2.7 1.6 4 2.1 1.4.5 2.6.8 3.8 1 1.2.2 2.2.3 3.1.2.8 0 1.9-.1 3.1-.2 1.2-.2 2.5-.5 3.8-1 1.4-.5 2.7-1.2 4-2.1 1.3-.9 2.5-2.1 3.6-3.6s1.9-3.3 2.6-5.4c.6-2.1 1-4.7 1-7.6 0-2.9-.3-5.5-1-7.6-.6-2.1-1.5-3.9-2.6-5.4-1.1-1.5-2.3-2.6-3.6-3.6-1.3-.9-2.7-1.6-4-2.1-1.4-.5-2.6-.8-3.8-1-1.2-.2-2.2-.3-3.1-.2-.9 0-1.9.1-3.1.2zm-164.3.8V77h18.6c2.3 0 4.2-.3 5.7-1 1.5-.6 2.7-1.4 3.5-2.4.9-1 1.5-2 1.8-3.1.4-1.1.5-2.1.5-3.1 0-1.3-.2-2.5-.5-3.4-.3-.9-.7-1.7-1.2-2.2-.5-.6-1-1-1.5-1.4-.5-.3-1-.6-1.4-.8 1.5-.6 2.7-1.3 3.5-2.3.8-.9 1.4-2 1.8-3.2.3-1.2.5-2.4.5-3.6 0-.7-.1-1.5-.2-2.4-.2-.9-.5-1.9-1.1-3-.5-1-1.4-2-2.5-2.9-1.1-.9-2.6-1.6-4.4-2.2-1.8-.6-4.2-.8-6.9-.9H57.3zm37.3 0V77h7.8V50.7h.1l15 26.3h8.8V39.3h-7.8v26.9h-.1L103 39.3h-8.4zm78.6 0V77H201v-6.5h-20v-7.8h18.3v-6.5H181V45.8h20.8v-6.5h-28.6zm54.8 6.2c1.2.4 2.3 1.1 3.3 2.1s1.9 2.3 2.5 4c.6 1.7 1 3.9 1 6.5s-.4 4.8-1 6.5c-.6 1.7-1.5 3.1-2.5 4-1 1-2.1 1.7-3.3 2.1-1.2.4-2.3.6-3.4.6s-2.2-.2-3.4-.6c-1.2-.4-2.3-1.1-3.3-2.1s-1.9-2.3-2.5-4c-.6-1.7-1-3.9-1-6.5s.4-4.8 1-6.5c.6-1.7 1.5-3.1 2.5-4 1-1 2.1-1.7 3.3-2.1 1.2-.4 2.3-.6 3.4-.6s2.3.2 3.4.6zM79.2 47.1c1.1.9 1.6 2.3 1.6 4.2 0 1.1-.3 2-.8 2.6-.5.7-1.2 1.2-2.1 1.5-.9.3-1.8.5-2.7.5h-10V45.8h9.6c1.8 0 3.3.4 4.4 1.3zm77.4-1.3v24.7h-10.3v-5.3c0-2.4 0-4.5-.1-6.4-.1-1.8-.3-3.5-.6-5s-.7-2.9-1.2-4.2c-.5-1.3-1.2-2.6-2-3.9h14.2zM77.1 62.7c.8.3 1.5.7 2 1.4.5.6.7 1.4.7 2.4s-.2 1.8-.7 2.4c-.5.6-1.1 1-2 1.3-.9.3-1.9.4-3.1.4h-9v-8.3h9.2c1.2 0 2.1.1 2.9.4zm.9 45.5c-9.2 2.5-17.1 10.6-19.5 19.5-4.3 16-7.1 33.2-7.1 50.7s2.9 34.6 7.1 50.7c2.4 8.9 10.3 17.1 19.5 19.5 23.3 6.2 47.2 8 72 8 24.8 0 48.7-1.8 72-8 9.2-2.5 17.1-10.6 19.5-19.5 4.3-16 7.1-33.2 7.1-50.7s-2.9-34.6-7.1-50.7c-2.4-8.9-10.3-17.1-19.5-19.5-23.3-6.2-47.2-8-72-8-24.8 0-48.7 1.8-72 8zm46.4 31.8l73.9 38.2-73.9 38.7V140z"/>
                </g>
            </g>
        </g>
    </g>
</svg>
