<svg xmlns="http://www.w3.org/2000/svg" xmlns:xlink="http://www.w3.org/1999/xlink" width="0" height="0" style="position:absolute">
	
		<symbol id="29_question_circle" viewBox="0 0 97.5 97.5">
			<path d="M56.9 79.2V67c0-.6-.2-1.1-.6-1.5-.4-.4-.9-.6-1.5-.6H42.7c-.6 0-1.1.2-1.5.6s-.6.9-.6 1.5v12.2c0 .6.2 1.1.6 1.5.4.4.9.6 1.5.6h12.2c.6 0 1.1-.2 1.5-.6.3-.4.5-.9.5-1.5zm16.2-42.6c0-3.7-1.2-7.2-3.5-10.3-2.3-3.2-5.3-5.6-8.8-7.4-3.5-1.7-7.1-2.6-10.8-2.6-10.3 0-18.1 4.5-23.6 13.5-.6 1-.5 1.9.5 2.7l8.4 6.3c.3.3.7.4 1.2.4.7 0 1.2-.3 1.6-.8 2.2-2.9 4.1-4.8 5.5-5.8 1.4-1 3.3-1.5 5.5-1.5 2 0 3.8.6 5.4 1.7 1.6 1.1 2.4 2.3 2.4 3.7 0 1.6-.4 2.9-1.3 3.9-.8 1-2.3 1.9-4.3 2.9-2.7 1.2-5.1 3-7.3 5.5s-3.3 5.1-3.3 8v2.3c0 .6.2 1.1.6 1.5.4.4.9.6 1.5.6H55c.6 0 1.1-.2 1.5-.6.4-.4.6-.9.6-1.5 0-.8.5-1.9 1.4-3.1.9-1.3 2.1-2.3 3.5-3.1 1.3-.8 2.4-1.4 3.1-1.8.7-.4 1.7-1.2 2.9-2.2 1.2-1 2.2-2.1 2.8-3 .7-1 1.2-2.3 1.8-3.8.3-2 .5-3.7.5-5.5zM91 24.3c4.4 7.5 6.5 15.6 6.5 24.5 0 8.8-2.2 17-6.5 24.5-4.4 7.5-10.3 13.4-17.7 17.7-7.5 4.3-15.7 6.5-24.5 6.5s-17-2.2-24.5-6.5c-7.5-4.4-13.4-10.3-17.7-17.7C2.2 65.8 0 57.6 0 48.7c0-8.8 2.2-17 6.5-24.5 4.4-7.5 10.3-13.4 17.7-17.7C31.7 2.1 39.8 0 48.7 0s17 2.2 24.5 6.5c7.5 4.4 13.4 10.3 17.8 17.8z"></path>
		</symbol>
	
		<symbol id="cert_dealer" viewBox="0 0 750 896.1">
			<path d="M189.3 813.096c-100.1 37.5-152.4 25.2-189.3 3.3 101.1-23.4 127.6-136 166.1-171.3 6 10 22.9 14.6 44.1 13.6 5 13.6 47.3 51.6 104.3 41.2 10.1 9.2 17 12.2 26.1 13.3-56.6 56-66.5 182.5-168.5 182.9 15-24.6 19.1-58.9 17.2-83zm220.2-99.9c9-1.1 15.9-4.1 26-13.3 57 10.4 99.3-27.6 104.3-41.2 21.2 1 38.2-3.6 44.1-13.6 38.5 35.3 65.1 147.9 166.1 171.3-36.9 21.9-89.2 34.2-189.3-3.3-1.9 24.1 2.2 58.4 17.3 83-102.1-.4-112-126.9-168.5-182.9zm-75-30.2c22.3-35.1 31.1-60.2 18.4-124.8 11.7-10.3 35.1-6.5 44.5-2.3 23.6 43.4 33.2 93.2 19 127.3-15.2 14.3-58.5 17.6-81.9-.2zm106.5-2.4c10.3-40.4 10.8-66.9-21.4-124.3 7.9-13.5 31.3-17.1 41.7-16 35.9 33.9 60.4 78.3 57.5 115.2-9.9 18.3-50.1 34.8-77.8 25.1zm-211.1-29.7c32.4-26.3 48.7-47.2 57.2-112.5 14.4-6.1 35.3 4.9 43 12 8.5 48.7 1.7 99-22.7 126.7-18.9 9-61-1.8-77.5-26.2zm251.9-116.8c3.3-15.2 24.5-26 34.8-28 44.5 21.2 81.5 56 90.1 91.8-3.7 20.5-36.9 48.6-66.4 47.9-2.5-41.5-10.2-67-58.5-111.7zm-340.5 53.3c39.1-14.7 61.2-29.3 90-88.6 15.5-1.1 31.9 16 37 25.2-7.4 48.8-29.9 94.3-61.8 112.9-20.8 2.5-57.3-21.1-65.2-49.5zm392.4-93c-1.4-15.5 15.5-32.2 24.6-37.3 48.9 6.7 94.7 28.4 113.8 60.1 2.7 20.6-20.3 57.5-48.6 65.8-15-38.8-30.1-60.7-89.8-88.6zm-452.9 11.1c41.6-2.3 67.1-9.8 112.2-57.8 15.2 3.5 25.8 24.8 27.8 35.1-21.6 44.4-56.5 81.2-92.6 89.4-20.4-4-48.3-37.3-47.4-66.7zm151.9-157.9c0-81.4 66.2-147.6 147.6-147.6 81.5 0 147.6 66.2 147.6 147.6 0 81.5-66.2 147.7-147.6 147.7-81.5 0-147.6-66.2-147.6-147.7zm339.2 91.5c-6.2-14.3 4.7-35.4 11.7-43.1 48.6-8.9 98.9-2.5 126.9 21.6 8.9 18.7-1.4 61-25.6 77.7-26.4-32.2-47.6-48.3-113-56.2zm-524.8-31.3c40.4 10.4 67 11 124.4-21.2 13.5 7.9 17.1 31.4 15.9 41.8-34 35.8-78.4 60.4-115.2 57.4-18.2-10-34.8-50.2-25.1-78zm668.6-14.4c-35.2-22.3-60.2-31.1-124.8-18.4-10.3-11.6-6.6-35.1-2.3-44.5 43.3-23.6 93.2-33.2 127.3-18.9 14.4 15.1 17.7 58.5-.2 81.8zm-671-9.8c-14.3-15-17.6-58.4.2-81.8 35.2 22.3 60.3 31.1 124.8 18.3 10.3 11.6 6.6 35.1 2.3 44.6-43.4 23.5-93.2 33.1-127.3 18.9zm528.4-116.8c34-35.8 78.3-60.3 115.2-57.3 18.2 9.9 34.8 50.1 25.1 77.9-40.4-10.4-66.9-10.9-124.4 21.3-13.4-7.9-17-31.4-15.9-41.9zm-523 10.9c-9-18.8 1.3-61 25.6-77.7 26.5 32.1 47.6 48.3 113.1 56.2 6.2 14.3-4.7 35.4-11.8 43.1-48.6 8.8-99 2.5-126.9-21.6zm489.7-65.3c21.6-44.4 56.6-81.2 92.6-89.4 20.5 3.9 48.3 37.3 47.4 66.7-41.6 2.3-67.1 9.8-112.2 57.8-15.2-3.5-25.8-24.7-27.8-35.1zm-451.3-34.4c-2.7-20.7 20.3-57.6 48.6-65.9 15.1 38.9 30.1 60.8 89.8 88.6 1.4 15.5-15.5 32.3-24.6 37.3-49-6.6-94.8-28.4-113.8-60zm403.9-6.8c7.4-48.8 29.9-94.4 61.8-112.9 20.7-2.4 57.2 21.2 65.1 49.6-39 14.6-61.1 29.2-89.9 88.5-15.6 1.1-32-16-37-25.2zm-338.5-74c3.7-20.5 36.9-48.6 66.3-47.9 2.6 41.5 10.2 67 58.5 111.7-3.4 15.2-24.5 26-34.8 28-44.4-21.1-81.5-55.9-90-91.8zm276.6 47.5c-8.5-48.7-1.7-99 22.7-126.7 18.9-8.9 61 1.9 77.5 26.3-32.5 26.2-48.7 47.1-57.2 112.5-14.3 6.1-35.4-4.9-43-12.1zm-188.7-104.9c9.9-18.4 50.1-35 77.9-25.2-10.4 40.4-10.9 66.9 21.3 124.4-7.9 13.4-31.3 17.1-41.7 16-35.8-34-60.4-78.4-57.5-115.2zm121.5 99.5c-23.7-43.4-33.2-93.2-18.9-127.3 15-14.4 58.4-17.6 81.8.2-22.3 35.1-31.1 60.2-18.3 124.8-11.7 10.3-35.2 6.6-44.6 2.3z"></path>
		</symbol>
	
		<symbol id="close-cross-white" viewBox="0 0 20 20">
			<title>B156DED5-FAF8-4673-91B3-15D13A392665</title><path d="M2.056 0L0 2.056 7.944 10 0 17.944 2.056 20 10 12.056 17.944 20 20 17.944 12.056 10 20 2.056 17.944 0 10 7.944z"></path>
		</symbol>
	
		<symbol id="marketing-cashback" viewBox="0 0 100 100">
			<title>1D34491C-5008-4071-9466-8FE64741651B</title><path d="M12 50.5C12 29.278 29.199 12 50.5 12S89 29.199 89 50.5 71.722 89 50.5 89 12 71.801 12 50.5zm46.626 29.98c16.489-4.576 26.272-21.617 21.696-38.185C75.746 25.806 58.705 16.024 42.137 20.6c-12.78 3.55-21.459 14.596-22.642 27.06l-.079 1.026-5.838-.078L21.94 68.96l8.993-20.118-5.68-.079.237-2.603A25.337 25.337 0 0 1 43.715 26.2c13.412-3.708 27.376 4.181 31.084 17.672 3.708 13.49-4.181 27.376-17.672 31.084-8.836 2.446-17.909-.158-24.141-6.075-1.184-1.104-2.998-1.025-4.103.08-1.104 1.182-1.025 2.997.08 4.102 7.652 7.258 18.776 10.413 29.663 7.416zm-14.674-17.2V38.036H43.4l-10.414 3.708v4.102l5.996-1.893V63.28h4.97zm18.382 0v-5.443h2.84v-4.023h-2.84v-15.7h-5.05L46.793 54.68l.237 3.156h10.335v5.444h4.97zm-10.572-9.466l5.207-8.363.316-.552v8.915h-5.523z"></path>
		</symbol>
	
		<symbol id="marketing-delivery-free-free" viewBox="0 0 100 100">
			<title>94466761-3AC1-4FCF-B938-4D0A9B0B3323</title><path d="M9.242 70.624c0-4.995 4.08-9.075 9.076-9.075s9.076 4.08 9.076 9.075c.083 4.996-3.997 9.076-9.076 9.076-4.996 0-9.076-4.08-9.076-9.076zm66.112 0c0-4.995 4.08-9.075 9.076-9.075 4.995 0 9.075 4.08 9.075 9.075 0 4.996-4.08 9.076-9.075 9.076-4.996 0-9.076-4.08-9.076-9.076zM49.625 73.79V63.714c0-1 .833-1.749 1.749-1.749h15.404c.999 0 1.748.833 1.748 1.749v10.075c0 .999-.832 1.748-1.748 1.748H51.374c-1 0-1.749-.75-1.749-1.748zm-26.478-3.165a4.744 4.744 0 0 0-4.746-4.746 4.744 4.744 0 0 0-4.746 4.746 4.744 4.744 0 0 0 4.746 4.747c2.582 0 4.746-2.165 4.746-4.747zm66.029 0a4.744 4.744 0 0 0-4.746-4.746 4.744 4.744 0 0 0-4.746 4.746 4.744 4.744 0 0 0 4.746 4.747 4.744 4.744 0 0 0 4.746-4.747zm-59.7 0c0-6.161-4.996-11.074-11.075-11.074-6.161 0-11.074 4.996-11.074 11.074H4.33c0-7.743 6.245-14.071 14.071-14.071 2.748 0 5.246.75 7.41 2.081h51.042c2.248-1.332 4.995-2.081 7.66-2.081 5.079 0 9.575 2.748 12.073 6.828H100v10.074h-4.746c.25-.915.416-1.915.416-2.83 0-5.746-3.58-11.075-11.074-11.075-6.078 0-11.074 4.996-11.074 11.074 0 1 .167 1.916.416 2.831h-3.497V62.631a2.061 2.061 0 0 0-2.081-2.081H50.042a2.061 2.061 0 0 0-2.082 2.081v4.247H31.89c.333 1.165.5 2.414.5 3.663h15.57v2.914h-18.9c.249-.915.415-1.831.415-2.83zm67.86-11.323l-5.829-4.746h-14.82V24.33c9.99 1.498 20.232 2.997 22.314 5.995l.083 1.582H95.42l1.083 11.906h.083c1.915.75 3.164 1.916 3.164 4.164V59.3h-2.414zM0 56.47V20h74.438v36.47H24.48c-1.915-.833-3.997-1.333-6.162-1.333s-4.33.5-6.161 1.333H0zm13.572-9.659v-6.994H20.4V36.57h-6.828v-4.08h7.494v-3.248H9.326v17.569h4.246zm13.572 0v-6.245h2.331l3.081 6.245h4.58v-.167l-3.664-7.077c1.083-.5 1.832-1.166 2.331-1.998.5-.833.75-1.832.75-3.081 0-1.665-.583-2.998-1.749-3.913-1.165-.916-2.83-1.416-4.912-1.416H22.98v17.652h4.163zm23.98 0v-3.247h-7.91V39.4h6.661v-3.164h-6.661V32.49h7.91v-3.248H39.051v17.569h12.073zm13.822 0v-3.247h-7.91V39.4h6.66v-3.164h-6.66V32.49h7.91v-3.248H52.873v17.569h12.073zm28.81-3.33l-.917-11.658H79.351v8.16c0 1.333.333 1.666 1.498 1.832l12.906 1.665zm-66.612-6.162v-4.83h2.664c.833 0 1.416.25 1.832.667.417.416.583.999.583 1.748 0 .75-.166 1.332-.583 1.749-.416.416-.999.666-1.832.666h-2.664z"></path>
		</symbol>
	
		<symbol id="marketing-warranty-car-tires-2-y" viewBox="0 0 100 100">
			<title>1CFE1116-3DC1-49DA-9DDF-2BA36526BE60</title><path d="M14 28.269C24.662 20.292 36.903 15.159 50.407 12c13.426 3.08 25.746 8.213 36.407 16.269C85.63 60.174 71.414 78.259 50.407 89 29.321 78.26 15.185 60.174 14 28.269zm42.962 51.886V68.862H44.09v11.53c1.975 1.342 4.107 2.527 6.24 3.633 2.368-1.185 4.58-2.449 6.633-3.87zm-17.453-3.08V68.94h-3.16v-2.212l-3.948 3.554a52.68 52.68 0 0 0 7.108 6.792zm28.825-6.792l-3.317-3.08v1.659h-3.711v8.213a57.136 57.136 0 0 0 7.028-6.792zm-37.75-2.211l5.766-5.291v-3.712l3.159-3.396v-7.187h-3.712v-4.185c0-1.659.237-3.238.79-4.739l-9.161 8.371v9.556l9.319-8.529v2.29l-9.32 8.53v3.632a37.152 37.152 0 0 0 3.16 4.66zm42.805-4.66V59.78l-9.399-8.53v-2.29l9.319 8.53v-9.557l-9.793-9.003c.395 1.264.553 2.685.553 4.107 0 2.211-.553 4.344-1.58 6.318-.316.71-.71 1.342-1.184 2.053v4.423h3.711v7.502l5.134 4.739a48.856 48.856 0 0 0 3.238-4.66zm-12.557 1.343v-4.739H48.038l6.792-7.107c1.816-2.054 3.159-3.791 3.948-5.37a9.474 9.474 0 0 0 1.106-4.502c0-2.685-.869-4.739-2.527-6.24-1.659-1.5-4.107-2.21-7.108-2.21-1.974 0-3.79.395-5.37 1.263-1.58.869-2.843 2.054-3.633 3.554-.869 1.5-1.263 3.16-1.263 4.975h5.923c0-1.5.395-2.685 1.184-3.632.79-.948 1.817-1.343 3.16-1.343 1.263 0 2.21.395 2.842 1.106.632.79 1.027 1.816 1.027 3.08 0 .947-.316 1.974-.948 3.08-.632 1.105-1.58 2.369-2.922 3.79l-9.635 10.267v4.028h20.218zM44.089 50.776l2.133-2.29h-2.133v2.29zm-16.663-6.712l12.083-11.057V20.134a83.66 83.66 0 0 0-12.083 5.37v5.134l9.319-8.53V24.4l-9.32 8.53v11.135zm45.963 0V32.928L63.99 24.4v-2.29l9.319 8.529v-5.133c-3.87-2.133-7.898-3.87-12.083-5.37v12.872l12.162 11.057zm-16.427-12.32V18.713c-2.132-.632-4.344-1.264-6.634-1.738a80.36 80.36 0 0 0-6.239 1.659v12.952c1.896-.79 3.949-1.185 6.16-1.185 2.37 0 4.66.395 6.713 1.343z"></path>
		</symbol>
	
		<symbol id="photo-photo-info-i" viewBox="0 0 24 24">
			<title>330A4C6C-AD39-4BEA-8EBB-D118CE13CC7C</title><path d="M0 20.577V3.391A3.393 3.393 0 0 1 3.395 0h17.213A3.392 3.392 0 0 1 24 3.39v17.19c0 1.87-1.52 3.391-3.395 3.391H3.395A3.398 3.398 0 0 1 0 20.577zm21.84-.91V4.3a2.148 2.148 0 0 0-2.147-2.144H4.307A2.148 2.148 0 0 0 2.16 4.301v15.366c0 1.182.963 2.144 2.147 2.144h15.386a2.148 2.148 0 0 0 2.147-2.144zm-13.072.038a1.565 1.565 0 0 1-.403-.406c-.1-.153-.147-.281-.15-.383 0-.131.025-.278.076-.445.048-.163.122-.364.218-.607l2.547-6.085a.624.624 0 0 0 .051-.246c-.006-.063-.038-.095-.099-.099-.109.007-.262.061-.46.167-.2.108-.41.24-.638.393-.227.156-.438.31-.633.46a6.278 6.278 0 0 0-.448.374.513.513 0 0 1-.343-.23c-.076-.122-.096-.24-.05-.355a7.9 7.9 0 0 1 1.145-1.122 9.519 9.519 0 0 1 1.325-.891 8.09 8.09 0 0 1 1.321-.588c.426-.141.8-.211 1.13-.215.182.004.358.058.531.16.173.102.314.237.426.4.112.16.17.335.17.517a1.845 1.845 0 0 1-.103.493 9.099 9.099 0 0 1-.215.584l-2.547 5.986c-.051.112-.067.201-.051.265.016.064.064.1.15.1.09-.004.228-.055.416-.16a19.583 19.583 0 0 0 1.312-.892 7.59 7.59 0 0 0 .57-.49.491.491 0 0 1 .371.177c.093.112.125.249.093.412-.24.323-.55.652-.922.99a9.06 9.06 0 0 1-1.25.94 7.605 7.605 0 0 1-1.45.703 4.626 4.626 0 0 1-1.517.275 1.008 1.008 0 0 1-.573-.182zM12.861 7.09c-.253-.262-.381-.588-.381-.99.003-.365.086-.697.253-1.004a1.94 1.94 0 0 1 .681-.738 1.876 1.876 0 0 1 1.002-.288c.422 0 .752.125.998.371.244.246.368.604.375 1.067-.003.365-.08.694-.23.991a1.836 1.836 0 0 1-.647.716 1.816 1.816 0 0 1-.986.275c-.46-.007-.816-.14-1.065-.4z"></path>
		</symbol>
	
		<symbol id="photo-zoom-icon-arrows" viewBox="0 0 24 24">
			<title>E87EB670-5BB5-43A1-9B8C-1CF599739A72</title><path d="M24 16v8h-8l3.062-3.062-3.875-3.812 1.936-1.936 3.811 3.876L24 16zM8 24H0v-8l3.062 3.062 3.812-3.875 1.936 1.936-3.872 3.815L8 24zM0 8V0h8L4.938 3.062l3.875 3.812L6.877 8.81 3.062 4.938 0 8zm16-8h8v8l-3.062-3.062-3.812 3.875-1.936-1.936 3.872-3.815L16 0z"></path>
		</symbol>
	
</svg>
