<svg xmlns="http://www.w3.org/2000/svg" xmlns:xlink="http://www.w3.org/1999/xlink" width="0" height="0" style="position:absolute">
	
		<symbol id="29_question_circle" viewBox="0 0 97.5 97.5">
			<path d="M56.9 79.2V67c0-.6-.2-1.1-.6-1.5-.4-.4-.9-.6-1.5-.6H42.7c-.6 0-1.1.2-1.5.6s-.6.9-.6 1.5v12.2c0 .6.2 1.1.6 1.5.4.4.9.6 1.5.6h12.2c.6 0 1.1-.2 1.5-.6.3-.4.5-.9.5-1.5zm16.2-42.6c0-3.7-1.2-7.2-3.5-10.3-2.3-3.2-5.3-5.6-8.8-7.4-3.5-1.7-7.1-2.6-10.8-2.6-10.3 0-18.1 4.5-23.6 13.5-.6 1-.5 1.9.5 2.7l8.4 6.3c.3.3.7.4 1.2.4.7 0 1.2-.3 1.6-.8 2.2-2.9 4.1-4.8 5.5-5.8 1.4-1 3.3-1.5 5.5-1.5 2 0 3.8.6 5.4 1.7 1.6 1.1 2.4 2.3 2.4 3.7 0 1.6-.4 2.9-1.3 3.9-.8 1-2.3 1.9-4.3 2.9-2.7 1.2-5.1 3-7.3 5.5s-3.3 5.1-3.3 8v2.3c0 .6.2 1.1.6 1.5.4.4.9.6 1.5.6H55c.6 0 1.1-.2 1.5-.6.4-.4.6-.9.6-1.5 0-.8.5-1.9 1.4-3.1.9-1.3 2.1-2.3 3.5-3.1 1.3-.8 2.4-1.4 3.1-1.8.7-.4 1.7-1.2 2.9-2.2 1.2-1 2.2-2.1 2.8-3 .7-1 1.2-2.3 1.8-3.8.3-2 .5-3.7.5-5.5zM91 24.3c4.4 7.5 6.5 15.6 6.5 24.5 0 8.8-2.2 17-6.5 24.5-4.4 7.5-10.3 13.4-17.7 17.7-7.5 4.3-15.7 6.5-24.5 6.5s-17-2.2-24.5-6.5c-7.5-4.4-13.4-10.3-17.7-17.7C2.2 65.8 0 57.6 0 48.7c0-8.8 2.2-17 6.5-24.5 4.4-7.5 10.3-13.4 17.7-17.7C31.7 2.1 39.8 0 48.7 0s17 2.2 24.5 6.5c7.5 4.4 13.4 10.3 17.8 17.8z"></path>
		</symbol>
	
</svg>
