<svg id="Layer_1" xmlns="http://www.w3.org/2000/svg" viewBox="0 0 397.9 156.3">
    <style>
        .st0{fill:#e2001a}.st1{fill:#fff}
    </style>
    <g id="Document" transform="scale(1 -1)">
        <g id="Spread" transform="translate(0 -156.32)">
            <g id="Layer_1_1_">
                <g id="Group">
                    <path class="st0" d="M76.4 0L0 78.2l76.4 78.2h321.5V0H76.4z"/>
                    <g id="Group_1">
                        <g id="Group_2">
                            <path class="st1" d="M197.3 52.7H166l-5.9-17.8h-19l32.2 86.5h16.5l32.4-86.5h-19l-5.9 17.8zm-26.5 14.5h21.6l-10.9 32.4-10.7-32.4zM263.8 83.3h21.5V67.8h-21.5V43.6h-16.3v24.2H226v15.5h21.5v23.2h16.3V83.3zM330.2 83.3h21.5V67.8h-21.5V43.6h-16.3v24.2h-21.5v15.5h21.5v23.2h16.3V83.3z"/>
                        </g>
                    </g>
                </g>
            </g>
        </g>
    </g>
</svg>
