<svg id="Layer_1" xmlns="http://www.w3.org/2000/svg" viewBox="0 0 397.9 156.3">
    <style>
        .st0{fill:#e2001a}.st1{fill:#fff}
    </style>
    <g id="Document" transform="scale(1 -1)">
        <g id="Spread" transform="translate(0 -156.32)">
            <g id="Layer_1_1_">
                <g id="Group">
                    <path class="st0" d="M76.4 0L0 78.2l76.4 78.2h321.5V0H76.4z"/>
                    <g id="Group_1">
                        <path class="st1" d="M217 34.9v86.5h30.3c10.5 0 18.5-2 23.9-6 5.4-4 8.1-9.9 8.1-17.7 0-4.2-1.1-8-3.3-11.2-2.2-3.2-5.2-5.6-9.1-7.1 4.4-1.1 7.9-3.3 10.5-6.7 2.6-3.4 3.8-7.5 3.8-12.4 0-8.3-2.7-14.6-8-18.9-5.3-4.3-12.9-6.5-22.7-6.5H217zm17.8 37.7V49.2h15.3c4.2 0 7.5 1 9.8 3 2.4 2 3.5 4.8 3.5 8.3 0 7.9-4.1 11.9-12.3 12.1h-16.3zm0 12.6H248c9 .2 13.5 3.7 13.5 10.8 0 3.9-1.1 6.7-3.4 8.5-2.3 1.7-5.9 2.6-10.8 2.6h-12.5V85.2z" id="Group_2"/>
                    </g>
                </g>
            </g>
        </g>
    </g>
</svg>
