<svg id="Layer_1" xmlns="http://www.w3.org/2000/svg" viewBox="0 0 397.9 156.3">
    <style>
        .st0{fill:#e2001a}.st1{fill:#fff}
    </style>
    <g id="Document" transform="scale(1 -1)">
        <g id="Spread" transform="translate(0 -156.32)">
            <g id="Layer_1_1_">
                <g id="Group">
                    <path class="st0" d="M76.4 0L0 78.2l76.4 78.2h321.5V0H76.4z"/>
                    <g id="Group_1">
                        <g id="Group_2">
                            <path class="st1" d="M250.7 63.7c-.7-9.3-4.1-16.6-10.3-22-6.2-5.3-14.4-8-24.5-8-11.1 0-19.8 3.7-26.2 11.2-6.4 7.5-9.5 17.7-9.5 30.7V81c0 8.3 1.5 15.6 4.4 22 2.9 6.3 7.1 11.2 12.6 14.6 5.4 3.4 11.8 5.1 19 5.1 10 0 18-2.7 24.1-8 6.1-5.3 9.6-12.9 10.6-22.5H233c-.4 5.6-2 9.6-4.7 12.2-2.7 2.5-6.7 3.8-12.2 3.8-5.9 0-10.4-2.1-13.3-6.4-2.9-4.3-4.5-10.9-4.5-19.8v-6.5c0-9.3 1.4-16.2 4.2-20.5 2.8-4.3 7.3-6.5 13.4-6.5 5.5 0 9.6 1.3 12.3 3.8 2.7 2.5 4.3 6.4 4.7 11.7h17.8zM295.9 83.3h21.5V67.8h-21.5V43.6h-16.3v24.2H258v15.5h21.5v23.2h16.3V83.3z"/>
                        </g>
                    </g>
                </g>
            </g>
        </g>
    </g>
</svg>
