<svg id="Layer_1" xmlns="http://www.w3.org/2000/svg" viewBox="0 0 397.9 156.3">
    <style>
        .st0{fill:#e2001a}.st1{fill:#fff}
    </style>
    <g id="Document" transform="scale(1 -1)">
        <g id="Spread" transform="translate(0 -156.32)">
            <g id="Layer_1_1_">
                <g id="Group">
                    <path class="st0" d="M76.4 0L0 78.2l76.4 78.2h321.5V0H76.4z"/>
                    <g id="Group_1">
                        <path class="st1" d="M216.2 34.9v86.5h26.6c7.6 0 14.4-1.7 20.4-5.1 6-3.4 10.7-8.3 14.1-14.6 3.4-6.3 5-13.5 5-21.5v-4c0-8-1.7-15.2-5-21.5-3.3-6.3-8-11.1-14-14.6-6-3.4-12.8-5.2-20.4-5.2h-26.7zm17.9 72.1V49.2h8.6c7 0 12.3 2.3 16 6.8 3.7 4.6 5.6 11.1 5.6 19.5v4.6c0 8.8-1.8 15.5-5.5 20-3.6 4.5-9 6.8-16 6.8h-8.7z" id="Group_2"/>
                    </g>
                </g>
            </g>
        </g>
    </g>
</svg>
