<svg id="Layer_1" xmlns="http://www.w3.org/2000/svg" viewBox="0 0 373 225.7">
    <style>
        .st0{fill:#fff}
    </style>
    <g id="Document" transform="scale(1 -1)">
        <g id="Spread" transform="translate(0 -225.68)">
            <g id="Layer_1_1_">
                <g id="Group">
                    <path d="M110.2 0L0 112.8l110.2 112.8H373V0H110.2z"/>
                    <g id="Group_1">
                        <path class="st0" d="M180.9 33.6v158.6h55.5c19.2 0 33.8-3.7 43.8-11.1 9.9-7.4 14.9-18.2 14.9-32.4 0-7.8-2-14.6-6-20.5s-9.5-10.3-16.7-13c8.1-2 14.5-6.1 19.2-12.3 4.7-6.2 7-13.7 7-22.7 0-15.2-4.9-26.8-14.6-34.6s-23.6-11.8-41.6-12h-61.5zm32.7 69V59.8h28c7.7 0 13.7 1.8 18 5.5 4.3 3.7 6.5 8.7 6.5 15.2 0 14.5-7.5 21.9-22.5 22.1h-30zm0 23.1h24.2c16.5.3 24.7 6.9 24.7 19.7 0 7.2-2.1 12.4-6.3 15.5-4.2 3.2-10.8 4.7-19.8 4.7h-22.9l.1-39.9z" id="Group_2"/>
                    </g>
                </g>
            </g>
        </g>
    </g>
</svg>
