<svg id="Layer_1" xmlns="http://www.w3.org/2000/svg" viewBox="0 0 373 225.7">
    <style>
        .st0{fill:#fff}
    </style>
    <g id="Document" transform="scale(1 -1)">
        <g id="Spread" transform="translate(0 -225.68)">
            <g id="Layer_1_1_">
                <g id="Group">
                    <path d="M110.2 0L0 112.8l110.2 112.8H373V0H110.2z"/>
                    <g id="Group_1">
                        <path class="st0" d="M303.6 86.4c-1.2-17.1-7.5-30.5-18.9-40.3-11.4-9.8-26.3-14.7-44.9-14.7-20.3 0-36.3 6.8-48 20.5-11.6 13.7-17.5 32.5-17.5 56.4v9.7c0 15.2 2.7 28.7 8.1 40.3 5.4 11.6 13.1 20.5 23 26.7 10 6.2 21.6 9.3 34.8 9.3 18.3 0 33-4.9 44.2-14.7 11.2-9.8 17.6-23.6 19.4-41.3h-32.7c-.8 10.2-3.6 17.7-8.5 22.3-4.9 4.6-12.4 6.9-22.4 6.9-10.9 0-19-3.9-24.5-11.7-5.4-7.8-8.2-19.9-8.3-36.3v-12c0-17.1 2.6-29.7 7.8-37.6C220.4 62 228.6 58 239.8 58c10.1 0 17.6 2.3 22.6 6.9 5 4.6 7.8 11.7 8.5 21.4h32.7z" id="Group_2"/>
                    </g>
                </g>
            </g>
        </g>
    </g>
</svg>
