<svg id="Layer_1" xmlns="http://www.w3.org/2000/svg" viewBox="0 0 373 225.7">
    <style>
        .st0{fill:#fff}
    </style>
    <g id="Document" transform="scale(1 -1)">
        <g id="Spread" transform="translate(0 -225.68)">
            <g id="Layer_1_1_">
                <g id="Group">
                    <path d="M110.2 0L0 112.8l110.2 112.8H373V0H110.2z"/>
                    <g id="Group_1">
                        <path class="st0" d="M179.6 33.6v158.6h48.8c13.9 0 26.4-3.1 37.4-9.4 11-6.3 19.6-15.2 25.8-26.8 6.2-11.6 9.3-24.7 9.3-39.5v-7.3c0-14.7-3-27.8-9.1-39.3s-14.6-20.4-25.6-26.7-23.5-9.5-37.4-9.6h-49.2zm32.7 132.1V59.8h15.8c12.8 0 22.5 4.2 29.3 12.5s10.2 20.3 10.3 35.8v8.4c0 16.1-3.3 28.3-10 36.6s-16.4 12.5-29.3 12.5l-16.1.1z" id="Group_2"/>
                    </g>
                </g>
            </g>
        </g>
    </g>
</svg>
