<svg id="Layer_1" xmlns="http://www.w3.org/2000/svg" viewBox="0 0 373 225.7">
    <style>
        .st0{fill:#fff}
    </style>
    <g id="Document" transform="scale(1 -1)">
        <g id="Spread" transform="translate(0 -225.68)">
            <g id="Layer_1_1_">
                <g id="Group">
                    <path d="M110.2 0L0 112.8l110.2 112.8H373V0H110.2z"/>
                    <g id="Group_1">
                        <path class="st0" d="M301.6 53.6c-5.9-7-14.2-12.5-24.9-16.4-10.7-3.9-22.7-5.8-35.7-5.8-13.7 0-25.8 3-36.1 9s-18.3 14.7-24 26.1c-5.6 11.4-8.5 24.8-8.7 40.2v10.8c0 15.8 2.7 29.5 8 41.1s13 20.4 23.1 26.6c10.1 6.1 21.8 9.2 35.3 9.2 18.8 0 33.5-4.5 44.1-13.5s16.9-22 18.8-39.2h-31.8c-1.5 9.1-4.7 15.7-9.6 19.9-5 4.2-11.8 6.3-20.5 6.3-11.1 0-19.6-4.2-25.4-12.5-5.8-8.4-8.7-20.8-8.8-37.2v-10.1c0-16.6 3.2-29.2 9.5-37.7s15.6-12.7 27.8-12.7c12.3 0 21 2.6 26.2 7.8v27.3h-29.7v24.1h62.4V53.6z" id="Group_2"/>
                    </g>
                </g>
            </g>
        </g>
    </g>
</svg>
