<svg id="Layer_1" xmlns="http://www.w3.org/2000/svg" viewBox="0 0 300 302.7">
    <style>
        .st0{fill:#00a2e0}.st1{fill:#fff}.st2{fill:#01a85b;stroke:#000;stroke-width:.75;stroke-linecap:round;stroke-linejoin:round;stroke-miterlimit:79.8403}.st3{enable-background:new}.st10,.st4,.st5,.st6,.st7,.st8,.st9{fill:none;stroke:#000;stroke-width:.75;stroke-linecap:round;stroke-linejoin:round;stroke-miterlimit:79.8403}.st10,.st5,.st6,.st7,.st8,.st9{fill:#ec3538}.st10,.st6,.st7,.st8,.st9{fill:#58b950}.st10,.st7,.st8,.st9{fill:#c3db41}.st10,.st8,.st9{fill:#fff414}.st10,.st9{fill:#ffb92c}.st10{fill:#f37434}
    </style>
    <g id="Document" transform="scale(1 -1)">
        <g id="Spread" transform="translate(0 -302.668)">
            <g id="Layer_1_1_">
                <g id="Group">
                    <path class="st0" d="M0 260.3V0h300v260.3c0 23.4-19 42.4-42.4 42.4H42.4C19 302.7 0 283.7 0 260.3z"/>
                    <path class="st1" d="M17.4 234.1V13.8h267.4v220.4c0 14.7-11.9 26.6-26.6 26.6H44c-14.6-.1-26.6-12-26.6-26.7z"/>
                    <path d="M93 231.3c0 .5.4.9.9.9h158c.5 0 .9-.4.9-.9s-.4-.9-.9-.9h-158c-.5.1-.9.5-.9.9zM104.8 200c0 .5.4.9.9.9h146.2c.5 0 .9-.4.9-.9s-.4-.8-.9-.8H105.7c-.5 0-.9.3-.9.8zM117 168.7c0 .5.4.9.9.9h134c.5 0 .9-.4.9-.9s-.4-.9-.9-.9h-134c-.5 0-.9.4-.9.9zM131.2 137.4c0 .5.4.9.9.9h119.8c.5 0 .9-.4.9-.9s-.4-.8-.9-.8H132.1c-.5-.1-.9.3-.9.8zM144 106.1c0 .5.4.8.9.8h107c.5 0 .9-.4.9-.8 0-.5-.4-.9-.9-.9h-107c-.5 0-.9.4-.9.9zM156 74.8c0 .5.4.8.9.8h95c.5 0 .9-.4.9-.8s-.4-.9-.9-.9h-95c-.5 0-.9.4-.9.9zM168 43.4c0 .5.4.9.9.9h83c.5 0 .9-.4.9-.9 0-.4-.4-.8-.9-.8h-83c-.5 0-.9.4-.9.8z"/>
                    <path class="st2" d="M76.5 217.4l13.6 13.9-13.6 14h-24v-27.9h24z"/>
                    <g class="st3">
                        <path class="st1" d="M70 226.1h-6.4l-1.2-3.7h-3.9l6.6 17.8h3.4l6.7-17.8h-3.9l-1.3 3.7zm-5.5 3H69l-2.2 6.7-2.3-6.7z"/>
                    </g>
                    <g class="st3">
                        <path class="st4" d="M70 226.1h-6.4l-1.2-3.7h-3.9l6.6 17.8h3.4l6.7-17.8h-3.9l-1.3 3.7zm-5.5 3H69l-2.2 6.7-2.3-6.7z"/>
                    </g>
                    <path class="st5" d="M151.1 29.5l13.6 13.9-13.6 14H52.5V29.5h98.6z"/>
                    <g class="st3">
                        <path class="st1" d="M147 36.8c-.7-.8-1.6-1.4-2.8-1.8s-2.5-.7-4-.7-2.9.3-4.1 1-2.1 1.7-2.7 2.9c-.6 1.3-1 2.8-1 4.5V44c0 1.8.3 3.3.9 4.6.6 1.3 1.5 2.3 2.6 3s2.5 1 4 1c2.1 0 3.8-.5 5-1.5s1.9-2.5 2.1-4.4h-3.6c-.2 1-.5 1.8-1.1 2.2-.6.5-1.3.7-2.3.7-1.2 0-2.2-.5-2.9-1.4s-1-2.3-1-4.2v-1.1c0-1.9.4-3.3 1.1-4.2.7-1 1.8-1.4 3.1-1.4 1.4 0 2.4.3 2.9.9v3.1H140V44h7v-7.2z"/>
                    </g>
                    <g class="st3">
                        <path class="st4" d="M147 36.8c-.7-.8-1.6-1.4-2.8-1.8s-2.5-.7-4-.7-2.9.3-4.1 1-2.1 1.7-2.7 2.9c-.6 1.3-1 2.8-1 4.5V44c0 1.8.3 3.3.9 4.6.6 1.3 1.5 2.3 2.6 3s2.5 1 4 1c2.1 0 3.8-.5 5-1.5s1.9-2.5 2.1-4.4h-3.6c-.2 1-.5 1.8-1.1 2.2-.6.5-1.3.7-2.3.7-1.2 0-2.2-.5-2.9-1.4s-1-2.3-1-4.2v-1.1c0-1.9.4-3.3 1.1-4.2.7-1 1.8-1.4 3.1-1.4 1.4 0 2.4.3 2.9.9v3.1H140V44h7v-7.2z"/>
                    </g>
                    <path class="st6" d="M88 186.1l13.6 13.9L88 214H52.5v-27.9H88z"/>
                    <g class="st3">
                        <path class="st1" d="M70.8 191.1v17.8H77c2.2 0 3.8-.4 4.9-1.2s1.7-2 1.7-3.6c0-.9-.2-1.6-.7-2.3s-1.1-1.2-1.9-1.5c.9-.2 1.6-.7 2.2-1.4.5-.7.8-1.5.8-2.5 0-1.7-.5-3-1.6-3.9s-2.7-1.3-4.7-1.3h-6.9v-.1zm3.6 10.3h2.7c1.9 0 2.8.8 2.8 2.2 0 .8-.2 1.4-.7 1.7-.5.4-1.2.5-2.2.5h-2.6v-4.4zm0-2.6V194h3.1c.9 0 1.5.2 2 .6.5.4.7 1 .7 1.7 0 1.6-.8 2.5-2.5 2.5h-3.3z"/>
                    </g>
                    <g class="st3">
                        <path class="st4" d="M70.8 191.1v17.8H77c2.2 0 3.8-.4 4.9-1.2s1.7-2 1.7-3.6c0-.9-.2-1.6-.7-2.3s-1.1-1.2-1.9-1.5c.9-.2 1.6-.7 2.2-1.4.5-.7.8-1.5.8-2.5 0-1.7-.5-3-1.6-3.9s-2.7-1.3-4.7-1.3h-6.9v-.1zm3.6 10.3h2.7c1.9 0 2.8.8 2.8 2.2 0 .8-.2 1.4-.7 1.7-.5.4-1.2.5-2.2.5h-2.6v-4.4zm0-2.6V194h3.1c.9 0 1.5.2 2 .6.5.4.7 1 .7 1.7 0 1.6-.8 2.5-2.5 2.5h-3.3z"/>
                    </g>
                    <path class="st7" d="M99.7 154.7l13.6 14-13.6 13.9H52.5v-27.9h47.2z"/>
                    <g class="st3">
                        <path class="st1" d="M97.1 165.7c-.1-1.9-.8-3.4-2.1-4.5s-3-1.7-5-1.7c-2.3 0-4.1.8-5.4 2.3s-2 3.6-2 6.3v1.1c0 1.7.3 3.2.9 4.5s1.5 2.3 2.6 3 2.4 1 3.9 1c2.1 0 3.7-.6 5-1.7 1.3-1.1 2-2.6 2.2-4.6h-3.7c-.1 1.2-.4 2-1 2.5s-1.4.8-2.5.8c-1.2 0-2.1-.4-2.7-1.3-.6-.9-.9-2.2-.9-4.1V168c0-1.9.3-3.3.9-4.2s1.5-1.3 2.8-1.3c1.1 0 2 .3 2.5.8.6.5.9 1.3 1 2.4h3.5z"/>
                    </g>
                    <g class="st3">
                        <path class="st4" d="M97.1 165.7c-.1-1.9-.8-3.4-2.1-4.5s-3-1.7-5-1.7c-2.3 0-4.1.8-5.4 2.3s-2 3.6-2 6.3v1.1c0 1.7.3 3.2.9 4.5s1.5 2.3 2.6 3 2.4 1 3.9 1c2.1 0 3.7-.6 5-1.7 1.3-1.1 2-2.6 2.2-4.6h-3.7c-.1 1.2-.4 2-1 2.5s-1.4.8-2.5.8c-1.2 0-2.1-.4-2.7-1.3-.6-.9-.9-2.2-.9-4.1V168c0-1.9.3-3.3.9-4.2s1.5-1.3 2.8-1.3c1.1 0 2 .3 2.5.8.6.5.9 1.3 1 2.4h3.5z"/>
                    </g>
                    <path class="st8" d="M113.9 123.4l13.6 13.9-13.6 14H52.5v-27.9h61.4z"/>
                    <g class="st3">
                        <path class="st1" d="M97.7 128.4v17.8h5.5c1.6 0 3-.4 4.2-1.1 1.2-.7 2.2-1.7 2.9-3 .7-1.3 1-2.8 1-4.4v-.8c0-1.7-.3-3.1-1-4.4-.7-1.3-1.6-2.3-2.9-3-1.2-.7-2.6-1.1-4.2-1.1h-5.5zm3.7 14.9v-11.9h1.8c1.4 0 2.5.5 3.3 1.4s1.1 2.3 1.2 4v.9c0 1.8-.4 3.2-1.1 4.1-.8.9-1.8 1.4-3.3 1.4h-1.9v.1z"/>
                    </g>
                    <g class="st3">
                        <path class="st4" d="M97.7 128.4v17.8h5.5c1.6 0 3-.4 4.2-1.1 1.2-.7 2.2-1.7 2.9-3 .7-1.3 1-2.8 1-4.4v-.8c0-1.7-.3-3.1-1-4.4-.7-1.3-1.6-2.3-2.9-3-1.2-.7-2.6-1.1-4.2-1.1h-5.5zm3.7 14.9v-11.9h1.8c1.4 0 2.5.5 3.3 1.4s1.1 2.3 1.2 4v.9c0 1.8-.4 3.2-1.1 4.1-.8.9-1.8 1.4-3.3 1.4h-1.9v.1z"/>
                    </g>
                    <path class="st9" d="M127 92.1l13.6 13.9-13.6 14H52.5V92.1H127z"/>
                    <g class="st3">
                        <path class="st1" d="M120.6 104.9h-7v-4.8h8.3v-2.9H110V115h11.9v-3h-8.2v-4.2h7v-2.9h-.1z"/>
                    </g>
                    <g class="st3">
                        <path class="st4" d="M120.6 104.9h-7v-4.8h8.3v-2.9H110V115h11.9v-3h-8.2v-4.2h7v-2.9h-.1z"/>
                    </g>
                    <path class="st10" d="M138.7 60.8l13.6 14-13.6 13.9H52.5V60.8h86.2z"/>
                    <g class="st3">
                        <path class="st1" d="M133.3 73.1h-7v-7.3h-3.7v17.8h11.6v-3h-7.9V76h7v-2.9z"/>
                    </g>
                    <g class="st3">
                        <path class="st4" d="M133.3 73.1h-7v-7.3h-3.7v17.8h11.6v-3h-7.9V76h7v-2.9z"/>
                    </g>
                    <g id="Group_1">
                        <path d="M207.4 86.6l-19 19.5 19 19.5h45.4v-39h-45.4z"/>
                        <g class="st3">
                            <path class="st1" d="M237.5 104.2h-10.8v-7.3h12.7v-4.5H221v27.4h18.3v-4.6h-12.7v-6.5h10.8l.1-4.5z"/>
                        </g>
                    </g>
                </g>
            </g>
        </g>
    </g>
</svg>
