<svg id="Layer_1" xmlns="http://www.w3.org/2000/svg" viewBox="0 0 750 750">
    <style>
        .st0{fill:#999}.st1{fill:#fff}
    </style>
    <g id="Document" transform="scale(1 -1)">
        <g id="Spread" transform="translate(0 -750)">
            <g id="Layer_1_1_">
                <g id="Group">
                    <path class="st0" d="M375 750c207 0 375-168 375-375S582 0 375 0 0 168 0 375s168 375 375 375z"/>
                    <g id="Group_1">
                        <path class="st1" d="M562.5 468.8c0 80.6-70.8 156.2-177.8 156.2-69.6 0-139.5-34.6-181.1-104-4.9-7.9-3.6-14.6 3.9-20.5l64.3-48.8c2.4-1.8 5.5-2.9 9.3-2.9 5.2 0 9.2 2 12.2 5.9 26 36.8 50.2 56.9 84 56.7 24.3-.1 60-13.7 60-41.6 0-22.4-23.5-40.9-42.8-51.8-40-22.5-82.1-61.1-82.1-103.5v-17.6c0-4.5 1.5-8.2 4.4-11.2 2.9-2.9 6.7-4.4 11.2-4.4h93.7c4.5 0 8.3 1.6 11.2 4.4 3 3 4.3 6.6 4.3 11.2 0 32.8 41.9 55.2 66.3 70.5 50 31.4 59 62.3 59 101.4zM437.4 140.5v93.9c0 4.5-1.4 8.3-4.3 11.2-3 3-6.7 4.4-11.2 4.4h-93.7c-4.5 0-8.3-1.5-11.2-4.4-2.9-2.9-4.4-6.6-4.4-11.2v-93.9c0-4.5 1.5-8.1 4.4-11.1 2.9-2.9 6.7-4.3 11.2-4.3h93.7c4.5 0 8.3 1.4 11.2 4.3 3 3 4.3 6.6 4.3 11.1z"/>
                    </g>
                </g>
            </g>
        </g>
    </g>
</svg>
