<svg id="Layer_1" xmlns="http://www.w3.org/2000/svg" viewBox="0 0 750 855.4">
    <style>
        .st0{fill:#00b0ff}
    </style>
    <g id="Document" transform="scale(1 -1)">
        <g id="Spread" transform="translate(0 -855.38)">
            <path class="st0" d="M725.3 322.3l-79.7-15.9 88.7-51.1c7.3-4.1 12.1-10.2 14.2-18.4 2-8.1 1-15.8-3.2-23.1-4.4-7.3-10.6-12-18.5-14.2-8-2-15.7-1-23 3.2L615 253.5l26.2-76.4c4.2-12.1 2.3-22.2-5.7-30.3-7.9-8.1-17.6-11.4-28.8-9.8-11.4 1.5-19.1 8.3-23.2 20.1l-48.6 143.2-129.4 74.4V225.3l99.3-113.7c5.1-5.7 7.8-11.8 8.1-18.5.3-6.7-1.4-12.4-5.2-17.4-3.8-4.9-8.4-8.9-13.6-11.9-5.3-3.1-11.1-4-17.7-2.7-6.5 1.3-12.3 4.8-17.3 10.5l-53.5 61.1V30.6c0-8.3-3.1-15.5-9-21.5-6.3-6-13.4-9.1-21.6-9.1s-15.4 3.1-21.5 9.1c-6 6-9.1 13.1-9.1 21.5v102.1l-53.5-61.1c-5-5.7-10.8-9.2-17.4-10.5-6.4-1.3-12.4-.4-17.6 2.7-5.2 3-9.8 7.1-13.6 11.9-3.8 5-5.6 10.7-5.3 17.4.4 6.7 3 12.9 8.1 18.5l99.3 113.7v149.3L215 300.2 166.2 157c-4.1-11.7-11.8-18.5-23.1-20.1-11.3-1.6-21 1.7-28.9 9.8-7.9 8.1-9.9 18.2-5.7 30.3l26.3 76.4-88.7-50.6c-7.4-4.2-15-5.2-23.1-3.2-7.9 2.1-14 6.8-18.6 14.2-4.1 7.3-5.2 15-3 23.1 2 8.2 6.6 14.3 14 18.4l88.7 51.1-79.7 15.9c-9.2 1.8-15.8 6.4-20 13.8-4.1 7.3-5.5 14.7-4 22.2 1.6 7.3 5.6 13.7 12.3 19 6.7 5.3 14.6 7 23.9 5.1l147.9-29.6 129.4 74.9-129.4 75L36.6 473c-1.3-.3-3.3-.4-6.3-.4-8.6 0-15.6 2.9-21 8.6C4 487 .9 493.3.2 500.3c-.5 7 1.2 13.9 5.3 20.5 4.2 6.7 10.6 10.8 19.1 12.4l79.7 15.8-88.7 51c-7.4 4.1-12.1 10.3-14 18.4-2.1 8.1-1.1 15.8 3 23.1 4.2 7.3 10.4 12.1 18.6 14.3 8.4 2.2 15.9 1.1 23.1-3.4l88.7-50.6-26.3 76.3c-4.2 12.1-2.3 22.3 5.7 30.4 8 8 17.6 11.3 28.9 9.7 11.3-1.5 19-8.2 23.1-20l48.8-143.1 129.4-74.4v149.4l-99.3 113.7c-5.1 5.7-7.7 11.8-8.1 18.5-.3 6.7 1.5 12.5 5.3 17.4 3.8 5 8.4 9 13.6 12 5.2 3 11.2 3.9 17.6 2.6 6.6-1.3 12.4-4.8 17.4-10.5l53.5-61.1v102.1c0 8.3 3 15.5 9.1 21.4 6.1 6.1 13.3 9.2 21.5 9.2s15.3-3.1 21.5-9.2c5.9-6 9-13.1 9-21.4V722.7l53.5 61.1c5.1 5.7 10.8 9.2 17.3 10.5 6.6 1.3 12.4.3 17.7-2.6 5.2-3 9.8-7 13.6-12 3.8-4.9 5.6-10.7 5.2-17.4-.3-6.7-3-12.8-8.1-18.5l-99.3-113.7V480.7L535 555.1l48.6 143.1c4.1 11.8 11.8 18.5 23.2 20 11.3 1.6 20.9-1.6 28.8-9.7 7.9-8.2 9.9-18.3 5.7-30.4L615 601.9l88.8 50.6c7.3 4.1 15 5.2 23 3.1 7.9-2.1 14.1-6.8 18.5-14.1 4.2-7.4 5.2-15 3.2-23.1-2.1-8.1-6.9-14.3-14.2-18.4l-88.7-51.1 79.7-15.8c8.7-1.7 15-5.7 19.2-12.4 4.1-6.7 5.8-13.6 5.2-20.5-.6-7-3.6-13.4-9.2-19.1-5.3-5.6-12.3-8.6-20.9-8.6-2.8 0-4.9.1-6.2.4l-147.9 29.6-129.3-75 129.3-74.9 147.9 29.6c9.2 1.9 17.2.2 23.9-5.1 6.7-5.3 10.7-11.7 12.2-19.1 1.5-7.5.1-14.9-4.1-22.2-4.2-7.1-10.9-11.7-20.1-13.5z" id="Layer_1_1_"/>
        </g>
    </g>
</svg>
