<svg id="Layer_1" xmlns="http://www.w3.org/2000/svg" viewBox="0 0 750 750">
    <style>
        .st0{fill:#ffe400}
    </style>
    <g id="Document" transform="scale(1 -1)">
        <g id="Spread" transform="translate(0 -750)">
            <path class="st0" d="M339.4 39.4v62c0 21.7 16 39.4 35.6 39.4 19.7 0 35.6-17.7 35.6-39.4v-62c0-21.7-16-39.4-35.6-39.4-19.7 0-35.6 17.7-35.6 39.4zm-229.5 70.4c-13.9 13.9-12.7 37.7 2.6 53.1l43.8 43.8c15.3 15.4 39.1 16.6 53 2.7 13.9-13.9 12.7-37.7-2.7-53.1l-43.8-43.8c-15.3-15.4-39.1-16.6-52.9-2.7zm477.2 2.7l-43.8 43.8c-15.4 15.3-16.6 39.1-2.7 53 13.9 13.9 37.7 12.7 53.1-2.7l43.8-43.8c15.3-15.4 16.5-39.2 2.7-53.1-13.9-13.8-37.7-12.6-53.1 2.8zM186 375c0 104.3 84.7 189 189 189s189-84.7 189-189-84.7-189-189-189-189 84.7-189 189zM0 375c0 19.7 17.7 35.7 39.4 35.7h62c21.7 0 39.4-16 39.4-35.6 0-19.7-17.7-35.6-39.4-35.6h-62C17.7 339.3 0 355.3 0 375zm609.2 0c0 19.7 17.7 35.7 39.4 35.7h62c21.7 0 39.4-16 39.4-35.6 0-19.7-17.7-35.6-39.4-35.6h-62c-21.7-.1-39.4 15.8-39.4 35.5zM156.3 543.3l-43.8 43.8c-15.3 15.4-16.5 39.2-2.7 53.1 13.9 13.9 37.7 12.7 53.1-2.7l43.8-43.8c15.4-15.3 16.6-39.1 2.7-53-14-14-37.7-12.8-53.1 2.6zm384.3-2.7c-13.9 13.9-12.7 37.7 2.6 53.1l43.8 43.8c15.4 15.3 39.2 16.5 53.1 2.7 13.9-13.9 12.7-37.7-2.7-53.1l-43.8-43.8c-15.3-15.4-39.1-16.6-53-2.7zm-201.3 108v62c0 21.7 16 39.4 35.6 39.4 19.7 0 35.6-17.7 35.6-39.4v-62c0-21.7-16-39.4-35.6-39.4s-35.6 17.7-35.6 39.4z" id="Layer_1_1_"/>
        </g>
    </g>
</svg>
