<svg id="Layer_1" xmlns="http://www.w3.org/2000/svg" viewBox="0 0 299.9 300">
    <style>
        .st0{fill:#079a00}.st1{fill:#fff}
    </style>
    <g id="Document" transform="scale(1 -1)">
        <g id="Spread" transform="translate(0 -299.999)">
            <g id="Layer_1_1_">
                <g id="Group">
                    <path class="st0" d="M0 0v300h299.9V0L150 25.3 0 0z"/>
                    <g id="Group_1">
                        <g id="Group_2">
                            <path class="st1" d="M93 128.1H56.8l-6.9-20.7H28l37.3 100.2h19.1l37.5-100.2h-22L93 128.1zm-30.6 16.8h25.1l-12.6 37.5-12.5-37.5zM170.1 163.6H195v-18h-24.9v-28.1h-18.9v28.1h-24.9v18h24.9v26.9h18.9v-26.9zM247.1 163.6H272v-18h-24.9v-28.1h-18.9v28.1h-24.9v18h24.9v26.9h18.9v-26.9z"/>
                        </g>
                    </g>
                </g>
            </g>
        </g>
    </g>
</svg>
