<svg id="Layer_1" xmlns="http://www.w3.org/2000/svg" viewBox="0 0 299.9 300">
    <style>
        .st0{fill:#079a00}.st1{fill:#fff}
    </style>
    <g id="Document" transform="scale(1 -1)">
        <g id="Spread" transform="translate(0 -299.999)">
            <g id="Layer_1_1_">
                <g id="Group">
                    <path class="st0" d="M0 0v300h299.9V0L150 25.3 0 0z"/>
                    <g id="Group_1">
                        <g id="Group_2">
                            <path class="st1" d="M154.5 140.9c-.8-10.8-4.8-19.3-11.9-25.5-7.2-6.2-16.6-9.3-28.4-9.3-12.8 0-23 4.3-30.3 13-7.4 8.7-11 20.5-11.1 35.6v6.1c0 9.6 1.7 18.1 5.1 25.5 3.4 7.3 8.2 13 14.6 16.9 6.3 3.9 13.6 5.9 22 5.9 11.6 0 20.9-3.1 27.9-9.3 7.1-6.2 11.2-14.9 12.3-26.1H134c-.5 6.5-2.3 11.2-5.4 14.1-3.1 2.9-7.8 4.4-14.1 4.4-6.9 0-12-2.5-15.5-7.4-3.4-4.9-5.2-12.6-5.3-23v-7.6c0-10.8 1.6-18.7 4.9-23.7 3.3-5 8.5-7.5 15.5-7.5 6.4 0 11.1 1.5 14.3 4.4 3.1 2.9 4.9 7.4 5.4 13.5h20.7zM206.9 163.6h24.9v-18h-24.9v-28.1H188v28.1h-25v18h24.9v26.9h18.9v-26.9z"/>
                        </g>
                    </g>
                </g>
            </g>
        </g>
    </g>
</svg>
