<svg id="Layer_1" xmlns="http://www.w3.org/2000/svg" viewBox="0 0 452.5 452.5">
    <style>
        .st0{fill:#e2001a}
    </style>
    <g id="Document" transform="scale(1 -1)">
        <g id="Spread" transform="translate(0 -452.536)">
            <path class="st0" d="M0 71.5v309.6c0 39.4 32 71.5 71.4 71.5H381c39.4 0 71.5-32 71.5-71.5V71.5c0-39.4-32-71.4-71.5-71.4H71.4C32 0 0 32 0 71.5zm431.8 0v309.6c0 28-22.7 50.7-50.7 50.7H71.4c-28 0-50.7-22.7-50.7-50.7V71.5c0-28 22.7-50.7 50.7-50.7H381c28 0 50.8 22.7 50.8 50.7zM198.1 47.3v21.8h5.1c1.3 2 2.4 4 3.2 6.1.8 2.1 1.5 4.3 2 6.6s.8 4.9 1 7.8c.2 2.9.3 6.1.3 9.7v16.9h38.5V69.1h5.6V47.3h-11.1v12h-33.5v-12h-11.1zm136.1 10.8c-1.8.3-3.7.8-5.8 1.5-2 .7-4.1 1.8-6 3.1-2 1.4-3.8 3.2-5.4 5.4-1.6 2.2-2.9 4.9-3.9 8.1-1 3.2-1.5 7-1.5 11.5 0 4.4.5 8.2 1.5 11.5 1 3.2 2.3 5.9 3.9 8.1 1.6 2.2 3.4 4 5.4 5.4 2 1.4 4 2.4 6 3.1 2 .7 4 1.2 5.8 1.5 1.8.3 3.4.4 4.6.4 1.3 0 2.8-.1 4.6-.4 1.8-.3 3.7-.8 5.8-1.5 2-.7 4.1-1.8 6-3.1 2-1.4 3.8-3.2 5.4-5.4 1.6-2.2 2.9-4.9 3.9-8.1 1-3.2 1.5-7 1.5-11.5 0-4.4-.5-8.2-1.5-11.5-1-3.2-2.3-5.9-3.9-8.1-1.6-2.2-3.4-4-5.4-5.4-2-1.4-4-2.4-6-3.1-2-.7-4-1.2-5.8-1.5-1.8-.3-3.4-.4-4.6-.4-1.2.1-2.7.2-4.6.4zM86.4 59.3v56.9h28.1c3.5 0 6.3-.5 8.6-1.5 2.3-.9 4-2.1 5.3-3.6 1.3-1.5 2.2-3.1 2.7-4.7.5-1.7.8-3.2.8-4.7 0-2-.3-3.7-.7-5.1-.5-1.4-1.1-2.5-1.8-3.4-.7-.9-1.5-1.6-2.3-2.1-.8-.5-1.5-.9-2.1-1.2 2.3-.9 4.1-2 5.4-3.5 1.3-1.4 2.1-3 2.6-4.8s.7-3.6.7-5.4c0-1-.1-2.2-.4-3.6-.3-1.4-.8-2.9-1.6-4.5-.8-1.5-2.1-3-3.7-4.3-1.7-1.3-3.9-2.4-6.7-3.3-2.8-.8-6.3-1.3-10.4-1.3H86.4zm56.3 0v56.9h11.8V76.5h.1l22.7 39.7h13.3V59.3h-11.8v40.5h-.2l-23.2-40.5h-12.7zm118.5 0v56.9h42v-9.8H273V94.6h27.7v-9.8H273V69.1h31.4v-9.8h-43.2zm82.8 9.4c1.8.6 3.4 1.6 5 3.1s2.8 3.5 3.8 6.1c1 2.6 1.5 5.9 1.5 9.8 0 4-.5 7.2-1.5 9.8-1 2.6-2.2 4.6-3.8 6.1-1.6 1.5-3.2 2.5-5 3.1-1.8.6-3.5.9-5.1.9-1.6 0-3.3-.3-5.1-.9-1.8-.6-3.4-1.6-5-3.1s-2.8-3.5-3.8-6.1c-1-2.6-1.5-5.9-1.5-9.8 0-4 .5-7.2 1.5-9.8 1-2.6 2.2-4.6 3.8-6.1 1.6-1.5 3.2-2.5 5-3.1 1.8-.6 3.5-.9 5.1-.9 1.6 0 3.3.3 5.1.9zm-224.6 2.4c1.6 1.4 2.4 3.5 2.4 6.4 0 1.6-.4 3-1.3 4-.8 1-1.9 1.8-3.2 2.2-1.3.5-2.7.7-4.1.7h-15V69.1h14.4c3-.1 5.2.6 6.8 2zm116.9-2v37.3h-15.5v-7.9c0-3.6-.1-6.9-.2-9.6-.2-2.8-.4-5.3-.9-7.5-.4-2.2-1-4.3-1.8-6.3s-1.8-3.9-3-5.9h21.4zM116.4 94.6c1.3.4 2.3 1.1 3 2 .7.9 1.1 2.2 1.1 3.7s-.4 2.7-1.1 3.6c-.7.9-1.7 1.5-3 1.9-1.3.4-2.8.6-4.7.6H98.2V93.9h13.9c1.6 0 3 .2 4.3.7zm1.3 68.7c-13.8 3.7-25.8 16-29.4 29.4-6.5 24.2-10.8 50.1-10.8 76.4 0 26.3 4.3 52.2 10.8 76.4 3.6 13.4 15.6 25.7 29.4 29.4 35.2 9.4 71.2 12.1 108.6 12.1 37.4 0 73.4-2.7 108.6-12.1 13.8-3.7 25.8-16 29.4-29.4 6.5-24.2 10.8-50.1 10.8-76.4 0-26.3-4.3-52.2-10.8-76.4-3.6-13.4-15.6-25.7-29.4-29.4-35.2-9.4-71.2-12.1-108.6-12.1-37.4-.1-73.4 2.6-108.6 12.1zm69.9 47.8l111.5 57.6L187.6 327V211.1z" id="Layer_1_1_"/>
        </g>
    </g>
</svg>
