<?xml version="1.0" encoding="UTF-8"?>
<svg width="32px" height="32px" viewBox="0 0 32 32" version="1.1" xmlns="http://www.w3.org/2000/svg" xmlns:xlink="http://www.w3.org/1999/xlink">
    <!-- Generator: sketchtool 50.2 (55047) - http://www.bohemiancoding.com/sketch -->
    <title>1BD8FF32-F93D-4E5B-BECC-E945D97B93A9</title>
    <desc>Created with sketchtool.</desc>
    <defs></defs>
    <g id="Symbols" stroke="none" stroke-width="1" fill="none" fill-rule="evenodd">
        <g id="icons/my_data_edit" fill="#808080" fill-rule="nonzero">
            <path d="M2.03584318,30.0817844 C0.75762674,28.802974 0.118518519,27.2565056 0.118518519,25.4572491 L0.118518519,6.54275093 C0.118518519,4.74349442 0.75762674,3.19702602 2.03584318,1.91821561 C3.31405962,0.639405204 4.85980974,0 6.65823055,0 L22.2643615,0 L19.3363541,2.91449814 L6.65823055,2.91449814 C5.66241076,2.91449814 4.80035781,3.27137546 4.08693468,3.98513011 C3.37351155,4.69888476 3.01679999,5.56133829 3.01679999,6.55762082 L3.01679999,25.4572491 C3.01679999,26.4535316 3.37351155,27.3159851 4.08693468,28.0297398 C4.80035781,28.7434944 5.66241076,29.1003717 6.65823055,29.1003717 L25.5639435,29.1003717 C26.5597633,29.1003717 27.4218162,28.7434944 28.1352394,28.0297398 C28.8486625,27.3159851 29.2053741,26.4684015 29.2053741,25.4572491 L29.2053741,12.5501859 L32.1185185,9.65055762 L32.1185185,25.4572491 C32.1185185,27.2565056 31.4794103,28.802974 30.2011939,30.0817844 C28.9081144,31.3605948 27.3772273,32 25.5639435,32 L6.65823055,32 C4.85980974,32 3.31405962,31.3605948 2.03584318,30.0817844 Z M5.85562953,26.260223 L5.85562953,19.6728625 L21.2239528,4.29739777 L27.8082538,10.8847584 L12.4399305,26.260223 L5.85562953,26.260223 Z M11.5184256,24.0594796 L14.1788994,21.4126394 L10.7009616,17.9330855 L8.05535085,20.5799257 L8.05535085,21.8587361 L10.2550722,21.8587361 L10.2550722,24.0594796 L11.5184256,24.0594796 Z M13.5546541,16.3568773 L21.5509384,8.35687732 C21.8036091,8.10408922 21.8184721,7.85130112 21.5806644,7.59851301 C21.3428567,7.3605948 21.090186,7.3605948 20.8226523,7.62825279 L12.826368,15.6431227 C12.5588344,15.8959108 12.5588344,16.1486989 12.811505,16.3866171 C13.0493128,16.6245353 13.3019835,16.6096654 13.5546541,16.3568773 Z M29.264826,9.42750929 L22.680525,2.8401487 L24.7762055,0.743494424 C25.2072319,0.312267658 25.7274363,0.104089219 26.3368186,0.104089219 C26.9462008,0.104089219 27.4664052,0.312267658 27.8974317,0.743494424 L31.3753694,4.22304833 C31.8063959,4.65427509 32.0144776,5.1598513 32.0144776,5.76951673 C32.0144776,6.37918216 31.7915329,6.89962825 31.3753694,7.33085502 L29.264826,9.42750929 Z" id="my_data_edit"></path>
        </g>
    </g>
</svg>