<svg xmlns="http://www.w3.org/2000/svg" xmlns:xlink="http://www.w3.org/1999/xlink" width="0" height="0" style="position:absolute">
	
		<symbol id="icons-checkbox-bullit" viewBox="0 0 32 32">
			<title>D7548C88-DB24-41DA-A53A-F0C6C6F1DF06</title><g transform="matrix(1 0 0 -1 0 32)" fill-rule="nonzero" fill="none"><path d="M1.911 1.911C.637 3.185 0 4.726 0 6.52v18.844c0 1.793.637 3.333 1.911 4.607s2.815 1.911 4.608 1.911h18.844c1.793 0 3.333-.637 4.607-1.91 1.274-1.275 1.911-2.815 1.911-4.608V6.519c0-1.793-.637-3.334-1.91-4.608C28.695.637 27.17 0 25.362 0H6.519C4.726 0 3.185.637 1.91 1.911z" fill="gray"></path><path d="M6.519 2.904h18.844c.993 0 1.852.355 2.563 1.066.711.711 1.067 1.556 1.067 2.563v18.845c0 .992-.356 1.852-1.067 2.563-.711.71-1.57 1.066-2.563 1.066H6.519c-.993 0-1.852-.355-2.563-1.066-.712-.711-1.067-1.57-1.067-2.563V6.518c0-.992.355-1.851 1.067-2.562.71-.697 1.57-1.052 2.563-1.052z" fill="#000"></path><path fill="gray" d="M13.23 7.348l-8.89 8.904 2.86 2.86 6.03-6.03L24.68 24.532l2.86-2.859z"></path></g>
		</symbol>
	
		<symbol id="logo-mts-logo-red-quad" viewBox="0 0 32 32">
			<title>906F02E6-82D5-4993-B479-416A72A2ED04</title><g fill-rule="nonzero" fill="none"><path d="M32 28.602a3.176 3.176 0 0 1-3.2 3.178H3.2A3.19 3.19 0 0 1 0 28.602V3.18A3.19 3.19 0 0 1 3.2 0h25.6C30.556 0 32 1.413 32 3.179v25.423z" fill="#ED1D24"></path><path d="M16 27.675c-5.978 0-8.667-4.744-8.667-9.423 0-6.599 4.623-14.124 8.645-14.124 4.044 0 8.666 7.525 8.666 14.124.023 4.679-2.666 9.423-8.644 9.423z" fill="#FFF"></path></g>
		</symbol>
	
		<symbol id="logo-velcom-logo-black-quad" viewBox="0 0 32 32">
			<title>B481E935-18D4-49AB-9BFE-BC746CB0DCD1</title><g fill-rule="nonzero" fill="none"><path d="M32 28.602a3.176 3.176 0 0 1-3.2 3.178H3.2A3.19 3.19 0 0 1 0 28.602V3.18A3.19 3.19 0 0 1 3.2 0h25.6C30.556 0 32 1.413 32 3.179v25.423z" fill="#000"></path><path fill="#E0D900" d="M16 12.624l6.578 6.533L16 25.689l-6.578-6.532z"></path><path fill="#FFF500" d="M22.578 6.092l6.578 6.532-6.578 6.533L16 12.624z"></path><path fill="#FFF74C" d="M9.422 6.092l-6.555 6.532 6.577 6.533L16 12.624z"></path></g>
		</symbol>
	
</svg>
