<svg xmlns="http://www.w3.org/2000/svg" xmlns:xlink="http://www.w3.org/1999/xlink" width="0" height="0" style="position:absolute">
	
		<symbol id="account-menu-my-account-main-lightgray" viewBox="0 0 205 211">
			<title>2997B9E0-10EE-441E-879E-2AC31F46B2DD</title><path d="M0 202.884V184.13c0-33.37 25.096-54.972 61.04-63.89 9.56 12.135 24.36 19.95 41 19.95 16.638 0 31.438-7.815 40.999-20.041 35.944 8.917 61.04 30.52 61.04 63.89v18.845c0 4.136-2.39 7.446-5.24 7.446H5.239C2.3 210.33 0 207.02 0 202.884zM53.594 64.9V48.446C53.594 21.695 75.288 0 102.039 0s48.446 21.695 48.446 48.446V64.9c0 26.75-21.695 48.445-48.446 48.445-26.75.092-48.445-21.603-48.445-48.445z"></path>
		</symbol>
	
		<symbol id="account-menu-my-adress-darkgray" viewBox="0 0 24 20">
			<title>F8434D9D-2944-4E33-913C-DC21D03C28D9</title><path d="M20.593 10.968v7.128a.917.917 0 0 1-.284.666.913.913 0 0 1-.668.283h-5.722v-5.698h-3.812v5.698H4.385a.922.922 0 0 1-.673-.283.917.917 0 0 1-.283-.666v-7.128a.2.2 0 0 1 .009-.044c.004-.018.009-.035.009-.044l8.568-7.04 8.56 7.04a.204.204 0 0 1 .018.088zm3.32-1.024l-.92 1.099a.518.518 0 0 1-.315.163h-.044a.48.48 0 0 1-.314-.101L12.01 2.533 1.703 11.1a.535.535 0 0 1-.359.102.53.53 0 0 1-.314-.163L.108 9.944A.49.49 0 0 1 0 9.595a.449.449 0 0 1 .164-.317L10.877.384A1.753 1.753 0 0 1 12.011 0c.434 0 .815.128 1.129.384l3.636 3.028V.516c0-.136.044-.251.132-.34a.465.465 0 0 1 .341-.132h2.861a.46.46 0 0 1 .34.133.462.462 0 0 1 .134.34v6.055l3.263 2.706a.43.43 0 0 1 .164.317.447.447 0 0 1-.097.349z"></path>
		</symbol>
	
		<symbol id="account-menu-my-cars-darkgray" viewBox="0 0 246 218">
			<title>2A1AA06B-BA38-475A-85FB-A9549E7EE122</title><path d="M3.844 214.718C1.264 212.135 0 208.945 0 205.096V95.509L28.175 13.47C30.755 4.507 37.38 0 48.054 0H197.83c10.673 0 17.3 4.507 19.88 13.47l28.123 82.039v109.587c0 3.849-1.264 7.039-3.844 9.622-2.58 2.582-5.766 3.848-9.61 3.848h-14.063c-3.844 0-7.03-1.266-9.61-3.848-2.58-2.583-3.845-5.773-3.845-9.622v-14.078H40.972v14.078c0 3.849-1.264 7.039-3.844 9.622-2.58 2.582-5.767 3.848-9.61 3.848H13.454c-3.844 0-7.031-1.266-9.61-3.848zM62.42 143.87c4.047-4.051 6.07-8.862 6.07-14.433 0-5.57-2.023-10.381-6.07-14.432-4.046-4.052-8.852-6.077-14.416-6.077s-10.37 2.025-14.416 6.077c-4.047 4.05-6.07 8.862-6.07 14.432s2.023 10.331 6.07 14.433c4.047 4.051 8.852 6.077 14.416 6.077 5.564.05 10.37-1.975 14.416-6.077zm149.827 0c4.047-4.051 6.07-8.862 6.07-14.433 0-5.57-2.023-10.381-6.07-14.432-4.046-4.052-8.852-6.077-14.416-6.077s-10.319 2.025-14.416 6.077c-4.047 4.05-6.07 8.862-6.07 14.432s2.023 10.331 6.07 14.433c4.047 4.051 8.852 6.077 14.416 6.077 5.514.05 10.37-1.975 14.416-6.077zm6.07-61.833L197.83 20.51H48.003L27.517 82.038h190.8z"></path>
		</symbol>
	
		<symbol id="account-menu-my-favorites-darkgray" viewBox="0 0 205 175">
			<title>62CC9008-F380-4123-847C-ED4551FEFEF6</title><path d="M102.228 42.832C114.8 11.12 134.64-2.983 161.748.524c40.663 5.26 59.793 60.12 23.371 102.526-24.28 28.27-51.911 52.253-82.891 71.95-30.98-19.697-58.611-43.68-82.892-71.95C-17.085 60.645 2.045 5.783 42.706.524c27.108-3.507 46.949 10.596 59.522 42.308z" fill-rule="evenodd"></path>
		</symbol>
	
		<symbol id="account-menu-my-feedback-darkgray" viewBox="0 0 222 187">
			<title>F904A15F-281E-4E85-8ED0-C57CA6BF1C7F</title><path d="M7.544 179.136C2.532 173.911 0 167.874 0 161.025V25.975c0-6.849 2.532-12.886 7.544-18.111C12.556 2.638 18.683 0 25.923 0h169.968c6.835 0 12.86 2.638 18.075 7.864 5.215 5.225 7.848 11.262 7.848 18.111v135.05c0 6.849-2.633 12.886-7.848 18.111-5.215 5.277-11.24 7.864-18.075 7.864H25.923c-7.24 0-13.367-2.587-18.379-7.864zm186.625-19.785c4-4.059 6.025-8.675 6.025-14.002V51.747l-79.743 59.306a16.077 16.077 0 0 1-19.139 0L21.57 51.747v93.602c0 5.276 1.924 9.943 5.822 14.002 3.899 4.058 8.608 6.037 14.177 6.037h138.678c5.265 0 9.923-2.03 13.923-6.037zm-83.287-71.178L194.169 27.7c-4.05-4.008-8.708-6.037-13.974-6.037H41.568c-5.57 0-10.329 2.03-14.177 6.037l83.49 60.473z"></path>
		</symbol>
	
		<symbol id="account-menu-my-orders-darkgray" viewBox="0 0 218 218">
			<title>437121F1-2D40-4DEF-909F-55EC97CF9428</title><path d="M27.817 184.165v-19.018c0-11.465 20.884-20.796 46.657-20.796 7.11 0 13.82.711 19.862 1.955v-3.155c0-11.464 20.885-20.796 46.657-20.796 25.773 0 46.658 9.332 46.658 20.796v19.019c0 11.464-20.885 20.795-46.658 20.795-7.11 0-13.819-.71-19.862-1.955v3.155c0 11.464-20.885 20.796-46.657 20.796-25.773 0-46.657-9.332-46.657-20.796zm80.65-22.929c0-7.42-15.242-13.463-33.993-13.463-18.752 0-33.993 6.043-33.993 13.463 0 7.421 15.241 13.464 33.993 13.464 18.751 0 33.993-6.043 33.993-13.464zM0 143.64V22.065A9.046 9.046 0 0 1 9.065 13h194.582c4.977 0 9.065 4.044 9.065 9.065v32.571h-45.28c-7.553 0-13.686 6.132-13.686 13.686v29.105c0 7.554 6.133 13.686 13.687 13.686h45.28v32.527c0 4.977-4.044 9.065-9.066 9.065h-8.753v-9.51c0-19.018-29.372-28.038-53.856-28.038-22.573 0-48.346 7.51-53.1 22.84-4.488-.578-9.02-.889-13.42-.889-18.618 0-39.458 5.11-48.834 15.552H9.064c-5.02.045-9.064-4.043-9.064-9.02zm174.987-4.4c0-7.42-15.242-13.463-33.994-13.463-18.751 0-33.993 6.043-33.993 13.464 0 7.42 15.242 13.464 33.993 13.464 18.752 0 33.994-6.043 33.994-13.464zm-13.109-43.324V69.744c0-3.288 2.666-5.999 5.999-5.999H212c3.288 0 5.999 2.666 5.999 5.999v26.172c0 3.289-2.666 6-5.999 6h-44.124c-3.333 0-5.999-2.711-5.999-6z"></path>
		</symbol>
	
		<symbol id="account-menu-my-personal-info-darkgray" viewBox="0 0 219 218">
			<title>41D2D387-4194-4E34-95B2-7357F24F1C03</title><path d="M36.48 170.204v11.951h145.973v-11.95c0-10.99-8.372-20.004-25.065-27.043-16.743-7.04-32.675-10.533-47.896-10.533-15.221 0-31.204 3.494-47.896 10.533-16.744 7.039-25.116 16.002-25.116 27.042zm98.685-71.758c7.256-7.191 10.858-15.75 10.858-25.624 0-9.825-3.602-18.383-10.858-25.574-7.205-7.242-15.78-10.787-25.622-10.787-9.894 0-18.469 3.596-25.674 10.787-7.255 7.191-10.857 15.75-10.857 25.574 0 9.875 3.602 18.433 10.857 25.624 7.205 7.191 15.78 10.787 25.674 10.787 9.843.05 18.367-3.545 25.622-10.787zM0 24.46c0-6.432 2.385-12.154 7.103-17.066C11.873 2.48 17.657 0 24.506 0h169.972c6.443 0 12.177 2.481 17.098 7.394 4.922 4.912 7.408 10.634 7.408 17.066v169.647c0 6.431-2.486 12.154-7.408 17.066-4.921 4.963-10.655 7.393-17.098 7.393H24.506c-6.85 0-12.633-2.43-17.403-7.393C2.385 206.21 0 200.538 0 194.107V24.46z"></path>
		</symbol>
	
		<symbol id="account-menu-my-promo-discounts-darkgray" viewBox="0 0 229 229">
			<title>55F748D6-A4F1-401E-94FA-0FA062ED5AB6</title><path d="M108.692 228.899l-14.08-20.271-21.07 12.84-7.091-23.608-24.058 5.662.608-24.67-24.616-1.971 8.205-23.254-22.79-9.504 14.94-19.614L0 108.434 20.31 94.38 7.445 73.35l23.653-7.076-5.723-24.013 24.767.607L52.168 18.3l23.298 8.19 9.522-22.75 19.652 14.964L120.746 0l14.08 20.271 21.07-12.84 7.09 23.608 24.059-5.713-.608 24.67 24.615 2.022-8.205 23.254 22.792 9.503-14.992 19.615 18.74 16.075-20.31 14.003 12.865 21.08-23.653 7.077 5.723 24.013-24.716-.607-2.026 24.619-23.299-8.19-9.522 22.749-19.651-15.014-16.106 18.704zm58.802-54.242c5.268-4.954 7.902-11.526 7.902-19.715v-6.32c0-8.745-2.634-15.57-7.952-20.422-5.318-4.853-12.46-7.33-21.475-7.33-8.864 0-16.005 2.477-21.323 7.43-5.369 4.955-8.003 11.526-8.003 19.716v6.521c0 8.543 2.685 15.267 8.104 20.22 5.42 4.904 12.561 7.381 21.424 7.381 8.965-.05 16.107-2.527 21.323-7.481zm-78.2-4.247l64.373-102.822-14.232-7.128-64.374 102.823 14.232 7.127zm49.787-7.987c-1.925-2.123-2.887-4.65-2.887-7.481v-7.432c.101-3.134 1.063-5.61 2.785-7.43 1.773-1.871 4.052-2.781 6.99-2.781 3.039 0 5.42 1.01 7.141 2.932 1.773 1.971 2.634 4.55 2.634 7.734l-.101 9.302c-.507 5.51-3.647 8.29-9.522 8.29-2.786.05-5.116-1.01-7.04-3.134zm-34.29-61.875c5.268-4.954 7.851-11.476 7.851-19.614v-6.522c0-8.492-2.634-15.216-7.85-20.22-5.268-4.954-12.41-7.432-21.475-7.432-8.965 0-16.056 2.528-21.374 7.533-5.318 5.004-7.952 11.526-7.952 19.664v6.42c0 8.544 2.685 15.267 8.104 20.221 5.42 4.904 12.56 7.33 21.424 7.33 8.914.05 16.005-2.426 21.273-7.38zM76.227 88.567c-1.722-1.972-2.634-4.5-2.634-7.633V74.16c0-3.387.861-6.067 2.634-7.988 1.773-1.971 4.102-2.932 7.09-2.932 3.09 0 5.42 1.011 7.142 3.034 1.672 2.022 2.533 4.6 2.533 7.734v5.409c0 8.088-3.191 12.082-9.522 12.082-3.04 0-5.47-.96-7.243-2.932z"></path>
		</symbol>
	
		<symbol id="account-menu-my-stores-darkgray" viewBox="0 0 260 182">
			<title>A245BA2B-BED1-4F33-831F-D481F6ABAD4F</title><path d="M52.894 182.935V75.425h153.914v107.51h-26.421v-69.798H79.315v69.798H52.894zm-52.894 0V0h259.702v182.935h-44.577V65.44H44.577v117.496H0z"></path>
		</symbol>
	
		<symbol id="account-menu-my-subscriptions-darkgray" viewBox="0 0 241 218">
			<title>01FEC4C0-2241-4A84-B8AC-13A02B342CCF</title><path d="M0 187.625V30.89C0 13.825 13.834 0 30.911 0h157.191L161.65 40.614l-10.337-14.078c-13.48-18.737-39.678-22.991-58.427-9.52-4.865 3.494-8.767 7.849-11.605 12.71H47.076c-8.412 0-15.202 6.837-15.202 15.193 0 8.406 6.841 15.192 15.202 15.192h29.442a41.77 41.77 0 0 0 5.017 12.457H47.076c-8.412 0-15.202 6.837-15.202 15.193 0 8.406 6.841 15.192 15.202 15.192h56.198l8.97 12.458H47.075c-8.412 0-15.202 6.836-15.202 15.192 0 8.406 6.841 15.192 15.202 15.192h88.274c18.496 16.459 48.496 13.47 62.836-8.406l20.574-31.397v81.633c0 17.066-13.834 30.89-30.911 30.89H30.91C13.834 218.516 0 204.692 0 187.626zm186.886-14.13c0-8.406-6.841-15.191-15.202-15.191H47.076c-8.412 0-15.202 6.836-15.202 15.192 0 8.406 6.841 15.192 15.202 15.192h124.557c8.412.05 15.253-6.786 15.253-15.192zm-36.13-50.032l-45.76-63.555c-4.915-6.836-3.344-16.306 3.447-21.218 6.84-4.912 16.317-3.343 21.232 3.443l32.837 45.577 49.711-75.91c4.611-7.04 14.037-9.015 21.08-4.406 7.044 4.608 9.02 14.027 4.41 21.066l-61.823 94.496c-5.878 8.862-18.902 9.116-25.135.507z"></path>
		</symbol>
	
		<symbol id="arrow-down" viewBox="0 0 36 21.6">
			<style>.st0{fill:#666}</style><g id="Document" transform="scale(1 -1)"><g id="Spread" transform="translate(0 -21.594)"><path class="st0" d="M18 0L0 18l3.6 3.6L18 7.2l14.4 14.4L36 18 18 0z" id="Layer_1_1_"></path></g></g>
		</symbol>
	
		<symbol id="close-cross-white" viewBox="0 0 20 20">
			<title>B156DED5-FAF8-4673-91B3-15D13A392665</title><path d="M2.056 0L0 2.056 7.944 10 0 17.944 2.056 20 10 12.056 17.944 20 20 17.944 12.056 10 20 2.056 17.944 0 10 7.944z"></path>
		</symbol>
	
		<symbol id="icons-account-element-email-gray" viewBox="0 0 20 16">
			<title>1DAB2F3B-C136-4778-B385-BC4DB7444039</title><path d="M0 13.366V4.12v.017-1.504A2.63 2.63 0 0 1 2.62 0h14.76A2.63 2.63 0 0 1 20 2.634v1.504-.017 9.245A2.63 2.63 0 0 1 17.38 16H2.62A2.63 2.63 0 0 1 0 13.366zm18.52 0V5.26l-8.24 3.433a.728.728 0 0 1-.566 0L1.479 5.26v8.106c0 .637.516 1.147 1.141 1.147h14.76c.625 0 1.14-.51 1.14-1.147zM10 7.206l8.52-3.552V2.65c0-.637-.515-1.147-1.14-1.147H2.62c-.634 0-1.14.518-1.14 1.147v1.003L10 7.206z"></path>
		</symbol>
	
		<symbol id="icons-account-element-phone-gray" viewBox="0 0 16 16">
			<title>14624FF2-91E9-4C1A-8E91-F36F733F9429</title><path d="M13.78 16c-2.782-.044-5.877-1.748-8.958-4.82C1.748 8.098.044 5.003 0 2.221c0-.53.11-.894.801-1.361L2.04.103c.561-.306.933.131 1.202.495l1.8 2.666c.596 1.063-.081 1.514-.642 2.228-.845 1.041.75 2.614 2.127 3.983 1.377 1.37 2.943 2.971 3.984 2.12.714-.561 1.165-1.239 2.229-.642l2.666 1.8c.364.269.793.67.495 1.2l-.758 1.239c-.466.699-.83.808-1.362.808z"></path>
		</symbol>
	
		<symbol id="icons-checkbox-bullit" viewBox="0 0 32 32">
			<title>D7548C88-DB24-41DA-A53A-F0C6C6F1DF06</title><path d="M1.911 30.089C.637 28.815 0 27.274 0 25.48V6.637C0 4.844.637 3.304 1.911 2.03S4.726.119 6.52.119h18.844c1.793 0 3.333.637 4.607 1.91 1.274 1.275 1.911 2.815 1.911 4.608v18.844c0 1.793-.637 3.334-1.91 4.608C28.695 31.363 27.17 32 25.362 32H6.519c-1.793 0-3.334-.637-4.608-1.911z"></path><path d="M6.519 29.096h18.844c.993 0 1.852-.355 2.563-1.066.711-.711 1.067-1.556 1.067-2.563V6.622c0-.992-.356-1.852-1.067-2.563-.711-.71-1.57-1.066-2.563-1.066H6.519c-.993 0-1.852.355-2.563 1.066-.712.711-1.067 1.57-1.067 2.563v18.86c0 .992.355 1.851 1.067 2.562a3.542 3.542 0 0 0 2.563 1.052z"></path><path d="M13.23 24.652l-8.89-8.904 2.86-2.86 6.03 6.03 11.45-11.45 2.86 2.859z"></path>
		</symbol>
	
		<symbol id="icons-lock-locked" viewBox="0 0 17 16">
			<title>68E51A05-616C-4A25-AFFB-7E404EDBD9D0</title><path d="M0 14.706V7.864C0 7.15.62 6.57 1.383 6.57h.98C2.476 2.678 4.22 0 8.5 0c4.28 0 6.024 2.678 6.137 6.57h.98c.764 0 1.383.58 1.383 1.294v6.842c0 .715-.62 1.294-1.383 1.294H1.383C.62 16 0 15.421 0 14.706zM8.5 1.621c-3.036 0-3.881 1.923-3.951 4.95h7.897c-.065-3.027-.91-4.95-3.946-4.95z"></path>
		</symbol>
	
		<symbol id="icons-map-pointer-red" viewBox="0 0 14 20">
			<title>23BCC8BE-D0C1-4B10-97B9-5C0B6C3EBC5E</title><path d="M0 6.778C0 3.056 3.156 0 7 0s7 3.056 7 6.778C14 10.5 13.025 13.556 7 20 .975 13.5 0 10.444 0 6.778zm10.385 0c0-1.834-1.549-3.334-3.442-3.334-1.894 0-3.443 1.5-3.443 3.334 0 1.833 1.55 3.333 3.443 3.333s3.442-1.5 3.442-3.333z"></path>
		</symbol>
	
		<symbol id="icons-my-comment" viewBox="0 0 32 32">
			<title>DACAA290-D8F7-411F-85DF-166E4C7C82C0</title><path d="M2.036 30.082C.758 28.803.119 27.257.119 25.457V6.543c0-1.8.639-3.346 1.917-4.625S4.86 0 6.658 0h1.264C6.866.743 5.796 1.829 5.484 3.093a3.58 3.58 0 0 0-1.397.877c-.713.714-1.07 1.576-1.07 2.573v18.914c0 .997.357 1.859 1.07 2.573.713.713 1.575 1.07 2.571 1.07h18.906c.996 0 1.858-.357 2.571-1.07.714-.714 1.07-1.562 1.07-2.573v-1.829c1.22-.565 2.215-1.293 2.914-2.275v4.104c0 1.8-.64 3.346-1.918 4.625C28.908 31.36 27.377 32 25.564 32H6.658c-1.798 0-3.344-.64-4.622-1.918zm5.098-4.863V5.948c0-1.636.58-3.048 1.739-4.208C10.033.58 11.444 0 13.079 0h13.08c1.634 0 3.046.58 4.206 1.74 1.159 1.16 1.739 2.572 1.739 4.208v10.067c0 1.636-.58 3.033-1.74 4.208-1.159 1.16-2.57 1.74-4.206 1.74H14.06l-6.926 3.256zm2.645-3.985l4.236-1.918h12.158c.907 0 1.695-.327 2.334-.967.654-.639.966-1.427.966-2.334V5.948a3.2 3.2 0 0 0-.966-2.335 3.164 3.164 0 0 0-2.334-.966h-13.08a3.2 3.2 0 0 0-2.333.966 3.167 3.167 0 0 0-.966 2.335v15.286H9.78zm1.561-9.992c0-1.056.862-1.919 1.917-1.919 1.056 0 1.918.863 1.918 1.919a1.922 1.922 0 0 1-1.918 1.918 1.922 1.922 0 0 1-1.917-1.918zm6.361 0c0-1.056.862-1.919 1.918-1.919 1.055 0 1.917.863 1.917 1.919a1.922 1.922 0 0 1-1.917 1.918 1.922 1.922 0 0 1-1.918-1.918zm6.362 0c0-1.056.862-1.919 1.917-1.919 1.055 0 1.917.863 1.917 1.919a1.922 1.922 0 0 1-1.917 1.918 1.922 1.922 0 0 1-1.917-1.918z"></path>
		</symbol>
	
		<symbol id="icons-my-data-delete" viewBox="0 0 19 19">
			<title>9D4AE351-BD4E-4544-A356-E03227F3FDBD</title><path d="M1.139 17.87C.379 17.102 0 16.192 0 15.124V3.884C0 2.817.38 1.899 1.139 1.14A3.747 3.747 0 0 1 3.885 0h11.23c1.069 0 1.987.38 2.746 1.139A3.747 3.747 0 0 1 19 3.885v11.23c0 1.068-.38 1.987-1.139 2.746A3.747 3.747 0 0 1 15.115 19H3.885c-1.069.009-1.987-.371-2.746-1.13zm12.777-2.476c.422.43 1.1.44 1.513.035a1.078 1.078 0 0 0-.027-1.513L10.837 9.35l4.565-4.566c.431-.422.44-1.1.027-1.513a1.078 1.078 0 0 0-1.513.027L9.35 7.864 4.785 3.299a1.062 1.062 0 0 0-1.513-.027A1.078 1.078 0 0 0 3.3 4.785l4.565 4.557L3.3 13.907c-.431.422-.44 1.1-.027 1.513a1.078 1.078 0 0 0 1.513-.026l4.566-4.566 4.565 4.566z"></path>
		</symbol>
	
		<symbol id="icons-my-data-edit" viewBox="0 0 32 32">
			<title>1BD8FF32-F93D-4E5B-BECC-E945D97B93A9</title><path d="M2.036 30.082C.758 28.803.119 27.257.119 25.457V6.543c0-1.8.639-3.346 1.917-4.625S4.86 0 6.658 0h15.606l-2.928 2.914H6.658c-.996 0-1.858.357-2.571 1.071-.713.714-1.07 1.576-1.07 2.573v18.9c0 .996.357 1.858 1.07 2.572.713.713 1.575 1.07 2.571 1.07h18.906c.996 0 1.858-.357 2.571-1.07.714-.714 1.07-1.562 1.07-2.573V12.55l2.914-2.9v15.807c0 1.8-.64 3.346-1.918 4.625C28.908 31.36 27.377 32 25.564 32H6.658c-1.798 0-3.344-.64-4.622-1.918zm3.82-3.822v-6.587L21.224 4.297l6.584 6.588L12.44 26.26H5.856zm5.662-2.2l2.66-2.647-3.477-3.48-2.646 2.647v1.279h2.2v2.2h1.263zm2.037-7.703l7.996-8c.253-.253.267-.506.03-.758-.238-.238-.49-.238-.758.03l-7.997 8.014c-.267.253-.267.506-.014.744.237.238.49.223.743-.03zm15.71-6.93L22.68 2.84 24.776.743a2.12 2.12 0 0 1 1.56-.639c.61 0 1.13.208 1.561.64l3.478 3.479c.431.431.64.937.64 1.547 0 .61-.223 1.13-.64 1.56l-2.11 2.098z"></path>
		</symbol>
	
		<symbol id="icons-my-data-full-view" viewBox="0 0 19 19">
			<title>CF514686-7688-4276-ABF7-AA5A0100D025</title><path d="M1.138 17.862C.38 17.094 0 16.186 0 15.118V3.886C0 2.82.38 1.901 1.138 1.143A3.746 3.746 0 0 1 3.883.004h2.215a9.636 9.636 0 0 0-.794.689 6.82 6.82 0 0 0-.865 1.04h-.556c-.591 0-1.103.212-1.527.636a2.086 2.086 0 0 0-.635 1.526v11.223c0 .591.212 1.103.635 1.526.424.424.936.636 1.527.636h11.225c.591 0 1.103-.212 1.527-.636a2.12 2.12 0 0 0 .512-.785 2.72 2.72 0 0 0 1.844-.556c-.044.988-.423 1.844-1.138 2.559A3.746 3.746 0 0 1 15.108 19H3.883a3.746 3.746 0 0 1-2.745-1.138zm2.224-2.788a.76.76 0 0 1 .777-.75H14.86c.424 0 .777.335.777.75s-.344.75-.777.75H4.14a.761.761 0 0 1-.777-.75zm13.061-1.068l-2.939-2.938a5.937 5.937 0 0 1-7.139-.953 5.931 5.931 0 0 1 0-8.381 5.934 5.934 0 0 1 8.384 0 5.933 5.933 0 0 1 .953 7.137l2.939 2.938a1.273 1.273 0 0 1 0 1.81l-.389.387a1.273 1.273 0 0 1-1.809 0zm-13.06-1.844a.76.76 0 0 1 .776-.75h1.43a7.425 7.425 0 0 0 2.523 1.51H4.14c-.433-.01-.777-.345-.777-.76zm10.2-3.211a4.275 4.275 0 0 0 0-6.044 4.278 4.278 0 0 0-6.044 0 4.275 4.275 0 0 0 0 6.044 4.278 4.278 0 0 0 6.045 0zM19 10.089l-1.536-1.535.018-.044A7.388 7.388 0 0 0 14.985.004h-.01.133c1.068 0 1.986.38 2.745 1.139a3.744 3.744 0 0 1 1.138 2.743v6.203H19zM7.228 5.219h4.297c.247 0 .45.203.45.45v2.276c0 .247-.203.45-.45.45H8.198c-.882-.812-1.165-2.02-.97-3.176z"></path>
		</symbol>
	
		<symbol id="icons-my-data-further-info" viewBox="0 0 19 19">
			<title>32D9C09D-7008-47C6-A5F5-0E3FDB9E273A</title><path d="M1.139 17.87C.379 17.102 0 16.192 0 15.124V3.884C0 2.817.38 1.899 1.139 1.14A3.747 3.747 0 0 1 3.885 0h11.23c1.069 0 1.987.38 2.746 1.139A3.747 3.747 0 0 1 19 3.885v11.23c0 1.068-.38 1.987-1.139 2.746A3.747 3.747 0 0 1 15.115 19H3.885c-1.069.009-1.987-.371-2.746-1.13zm2.746-.592h11.23a2.09 2.09 0 0 0 1.528-.635c.423-.424.635-.928.635-1.528V3.885a2.09 2.09 0 0 0-.635-1.528 2.087 2.087 0 0 0-1.528-.635l-11.23.008c-.592 0-1.104.212-1.528.636a2.087 2.087 0 0 0-.635 1.528v11.23c0 .591.212 1.104.635 1.527.424.415.936.627 1.528.627zm2.87-3.037a5.474 5.474 0 0 1-1.996-1.995A5.396 5.396 0 0 1 4.026 9.5c0-.989.247-1.907.733-2.746a5.45 5.45 0 0 1 1.995-1.986A5.396 5.396 0 0 1 9.5 4.035c.989 0 1.907.247 2.746.733a5.474 5.474 0 0 1 1.995 1.995c.486.839.733 1.757.733 2.746 0 .989-.247 1.907-.733 2.746a5.474 5.474 0 0 1-1.995 1.995 5.396 5.396 0 0 1-2.746.733 5.493 5.493 0 0 1-2.746-.742zm3.593-1.157a.22.22 0 0 0 .061-.167v-1.369a.22.22 0 0 0-.061-.168.22.22 0 0 0-.168-.061H8.82a.22.22 0 0 0-.168.061.22.22 0 0 0-.061.168v1.369c0 .07.017.123.061.167a.22.22 0 0 0 .168.062h1.369c.061 0 .123-.017.159-.062zm.106-2.595c.176-.76 1.783-1.113 1.783-2.349 0-1.068-.706-2.278-2.596-2.278-1.015 0-2.04.504-2.64 1.519-.07.115-.053.212.053.3L8 8.387c.035.027.08.045.133.045a.196.196 0 0 0 .176-.089c.256-.326.46-.538.61-.653.158-.115.361-.168.608-.168.23 0 .433.062.61.186.176.123.265.265.265.423 0 .177-.045.327-.142.433-.097.106-.256.212-.485.318-.3.132-.574.335-.821.618-.248.282-.371.574-.371.892v.256c0 .07.017.123.062.167a.22.22 0 0 0 .167.062h1.369c.22-.009.247-.265.274-.388z"></path>
		</symbol>
	
		<symbol id="icons-my-order-history" viewBox="0 0 19 19">
			<title>25A007F5-1CB4-4EB3-AE2A-008C56272635</title><path d="M3.465 10.243a1.01 1.01 0 0 1-.3-.745.99.99 0 0 1 .3-.74 1 1 0 0 1 .74-.296c.296 0 .552.097.768.295a.962.962 0 0 1 .321.74.978.978 0 0 1-.321.746 1.094 1.094 0 0 1-.767.295c-.296 0-.543-.097-.741-.295zm12.079-1.486c.198.199.295.446.295.74a1.007 1.007 0 0 1-1.04 1.04c-.296 0-.551-.096-.767-.294a.965.965 0 0 1-.322-.745c0-.295.106-.542.322-.74a1.09 1.09 0 0 1 .767-.296c.3 0 .546.097.745.295zM8.464 0H9.5c2.64 0 4.884.926 6.732 2.772C18.079 4.623 19 6.862 19 9.502c0 2.64-.921 4.884-2.768 6.73C14.384 18.08 12.145 19 9.504 19c-2.64 0-4.884-.921-6.731-2.768C.926 14.382 0 12.138 0 9.498c0-3.17 1.27-5.69 3.813-7.572v-.048l7.177 7.175-1.486 1.485-5.74-5.69c-1.088 1.353-1.63 2.904-1.63 4.65 0 2.045.714 3.786 2.15 5.222 1.438 1.437 3.18 2.151 5.225 2.151 2.045 0 3.782-.714 5.215-2.15 1.437-1.437 2.151-3.178 2.151-5.223 0-1.847-.608-3.464-1.83-4.848-1.22-1.389-2.72-2.213-4.505-2.477V4.2H8.464V0zm.295 15.536a1.006 1.006 0 0 1-.295-.745c0-.295.097-.55.295-.767a.962.962 0 0 1 .741-.322.98.98 0 0 1 .745.322c.198.216.295.472.295.767a1.007 1.007 0 0 1-1.04 1.04.987.987 0 0 1-.74-.295z"></path>
		</symbol>
	
		<symbol id="icons-plus-gray" viewBox="0 0 16 16">
			<title>6F579C65-71AF-4D56-9060-4D719121C1B0</title><path d="M6.222 6.222V0h3.556v6.222H16v3.556H9.778V16H6.222V9.778H0V6.222z" fill-rule="evenodd"></path>
		</symbol>
	
		<symbol id="white_v" viewBox="0 0 24 18">
			<title>Shape</title><path d="M8.889 17.185L0 8.281l2.86-2.859 6.029 6.03L20.34 0l2.86 2.86z"></path>
		</symbol>
	
</svg>
