<svg xmlns="http://www.w3.org/2000/svg" xmlns:xlink="http://www.w3.org/1999/xlink" width="0" height="0" style="position:absolute">
	
		<symbol id="05-warranty-car-tires-2-y" viewBox="0 0 93 98">
			<title>56F272F5-FE0F-46F2-A57A-45EB72E3593E</title><path d="M0 21.1C13.5 11 29 4.5 46.1.5c17 3.9 32.6 10.4 46.1 20.6C90.7 61.5 72.7 84.4 46.1 98 19.4 84.4 1.5 61.5 0 21.1zm54.4 65.7V72.5H38.1v14.6c2.5 1.7 5.2 3.2 7.9 4.6 3-1.5 5.8-3.1 8.4-4.9zm-22.1-3.9V72.6h-4v-2.8l-5 4.5c2.7 3.1 5.7 6 9 8.6zm36.5-8.6l-4.2-3.9v2.1h-4.7v10.4c3.2-2.6 6.2-5.5 8.9-8.6zM21 71.5l7.3-6.7v-4.7l4-4.3v-9.1h-4.7v-5.3c0-2.1.3-4.1 1-6L17 46v12.1l11.8-10.8v2.9L17 61v4.6c1.2 2.1 2.5 4 4 5.9zm54.2-5.9V61L63.3 50.2v-2.9l11.8 10.8V46L62.7 34.6c.5 1.6.7 3.4.7 5.2 0 2.8-.7 5.5-2 8-.4.9-.9 1.7-1.5 2.6V56h4.7v9.5l6.5 6c1.5-1.9 2.8-3.8 4.1-5.9zm-15.9 1.7v-6H43.1l8.6-9c2.3-2.6 4-4.8 5-6.8 1-1.9 1.4-3.8 1.4-5.7 0-3.4-1.1-6-3.2-7.9-2.1-1.9-5.2-2.8-9-2.8-2.5 0-4.8.5-6.8 1.6s-3.6 2.6-4.6 4.5c-1.1 1.9-1.6 4-1.6 6.3h7.5c0-1.9.5-3.4 1.5-4.6 1-1.2 2.3-1.7 4-1.7 1.6 0 2.8.5 3.6 1.4.8 1 1.3 2.3 1.3 3.9 0 1.2-.4 2.5-1.2 3.9-.8 1.4-2 3-3.7 4.8l-12.2 13v5.1h25.6zM38.1 49.6l2.7-2.9h-2.7v2.9zM17 41.1l15.3-14V10.8C26.9 12.7 21.8 15 17 17.6v6.5l11.8-10.8v2.9L17 27v14.1zm58.2 0V27L63.3 16.2v-2.9l11.8 10.8v-6.5c-4.9-2.7-10-4.9-15.3-6.8v16.3l15.4 14zM54.4 25.5V9c-2.7-.8-5.5-1.6-8.4-2.2-2.7.6-5.3 1.3-7.9 2.1v16.4c2.4-1 5-1.5 7.8-1.5 3 0 5.9.5 8.5 1.7z"></path>
		</symbol>
	
		<symbol id="30-handshake" viewBox="0 0 113 67">
			<title>E93DF10D-3272-4FDE-8D28-5B420B36E55D</title><path d="M39.3 63.7c-.4-.9-.6-4 3-4.2 1.5-.1 3 1.3 3.4 2.8l3.9 3.2c-5.1 3.2-9.4.2-10.3-1.8zM52.5 66l-5.9-4.6c-.5-2.5-1.8-4.1-5.1-3.7 1.7-5.8.1-9.1-7.6-7.9-1.1-4.9-4.2-5.6-9.2-2.3l-9.5-7c.4-11 2.8-20.8 6.7-29.9 2.7 1.2 5.5 1.7 8.5 1.3L24 18.5c.5 5.1 4 6.5 11 3.2 5.7-2.8 14.4-7.7 18.5-5l27.2 18.2c5 3.7 8.8 9.2 6.2 13.2-1.7 2.6-5.4 2-9.4-.3l-10-7.3c-.7-.7-1.7-.7-1 .2l8.5 8c2.1 3.1 2.3 5.7.1 8-1.5 1.6-4.4 1.8-6.6 1.4l-8.9-7.7c-1.2-.7-1.5.5-.5 1.3l8.1 7.4c.5 1.8.1 3.8-1.2 4.7-1.2.8-2.8.4-4.2-.3l-10.8-7c-.5-.3-1-.1-.1.7l8.3 7c-.9 1.6-3 2.5-6.7 1.8zM34.6 51.7c2.2-1.7 8.3-.1 4.1 7.3-4.2 7.5-10.8-2.1-4.1-7.3zm-8-3.7c2.2-1.7 8.3-.1 4.1 7.3-4.2 7.4-10.8-2.2-4.1-7.3zm-9.3-3.8l6.2 5c-.5 3.6-9.6 4.5-6.2-5zm65-10.8L54.7 14.9c-1.8-.9-3.7-1.4-5.9-1.1l-7 2.2c-9.3 7.5-16 6.7-15.5 2.2l10.2-9.1c1.2-1 2.4-1.7 3.7-2.2L51.1 3c2.7-.7 5.4-.7 8-.4L79 6.2c3.5.8 5.9.3 7.5-.9 7 7.1 11.6 16.2 14.8 26.5L97 34.5l-7.1 7c-1.8-3.5-4.4-6-7.6-8.1zm-70 6.7L0 38.2c.5-13.3 4-24 10-32.4l10.2 3.3c-4.2 8.5-6.9 18.7-7.9 31zm76-35.9L97.1 0c7 7.1 12.1 17.2 15.4 30.4l-8.5 1.3c-3.4-10-8.3-19.3-15.7-27.5z"></path>
		</symbol>
	
		<symbol id="31-quality-control" viewBox="0 0 98 98">
			<title>93878B15-0AC9-4253-925C-6F5FFAA87310</title><path d="M42.1 97.5l-7-1.5-.6-6.1.1-.8c-2.1-.7-4.1-1.6-6-2.6l-.6.6-4.9 3.6-5.8-4.2 1.9-5.8.4-.7c-1.6-1.5-3.1-3.2-4.4-4.9l-.8.3-6 1.3-3.6-6.2L8.9 66l.6-.5c-.8-2-1.5-4.1-2-6.2h-.8L.7 58 0 50.8l5.6-2.5.8-.2c.1-2.2.3-4.4.7-6.4l-.7-.4-4.9-3.6 2.2-6.8h6.1l.8.1c1-2 2.1-3.9 3.3-5.7l-.6-.7-3-5.3 4.8-5.3 5.6 2.5.7.5c1.6-1.4 3.4-2.7 5.2-3.8l-.4-.7-.6-6 6.6-2.9 4.1 4.5.4.7c2-.6 4.1-1.1 6.3-1.3l.1-.8L45 .9h7.2l1.9 5.8.1.8c2.2.3 4.3.7 6.4 1.3l.4-.7 4.1-4.5 6.6 2.9-.6 5.5-9.2 9c-4-1.9-8.5-2.9-13.2-2.9-10.8 0-20.4 5.5-26 13.9L46 47.6 91.7 0l3.7 9.8-48.1 62.5-28.6-32.4c-.9 3-1.4 6.1-1.4 9.4 0 17.3 14 31.3 31.3 31.3s31.3-14 31.3-31.3c0-1.7-.1-3.5-.4-5.1l9.3-13.1h4.9l2.2 6.8-5 3.5-.7.3c.4 2.1.6 4.3.7 6.5l.8.2 5.6 2.5-.8 7.1-6 1.2h-.8c-.5 2.1-1.2 4.1-2 6l.6.5 4.1 4.5-3.6 6.2-6-1.3-.7-.3c-1.4 1.8-2.8 3.4-4.5 4.9l.4.7 1.9 5.8-5.8 4.2-4.9-3.6-.6-.3c-1.9 1-3.9 1.9-6 2.6l.1.8L62 96l-7 1.5-3-5.3-.2-.7c-1.1.1-2.1.1-3.2.1s-2.1 0-3.2-.1l-.3.8-3 5.2z"></path>
		</symbol>
	
		<symbol id="83-delivery-free-free" viewBox="0 0 121 72">
			<title>44716971-EECC-4BD3-8621-87E04224AA80</title><path d="M11.1 60.8c0-6 4.9-10.9 10.9-10.9s10.9 4.9 10.9 10.9c.1 6-4.8 10.9-10.9 10.9-6 0-10.9-4.9-10.9-10.9zm79.4 0c0-6 4.9-10.9 10.9-10.9s10.9 4.9 10.9 10.9-4.9 10.9-10.9 10.9-10.9-4.9-10.9-10.9zm-30.9 3.8V52.5c0-1.2 1-2.1 2.1-2.1h18.5c1.2 0 2.1 1 2.1 2.1v12.1c0 1.2-1 2.1-2.1 2.1H61.7c-1.2 0-2.1-.9-2.1-2.1zm-31.8-3.8c0-3.2-2.6-5.7-5.7-5.7-3.2 0-5.7 2.6-5.7 5.7 0 3.2 2.6 5.7 5.7 5.7s5.7-2.6 5.7-5.7zm79.3 0c0-3.2-2.6-5.7-5.7-5.7-3.2 0-5.7 2.6-5.7 5.7 0 3.2 2.6 5.7 5.7 5.7 3.2 0 5.7-2.6 5.7-5.7zm-71.7 0c0-7.4-6-13.3-13.3-13.3-7.4 0-13.3 6-13.3 13.3H5.2c0-9.3 7.5-16.9 16.9-16.9 3.3 0 6.3.9 8.9 2.5h61.3c2.7-1.6 6-2.5 9.2-2.5 6.1 0 11.5 3.3 14.5 8.2h4.1v12.1h-5.7c.3-1.1.5-2.3.5-3.4 0-6.9-4.3-13.3-13.3-13.3-7.3 0-13.3 6-13.3 13.3 0 1.2.2 2.3.5 3.4h-4.2v-13c0-1.4-1.1-2.5-2.5-2.5h-22c-1.4 0-2.5 1.1-2.5 2.5v5.1H38.3c.4 1.4.6 2.9.6 4.4h18.7v3.5H34.9c.3-1.1.5-2.2.5-3.4zm81.5-13.6l-7-5.7H92.1V5.2c12 1.8 24.3 3.6 26.8 7.2l.1 1.9h-4.4l1.3 14.3h.1c2.3.9 3.8 2.3 3.8 5v13.6h-2.9zM0 43.8V0h89.4v43.8h-60c-2.3-1-4.8-1.6-7.4-1.6-2.6 0-5.2.6-7.4 1.6H0zm16.3-11.6v-8.4h8.2v-3.9h-8.2V15h9v-3.9H11.2v21.1h5.1zm16.3 0v-7.5h2.8l3.7 7.5h5.5V32l-4.4-8.5c1.3-.6 2.2-1.4 2.8-2.4.6-1 .9-2.2.9-3.7 0-2-.7-3.6-2.1-4.7-1.4-1.1-3.4-1.7-5.9-1.7h-8.3v21.2h5zm28.8 0v-3.9h-9.5v-5h8v-3.8h-8V15h9.5v-3.9H46.9v21.1h14.5zm16.6 0v-3.9h-9.5v-5h8v-3.8h-8V15H78v-3.9H63.5v21.1H78zm34.6-4l-1.1-14H95.3V24c0 1.6.4 2 1.8 2.2l15.5 2zm-80-7.4V15h3.2c1 0 1.7.3 2.2.8.5.5.7 1.2.7 2.1 0 .9-.2 1.6-.7 2.1-.5.5-1.2.8-2.2.8h-3.2z"></path>
		</symbol>
	
		<symbol id="cart-red" viewBox="0 0 30 30">
			<title>540941E4-EF74-4678-8ACA-9358F8481D29</title><path d="M0 15C0 6.725 6.725 0 15 0s15 6.725 15 15-6.725 15-15 15S0 23.275 0 15zm28.825 0c0-7.625-6.2-13.825-13.825-13.825-7.625 0-13.825 6.2-13.825 13.825 0 7.625 6.2 13.825 13.825 13.825 7.625 0 13.825-6.2 13.825-13.825zm-19.85 7.5c0-1.1.9-1.975 1.975-1.975 1.1 0 1.975.9 1.975 1.975 0 1.1-.9 1.975-1.975 1.975-1.1.025-1.975-.875-1.975-1.975zm11.925 0c0-1.1.9-1.975 1.975-1.975 1.1 0 1.975.9 1.975 1.975 0 1.1-.9 1.975-1.975 1.975C21.8 24.5 20.9 23.6 20.9 22.5zm-8.725 0c0-.675-.55-1.225-1.225-1.225s-1.225.55-1.225 1.225.55 1.225 1.225 1.225 1.225-.55 1.225-1.225zm11.925 0c0-.675-.55-1.225-1.225-1.225s-1.225.55-1.225 1.225.55 1.225 1.225 1.225c.7 0 1.225-.55 1.225-1.225zm-10.95-.775l7.475.325c-.05.225-.05.55 0 .8H13.25c.05-.6-.025-.875-.1-1.125zM11.3 20.3l.8-1.325L6.7 9.75l-1.607-.424a.395.395 0 0 1-.3-.475.395.395 0 0 1 .475-.3l1.782.474c.1.025.2.1.25.175l1.175 1.85 18.075 1.475L26.325 16l-2.375 2.65-10.6.625-1.025 1.475a2.145 2.145 0 0 0-1.025-.45zm2.425-2.425l-1.15-2.375-1.35-.05 1.525 2.425h.975zm2.175 0l-.725-2.275-1.875-.075 1.125 2.35H15.9zm2.175 0l-.3-2.175-1.9-.075.725 2.25h1.475zm2.2 0l.1-2.075-1.9-.075.3 2.15h1.5zm2.2 0L23 15.9l-1.925-.075-.1 2.05h1.5zm1.275 0l1.7-1.9-1.75-.05-.525 1.95h.575zm1.875-2.425l.15-2.425-1.275-.1-.65 2.475 1.775.05zm-2.475-.075l.675-2.5-2.575-.225-.125 2.65 2.025.075zm-2.75-.1l.15-2.675-2.55-.225.4 2.825 2 .075zm-2.7-.1l-.4-2.85-2.55-.225.95 3 2 .075zm-2.7-.1l-.975-3.025-2.525-.225L13.025 15l1.975.075zm-2.675-.1l-1.55-3.2L8.8 11.6l2.075 3.325 1.45.05z"></path>
		</symbol>
	
		<symbol id="checkout-gray" viewBox="0 0 50 50">
			<title>4CA3921F-9C99-43FE-835F-F23963B27A7B</title><path d="M0 25C0 11.208 11.208 0 25 0s25 11.208 25 25-11.208 25-25 25S0 38.792 0 25zm48.042 0C48.042 12.292 37.708 1.958 25 1.958 12.292 1.958 1.958 12.292 1.958 25c0 12.708 10.334 23.042 23.042 23.042 12.708 0 23.042-10.334 23.042-23.042zM9.833 37.333V17.625c0-1.917 1.542-3.5 3.5-3.5h17.875c.459 0 .875.083 1.25.25l-.5.833a2.36 2.36 0 0 0-.75-.125H13.292a2.525 2.525 0 0 0-2.542 2.542v19.708a2.525 2.525 0 0 0 2.542 2.542h17.875a2.525 2.525 0 0 0 2.541-2.542v-15l.959-1.5v16.5c0 1.917-1.584 3.5-3.5 3.5H13.292c-1.917 0-3.459-1.583-3.459-3.5zm3.042.334v-.75h9.875v.75h-9.875zm0-2.709v-.75h9.875v.75h-9.875zm10.917-1.166l.25-3.834 11.166-19.375c1.125.834 2.292 1.5 3.417 2L27.5 31.958l-3.167 2.125c-.333.209-.541.125-.541-.291zm1.083-.709L27 31.667a4.194 4.194 0 0 0-1.333-.459c-.25-.416-.625-.708-1.042-.958l-.167 2.583c.125.084.25.167.417.25zm-12-.875v-.75h9.875v.75h-9.875zm13.042-1.375L36.5 12.542l-.25-.125-10.5 18.25.167.166zM12.875 29.5v-.75h9.875v.75h-9.875zm0-2.708v-.75h9.875v.75h-9.875zm0-2.75v-.75h9.875v.75h-9.875zm0-2.709v-.75h9.875v.75h-9.875zm0-2.708v-.75h9.875v.75h-9.875zm22.542-8.25a.672.672 0 0 1 .166-.292 17.474 17.474 0 0 0 3.417 2 .672.672 0 0 1-.167.292 17.474 17.474 0 0 1-3.416-2zm.25-.458a.672.672 0 0 1 .166-.292 16.646 16.646 0 0 0 3.459 2 .672.672 0 0 1-.167.292 17.798 17.798 0 0 1-3.458-2zm.25-.5c.041-.125.75-1.334.833-1.417 1.25.333 2.375 1.042 3.417 2-.042.125-.75 1.333-.834 1.417a15.9 15.9 0 0 1-3.416-2z"></path>
		</symbol>
	
		<symbol id="close-gray-cross" viewBox="0 0 14 14">
			<title>1A248BBD-675A-437C-B446-DFAA8BDEB0D4</title><path d="M1.439 0L0 1.439 5.561 7 0 12.561 1.439 14 7 8.439 12.561 14 14 12.561 8.439 7 14 1.439 12.561 0 7 5.561z"></path>
		</symbol>
	
		<symbol id="delivery-gray" viewBox="0 0 50 50">
			<title>78EBD467-C7D3-4787-AF7A-A1D82796204D</title><path d="M0 25C0 11.208 11.208 0 25 0s25 11.208 25 25-11.208 25-25 25S0 38.792 0 25zm48.042 0C48.042 12.292 37.708 1.958 25 1.958 12.292 1.958 1.958 12.292 1.958 25c0 12.708 10.334 23.042 23.042 23.042 12.708 0 23.042-10.334 23.042-23.042zm-37.834 9.25c0-1.833 1.5-3.333 3.334-3.333 1.833 0 3.333 1.5 3.333 3.333 0 1.833-1.5 3.333-3.333 3.333a3.343 3.343 0 0 1-3.334-3.333zm24.167 0c0-1.833 1.5-3.333 3.333-3.333 1.834 0 3.334 1.5 3.334 3.333 0 1.833-1.5 3.333-3.334 3.333a3.343 3.343 0 0 1-3.333-3.333zm-9.417 1.167V31.75c0-.375.292-.667.667-.667h5.625c.375 0 .667.292.667.667v3.667a.658.658 0 0 1-.667.666h-5.625a.658.658 0 0 1-.667-.666zm-9.666-1.167a1.76 1.76 0 0 0-1.75-1.75 1.76 1.76 0 0 0-1.75 1.75c0 .958.791 1.75 1.75 1.75a1.76 1.76 0 0 0 1.75-1.75zm24.166 0a1.76 1.76 0 0 0-1.75-1.75 1.76 1.76 0 0 0-1.75 1.75c0 .958.792 1.75 1.75 1.75a1.76 1.76 0 0 0 1.75-1.75zm-21.833 0a4.045 4.045 0 0 0-4.042-4.042 4.045 4.045 0 0 0-4.041 4.042H8.458a5.121 5.121 0 0 1 5.125-5.125c1 0 1.917.292 2.709.792h18.666a5.545 5.545 0 0 1 2.792-.792c1.875 0 3.5 1 4.417 2.5h1.25v3.708h-1.75c.083-.333.125-.666.125-1.041 0-2.084-1.334-4.042-4.042-4.042a4.045 4.045 0 0 0-4.042 4.042c0 .375.042.708.125 1.041h-1.291v-3.958a.747.747 0 0 0-.75-.75h-6.667a.747.747 0 0 0-.75.75v1.542H18.5c.125.416.167.875.167 1.333h5.666v1.042h-6.875c.084-.334.167-.667.167-1.042zm24.792-4.125l-2.125-1.75h-5.417V17.333c3.667.542 7.375 1.125 8.167 2.209l.041.583H41.75l.375 4.333h.042c.708.25 1.166.709 1.166 1.542v4.167h-.916v-.042zm-35.792-.833v-13.75h27.667v13.75H15.708a5.46 5.46 0 0 0-2.166-.459c-.792 0-1.5.167-2.167.459h-4.75zm26.292-.375V16.375H7.583v12.542h3.625l.5-.209c.584-.166 1.167-.291 1.792-.291s1.208.083 1.792.291l.5.209h17.125zm-20.625-1.292l1.666-1.5 5.5-1.958-.625 1.125-6.541 2.333zm10.916-.792l-2.833-2.041 3.333-1.167-.5 3.208zm17.917-2.5l-.333-4.25h-4.917v3c0 .459.125.584.542.667l4.708.583zM19.5 24.167L14 20.25h4.042l3.416 2.417 7.042-2.459h2.125L19.5 24.167zm1.5-2.625l-1.167-.834 2.375-2.166.625-.25L21 21.542zm1.333-.625l1.5-2.917.792-.25-.375 2.5-1.917.667z"></path>
		</symbol>
	
		<symbol id="items-count-drop" viewBox="0 0 13 8">
			<title>A7C75A56-54A0-4EC6-9701-D5F3BB8DCB3F</title><path d="M6.5 7.513L0 1.253 1.3 0l5.2 5.009L11.7 0 13 1.252z"></path>
		</symbol>
	
		<symbol id="payment-gray" viewBox="0 0 50 50">
			<title>56020716-3EDC-45BE-9986-05791A1A8DAC</title><path d="M0 25C0 11.208 11.208 0 25 0s25 11.208 25 25-11.208 25-25 25S0 38.792 0 25zm48.042 0C48.042 12.292 37.708 1.958 25 1.958 12.292 1.958 1.958 12.292 1.958 25c0 12.708 10.334 23.042 23.042 23.042 12.708 0 23.042-10.334 23.042-23.042zM16.167 38.875c-.5-.208-.917-.5-1.209-.833-.333-.334-.541-.75-.541-1.25V35.75c-.875.333-1.917.5-3.084.5-1.416 0-2.708-.25-3.666-.708-.5-.209-.917-.5-1.209-.834-.333-.333-.541-.75-.541-1.25v-1.041c0-.959.791-1.625 1.75-2.042.958-.417 2.291-.708 3.666-.708 1.417 0 2.709.25 3.667.708.958.417 1.75 1.083 1.75 2.042v1.041c.875-.291 1.958-.458 3.083-.458 1.417 0 2.709.25 3.667.708.958.417 1.75 1.084 1.75 2.042v1.042c0 .5-.208.916-.542 1.25-.291.333-.75.625-1.208.833-.958.417-2.292.708-3.667.708s-2.666-.291-3.666-.708zm6.916-2.042c.834-.375 1.125-.791 1.125-1.041 0-.25-.25-.667-1.125-1.042-.791-.375-1.958-.583-3.25-.583-1.291 0-2.416.25-3.25.583-.833.375-1.125.792-1.125 1.042s.25.666 1.125 1.041c.792.375 1.959.584 3.25.584 1.334 0 2.459-.209 3.25-.584zm12.709-.375l-9.584-5.541h-6.083c-1 0-1.792-.792-1.792-1.792v-2.75l-1.208-.708c-.833-.5-1.125-1.584-.667-2.417l1.834-3.208v-3.5c0-1 .791-1.792 1.791-1.792h1.25l1.375-2.417c.5-.833 1.584-1.125 2.417-.666l5.292 3.083h11.125c1 0 1.791.792 1.791 1.792v5.666l.417.25c.833.5 1.125 1.584.667 2.417l-1.084 1.875v2.333c0 1-.791 1.792-1.791 1.792h-.625l-2.667 4.958a1.808 1.808 0 0 1-2.458.625zM14.583 33.5c.834-.375 1.125-.792 1.125-1.042s-.25-.666-1.125-1.041c-.791-.375-1.958-.584-3.25-.584-1.291 0-2.416.25-3.25.584-.833.375-1.125.791-1.125 1.041 0 .25.25.667 1.125 1.042.792.375 1.959.583 3.25.583 1.292 0 2.417-.208 3.25-.583zm28.25-4.333V16.625c0-.625-.541-1.167-1.166-1.167h-21.5c-.625 0-1.167.542-1.167 1.167v12.542c0 .625.542 1.166 1.167 1.166h21.5c.625 0 1.166-.541 1.166-1.166zm-.583-.5H19.542c-.125 0-.209-.084-.209-.209v-1.541c0-.125.084-.209.209-.209H42.25c.125 0 .208.084.208.209v1.541c0 .125-.083.209-.208.209z"></path>
		</symbol>
	
		<symbol id="season-snow" viewBox="0 0 36 40">
			<title>39A242C5-2308-4AF4-B153-125A4F8945D4</title><path d="M33.925 15.067l-3.722-.734 4.144-2.389c.345-.188.567-.477.656-.855.1-.378.056-.745-.144-1.078-.212-.344-.5-.567-.867-.655a1.363 1.363 0 0 0-1.078.144l-4.144 2.367L29.992 8.3c.189-.567.1-1.033-.267-1.422-.378-.378-.822-.534-1.344-.456-.534.078-.89.39-1.09.934l-2.277 6.7-6.044 3.477v-7l4.644-5.31c.233-.267.367-.556.378-.867a1.142 1.142 0 0 0-.245-.812 2.008 2.008 0 0 0-.633-.555c-.244-.145-.522-.178-.822-.122a1.452 1.452 0 0 0-.811.489l-2.5 2.855V1.433c0-.389-.145-.722-.422-1.01-.29-.279-.623-.423-1-.423a1.37 1.37 0 0 0-1 .422 1.351 1.351 0 0 0-.423 1.011v4.778l-2.5-2.855c-.233-.267-.51-.434-.81-.49-.3-.055-.579-.022-.823.123a2.025 2.025 0 0 0-.633.555c-.178.234-.256.5-.245.812.011.31.145.6.378.866l4.611 5.311v6.978l-6.044-3.478-2.29-6.689c-.188-.555-.555-.866-1.077-.933a1.476 1.476 0 0 0-1.344.456c-.378.389-.467.855-.267 1.422l1.233 3.567L2.16 9.489c-.345-.2-.7-.245-1.078-.145-.367.1-.656.312-.856.656a1.41 1.41 0 0 0-.144 1.078c.1.378.31.666.655.855l4.145 2.4-3.734.734c-.433.089-.744.31-.933.644-.189.345-.255.689-.189 1.033.067.356.256.645.567.9.311.245.689.323 1.111.234L8.625 16.5l6.056 3.5-6.056 3.5-6.922-1.389a1.58 1.58 0 0 0-.289-.022c-.4 0-.733.133-.978.4a1.478 1.478 0 0 0-.422.889c-.033.322.056.644.245.955.188.323.488.511.888.59l3.734.733-4.156 2.4a1.278 1.278 0 0 0-.655.855c-.1.378-.045.733.144 1.089.189.344.478.567.867.667.389.1.744.044 1.078-.156l4.155-2.367-1.233 3.567c-.19.567-.1 1.033.266 1.411.367.378.823.534 1.345.456.533-.078.889-.39 1.078-.934l2.277-6.7 6.045-3.477v6.989l-4.622 5.322c-.234.266-.367.555-.378.866-.011.312.067.59.244.812.178.222.39.422.634.555.244.145.522.178.822.122.311-.055.578-.222.811-.489l2.5-2.855v4.778c0 .389.144.722.422 1.01.278.29.622.423 1 .423a1.37 1.37 0 0 0 1-.422c.278-.278.422-.622.422-1.011v-4.778l2.5 2.855c.234.278.512.434.812.49.31.055.577.022.822-.123.244-.144.455-.333.633-.555.178-.234.267-.5.245-.812-.012-.31-.134-.6-.378-.866l-4.645-5.311v-6.99l6.045 3.479 2.278 6.7c.2.555.555.866 1.088.933.523.078.978-.078 1.345-.456.367-.377.455-.855.267-1.41l-1.223-3.567 4.145 2.366c.344.19.7.234 1.078.145.366-.1.666-.323.866-.656.2-.344.245-.7.145-1.089a1.311 1.311 0 0 0-.656-.855l-4.122-2.4 3.722-.734c.4-.077.7-.266.9-.589a1.6 1.6 0 0 0 .245-.955c-.034-.333-.178-.622-.423-.889-.255-.267-.577-.4-.977-.4a1.58 1.58 0 0 0-.29.022L26.448 23.5 20.392 20l6.044-3.5 6.923 1.378c.433.089.8.022 1.122-.234.31-.244.5-.544.566-.9.067-.344 0-.688-.188-1.033-.19-.333-.512-.555-.934-.644z"></path>
		</symbol>
	
		<symbol id="triangle-red-back" viewBox="0 0 8 16">
			<title>2B753824-C1E3-4E56-A33A-230F67CBFA89</title><path d="M8 0L0 8l8 8z"></path>
		</symbol>
	
</svg>
