<svg xmlns="http://www.w3.org/2000/svg" xmlns:xlink="http://www.w3.org/1999/xlink" width="0" height="0" style="position:absolute">
	
		
	
	
	
	
	<!-- 	<symbol id="83-delivery-free-free" viewBox="0 0 121 72">
			<title>44716971-EECC-4BD3-8621-87E04224AA80</title><path d="M11.1 60.8c0-6 4.9-10.9 10.9-10.9s10.9 4.9 10.9 10.9c.1 6-4.8 10.9-10.9 10.9-6 0-10.9-4.9-10.9-10.9zm79.4 0c0-6 4.9-10.9 10.9-10.9s10.9 4.9 10.9 10.9-4.9 10.9-10.9 10.9-10.9-4.9-10.9-10.9zm-30.9 3.8V52.5c0-1.2 1-2.1 2.1-2.1h18.5c1.2 0 2.1 1 2.1 2.1v12.1c0 1.2-1 2.1-2.1 2.1H61.7c-1.2 0-2.1-.9-2.1-2.1zm-31.8-3.8c0-3.2-2.6-5.7-5.7-5.7-3.2 0-5.7 2.6-5.7 5.7 0 3.2 2.6 5.7 5.7 5.7s5.7-2.6 5.7-5.7zm79.3 0c0-3.2-2.6-5.7-5.7-5.7-3.2 0-5.7 2.6-5.7 5.7 0 3.2 2.6 5.7 5.7 5.7 3.2 0 5.7-2.6 5.7-5.7zm-71.7 0c0-7.4-6-13.3-13.3-13.3-7.4 0-13.3 6-13.3 13.3H5.2c0-9.3 7.5-16.9 16.9-16.9 3.3 0 6.3.9 8.9 2.5h61.3c2.7-1.6 6-2.5 9.2-2.5 6.1 0 11.5 3.3 14.5 8.2h4.1v12.1h-5.7c.3-1.1.5-2.3.5-3.4 0-6.9-4.3-13.3-13.3-13.3-7.3 0-13.3 6-13.3 13.3 0 1.2.2 2.3.5 3.4h-4.2v-13c0-1.4-1.1-2.5-2.5-2.5h-22c-1.4 0-2.5 1.1-2.5 2.5v5.1H38.3c.4 1.4.6 2.9.6 4.4h18.7v3.5H34.9c.3-1.1.5-2.2.5-3.4zm81.5-13.6l-7-5.7H92.1V5.2c12 1.8 24.3 3.6 26.8 7.2l.1 1.9h-4.4l1.3 14.3h.1c2.3.9 3.8 2.3 3.8 5v13.6h-2.9zM0 43.8V0h89.4v43.8h-60c-2.3-1-4.8-1.6-7.4-1.6-2.6 0-5.2.6-7.4 1.6H0zm16.3-11.6v-8.4h8.2v-3.9h-8.2V15h9v-3.9H11.2v21.1h5.1zm16.3 0v-7.5h2.8l3.7 7.5h5.5V32l-4.4-8.5c1.3-.6 2.2-1.4 2.8-2.4.6-1 .9-2.2.9-3.7 0-2-.7-3.6-2.1-4.7-1.4-1.1-3.4-1.7-5.9-1.7h-8.3v21.2h5zm28.8 0v-3.9h-9.5v-5h8v-3.8h-8V15h9.5v-3.9H46.9v21.1h14.5zm16.6 0v-3.9h-9.5v-5h8v-3.8h-8V15H78v-3.9H63.5v21.1H78zm34.6-4l-1.1-14H95.3V24c0 1.6.4 2 1.8 2.2l15.5 2zm-80-7.4V15h3.2c1 0 1.7.3 2.2.8.5.5.7 1.2.7 2.1 0 .9-.2 1.6-.7 2.1-.5.5-1.2.8-2.2.8h-3.2z"></path>
		</symbol> -->
	
		<symbol id="cart-red" viewBox="0 0 30 30">
			<title>540941E4-EF74-4678-8ACA-9358F8481D29</title><path d="M0 15C0 6.725 6.725 0 15 0s15 6.725 15 15-6.725 15-15 15S0 23.275 0 15zm28.825 0c0-7.625-6.2-13.825-13.825-13.825-7.625 0-13.825 6.2-13.825 13.825 0 7.625 6.2 13.825 13.825 13.825 7.625 0 13.825-6.2 13.825-13.825zm-19.85 7.5c0-1.1.9-1.975 1.975-1.975 1.1 0 1.975.9 1.975 1.975 0 1.1-.9 1.975-1.975 1.975-1.1.025-1.975-.875-1.975-1.975zm11.925 0c0-1.1.9-1.975 1.975-1.975 1.1 0 1.975.9 1.975 1.975 0 1.1-.9 1.975-1.975 1.975C21.8 24.5 20.9 23.6 20.9 22.5zm-8.725 0c0-.675-.55-1.225-1.225-1.225s-1.225.55-1.225 1.225.55 1.225 1.225 1.225 1.225-.55 1.225-1.225zm11.925 0c0-.675-.55-1.225-1.225-1.225s-1.225.55-1.225 1.225.55 1.225 1.225 1.225c.7 0 1.225-.55 1.225-1.225zm-10.95-.775l7.475.325c-.05.225-.05.55 0 .8H13.25c.05-.6-.025-.875-.1-1.125zM11.3 20.3l.8-1.325L6.7 9.75l-1.607-.424a.395.395 0 0 1-.3-.475.395.395 0 0 1 .475-.3l1.782.474c.1.025.2.1.25.175l1.175 1.85 18.075 1.475L26.325 16l-2.375 2.65-10.6.625-1.025 1.475a2.145 2.145 0 0 0-1.025-.45zm2.425-2.425l-1.15-2.375-1.35-.05 1.525 2.425h.975zm2.175 0l-.725-2.275-1.875-.075 1.125 2.35H15.9zm2.175 0l-.3-2.175-1.9-.075.725 2.25h1.475zm2.2 0l.1-2.075-1.9-.075.3 2.15h1.5zm2.2 0L23 15.9l-1.925-.075-.1 2.05h1.5zm1.275 0l1.7-1.9-1.75-.05-.525 1.95h.575zm1.875-2.425l.15-2.425-1.275-.1-.65 2.475 1.775.05zm-2.475-.075l.675-2.5-2.575-.225-.125 2.65 2.025.075zm-2.75-.1l.15-2.675-2.55-.225.4 2.825 2 .075zm-2.7-.1l-.4-2.85-2.55-.225.95 3 2 .075zm-2.7-.1l-.975-3.025-2.525-.225L13.025 15l1.975.075zm-2.675-.1l-1.55-3.2L8.8 11.6l2.075 3.325 1.45.05z"></path>
		</symbol>
	
		<symbol id="checkout-gray" viewBox="0 0 50 50">
			<title>4CA3921F-9C99-43FE-835F-F23963B27A7B</title><path d="M0 25C0 11.208 11.208 0 25 0s25 11.208 25 25-11.208 25-25 25S0 38.792 0 25zm48.042 0C48.042 12.292 37.708 1.958 25 1.958 12.292 1.958 1.958 12.292 1.958 25c0 12.708 10.334 23.042 23.042 23.042 12.708 0 23.042-10.334 23.042-23.042zM9.833 37.333V17.625c0-1.917 1.542-3.5 3.5-3.5h17.875c.459 0 .875.083 1.25.25l-.5.833a2.36 2.36 0 0 0-.75-.125H13.292a2.525 2.525 0 0 0-2.542 2.542v19.708a2.525 2.525 0 0 0 2.542 2.542h17.875a2.525 2.525 0 0 0 2.541-2.542v-15l.959-1.5v16.5c0 1.917-1.584 3.5-3.5 3.5H13.292c-1.917 0-3.459-1.583-3.459-3.5zm3.042.334v-.75h9.875v.75h-9.875zm0-2.709v-.75h9.875v.75h-9.875zm10.917-1.166l.25-3.834 11.166-19.375c1.125.834 2.292 1.5 3.417 2L27.5 31.958l-3.167 2.125c-.333.209-.541.125-.541-.291zm1.083-.709L27 31.667a4.194 4.194 0 0 0-1.333-.459c-.25-.416-.625-.708-1.042-.958l-.167 2.583c.125.084.25.167.417.25zm-12-.875v-.75h9.875v.75h-9.875zm13.042-1.375L36.5 12.542l-.25-.125-10.5 18.25.167.166zM12.875 29.5v-.75h9.875v.75h-9.875zm0-2.708v-.75h9.875v.75h-9.875zm0-2.75v-.75h9.875v.75h-9.875zm0-2.709v-.75h9.875v.75h-9.875zm0-2.708v-.75h9.875v.75h-9.875zm22.542-8.25a.672.672 0 0 1 .166-.292 17.474 17.474 0 0 0 3.417 2 .672.672 0 0 1-.167.292 17.474 17.474 0 0 1-3.416-2zm.25-.458a.672.672 0 0 1 .166-.292 16.646 16.646 0 0 0 3.459 2 .672.672 0 0 1-.167.292 17.798 17.798 0 0 1-3.458-2zm.25-.5c.041-.125.75-1.334.833-1.417 1.25.333 2.375 1.042 3.417 2-.042.125-.75 1.333-.834 1.417a15.9 15.9 0 0 1-3.416-2z"></path>
		</symbol>
	
	
		<symbol id="delivery-gray" viewBox="0 0 50 50">
			<title>78EBD467-C7D3-4787-AF7A-A1D82796204D</title><path d="M0 25C0 11.208 11.208 0 25 0s25 11.208 25 25-11.208 25-25 25S0 38.792 0 25zm48.042 0C48.042 12.292 37.708 1.958 25 1.958 12.292 1.958 1.958 12.292 1.958 25c0 12.708 10.334 23.042 23.042 23.042 12.708 0 23.042-10.334 23.042-23.042zm-37.834 9.25c0-1.833 1.5-3.333 3.334-3.333 1.833 0 3.333 1.5 3.333 3.333 0 1.833-1.5 3.333-3.333 3.333a3.343 3.343 0 0 1-3.334-3.333zm24.167 0c0-1.833 1.5-3.333 3.333-3.333 1.834 0 3.334 1.5 3.334 3.333 0 1.833-1.5 3.333-3.334 3.333a3.343 3.343 0 0 1-3.333-3.333zm-9.417 1.167V31.75c0-.375.292-.667.667-.667h5.625c.375 0 .667.292.667.667v3.667a.658.658 0 0 1-.667.666h-5.625a.658.658 0 0 1-.667-.666zm-9.666-1.167a1.76 1.76 0 0 0-1.75-1.75 1.76 1.76 0 0 0-1.75 1.75c0 .958.791 1.75 1.75 1.75a1.76 1.76 0 0 0 1.75-1.75zm24.166 0a1.76 1.76 0 0 0-1.75-1.75 1.76 1.76 0 0 0-1.75 1.75c0 .958.792 1.75 1.75 1.75a1.76 1.76 0 0 0 1.75-1.75zm-21.833 0a4.045 4.045 0 0 0-4.042-4.042 4.045 4.045 0 0 0-4.041 4.042H8.458a5.121 5.121 0 0 1 5.125-5.125c1 0 1.917.292 2.709.792h18.666a5.545 5.545 0 0 1 2.792-.792c1.875 0 3.5 1 4.417 2.5h1.25v3.708h-1.75c.083-.333.125-.666.125-1.041 0-2.084-1.334-4.042-4.042-4.042a4.045 4.045 0 0 0-4.042 4.042c0 .375.042.708.125 1.041h-1.291v-3.958a.747.747 0 0 0-.75-.75h-6.667a.747.747 0 0 0-.75.75v1.542H18.5c.125.416.167.875.167 1.333h5.666v1.042h-6.875c.084-.334.167-.667.167-1.042zm24.792-4.125l-2.125-1.75h-5.417V17.333c3.667.542 7.375 1.125 8.167 2.209l.041.583H41.75l.375 4.333h.042c.708.25 1.166.709 1.166 1.542v4.167h-.916v-.042zm-35.792-.833v-13.75h27.667v13.75H15.708a5.46 5.46 0 0 0-2.166-.459c-.792 0-1.5.167-2.167.459h-4.75zm26.292-.375V16.375H7.583v12.542h3.625l.5-.209c.584-.166 1.167-.291 1.792-.291s1.208.083 1.792.291l.5.209h17.125zm-20.625-1.292l1.666-1.5 5.5-1.958-.625 1.125-6.541 2.333zm10.916-.792l-2.833-2.041 3.333-1.167-.5 3.208zm17.917-2.5l-.333-4.25h-4.917v3c0 .459.125.584.542.667l4.708.583zM19.5 24.167L14 20.25h4.042l3.416 2.417 7.042-2.459h2.125L19.5 24.167zm1.5-2.625l-1.167-.834 2.375-2.166.625-.25L21 21.542zm1.333-.625l1.5-2.917.792-.25-.375 2.5-1.917.667z"></path>
		</symbol>
	
		<symbol id="items-count-drop" viewBox="0 0 13 8">
			<title>A7C75A56-54A0-4EC6-9701-D5F3BB8DCB3F</title><path d="M6.5 7.513L0 1.253 1.3 0l5.2 5.009L11.7 0 13 1.252z"></path>
		</symbol>
	
		<symbol id="payment-gray" viewBox="0 0 50 50">
			<title>56020716-3EDC-45BE-9986-05791A1A8DAC</title><path d="M0 25C0 11.208 11.208 0 25 0s25 11.208 25 25-11.208 25-25 25S0 38.792 0 25zm48.042 0C48.042 12.292 37.708 1.958 25 1.958 12.292 1.958 1.958 12.292 1.958 25c0 12.708 10.334 23.042 23.042 23.042 12.708 0 23.042-10.334 23.042-23.042zM16.167 38.875c-.5-.208-.917-.5-1.209-.833-.333-.334-.541-.75-.541-1.25V35.75c-.875.333-1.917.5-3.084.5-1.416 0-2.708-.25-3.666-.708-.5-.209-.917-.5-1.209-.834-.333-.333-.541-.75-.541-1.25v-1.041c0-.959.791-1.625 1.75-2.042.958-.417 2.291-.708 3.666-.708 1.417 0 2.709.25 3.667.708.958.417 1.75 1.083 1.75 2.042v1.041c.875-.291 1.958-.458 3.083-.458 1.417 0 2.709.25 3.667.708.958.417 1.75 1.084 1.75 2.042v1.042c0 .5-.208.916-.542 1.25-.291.333-.75.625-1.208.833-.958.417-2.292.708-3.667.708s-2.666-.291-3.666-.708zm6.916-2.042c.834-.375 1.125-.791 1.125-1.041 0-.25-.25-.667-1.125-1.042-.791-.375-1.958-.583-3.25-.583-1.291 0-2.416.25-3.25.583-.833.375-1.125.792-1.125 1.042s.25.666 1.125 1.041c.792.375 1.959.584 3.25.584 1.334 0 2.459-.209 3.25-.584zm12.709-.375l-9.584-5.541h-6.083c-1 0-1.792-.792-1.792-1.792v-2.75l-1.208-.708c-.833-.5-1.125-1.584-.667-2.417l1.834-3.208v-3.5c0-1 .791-1.792 1.791-1.792h1.25l1.375-2.417c.5-.833 1.584-1.125 2.417-.666l5.292 3.083h11.125c1 0 1.791.792 1.791 1.792v5.666l.417.25c.833.5 1.125 1.584.667 2.417l-1.084 1.875v2.333c0 1-.791 1.792-1.791 1.792h-.625l-2.667 4.958a1.808 1.808 0 0 1-2.458.625zM14.583 33.5c.834-.375 1.125-.792 1.125-1.042s-.25-.666-1.125-1.041c-.791-.375-1.958-.584-3.25-.584-1.291 0-2.416.25-3.25.584-.833.375-1.125.791-1.125 1.041 0 .25.25.667 1.125 1.042.792.375 1.959.583 3.25.583 1.292 0 2.417-.208 3.25-.583zm28.25-4.333V16.625c0-.625-.541-1.167-1.166-1.167h-21.5c-.625 0-1.167.542-1.167 1.167v12.542c0 .625.542 1.166 1.167 1.166h21.5c.625 0 1.166-.541 1.166-1.166zm-.583-.5H19.542c-.125 0-.209-.084-.209-.209v-1.541c0-.125.084-.209.209-.209H42.25c.125 0 .208.084.208.209v1.541c0 .125-.083.209-.208.209z"></path>
		</symbol>
</svg>
